<svg width="260" height="152" viewBox="0 0 260 152" fill="none" xmlns="http://www.w3.org/2000/svg">
<g clip-path="url(#clip0_46_125)">
<path d="M126.035 14.1317C125.933 19.2832 118.48 26.7622 113.271 26.9328C112.395 26.9902 111.518 26.8293 110.72 26.4649C109.923 26.1005 109.229 25.544 108.703 24.8459C106.04 21.4439 103.596 17.8983 101.839 13.9494C99.7887 9.32933 100.898 5.88854 105.435 2.2344C109.132 -0.740898 111.549 -0.744777 115.934 2.18009C119.011 4.23215 121.681 6.74195 124.227 9.39528C124.838 10.0201 125.314 10.7627 125.625 11.5774C125.936 12.392 126.076 13.2614 126.035 14.1317Z" fill="#465A63"/>
<path d="M21.2409 12.867C21.4478 28.6279 25.6725 43.5703 30.8968 58.2839C34.7116 69.033 39.725 79.2002 46.8001 88.2696C49.0725 91.179 51.6573 93.7586 54.8825 95.6749C56.7801 96.8037 57.9553 96.7222 58.787 94.3637C62.0434 85.143 63.3124 75.5305 64.6438 65.9297C64.7484 64.9243 64.6542 63.9083 64.3666 62.9389C63 57.9425 64.6985 53.7725 67.7987 49.9554C70.5319 46.565 73.7219 43.6596 77.767 41.8596C82.2026 39.889 83.9479 40.8278 84.9983 45.4944C87.5127 56.4164 91.4188 66.9752 96.6221 76.9154C108.988 100.803 120.756 103.809 121.693 103.817C124.235 103.84 125.598 96.6408 126.074 94.7943C127.065 90.9507 127.68 87.021 127.909 83.0599C128.046 80.8993 126.843 79.014 126.164 77.0356C124.442 71.9928 122.587 67.0352 124.079 61.5191C124.813 58.6246 126.13 55.9081 127.952 53.5344C129.773 51.1606 132.061 49.1789 134.676 47.7094C139.424 44.9474 142.598 46.2159 144.047 51.4877C145.93 58.4714 148.412 65.2822 151.465 71.8454C154.058 77.3227 158.736 84.6077 162.597 89.348C172.558 100.85 178.415 100.21 179.504 98.6579C181.229 96.1687 182.686 93.5059 183.85 90.7135C185.954 85.8413 188.055 80.9652 189.66 75.899C190.851 72.1363 193.373 69.4054 196.813 67.5279C199.089 66.2866 201.108 66.4766 202.982 68.5636C206.363 72.307 209.694 76.0891 213.231 79.7045C224.734 91.4699 233.637 98.3437 248.497 105.07C250.52 105.986 252.636 106.641 254.936 106.048C256.025 105.764 257.224 105.551 257.958 106.661C259.789 109.411 255.018 113.337 253.202 114.853C250.411 117.181 246.049 119.954 242.344 120.284C237.744 120.719 233.91 119.702 229.459 118.655C221.365 116.75 216.215 115.164 209.093 110.897C202.455 106.924 196.208 102.65 191.979 95.8533C190.573 93.5918 190.241 93.584 189.015 95.9309C185.337 102.983 180.375 108.868 173.397 112.964C171.255 114.226 168.976 115.242 166.603 115.994C158.587 118.554 151.586 117.46 145.784 110.85C142.493 107.107 137.846 101.113 135.273 96.8852C134.832 96.1559 134.535 94.965 133.383 95.2055C132.454 95.4033 132.501 96.505 132.29 97.2537C130.111 105.012 126.004 111.444 119.144 115.967C114.981 118.713 110.475 120.346 105.392 120.342C100.042 120.342 95.5405 118.57 91.7258 114.799C84.8382 108.022 79.5748 100.124 75.0143 91.7104C74.6004 90.9346 74.4169 89.701 73.3627 89.7476C72.3085 89.7941 72.2811 91.0859 71.9766 91.8888C68.3531 101.466 62.4104 109.159 53.3792 114.299C44.8243 119.163 38.5419 118.379 31.7012 111.42C22.9745 102.568 17.3168 91.7686 12.5493 80.5113C6.56368 66.3641 2.39752 51.6932 0.445249 36.4444C-0.882298 26.1841 0.667811 16.5716 6.81747 7.96377C8.97279 4.9458 11.4248 2.21489 14.896 0.655477C18.0743 -0.768165 19.7298 0.0270562 20.788 3.29717C21.8031 6.45478 21.2409 9.67058 21.2409 12.867Z" fill="#02DAC5"/>
<path d="M0.749756 129.338H2.53802L8.99616 149.731H8.89073L15.384 129.338H17.141L9.83953 151.756H7.96535L0.749756 129.338ZM15.4152 129.338H17.2074L23.6616 149.731H23.5562L30.0495 129.338H31.8026L24.505 151.756H22.6464L15.4152 129.338Z" fill="#465A63"/>
<path d="M38.5417 132.507C38.313 132.145 38.1357 131.754 38.0146 131.344C37.8698 130.863 37.7987 130.363 37.8037 129.862C38.0475 129.635 38.3342 129.458 38.6471 129.342C39.0049 129.201 39.3867 129.13 39.7716 129.133C40.0037 129.484 40.1863 129.865 40.3143 130.265C40.4699 130.744 40.5464 131.244 40.5408 131.747C40.303 131.998 40.0086 132.19 39.6818 132.306C39.3177 132.443 38.9311 132.511 38.5417 132.507ZM38.2606 135.471H40.0137V151.763H38.2606V135.471Z" fill="#465A63"/>
<path d="M49.1387 135.471H50.8918V151.763H49.1387V135.471ZM59.4194 140.126C59.4451 139.639 59.352 139.154 59.148 138.711C58.944 138.268 58.6353 137.88 58.248 137.581C57.3492 136.945 56.2621 136.625 55.1595 136.674C54.0681 136.628 52.993 136.948 52.1061 137.581C51.7143 137.877 51.4008 138.264 51.1927 138.707C50.9846 139.15 50.888 139.637 50.9113 140.126V142.042H50.1773V140.126C50.1487 139.478 50.268 138.833 50.5263 138.238C50.7846 137.642 51.1752 137.113 51.6688 136.689C52.7609 135.808 54.1404 135.355 55.546 135.417C57.2536 135.417 58.6098 135.829 59.6146 136.654C60.1181 137.078 60.5164 137.612 60.7785 138.215C61.0405 138.817 61.1594 139.471 61.1257 140.126V151.763H59.4389L59.4194 140.126Z" fill="#465A63"/>
<path d="M73.9521 151.996C72.6245 152.046 71.3156 151.673 70.2155 150.933C69.2185 150.227 68.7213 149.129 68.7239 147.64C68.7038 146.714 68.9769 145.805 69.5049 145.041C70.0676 144.273 70.8498 143.69 71.75 143.369C72.8853 142.959 74.0878 142.765 75.2953 142.795H79.6801V147.011C79.7196 148.004 79.4629 148.987 78.9422 149.835C78.4527 150.58 77.7414 151.153 76.9079 151.476C75.9659 151.839 74.962 152.015 73.9521 151.996ZM79.356 140.944C79.356 139.67 78.9929 138.688 78.2667 138C77.5443 137.314 76.5135 136.972 75.1821 136.972C74.1932 136.929 73.2143 137.184 72.3747 137.705C72.0344 137.918 71.745 138.201 71.5265 138.536C71.308 138.871 71.1657 139.25 71.1096 139.645L69.3565 139.436C69.4389 138.668 69.7564 137.943 70.2663 137.36C70.8265 136.737 71.5315 136.259 72.32 135.968C73.2446 135.617 74.2278 135.445 75.2172 135.459C76.2926 135.434 77.36 135.649 78.3408 136.088C79.1872 136.477 79.8921 137.117 80.3595 137.919C80.8436 138.788 81.0849 139.769 81.0584 140.762V151.744H79.3404L79.356 140.944ZM74.3738 150.743C75.6068 150.771 76.8208 150.438 77.8645 149.785C78.3423 149.491 78.7325 149.076 78.9947 148.582C79.257 148.089 79.3817 147.534 79.356 146.977V143.803H75.4944C73.9326 143.803 72.7222 144.137 71.8125 144.8C71.3782 145.096 71.0253 145.494 70.7859 145.96C70.5465 146.425 70.4283 146.943 70.442 147.465C70.4234 147.917 70.5087 148.367 70.6914 148.781C70.874 149.195 71.1493 149.562 71.4962 149.855C72.3157 150.484 73.3357 150.799 74.3699 150.743H74.3738Z" fill="#465A63"/>
<path d="M87.3525 135.82H95.6341V137.147H87.3525V135.82ZM94.2558 151.791C92.7096 151.791 91.5747 151.488 90.851 150.883C90.1274 150.278 89.7643 149.255 89.7617 147.814V131.604H91.4133V147.256C91.4133 148.303 91.658 149.07 92.1473 149.556C92.6367 150.042 93.445 150.287 94.5721 150.289H95.5872V151.756C95.353 151.756 95.1304 151.756 94.9195 151.756C94.7087 151.756 94.4979 151.791 94.2558 151.791Z" fill="#465A63"/>
<path d="M106.793 151.996C105.466 152.046 104.157 151.673 103.057 150.933C102.062 150.227 101.565 149.129 101.565 147.64C101.545 146.714 101.818 145.805 102.346 145.041C102.909 144.273 103.691 143.69 104.591 143.369C105.726 142.96 106.929 142.765 108.136 142.795H112.521V147.011C112.561 148.004 112.304 148.987 111.783 149.835C111.294 150.58 110.583 151.153 109.749 151.476C108.807 151.839 107.803 152.015 106.793 151.996ZM112.217 140.944C112.217 139.67 111.855 138.688 111.131 138C110.407 137.312 109.378 136.97 108.043 136.972C107.054 136.929 106.075 137.184 105.235 137.705C104.895 137.918 104.606 138.201 104.387 138.536C104.169 138.871 104.026 139.25 103.97 139.645L102.217 139.436C102.299 138.668 102.617 137.943 103.127 137.36C103.687 136.737 104.392 136.259 105.181 135.968C106.105 135.617 107.088 135.445 108.078 135.459C109.153 135.434 110.221 135.649 111.201 136.088C112.048 136.477 112.753 137.117 113.22 137.919C113.704 138.788 113.945 139.769 113.919 140.762V151.744H112.217V140.944ZM107.234 150.743C108.467 150.771 109.681 150.438 110.725 149.785C111.203 149.491 111.593 149.076 111.855 148.582C112.118 148.089 112.242 147.534 112.217 146.977V143.803H108.355C106.811 143.803 105.584 144.136 104.673 144.8C104.239 145.096 103.886 145.494 103.646 145.96C103.407 146.425 103.289 146.943 103.303 147.465C103.284 147.917 103.369 148.367 103.552 148.781C103.735 149.195 104.01 149.562 104.357 149.855C105.172 150.48 106.186 150.796 107.215 150.743H107.234Z" fill="#465A63"/>
<path d="M121.076 129.338H122.794V151.756H121.076V129.338ZM121.322 150.254H125.742V151.756H121.322V150.254Z" fill="#465A63"/>
<path d="M137.85 151.926C136.82 151.932 135.802 151.713 134.867 151.282C133.947 150.867 133.158 150.21 132.587 149.382C131.99 148.51 131.683 147.475 131.708 146.422V140.991C131.692 139.952 131.991 138.933 132.567 138.066C133.13 137.214 133.912 136.527 134.832 136.076C135.757 135.613 136.779 135.374 137.815 135.378C138.924 135.365 140.022 135.604 141.025 136.076C141.96 136.509 142.756 137.192 143.324 138.047C143.894 138.923 144.188 139.948 144.168 140.991V144.234L132.798 144.304V143.004L143.149 142.934L142.551 143.458V141.014C142.571 140.437 142.456 139.864 142.215 139.338C141.975 138.813 141.615 138.349 141.165 137.985C140.227 137.207 139.037 136.794 137.815 136.821C137.06 136.818 136.315 136.996 135.644 137.341C134.96 137.684 134.374 138.194 133.942 138.823C133.497 139.461 133.263 140.222 133.274 140.999V146.336C133.252 147.12 133.473 147.892 133.907 148.548C134.328 149.163 134.911 149.652 135.593 149.96C136.296 150.286 137.063 150.453 137.838 150.448C138.866 150.461 139.877 150.183 140.751 149.645C141.151 149.418 141.5 149.113 141.778 148.747C142.055 148.382 142.254 147.964 142.364 147.52L143.875 147.799C143.73 148.595 143.358 149.334 142.801 149.925C142.204 150.57 141.467 151.072 140.646 151.391C139.757 151.747 138.808 151.929 137.85 151.926Z" fill="#465A63"/>
<path d="M151.922 135.471H153.675V151.763H151.922V135.471ZM162.203 140.126C162.226 139.637 162.13 139.15 161.921 138.707C161.713 138.264 161.4 137.877 161.008 137.581C160.11 136.944 159.022 136.624 157.92 136.674C156.829 136.628 155.755 136.948 154.87 137.581C154.478 137.877 154.165 138.264 153.957 138.707C153.749 139.15 153.652 139.637 153.675 140.126V142.042H152.937V140.126C152.909 139.478 153.028 138.833 153.286 138.238C153.545 137.642 153.935 137.113 154.429 136.689C155.515 135.807 156.888 135.349 158.29 135.401C160.001 135.401 161.358 135.814 162.363 136.639C162.866 137.063 163.263 137.597 163.525 138.2C163.786 138.802 163.904 139.456 163.87 140.11V151.748H162.195L162.203 140.126Z" fill="#465A63"/>
<path d="M170.52 135.82H178.801V137.147H170.52V135.82ZM177.431 151.791C175.869 151.791 174.752 151.488 174.03 150.883C173.307 150.278 172.94 149.254 172.94 147.814V131.604H174.588V147.256C174.588 148.303 174.834 149.07 175.326 149.556C175.818 150.042 176.625 150.287 177.747 150.289H178.766V151.756C178.532 151.756 178.309 151.756 178.098 151.756C177.887 151.756 177.665 151.791 177.423 151.791H177.431Z" fill="#465A63"/>
<path d="M186.696 151.996C186.437 151.65 186.231 151.269 186.083 150.863C185.901 150.379 185.811 149.864 185.817 149.347C186.168 149.093 186.551 148.888 186.958 148.738C187.434 148.56 187.94 148.472 188.449 148.478C188.729 148.816 188.949 149.199 189.101 149.611C189.282 150.096 189.371 150.61 189.363 151.127C189.005 151.365 188.623 151.564 188.223 151.721C187.736 151.909 187.218 152.003 186.696 151.996Z" fill="#465A63"/>
<path d="M204.067 151.926C202.693 151.967 201.343 151.558 200.225 150.763C199.159 149.985 198.386 148.875 198.031 147.609C197.961 147.33 197.894 147.046 197.836 146.755C197.776 146.451 197.735 146.142 197.715 145.832C197.665 145.485 197.635 145.135 197.625 144.785C197.625 144.397 197.625 144.028 197.625 143.621C197.625 143.214 197.625 142.775 197.625 142.403C197.636 142.039 197.678 141.677 197.75 141.321C197.771 141.034 197.811 140.749 197.871 140.467C197.929 140.2 197.984 139.94 198.031 139.691C198.367 138.421 199.144 137.309 200.225 136.553C201.349 135.769 202.695 135.361 204.067 135.39C205.463 135.361 206.834 135.757 207.995 136.526C209.048 137.182 209.812 138.209 210.135 139.401C210.25 139.763 210.32 140.138 210.346 140.518L208.663 140.762C208.669 140.692 208.669 140.622 208.663 140.553C208.658 140.495 208.658 140.436 208.663 140.378C208.642 140.321 208.625 140.263 208.612 140.204C208.612 140.157 208.581 140.099 208.557 140.029C208.466 139.57 208.285 139.133 208.023 138.744C207.761 138.355 207.423 138.022 207.031 137.764C206.172 137.173 205.147 136.868 204.102 136.891C203.061 136.857 202.039 137.177 201.205 137.798C200.413 138.414 199.87 139.292 199.679 140.273C199.626 140.467 199.586 140.664 199.557 140.863C199.522 141.096 199.491 141.352 199.468 141.639C199.444 141.926 199.429 142.263 199.417 142.597C199.405 142.931 199.417 143.291 199.417 143.66C199.417 144.028 199.417 144.346 199.417 144.672C199.417 144.998 199.444 145.312 199.468 145.615C199.491 145.918 199.522 146.119 199.557 146.364C199.587 146.58 199.627 146.795 199.679 147.008C199.864 148 200.407 148.892 201.205 149.517C202.039 150.139 203.061 150.459 204.102 150.425C205.153 150.452 206.187 150.159 207.066 149.587C207.458 149.34 207.794 149.014 208.051 148.63C208.308 148.245 208.48 147.812 208.557 147.357L208.593 147.147C208.613 147.091 208.625 147.032 208.628 146.973V146.833L210.311 147.077V147.217C210.31 147.288 210.298 147.359 210.275 147.426C210.281 147.503 210.281 147.579 210.275 147.655C210.263 147.736 210.232 147.813 210.186 147.88C209.894 149.099 209.133 150.156 208.065 150.825C206.876 151.586 205.482 151.97 204.067 151.926Z" fill="#465A63"/>
<path d="M223.438 151.996C222.32 152.016 221.213 151.791 220.193 151.337C219.296 150.938 218.529 150.297 217.979 149.486C217.453 148.69 217.181 147.754 217.198 146.802V140.529C217.192 139.594 217.48 138.68 218.022 137.915C218.593 137.105 219.376 136.465 220.287 136.064C221.278 135.616 222.356 135.389 223.446 135.401C224.535 135.384 225.615 135.611 226.604 136.064C227.499 136.473 228.267 137.112 228.83 137.915C229.374 138.679 229.663 139.593 229.658 140.529V146.802C229.672 147.764 229.401 148.708 228.877 149.517C228.34 150.327 227.578 150.963 226.682 151.348C225.661 151.795 224.554 152.016 223.438 151.996ZM223.438 150.603C224.864 150.603 225.981 150.249 226.788 149.541C227.187 149.191 227.502 148.757 227.711 148.272C227.921 147.786 228.019 147.26 227.998 146.732V140.634C228.006 140.111 227.896 139.593 227.674 139.119C227.452 138.645 227.125 138.226 226.718 137.895C225.798 137.14 224.63 136.749 223.438 136.798C222.24 136.751 221.066 137.141 220.138 137.895C219.726 138.224 219.395 138.641 219.17 139.116C218.945 139.59 218.831 140.109 218.838 140.634V146.732C218.819 147.262 218.919 147.789 219.132 148.275C219.345 148.761 219.665 149.194 220.068 149.541C220.888 150.25 222.009 150.603 223.438 150.603Z" fill="#465A63"/>
<path d="M237.826 135.471H239.579V151.763H237.826V135.471ZM248.107 140.126C248.13 139.637 248.034 139.15 247.826 138.707C247.617 138.264 247.304 137.877 246.912 137.581C246.014 136.944 244.926 136.624 243.824 136.673C242.733 136.628 241.66 136.948 240.774 137.581C240.382 137.877 240.069 138.264 239.861 138.707C239.653 139.15 239.556 139.637 239.579 140.126V142.042H238.841V140.126C238.813 139.478 238.932 138.833 239.19 138.238C239.449 137.642 239.839 137.113 240.333 136.689C241.426 135.809 242.805 135.356 244.21 135.417C245.92 135.417 247.278 135.829 248.283 136.654C248.785 137.079 249.183 137.613 249.444 138.215C249.706 138.817 249.824 139.471 249.79 140.126V151.763H248.095L248.107 140.126ZM258.317 140.126C258.343 139.639 258.25 139.154 258.046 138.711C257.842 138.268 257.533 137.88 257.146 137.581C256.247 136.945 255.16 136.625 254.057 136.673C252.966 136.627 251.891 136.947 251.004 137.581C250.612 137.877 250.299 138.264 250.091 138.707C249.882 139.15 249.786 139.637 249.809 140.126V142.042H249.075V140.126C249.046 139.477 249.167 138.83 249.429 138.234C249.69 137.639 250.084 137.11 250.582 136.689C251.672 135.814 253.044 135.361 254.444 135.417C256.149 135.417 257.505 135.829 258.513 136.654C259.016 137.078 259.414 137.612 259.676 138.215C259.938 138.817 260.057 139.471 260.024 140.126V151.763H258.337L258.317 140.126Z" fill="#465A63"/>
</g>
<defs>
<clipPath id="clip0_46_125">
<rect width="260" height="152" fill="white"/>
</clipPath>
</defs>
</svg>
