<svg width="92" height="100" viewBox="0 0 92 100" fill="none" xmlns="http://www.w3.org/2000/svg">
<path d="M8.30517 89.8388C23.0161 100.204 87.4684 88.0863 91.6716 64.9604C95.8748 41.8345 58.6821 -2.79685 39.8297 0.137901C20.9773 3.07266 -6.40579 79.474 8.30517 89.8388Z" fill="url(#paint0_linear_6241_15633)"/>
<path d="M84.666 25.366C72.6825 5.39339 12.0032 8.99798 2.70321 25.366C-6.59677 41.7339 8.46257 100 42.2833 100C76.1039 100 96.6495 45.3385 84.666 25.366Z" fill="#E7E7E7"/>
<path d="M62.6502 41.6446H26.4415C25.3307 41.6446 24.4299 42.5457 24.4299 43.6568V67.804C24.4299 68.9151 25.3307 69.8162 26.4415 69.8162H62.6502C63.761 69.8162 64.6618 68.9151 64.6618 67.804V43.6568C64.6618 42.5457 63.761 41.6446 62.6502 41.6446ZM35.4936 60.2505V61.2641C35.4936 61.5421 35.2686 61.7672 34.9907 61.7672H33.985C33.7071 61.7672 33.4821 61.5421 33.4821 61.2641V60.2398C32.7723 60.2033 32.0821 59.9555 31.5101 59.526C31.2649 59.3418 31.2523 58.9746 31.4742 58.7626L32.2129 58.0577C32.387 57.8917 32.646 57.8842 32.8497 58.0118C33.0929 58.164 33.3689 58.2457 33.6556 58.2457H35.4226C35.8312 58.2457 36.1644 57.8735 36.1644 57.4163C36.1644 57.0422 35.9375 56.7126 35.6131 56.6158L32.7843 55.7669C31.6157 55.416 30.7991 54.2942 30.7991 53.0384C30.7991 51.4965 31.9966 50.2438 33.4814 50.2042V49.1906C33.4814 48.9126 33.7065 48.6875 33.9843 48.6875H34.9901C35.268 48.6875 35.493 48.9126 35.493 49.1906V50.2149C36.2027 50.2514 36.893 50.4985 37.465 50.9286C37.7102 51.1129 37.7227 51.4801 37.5008 51.692L36.7622 52.397C36.5881 52.563 36.3291 52.5705 36.1254 52.4429C35.8821 52.2901 35.6062 52.2089 35.3195 52.2089H33.5525C33.1439 52.2089 32.8107 52.5812 32.8107 53.0384C32.8107 53.4125 33.0376 53.742 33.362 53.8389L36.1908 54.6878C37.3594 55.0387 38.176 56.1605 38.176 57.4163C38.176 58.9588 36.9785 60.2108 35.4936 60.2505ZM50.5806 59.2519C50.5806 59.5298 50.3556 59.7549 50.0777 59.7549H43.0371C42.7593 59.7549 42.5342 59.5298 42.5342 59.2519V58.2457C42.5342 57.9678 42.7593 57.7427 43.0371 57.7427H50.0777C50.3556 57.7427 50.5806 57.9678 50.5806 58.2457V59.2519ZM60.6386 59.2519C60.6386 59.5298 60.4135 59.7549 60.1357 59.7549H55.1067C54.8288 59.7549 54.6038 59.5298 54.6038 59.2519V58.2457C54.6038 57.9678 54.8288 57.7427 55.1067 57.7427H60.1357C60.4135 57.7427 60.6386 57.9678 60.6386 58.2457V59.2519ZM60.6386 53.2151C60.6386 53.493 60.4135 53.7181 60.1357 53.7181H43.0371C42.7593 53.7181 42.5342 53.493 42.5342 53.2151V52.2089C42.5342 51.931 42.7593 51.7059 43.0371 51.7059H60.1357C60.4135 51.7059 60.6386 51.931 60.6386 52.2089V53.2151Z" fill="#564063"/>
<defs>
<linearGradient id="paint0_linear_6241_15633" x1="39.0762" y1="-24.7608" x2="39.0762" y2="124.81" gradientUnits="userSpaceOnUse">
<stop stop-color="#36283E"/>
<stop offset="1" stop-color="#B29CBF"/>
</linearGradient>
</defs>
</svg>
