<svg width="242" height="242" viewBox="0 0 242 242" fill="none" xmlns="http://www.w3.org/2000/svg">
<path d="M233.946 114.776L195.766 120.625C194.307 120.848 193.308 122.199 193.534 123.643L197.134 146.654C197.36 148.098 198.725 149.086 200.183 148.863L238.363 143.014C239.822 142.791 240.821 141.44 240.595 139.996L236.995 116.985C236.77 115.542 235.404 114.553 233.946 114.776Z" stroke="#263238" stroke-linecap="round" stroke-linejoin="round"/>
<path d="M194.109 127.357L237.571 120.7" stroke="#263238" stroke-linecap="round" stroke-linejoin="round"/>
<path d="M234.177 128.249L227.156 129.324L228.721 139.328L235.742 138.253L234.177 128.249Z" stroke="#263238" stroke-linecap="round" stroke-linejoin="round"/>
<path d="M229.993 130.962C231.477 129.215 233.913 130.38 233.342 135.802L235.514 136.868L235.726 138.231L228.71 139.309L228.422 137.486L231.071 136.466C231.071 136.466 228.598 132.611 229.993 130.962Z" stroke="#263238" stroke-linecap="round" stroke-linejoin="round"/>
<path d="M214.781 143.194C214.781 143.194 219.855 143.234 218.401 142.233C216.947 141.231 216.729 140.217 217.966 140.2C219.202 140.182 221.273 142.53 221.109 141.097C220.944 139.664 221.838 140.596 222.009 140.689C222.18 140.782 223.645 140.2 223.716 140.369C223.787 140.538 223.687 141.009 228.46 140.281" stroke="#263238" stroke-linecap="round" stroke-linejoin="round"/>
<path d="M197.797 131.825L219.08 128.563" stroke="#263238" stroke-linecap="round" stroke-linejoin="round"/>
<path d="M198.172 134.213L210.709 132.291" stroke="#263238" stroke-linecap="round" stroke-linejoin="round"/>
<path d="M198.828 138.423L216.315 135.744" stroke="#263238" stroke-linecap="round" stroke-linejoin="round"/>
<path d="M204.25 122.675L225.592 119.401" stroke="#263238" stroke-linecap="round" stroke-linejoin="round"/>
<path d="M1 107.922L48.7168 98.4919L65.3798 177.657L14.6611 188.42L1 107.922Z" stroke="#263238" stroke-linecap="round" stroke-linejoin="round"/>
<path d="M12.7422 177.126L63.3608 168.057" stroke="#263238" stroke-linecap="round" stroke-linejoin="round"/>
<path d="M57.3608 161.325L33.1875 165.74" stroke="#263238" stroke-linecap="round" stroke-linejoin="round"/>
<path d="M53.774 157.353L46.7109 158.383" stroke="#263238" stroke-linecap="round" stroke-linejoin="round"/>
<path d="M54.8539 149.268L18.7734 155.966" stroke="#263238" stroke-linecap="round" stroke-linejoin="round"/>
<path d="M7.23438 144.696L56.6228 136.07" stroke="#263238" stroke-linecap="round" stroke-linejoin="round" stroke-dasharray="1 2"/>
<path d="M59.7191 175.093L29.7188 181.314" stroke="#263238" stroke-linecap="round" stroke-linejoin="round"/>
<path d="M58.8213 172.589L44.7188 175.093" stroke="#263238" stroke-linecap="round" stroke-linejoin="round"/>
<path d="M51.1915 130.852L26.4531 135.704" stroke="#263238" stroke-linecap="round" stroke-linejoin="round"/>
<path d="M49.2406 125.418L41.3594 126.949" stroke="#263238" stroke-linecap="round" stroke-linejoin="round"/>
<path d="M48.7756 121.643L12.7422 128.516" stroke="#263238" stroke-linecap="round" stroke-linejoin="round"/>
<path d="M45.495 103.274L35.7656 105.266" stroke="#263238" stroke-linecap="round" stroke-linejoin="round"/>
<path d="M12.7448 110.117L4.35156 111.731" stroke="#263238" stroke-linecap="round" stroke-linejoin="round"/>
<path d="M7.40625 116.308C7.58129 115.718 7.88192 115.171 8.28798 114.705C8.69404 114.239 9.19615 113.864 9.7606 113.606" stroke="#263238" stroke-linecap="round" stroke-linejoin="round"/>
<path d="M11.1326 121.644C10.0904 121.521 9.12703 121.033 8.41745 120.268C7.70788 119.503 7.29919 118.511 7.26562 117.473" stroke="#263238" stroke-linecap="round" stroke-linejoin="round"/>
<path d="M14.4022 120.654C13.8047 121.186 13.0611 121.53 12.2656 121.644" stroke="#263238" stroke-linecap="round" stroke-linejoin="round"/>
<path d="M11.5469 113.21C12.3047 113.234 13.0432 113.452 13.6904 113.843C14.3377 114.234 14.8716 114.784 15.2403 115.44C15.6089 116.095 15.7997 116.834 15.794 117.585C15.7883 118.335 15.5864 119.071 15.2079 119.721" stroke="#263238" stroke-linecap="round" stroke-linejoin="round"/>
<path d="M20.1356 114.305C19.3528 114.06 18.5758 113.781 17.7812 113.606" stroke="#263238" stroke-linecap="round" stroke-linejoin="round"/>
<path d="M26.7961 114.864C26.131 116.431 22.4111 115.004 21.3281 114.678" stroke="#263238" stroke-linecap="round" stroke-linejoin="round"/>
<path d="M20.4375 110.705L27.3946 112.325C27.2828 112.785 27.1945 113.251 27.1062 113.711" stroke="#263238" stroke-linecap="round" stroke-linejoin="round"/>
<path d="M16.9922 112.325C17.7338 110.577 17.4395 109.995 19.2877 110.42" stroke="#263238" stroke-linecap="round" stroke-linejoin="round"/>
<path d="M101.883 235.958L111.094 238.753L104.249 230.774C108.001 226.646 110.15 221.332 110.311 215.782" stroke="#263238" stroke-linecap="round" stroke-linejoin="round"/>
<path d="M90.7109 239.476C93.7984 238.501 96.7121 237.052 99.3455 235.183" stroke="#263238" stroke-linecap="round" stroke-linejoin="round"/>
<path d="M55.1641 222.527C57.8775 235.463 72.3214 243.43 87.4305 240.332" stroke="#263238" stroke-linecap="round" stroke-linejoin="round"/>
<path d="M57.3621 207.943C56.7822 209.032 56.2902 210.166 55.8906 211.332" stroke="#263238" stroke-linecap="round" stroke-linejoin="round"/>
<path d="M109.871 211.298C107.163 198.362 92.7132 190.394 77.61 193.498C70.7517 194.831 64.571 198.471 60.1172 203.802" stroke="#263238" stroke-linecap="round" stroke-linejoin="round"/>
<path d="M93.8423 206.556C89.4926 201.868 83.5656 205.118 81.0994 209.876C77.0263 206.382 70.2988 205.525 68.0268 211.484C64.1892 221.519 77.3148 227.641 83.389 229.854C84.0776 230.11 84.6427 230.326 85.1135 230.483C85.4961 230.163 85.9435 229.755 86.485 229.266C91.2878 224.973 101.176 214.466 93.8423 206.556Z" stroke="#263238" stroke-linecap="round" stroke-linejoin="round"/>
<path d="M130.011 15.6409L121.118 11.9774L127.151 20.5742C123.027 24.3252 120.383 29.4024 119.688 34.9021" stroke="#263238" stroke-linecap="round" stroke-linejoin="round"/>
<path d="M141.464 13.1887C138.298 13.8679 135.258 15.0312 132.453 16.6367" stroke="#263238" stroke-linecap="round" stroke-linejoin="round"/>
<path d="M175.211 33.4461C173.769 20.3006 160.167 10.9816 144.828 12.6532" stroke="#263238" stroke-linecap="round" stroke-linejoin="round"/>
<path d="M171.602 47.7505C172.274 46.7201 172.865 45.6393 173.367 44.518" stroke="#263238" stroke-linecap="round" stroke-linejoin="round"/>
<path d="M119.688 39.4099C121.13 52.5438 134.732 61.8512 150.07 60.2029C157.025 59.5267 163.53 56.4915 168.481 51.6119" stroke="#263238" stroke-linecap="round" stroke-linejoin="round"/>
<path d="M153.903 47.4477C160.704 43.8453 163.266 35.4695 159.626 28.7398C155.985 22.0101 147.521 19.4749 140.72 23.0773C133.919 26.6797 131.357 35.0555 134.998 41.7852C138.638 48.5149 147.103 51.0501 153.903 47.4477Z" stroke="#263238" stroke-linecap="round" stroke-linejoin="round"/>
<path d="M142 37.0107L146.179 40.913L153.148 29.0371" stroke="#263238" stroke-linecap="round" stroke-linejoin="round"/>
<path opacity="0.2" d="M164.776 149.826C164.776 149.826 162.68 174.917 165.712 181.004C168.743 187.09 170.262 228.676 168.902 233.907C168.902 233.907 178.661 236.341 182.522 232.881C186.383 229.422 192.322 232.753 202.104 229.387C211.886 226.02 204.829 151.3 204.829 151.3L205.129 124.117L188.996 109.894L164.776 149.826Z" fill="black" fill-opacity="0.7"/>
<path d="M177.781 161.895C177.72 162.074 177.622 162.239 177.493 162.378C175.409 164.329 166.516 166.496 158.876 168.057C152.548 169.356 147.104 170.235 147.104 170.235C147.104 170.235 142.913 135.772 142.913 132.15C142.913 128.527 136.156 69.8755 136.156 69.8755L152.354 69.1824L173.844 68.2621C173.844 68.2621 173.973 69.8289 174.191 72.5663C175.609 90.0045 180.483 155.016 177.781 161.895Z" fill="#03DAC3"/>
<path opacity="0.2" d="M177.77 161.894L158.864 165.721L151.725 167.171C149.788 165.29 148.311 165.255 148.311 165.255L147.722 159.984L146.798 151.358L138.664 75.4667C140.43 74.2611 141.301 71.6226 141.301 71.6226L152.19 71.2324L171.054 70.551L174.168 72.5429C175.598 90.0043 180.471 155.016 177.77 161.894Z" fill="black" fill-opacity="0.7"/>
<path d="M177.77 161.894L158.864 165.721L151.725 167.171C149.788 165.29 148.311 165.255 148.311 165.255L147.722 159.984L146.798 151.358L138.664 75.4667C140.43 74.2611 141.301 71.6226 141.301 71.6226L152.19 71.2324L171.054 70.551L174.168 72.5429C175.598 90.0043 180.471 155.016 177.77 161.894Z" stroke="#263238" stroke-linecap="round" stroke-linejoin="round"/>
<path d="M149.312 139.552L155.622 139.54L155.628 141.491L153.874 142.109L149.83 142.546L149.312 139.552Z" fill="#03DAC3" stroke="#263238" stroke-linecap="round" stroke-linejoin="round"/>
<path d="M149.695 143.571L154.333 143.413L155.522 143.972L155.463 146.564L150.048 146.622L149.695 143.571Z" fill="#03DAC3" stroke="#263238" stroke-linecap="round" stroke-linejoin="round"/>
<path d="M150.444 147.712L155.741 147.333L155.682 149.296L153.122 150.193L150.414 150.041L150.444 147.712Z" fill="#03DAC3" stroke="#263238" stroke-linecap="round" stroke-linejoin="round"/>
<path d="M150.762 151.02L155.041 151.235L155.429 152.319L154.805 153.513L150.98 153.757L150.32 151.911L150.762 151.02Z" fill="#03DAC3" stroke="#263238" stroke-linecap="round" stroke-linejoin="round"/>
<path d="M155.689 154.812L156.277 156.507C156.371 156.687 156.42 156.886 156.42 157.089C156.42 157.292 156.371 157.491 156.277 157.671C156.168 157.795 156.028 157.889 155.872 157.944C155.715 157.999 155.547 158.014 155.383 157.986C155.053 157.957 154.729 157.846 154.4 157.829C153.405 157.788 152.493 158.598 151.516 158.411C151.133 157.363 150.168 155.825 151.475 155.353C151.716 155.278 155.83 155.196 155.689 154.812Z" fill="#03DAC3" stroke="#263238" stroke-linecap="round" stroke-linejoin="round"/>
<path d="M155.674 159.582C155.767 159.985 155.834 160.393 155.874 160.805C155.934 161.065 155.925 161.336 155.849 161.592C155.773 161.848 155.631 162.08 155.438 162.267C155.187 162.403 154.907 162.477 154.62 162.482L151.218 162.785C151.169 162.149 151.159 161.511 151.189 160.875C151.389 160.117 151.248 160.182 151.972 159.873C153.119 159.389 154.497 160.158 155.674 159.582Z" fill="#03DAC3" stroke="#263238" stroke-linecap="round" stroke-linejoin="round"/>
<path d="M143.297 77.1909C143.297 77.1909 144.58 89.4628 144.639 91.8916" stroke="#263238" stroke-linecap="round" stroke-linejoin="round"/>
<path d="M146.07 77.3247L146.671 84.0868" stroke="#263238" stroke-linecap="round" stroke-linejoin="round"/>
<path d="M155.656 74.7679L156.433 82.6949L157.522 82.7997L157.169 74.8437L155.656 74.7679Z" fill="#03DAC3" stroke="#263238" stroke-linecap="round" stroke-linejoin="round"/>
<path opacity="0.2" d="M177.772 161.894C177.711 162.074 177.613 162.239 177.483 162.378C175.4 164.329 166.506 166.496 158.866 168.057V162.815L147.748 159.996L146.07 159.571L146.824 151.37L149.702 120.035L152.215 71.2558L152.321 69.1823L173.834 68.2621C173.834 68.2621 173.964 69.8288 174.181 72.5663C175.6 90.0044 180.473 155.016 177.772 161.894Z" fill="black" fill-opacity="0.7"/>
<path d="M177.781 161.895C177.72 162.074 177.622 162.239 177.493 162.378C175.409 164.329 166.516 166.496 158.876 168.057C152.548 169.356 147.104 170.235 147.104 170.235C147.104 170.235 142.913 135.772 142.913 132.15C142.913 128.527 136.156 69.8755 136.156 69.8755L152.354 69.1824L173.844 68.2621C173.844 68.2621 173.973 69.8289 174.191 72.5663C175.609 90.0045 180.483 155.016 177.781 161.895Z" stroke="#263238" stroke-linecap="round" stroke-linejoin="round"/>
<path d="M189.176 240.098C189.312 238.869 187.358 221.239 187.322 219.323C187.228 214.081 185.727 207.202 185.727 207.202C183.632 201.902 182.002 189.688 176.41 181.854C170.818 174.021 170.824 164.807 169.894 156.984C168.964 149.162 169.194 149.838 169.429 142.895C169.599 137.68 169.365 132.46 168.729 127.28C168.264 122.667 167.334 114.554 168.729 110.774C170.124 106.994 173.773 106.114 177.77 109.9C181.766 113.686 183.397 129.208 183.397 131.124C183.397 133.04 183.397 139.028 184.797 141.334C184.797 141.334 192.714 137.327 192.714 136.221C192.714 135.114 192.478 125.335 193.644 124.811L188.988 109.9L197.817 106.796C199.479 108.271 200.914 109.978 202.078 111.863C203.075 113.424 203.909 115.081 204.568 116.808C208.294 126.587 214.28 133.407 215.516 136.221C216.752 139.034 215.516 161.376 215.516 165.529C215.516 169.682 212.808 188.826 212.879 192.047C212.932 194.377 214.521 203.043 216.104 209.689C216.693 212.252 220.266 230.82 220.813 232.293L189.176 240.098Z" fill="white"/>
<path opacity="0.4" d="M196.145 123.826C196.087 125.079 197.599 135.062 197.599 135.062C198.647 137.549 192.926 146.029 192.926 146.029C191.69 146.716 191.16 150.979 191.16 150.979C187.287 150.129 178.417 141.305 178.417 141.305C178.417 141.305 177.369 144.922 176.192 153.874C175.015 162.826 182.478 184.091 185.657 198.774C188.835 213.457 187.322 219.305 187.322 219.305C187.228 214.063 185.727 207.185 185.727 207.185C183.632 201.884 182.002 189.671 176.41 181.837C170.818 174.003 170.824 164.807 169.894 156.984C168.964 149.162 169.194 149.838 169.429 142.895C169.599 137.68 169.365 132.46 168.729 127.28C168.264 122.667 167.334 114.554 168.729 110.774C170.124 106.994 173.773 106.114 177.77 109.9C181.766 113.686 183.397 129.208 183.397 131.124C183.397 133.04 183.397 139.028 184.797 141.334C184.797 141.334 192.714 137.327 192.714 136.221C192.714 135.114 192.478 125.335 193.644 124.811L188.988 109.9L197.817 106.796C199.479 108.271 200.914 109.978 202.078 111.863C199.224 117.513 196.204 123.046 196.145 123.826Z" fill="#03DAC3"/>
<path opacity="0.4" d="M210.993 193.59C211.381 190.096 212.54 181.79 213.276 176.607C212.376 180.654 210.922 182.705 210.922 182.705C210.922 182.705 213.429 153 213.676 151.189C213.924 149.378 216.455 141.235 215.525 136.191C216.761 138.999 215.525 161.347 215.525 165.499C215.525 169.652 212.817 188.797 212.888 192.018C212.941 194.348 215.466 209.194 217.049 215.839C213.647 210.947 210.604 197.102 210.993 193.59Z" fill="#03DAC3"/>
<path d="M220.805 232.264C218.945 226.964 212.97 195.221 212.9 192.018C212.829 188.815 215.537 169.647 215.537 165.5C215.537 161.353 216.773 138.999 215.537 136.192C214.301 133.384 208.315 126.558 204.589 116.779C203.181 112.955 200.865 109.522 197.838 106.767L189.009 109.871L193.665 124.782C192.488 125.306 192.735 135.085 192.735 136.192C192.735 137.298 184.818 141.305 184.818 141.305C183.417 138.976 183.417 133.011 183.417 131.095C183.417 129.179 181.787 113.651 177.791 109.871C173.794 106.091 170.139 106.959 168.75 110.745C167.361 114.531 168.285 122.638 168.75 127.251C169.387 132.437 169.621 137.663 169.45 142.884C169.215 149.826 168.979 149.139 169.915 156.973C170.851 164.807 170.845 174.021 176.431 181.854C182.017 189.688 183.653 201.902 185.748 207.202C185.748 207.202 189.704 235.491 189.197 240.098" stroke="#263238" stroke-linecap="round" stroke-linejoin="round"/>
<path d="M184.797 141.305C184.797 141.305 186.192 147.753 189.335 150.979" stroke="#263238" stroke-linecap="round" stroke-linejoin="round"/>
<path d="M185.641 144.246C185.641 144.246 191.527 146.029 193.987 146.139" stroke="#263238" stroke-linecap="round" stroke-linejoin="round"/>
<path d="M192.719 136.191C192.719 136.191 196.909 134.275 199.588 135.428" stroke="#263238" stroke-linecap="round" stroke-linejoin="round"/>
<path d="M193.656 124.781C193.656 124.781 196.917 124.484 197.612 122.871" stroke="#263238" stroke-linecap="round" stroke-linejoin="round"/>
<path d="M177.5 183.496C177.5 183.496 183.763 191.19 185.623 195.104" stroke="#263238" stroke-linecap="round" stroke-linejoin="round"/>
<path d="M213.914 149.826C212.866 155.936 211.465 172.64 211 175.634" stroke="#263238" stroke-linecap="round" stroke-linejoin="round"/>
<path d="M215.912 138.305C216.088 143.838 214.734 146.716 214.734 146.716" stroke="#263238" stroke-linecap="round" stroke-linejoin="round"/>
<path d="M167.764 60.8827L210.919 72.147C210.919 72.147 195.751 117.699 192.673 123.349L187.529 163.059C187.529 163.059 159.959 161.86 147.281 158.068C147.281 158.068 155.298 116.715 155.727 111.199C156.157 105.684 167.764 60.8827 167.764 60.8827Z" fill="#03DAC3"/>
<path opacity="0.2" d="M158.491 108.753L168.002 68.5125C168.002 68.5125 172.093 66.5031 173.676 64.6685L204.595 73.3701C204.595 73.3701 204.689 76.3696 206.461 78.2916L190.857 122.784L187.072 155.581C187.072 155.581 182.04 155.977 181.557 159.658C181.557 159.658 165.242 160.532 154.3 157.678C154.3 157.678 153.011 153.7 151.039 151.184L158.491 108.753Z" fill="black" fill-opacity="0.7"/>
<path d="M158.491 108.753L168.002 68.5125C168.002 68.5125 172.093 66.5031 173.676 64.6685L204.595 73.3701C204.595 73.3701 204.689 76.3696 206.461 78.2916L190.857 122.784L187.072 155.581C187.072 155.581 182.04 155.977 181.557 159.658C181.557 159.658 165.242 160.532 154.3 157.678C154.3 157.678 153.011 153.7 151.039 151.184L158.491 108.753Z" stroke="#263238" stroke-linecap="round" stroke-linejoin="round"/>
<path d="M166.405 110.844C166.405 110.844 169.212 100.36 179.101 102.241C188.989 104.122 183.403 117.041 183.403 117.041C183.403 117.041 183.462 127.467 175.44 126.028C168.482 124.781 164.774 121.001 166.405 110.844Z" fill="#03DAC3" stroke="#263238" stroke-linecap="round" stroke-linejoin="round"/>
<path d="M171.761 72.3392C171.761 72.3392 168.771 84.3199 168 86.6264" stroke="#263238" stroke-linecap="round" stroke-linejoin="round"/>
<path d="M174.32 73.376L172.578 79.9459" stroke="#263238" stroke-linecap="round" stroke-linejoin="round"/>
<path d="M196.149 77.9828L202.099 80.0563L201.446 81.9026H199.586L195.625 80.9823L196.149 77.9828Z" fill="#03DAC3" stroke="#263238" stroke-linecap="round" stroke-linejoin="round"/>
<path d="M195.169 81.9026L199.595 83.283L200.525 84.2032L199.595 86.6261L194.469 84.8963L195.169 81.9026Z" fill="#03DAC3" stroke="#263238" stroke-linecap="round" stroke-linejoin="round"/>
<path d="M194.469 86.0497L199.595 87.4475L198.871 89.2764H196.158L193.656 88.2396L194.469 86.0497Z" fill="#03DAC3" stroke="#263238" stroke-linecap="round" stroke-linejoin="round"/>
<path d="M193.648 89.2761L197.603 90.8895V92.0369L196.614 92.9629L192.93 91.9262V89.9634L193.648 89.2761Z" fill="#03DAC3" stroke="#263238" stroke-linecap="round" stroke-linejoin="round"/>
<path d="M197.03 94.4774V96.2713C197.06 96.4689 197.044 96.6708 196.982 96.861C196.919 97.0511 196.813 97.2242 196.671 97.3663C196.525 97.4453 196.361 97.4867 196.194 97.4867C196.027 97.4867 195.864 97.4453 195.717 97.3663C195.417 97.2265 195.129 97.0169 194.846 96.8945C193.922 96.5276 192.786 96.9877 191.903 96.4985C191.903 95.386 191.509 93.6212 192.898 93.5863C193.128 93.6038 197.03 94.8851 197.03 94.4774Z" fill="#03DAC3" stroke="#263238" stroke-linecap="round" stroke-linejoin="round"/>
<path d="M195.389 98.9679C195.345 99.3785 195.27 99.7854 195.165 100.185C195.036 100.704 194.783 101.28 194.259 101.42C193.977 101.466 193.688 101.442 193.417 101.35L190.109 100.488C190.269 99.8752 190.466 99.2723 190.698 98.6825C191.145 98.036 190.992 98.0476 191.775 97.9952C193.046 97.9428 194.082 99.1251 195.389 98.9679Z" fill="#03DAC3" stroke="#263238" stroke-linecap="round" stroke-linejoin="round"/>
<path d="M184.218 74.1853L182.234 81.9026L183.223 82.3627L185.613 74.7561L184.218 74.1853Z" fill="#03DAC3" stroke="#263238" stroke-linecap="round" stroke-linejoin="round"/>
<path d="M159.374 126.01L165.484 127.577L164.989 129.464L163.135 129.627L159.109 129.039L159.374 126.01Z" fill="#03DAC3" stroke="#263238" stroke-linecap="round" stroke-linejoin="round"/>
<path d="M158.725 130L163.251 131.002L164.263 131.841L163.545 134.333L158.289 133.04L158.725 130Z" fill="#03DAC3" stroke="#263238" stroke-linecap="round" stroke-linejoin="round"/>
<path d="M158.382 134.193L163.608 135.148L163.043 137.03L160.342 137.263L157.758 136.441L158.382 134.193Z" fill="#03DAC3" stroke="#263238" stroke-linecap="round" stroke-linejoin="round"/>
<path d="M157.841 137.473L161.926 138.748L162.026 139.895L161.119 140.897L157.358 140.175L157.188 138.224L157.841 137.473Z" fill="#03DAC3" stroke="#263238" stroke-linecap="round" stroke-linejoin="round"/>
<path d="M161.654 142.371L161.813 144.159C161.862 144.354 161.863 144.557 161.817 144.752C161.771 144.948 161.679 145.129 161.549 145.283C161.41 145.374 161.25 145.428 161.085 145.442C160.919 145.455 160.752 145.426 160.601 145.359C160.289 145.248 160.012 145.062 159.689 144.968C158.741 144.677 157.646 145.231 156.746 144.817C156.64 143.71 156.104 141.986 157.481 141.852C157.693 141.841 161.69 142.778 161.654 142.371Z" fill="#03DAC3" stroke="#263238" stroke-linecap="round" stroke-linejoin="round"/>
<path d="M160.423 146.984C160.415 147.407 160.376 147.83 160.306 148.248C160.217 148.772 160.017 149.372 159.511 149.552C159.233 149.622 158.942 149.622 158.664 149.552L155.297 148.97C155.41 148.344 155.562 147.726 155.75 147.118C156.139 146.436 155.986 146.46 156.762 146.343C157.999 146.163 159.129 147.252 160.423 146.984Z" fill="#03DAC3" stroke="#263238" stroke-linecap="round" stroke-linejoin="round"/>
<path d="M184.812 152.639C184.812 152.639 186.213 137.181 186.213 135.626" stroke="#263238" stroke-linecap="round" stroke-linejoin="round"/>
<path d="M182.008 151.946C182.008 151.946 182.596 143.908 182.702 142.511" stroke="#263238" stroke-linecap="round" stroke-linejoin="round"/>
<path d="M171.085 146.139L169.195 155.289H171.085L172.456 146.139H171.085Z" fill="#03DAC3" stroke="#263238" stroke-linecap="round" stroke-linejoin="round"/>
<path opacity="0.2" d="M192.779 123.122C188.694 122.277 185.051 121.036 182.355 119.248C182.355 119.248 184.309 124.805 191.237 134.275L187.511 163.059C187.511 163.059 169.518 162.279 155.922 159.978C160.101 148.329 167.694 126.255 166.793 121.881C165.575 115.876 169.877 108.788 169.877 108.788C183.48 106.365 196.67 96.1897 205.722 87.5872C201.114 101.071 194.822 119.126 192.779 123.122Z" fill="black" fill-opacity="0.7"/>
<path d="M167.764 60.8827L210.919 72.147C210.919 72.147 195.751 117.699 192.673 123.349L187.529 163.059C187.529 163.059 159.959 161.86 147.281 158.068C147.281 158.068 155.298 116.715 155.727 111.199C156.157 105.684 167.764 60.8827 167.764 60.8827Z" stroke="#263238" stroke-linecap="round" stroke-linejoin="round"/>
<path d="M191.69 151.562L185.61 195.105C184.256 192.257 180.565 187.399 178.658 184.97C177.952 184.062 177.481 183.497 177.481 183.497L176.404 181.854C170.818 174.021 170.818 164.806 169.888 156.973C168.958 149.139 169.188 149.826 169.423 142.884C169.595 137.673 169.362 132.456 168.729 127.28C168.264 122.667 167.334 114.554 168.729 110.774C169.412 108.922 170.642 107.769 172.184 107.524C173.726 107.279 175.715 107.978 177.77 109.9C181.766 113.68 183.397 129.208 183.397 131.124C183.397 133.04 183.397 139.028 184.797 141.334C184.797 141.305 188.553 148.335 191.69 151.562Z" fill="white"/>
<path opacity="0.4" d="M175.945 178.75C177.216 180.358 178.082 182.676 178.658 184.971C177.952 184.062 177.481 183.497 177.481 183.497L176.404 181.855C170.818 174.021 170.818 164.807 169.888 156.973C168.958 149.139 169.188 149.826 169.423 142.884C169.595 137.673 169.362 132.456 168.729 127.28C168.264 122.668 167.334 114.554 168.729 110.774C169.412 108.922 170.642 107.769 172.184 107.524C175.127 108.351 178.07 111.316 179.094 116.389C180.86 124.904 172.896 118.025 171.054 125.242C169.212 132.458 171.89 134.404 172.99 136.221C174.091 138.038 172.684 142.045 171.054 147.427C169.423 152.809 172.455 174.33 175.945 178.75Z" fill="#03DAC3"/>
<path d="M191.695 151.562C188.552 148.335 184.803 141.305 184.803 141.305C183.402 138.975 183.402 133.011 183.402 131.095C183.402 129.179 181.771 113.651 177.775 109.871C173.778 106.091 170.123 106.959 168.734 110.745C167.345 114.53 168.269 122.638 168.734 127.251C169.371 132.436 169.605 137.663 169.435 142.883C169.199 149.826 168.964 149.139 169.9 156.973C170.835 164.806 170.83 174.02 176.415 181.854L177.492 183.497C177.492 183.497 183.755 191.191 185.615 195.105" stroke="#263238" stroke-linecap="round" stroke-linejoin="round"/>
<path d="M171.086 133.133C171.086 133.133 176.424 130.402 179.097 130.635" stroke="#263238" stroke-linecap="round" stroke-linejoin="round"/>
<path opacity="0.2" d="M89.5427 92.5998C89.5427 92.5998 76.0405 77.8875 75.1105 76.9847C74.1806 76.0819 73.4802 60.3911 70.9139 53.4834C68.3477 46.5757 67.1058 6.01487 67.1058 6.01487C67.1058 6.01487 64.6631 3.02115 57.7766 4.6345C50.8902 6.24784 44.1391 3.2483 36.458 7.62822C28.7769 12.0081 43.6741 74.6549 43.6741 74.6549L58.7949 122.339L89.5427 92.5998Z" fill="black" fill-opacity="0.7"/>
<path d="M98.8221 92.7104C98.8221 92.7104 92.7714 130.959 86.4617 136.026C82.8184 138.938 77.1385 140.278 72.1002 140.103C68.4509 139.975 65.1313 139.066 63.1772 137.418C58.5215 133.498 51.994 131.425 48.745 128.891C45.496 126.358 45.4842 117.371 43.3889 109.764C41.2935 102.157 38.2623 101.93 37.5677 94.3295C36.8732 86.7288 34.0715 63.4604 29.0097 57.0012C23.9478 50.542 23.8301 45.4806 21.7347 38.9108C19.6393 32.3409 4.3125 8.57167 4.3125 8.57167L41.6761 1C41.6761 1 45.3489 16.0443 49.2806 28.3162C51.1465 34.1406 53.0711 39.3476 54.6839 42.0151C57.7806 47.1749 60.463 52.5674 62.7063 58.1428C66.9324 62.5227 69.2455 72.2261 69.946 80.7238L79.952 86.2453C87.6448 88.3246 98.8221 92.7104 98.8221 92.7104Z" fill="white"/>
<path opacity="0.4" d="M98.8278 92.7102C98.8278 92.7102 92.7771 130.959 86.4675 136.026C82.8241 138.938 77.1442 140.278 72.1059 140.103C60.1576 137.191 56.9439 130.598 55.3253 129.002C53.1711 126.876 50.34 113.923 51.8938 106.386C53.4477 98.8491 52.3294 96.0592 51.0463 92.3782C48.2034 84.2241 56.8733 79.8326 57.7679 76.7457C58.6626 73.6587 58.3565 56.3953 54.4542 50.7807C52.3823 47.7928 47.0439 32.3932 49.2923 28.3278C51.1581 34.1521 53.0828 39.3591 54.6955 42.0267C57.7922 47.1864 60.4746 52.5789 62.718 58.1543C66.944 62.5342 69.2572 72.2376 69.9576 80.7353L79.9636 86.2568C87.6505 88.3245 98.8278 92.7102 98.8278 92.7102Z" fill="#03DAC3"/>
<path d="M53.1936 90.019C53.1936 90.019 51.0865 92.471 49.2266 92.471" stroke="#263238" stroke-linecap="round" stroke-linejoin="round"/>
<path d="M57.7765 98.3069C57.7765 98.3069 55.5104 103.071 51.8906 104.131" stroke="#263238" stroke-linecap="round" stroke-linejoin="round"/>
<path d="M53.7578 126.229C53.7578 126.229 58.8844 124.039 59.6967 120.352" stroke="#263238" stroke-linecap="round" stroke-linejoin="round"/>
<path d="M79.9706 86.2507C79.9706 86.2507 78.6875 87.864 78.6875 89.1629" stroke="#263238" stroke-linecap="round" stroke-linejoin="round"/>
<path d="M41.6996 1C41.6996 1 49.6926 33.7154 54.7074 42.0384C57.8041 47.1982 60.4865 52.5907 62.7299 58.1661C66.9559 62.546 69.2691 72.2552 69.9695 80.753L79.9755 86.2745C87.6566 88.3479 98.8103 92.7279 98.8103 92.7279C98.8103 92.7279 92.7596 130.976 86.45 136.044C80.1403 141.111 67.88 141.32 63.1713 137.407C58.4626 133.493 51.9881 131.413 48.7391 128.88C45.4901 126.346 45.4783 117.359 43.383 109.752C41.2876 102.146 38.2564 101.919 37.5618 94.3179C36.8673 86.7171 34.0656 63.4488 29.0038 56.9896C23.9419 50.5304 23.8242 45.469 21.7288 38.8991C19.6334 32.3292 4.3125 8.57167 4.3125 8.57167" stroke="#263238" stroke-linecap="round" stroke-linejoin="round"/>
<path d="M112.983 90.2283L51.1875 184.356L65.7727 185.963L110.088 187.786L114.626 104.061L112.983 90.2283Z" fill="#263238" stroke="#263238" stroke-linecap="round" stroke-linejoin="round"/>
<path d="M112.983 90.2228L107.274 186.179L51.1875 184.356L55.6137 110.829L56.991 87.9979L81.4291 88.9706L112.983 90.2228Z" fill="#757575"/>
<path d="M98.8745 175.13C102.645 175.13 105.702 172.105 105.702 168.374C105.702 164.642 102.645 161.617 98.8745 161.617C95.1037 161.617 92.0469 164.642 92.0469 168.374C92.0469 172.105 95.1037 175.13 98.8745 175.13Z" fill="#BFBFBF" stroke="#263238" stroke-miterlimit="10"/>
<path d="M96.9531 163.889L101.579 164.489" stroke="#263238" stroke-linecap="round" stroke-linejoin="round"/>
<path d="M95.7031 165.001L102.654 165.671" stroke="#263238" stroke-linecap="round" stroke-linejoin="round"/>
<path d="M94.9375 171.781L101.895 172.451" stroke="#263238" stroke-linecap="round" stroke-linejoin="round"/>
<path d="M97.9846 166.533C98.1756 166.58 98.3777 166.553 98.5487 166.456C98.7197 166.36 98.8465 166.202 98.9028 166.015L99.4207 166.067L98.8969 170.931L98.1259 170.849L98.5261 167.139L97.9375 167.075L97.9846 166.533Z" fill="#263238"/>
<path d="M100.552 166.737C100.858 166.737 100.999 166.964 100.964 167.285V167.343L100.664 167.314V167.261C100.664 167.122 100.628 167.058 100.528 167.046C100.428 167.034 100.363 167.087 100.352 167.226C100.34 167.366 100.387 167.489 100.575 167.687C100.671 167.767 100.746 167.868 100.794 167.983C100.842 168.097 100.862 168.221 100.852 168.345C100.817 168.665 100.64 168.828 100.328 168.793C100.016 168.758 99.8808 168.56 99.9102 168.246V168.123L100.204 168.152V168.298C100.204 168.438 100.246 168.496 100.346 168.508C100.446 168.519 100.516 168.473 100.528 168.333C100.54 168.193 100.493 168.071 100.305 167.873C100.209 167.793 100.134 167.691 100.086 167.577C100.038 167.462 100.018 167.338 100.028 167.215C100.069 166.865 100.252 166.679 100.552 166.737Z" fill="#263238"/>
<path d="M101.108 166.819L102.085 166.918L102.049 167.203L101.72 167.168L101.537 168.869L101.225 168.84L101.408 167.133L101.078 167.098L101.108 166.819Z" fill="#263238"/>
<path d="M84.5624 94.4826L73.6134 92.1183C73.3307 92.0572 73.0516 92.2345 72.9899 92.5142L71.5003 99.2688C71.4387 99.5485 71.6178 99.8247 71.9005 99.8857L82.8495 102.25C83.1322 102.311 83.4113 102.134 83.473 101.854L84.9625 95.0995C85.0242 94.8198 84.8451 94.5436 84.5624 94.4826Z" fill="white" stroke="#263238" stroke-linecap="round" stroke-linejoin="round"/>
<path d="M77.1511 98.6857C77.1485 98.6392 77.1365 98.5937 77.1158 98.5518C77.1101 98.5288 77.1101 98.5049 77.1158 98.4819C77.1248 98.4643 77.1393 98.4501 77.157 98.4411C77.3159 98.3013 77.1217 98.115 76.9687 98.08C76.9158 98.067 76.8604 98.0677 76.8078 98.0819C76.7552 98.0962 76.7072 98.1236 76.6685 98.1616L76.7921 97.7073L77.3336 97.8237L77.3924 97.5442L76.5802 97.3694C76.563 97.4085 76.5512 97.4496 76.5449 97.4918C76.5449 97.5325 76.5978 97.5442 76.5978 97.5908C76.5978 97.6374 76.5978 97.6315 76.5978 97.6548C76.6086 97.689 76.6316 97.718 76.6626 97.7364C76.692 97.7364 76.7215 97.7888 76.7156 97.8237C76.7196 97.8351 76.7196 97.8474 76.7156 97.8587C76.6933 97.9122 76.654 97.9572 76.6037 97.9868C76.5806 97.9912 76.5597 98.0036 76.5449 98.0218V98.0567C76.5449 98.0975 76.4978 98.1208 76.4625 98.1441C76.4272 98.1674 76.3389 98.3538 76.3036 98.4819L76.5978 98.546V98.4877C76.6273 98.3479 76.7038 98.313 76.798 98.3305C76.8921 98.3479 76.951 98.4178 76.9157 98.5576L76.8215 98.9886C76.8215 99.1226 76.7215 99.1633 76.6214 99.14C76.5213 99.1167 76.4742 99.0585 76.5037 98.9187L76.5449 98.7382L76.2506 98.6741L76.2153 98.8372C76.1925 98.9004 76.1835 98.9677 76.1891 99.0345C76.1947 99.1014 76.2146 99.1664 76.2475 99.225C76.2805 99.2837 76.3257 99.3347 76.3802 99.3747C76.4346 99.4147 76.4971 99.4427 76.5634 99.4569C76.6296 99.4711 76.6982 99.4712 76.7645 99.4571C76.8308 99.4429 76.8933 99.415 76.9478 99.3751C77.0023 99.3352 77.0476 99.2842 77.0806 99.2256C77.1137 99.167 77.1337 99.1021 77.1393 99.0352C77.1602 98.9199 77.1642 98.8022 77.1511 98.6857Z" fill="#263238"/>
<path d="M80.9951 99.5011C80.9897 99.455 80.9778 99.4099 80.9598 99.3671C80.9541 99.3441 80.9541 99.3202 80.9598 99.2972C80.9688 99.2796 80.9833 99.2654 81.001 99.2564C81.154 99.1167 80.9598 98.9303 80.8127 98.8953C80.7598 98.8823 80.7044 98.883 80.6518 98.8972C80.5992 98.9115 80.5513 98.9389 80.5125 98.9769L80.6361 98.5226L81.1776 98.6391L81.2365 98.3595L80.4242 98.1848C80.4044 98.2228 80.3924 98.2644 80.3889 98.3071C80.3889 98.3478 80.436 98.3595 80.4419 98.4061C80.4477 98.4527 80.4419 98.4469 80.4419 98.4702C80.4526 98.5043 80.4756 98.5333 80.5066 98.5517C80.536 98.5517 80.5655 98.6041 80.5596 98.6391C80.5537 98.674 80.5596 98.6391 80.5596 98.674C80.537 98.7292 80.4952 98.7746 80.4419 98.8021C80.421 98.8081 80.4025 98.8203 80.3889 98.8371C80.3889 98.8371 80.3889 98.8371 80.3889 98.872C80.3889 98.907 80.3477 98.9361 80.3124 98.9594C80.2771 98.9827 80.1888 99.1691 80.1535 99.2972L80.4477 99.3613V99.303C80.4772 99.1633 80.5537 99.1283 80.6479 99.1458C80.742 99.1633 80.795 99.2331 80.7656 99.3729L80.6714 99.8039C80.6714 99.9379 80.5713 99.9787 80.4713 99.9554C80.3712 99.9321 80.3241 99.8738 80.3536 99.734L80.3948 99.5535L80.1005 99.4894L80.0652 99.6525C80.0474 99.7138 80.0425 99.778 80.0508 99.8412C80.0591 99.9044 80.0804 99.9652 80.1135 100.02C80.1465 100.075 80.1905 100.122 80.2428 100.159C80.2951 100.197 80.3545 100.223 80.4175 100.236C80.4804 100.25 80.5455 100.251 80.6087 100.238C80.6719 100.226 80.7319 100.201 80.7849 100.165C80.8379 100.129 80.8829 100.082 80.9171 100.028C80.9512 99.974 80.9738 99.9135 80.9834 99.8505C81.0069 99.7355 81.0109 99.6174 80.9951 99.5011Z" fill="#263238"/>
<path d="M79.2685 99.07H79.2979C79.2979 99.0409 79.2979 99.0118 79.2979 98.971H79.4274L79.5275 98.5225C79.5501 98.4588 79.5588 98.391 79.5529 98.3237C79.5471 98.2563 79.5269 98.191 79.4937 98.132C79.4604 98.0729 79.4149 98.0216 79.3601 97.9812C79.3053 97.9409 79.2425 97.9125 79.1758 97.898C79.1091 97.8835 79.0401 97.8831 78.9732 97.897C78.9064 97.9108 78.8433 97.9385 78.7881 97.9783C78.7329 98.018 78.6868 98.0689 78.6529 98.1276C78.6191 98.1863 78.5982 98.2514 78.5916 98.3187V98.4002C78.6328 98.4352 78.6564 98.4934 78.6976 98.5225C78.7388 98.5516 78.8035 98.5225 78.7859 98.6215C78.7682 98.7206 78.7506 98.7031 78.7859 98.7322C78.8212 98.7613 78.8271 98.7322 78.833 98.773C78.8401 98.7822 78.844 98.7934 78.844 98.805C78.844 98.8166 78.8401 98.8279 78.833 98.837C78.833 98.837 78.7918 98.837 78.7859 98.8895C78.78 98.9419 78.7859 98.9768 78.7506 98.9885C78.7152 99.0001 78.6387 98.9186 78.574 98.9244C78.5508 98.9311 78.5298 98.9438 78.5133 98.9612C78.4967 98.9786 78.4851 99.0001 78.4798 99.0234C78.4498 99.1224 78.4281 99.2237 78.4151 99.3263C78.3936 99.3879 78.3861 99.4534 78.3932 99.5182C78.4003 99.583 78.4218 99.6455 78.4561 99.7011C78.4904 99.7568 78.5367 99.8042 78.5916 99.8401C78.6466 99.876 78.7089 99.8994 78.7741 99.9087C78.841 99.9265 78.911 99.9294 78.9792 99.9174C79.0473 99.9053 79.112 99.8785 79.1685 99.8388C79.2206 99.7943 79.2644 99.7411 79.2979 99.6816C79.3244 99.6518 79.339 99.6135 79.339 99.5738C79.339 99.5342 79.3244 99.4959 79.2979 99.4661H79.2685L79.2273 99.3263C79.2273 99.3263 79.2273 99.3263 79.2685 99.2913C79.3097 99.2564 79.2685 99.1807 79.3274 99.1399C79.3862 99.0991 79.2568 99.0817 79.2685 99.07ZM79.0213 99.4661C78.9919 99.6059 78.9154 99.6466 78.8153 99.6233C78.7152 99.6 78.6682 99.536 78.6976 99.3962L78.933 98.3478C78.9625 98.208 79.0331 98.1672 79.1331 98.1905C79.2332 98.2138 79.2803 98.2779 79.2509 98.4177L79.0213 99.4661Z" fill="#263238"/>
<path d="M79.7946 99.7921L79.7299 100.089L79.4297 100.025L79.4944 99.728L79.7946 99.7921Z" fill="#263238"/>
<path d="M82.2569 99.274C82.2923 99.274 82.2923 99.1401 82.304 99.0935C82.3266 99.0297 82.3353 98.9619 82.3295 98.8946C82.3236 98.8273 82.3034 98.7619 82.2702 98.7029C82.237 98.6439 82.1914 98.5925 82.1367 98.5522C82.0819 98.5118 82.019 98.4835 81.9523 98.4689C81.8857 98.4544 81.8166 98.454 81.7498 98.4679C81.6829 98.4817 81.6198 98.5094 81.5646 98.5492C81.5094 98.589 81.4633 98.6399 81.4295 98.6985C81.3956 98.7572 81.3747 98.8223 81.3682 98.8896L81.2799 99.2798C81.3564 99.3497 81.2799 99.4604 81.3152 99.5419C81.3505 99.6235 81.3152 99.5419 81.3152 99.5769C81.3152 99.6118 81.2269 99.6293 81.2269 99.6759C81.2269 99.6759 81.2269 99.7225 81.2269 99.6759C81.2269 99.6759 81.1798 99.7458 81.1504 99.7807C81.1318 99.8084 81.1216 99.8407 81.121 99.8739C81.0984 99.9377 81.0897 100.005 81.0955 100.073C81.1013 100.14 81.1215 100.205 81.1548 100.264C81.188 100.324 81.2335 100.375 81.2883 100.415C81.3431 100.456 81.4059 100.484 81.4726 100.498C81.5393 100.513 81.6084 100.513 81.6752 100.499C81.7421 100.486 81.8052 100.458 81.8604 100.418C81.9156 100.378 81.9617 100.328 81.9955 100.269C82.0294 100.21 82.0503 100.145 82.0568 100.078L82.1274 99.7574C82.1274 99.6759 82.2334 99.4604 82.1274 99.3963C82.0215 99.3322 82.0804 99.3963 82.0686 99.3556C82.0614 99.3421 82.0576 99.3271 82.0576 99.3119C82.0576 99.2966 82.0614 99.2816 82.0686 99.2682C82.1392 99.2099 82.1922 99.309 82.2569 99.274ZM81.8979 99.7865C81.8979 99.8215 81.839 99.8331 81.8096 99.8797C81.787 99.9376 81.7731 99.9984 81.7684 100.06C81.739 100.2 81.6625 100.235 81.5683 100.218C81.4741 100.2 81.4153 100.13 81.4506 99.9904C81.4506 99.9496 81.5035 99.8331 81.4918 99.7982C81.48 99.7633 81.4329 99.7982 81.4094 99.7283C81.3917 99.6674 81.3917 99.6028 81.4094 99.5419C81.4122 99.5285 81.4122 99.5146 81.4094 99.5012C81.4094 99.5012 81.3799 99.4487 81.4094 99.4254C81.4094 99.4254 81.4388 99.4021 81.4094 99.4254C81.4094 99.4254 81.4094 99.3497 81.4094 99.2973C81.4094 99.2449 81.4094 99.2973 81.4094 99.2973C81.5977 99.3672 81.5918 99.0818 81.6213 98.9653C81.6507 98.8488 81.7272 98.7848 81.8214 98.8081C81.9156 98.8314 81.9685 98.8954 81.9391 99.0294C81.8991 99.148 81.8754 99.2714 81.8685 99.3963C81.8931 99.4001 81.9157 99.4119 81.9327 99.4298C81.9498 99.4478 81.9603 99.4708 81.9626 99.4953C81.9567 99.5261 81.9567 99.5577 81.9626 99.5885C81.9626 99.5885 81.9626 99.6409 81.9626 99.6642C81.9626 99.6875 81.9273 99.6642 81.9038 99.6642C81.8875 99.6706 81.8731 99.6808 81.8618 99.694C81.8505 99.7073 81.8427 99.723 81.839 99.74L81.8979 99.7865Z" fill="#263238"/>
<path d="M78.9609 95.0396L80.9504 95.4706" stroke="#263238" stroke-linecap="round" stroke-linejoin="round"/>
<path d="M74.4375 94.0611L77.969 94.8299" stroke="#263238" stroke-linecap="round" stroke-linejoin="round"/>
<path d="M74.1406 95.4126L76.4714 95.9135" stroke="#263238" stroke-linecap="round" stroke-linejoin="round"/>
<path opacity="0.4" d="M53.7578 183.506C56.8508 182.705 60.0313 182.283 63.2282 182.248C68.9728 182.108 72.6456 183.186 77.3543 180.879C82.063 178.573 85.1178 182.726 89.6205 180.419C94.1232 178.113 96.2127 174.42 98.8142 174.502C101.416 174.583 105.289 133.329 106.536 126.229C107.784 119.129 110.439 99.3381 111.351 95.3193L106.225 184.764L53.7578 183.506Z" fill="white"/>
<path d="M54.0017 165.904L68.3573 183.185L53.1953 182.253L54.0017 165.904Z" fill="#03DAC3" stroke="#263238" stroke-linecap="round" stroke-linejoin="round"/>
<path d="M92.1046 131.733L91.8751 138.309C91.8432 139.226 91.6289 140.128 91.2445 140.964C90.8601 141.8 90.3132 142.552 89.6349 143.178C88.9566 143.805 88.1602 144.293 87.2913 144.614C86.4223 144.936 85.4979 145.085 84.5707 145.053L77.7431 144.814C76.8133 144.783 75.899 144.57 75.0526 144.188C74.2063 143.806 73.4446 143.262 72.8112 142.587C72.1779 141.913 71.6855 141.122 71.3621 140.258C71.0388 139.395 70.891 138.477 70.9272 137.557L71.2333 128.996C71.2993 127.144 72.1058 125.393 73.4755 124.13C74.8453 122.866 76.6661 122.192 78.5377 122.257L85.3653 122.49C85.5536 122.49 85.742 122.49 85.9539 122.53C84.9985 123.44 84.3954 124.652 84.2496 125.956C84.1037 127.26 84.4243 128.573 85.1557 129.667C85.887 130.761 86.9827 131.567 88.2523 131.944C89.5219 132.322 90.885 132.247 92.1046 131.733Z" fill="#03DAC3" stroke="#263238" stroke-linecap="round" stroke-linejoin="round"/>
<path d="M93.3359 126.054C93.3146 126.686 93.1043 127.298 92.7316 127.812C92.3589 128.326 91.8405 128.719 91.2421 128.941C90.6437 129.163 89.9921 129.205 89.3697 129.061C88.7474 128.917 88.1822 128.593 87.7457 128.131C87.3092 127.669 87.021 127.089 86.9176 126.465C86.8142 125.841 86.9001 125.2 87.1646 124.625C87.4291 124.049 87.8602 123.563 88.4034 123.23C88.9466 122.897 89.5776 122.73 90.2164 122.752C91.072 122.782 91.8806 123.147 92.4652 123.766C93.0498 124.385 93.3629 125.207 93.3359 126.054Z" fill="#03DAC3" stroke="#263238" stroke-linecap="round" stroke-linejoin="round"/>
<path opacity="0.4" d="M72.8672 138.373L82.9026 129.881C82.9026 129.881 81.6313 125.332 82.9026 123.893H78.0821C76.9212 123.889 75.8026 124.324 74.9548 125.109C74.107 125.894 73.594 126.969 73.5205 128.116L72.8672 138.373Z" fill="white"/>
<path opacity="0.4" d="M88.736 126.229L90.8844 123.899C90.8844 123.899 89.5483 123.008 88.736 123.899C87.9237 124.79 88.736 126.229 88.736 126.229Z" fill="white"/>
<path d="M87.6875 176.964L103.868 177.658" stroke="#263238" stroke-linecap="round" stroke-linejoin="round"/>
<path d="M82.0859 178.578L103.87 179.731" stroke="#263238" stroke-linecap="round" stroke-linejoin="round"/>
<path d="M98.1562 183.185H103.86" stroke="#263238" stroke-linecap="round" stroke-linejoin="round"/>
<path opacity="0.2" d="M78.3348 124.377C69.9886 128.349 60.9479 114.435 57.7813 112.519C57.0006 112.031 56.2728 111.465 55.6094 110.83L56.9867 87.9982L81.419 88.9708C81.26 92.3723 81.313 96.129 82.0782 98.2898C83.7262 103.002 86.6751 120.411 78.3348 124.377Z" fill="black" fill-opacity="0.7"/>
<path opacity="0.4" d="M68.9844 125.088C68.9844 125.088 75.659 127.953 78.6843 126.253C81.7097 124.552 84.9704 121.302 85.4354 114.085C85.4354 114.085 89.4084 124.249 81.3977 127.295C73.387 130.341 68.9844 125.088 68.9844 125.088Z" fill="white"/>
<path opacity="0.4" d="M66.375 129.153C66.375 129.153 79.9125 132.752 85.7042 126.241C85.7042 126.241 84.9273 129.857 78.6765 130.9C72.4257 131.943 66.375 129.153 66.375 129.153Z" fill="white"/>
<path opacity="0.4" d="M88.1538 105.885C87.1238 104.073 88.3893 120.352 88.3893 120.352C88.3893 120.352 90.2492 109.601 88.1538 105.885Z" fill="white"/>
<path d="M112.983 90.2228L107.274 186.179L51.1875 184.356L55.6137 110.829L56.991 87.9979L81.4291 88.9706L112.983 90.2228Z" stroke="#263238" stroke-linecap="round" stroke-linejoin="round"/>
<path opacity="0.4" d="M110.136 186.692L108.094 186.179L112.973 98.3069L113.838 104.108L110.136 186.692Z" fill="white"/>
<path d="M78.3322 124.377C77.5604 124.783 76.7021 125.001 75.8282 125.015C74.9543 125.028 74.0897 124.835 73.3057 124.453C71.9489 123.748 70.8542 122.634 70.1803 121.273C67.8554 117.126 61.5634 107.679 60.4039 104.965C59.2443 102.25 56.6781 94.5739 54.1177 91.353C51.5574 88.1321 50.1565 83.2863 50.1565 83.2863L49.2266 36.2837C50.6215 43.0807 54.465 50.798 54.465 50.798C57.8043 52.5174 60.6416 55.0563 62.7052 58.1716C63.3059 58.8046 63.844 59.4931 64.3121 60.2276C68.1144 66.052 69.9566 76.5358 70.1567 84.6899C70.3922 93.9099 73.4175 98.086 78.3087 106.118C83.1999 114.15 81.5106 122.589 78.3322 124.377Z" fill="white"/>
<path opacity="0.4" d="M78.3326 124.377C77.5576 124.773 76.7004 124.986 75.8283 125C74.9562 125.013 74.0928 124.826 73.306 124.453C75.9782 123.731 79.4862 122.374 78.6798 120.376C77.4144 117.184 73.7121 121.92 71.8522 120.376C69.9923 118.833 63.2353 109.98 67.5261 106.083C71.8169 102.187 70.469 95.6517 67.5261 93.8112C64.5831 91.9707 66.4961 87.5849 67.426 80.6831C68.0146 76.507 65.9958 67.0483 64.3359 60.2221C68.1382 66.0465 69.9805 76.5303 70.1806 84.6844C70.4161 93.9044 73.4414 98.0804 78.3326 106.112C83.2237 114.144 81.5109 122.7 78.3326 124.377Z" fill="#03DAC3"/>
<path d="M49.2266 36.2545C50.6215 43.0515 54.465 50.7688 54.465 50.7688C57.8043 52.4882 60.6416 55.0271 62.7052 58.1424C67.5964 63.2096 69.9272 75.4233 70.1568 84.6374C70.3863 93.8515 73.4175 98.0334 78.3087 106.065C83.1999 114.097 81.8402 122.472 78.3087 124.377C75.8484 125.711 72.4876 125.42 70.1568 121.273C67.8259 117.126 61.5398 107.679 60.3803 104.964C59.2208 102.25 56.6545 94.5738 54.0942 91.3529C51.5338 88.132 50.133 83.2862 50.133 83.2862" stroke="#263238" stroke-linecap="round" stroke-linejoin="round"/>
<path d="M64.3438 104.108C64.3438 104.108 68.146 103.77 69.8882 102.361" stroke="#263238" stroke-linecap="round" stroke-linejoin="round"/>
<path d="M48.7597 84.2122C48.7597 84.2122 48.0181 85.9595 51.9028 87.7068" stroke="#263238" stroke-linecap="round" stroke-linejoin="round"/>
</svg>
