<svg width="92" height="100" viewBox="0 0 92 100" fill="none" xmlns="http://www.w3.org/2000/svg">
<path d="M8.30517 89.8388C23.0161 100.204 87.4684 88.0864 91.6716 64.9605C95.8748 41.8345 58.6821 -2.79685 39.8297 0.137901C20.9773 3.07266 -6.40579 79.474 8.30517 89.8388Z" fill="url(#paint0_linear_6241_15629)"/>
<path d="M84.666 25.3659C72.6826 5.39336 12.0032 8.99794 2.70321 25.3659C-6.59677 41.7339 8.46257 100 42.2833 100C76.104 100 96.6495 45.3385 84.666 25.3659Z" fill="#E7E7E7"/>
<path d="M44.5327 34.6026C45.2351 34.6026 45.9268 34.6475 46.5703 34.7533C47.204 34.8352 47.8293 34.9715 48.439 35.1606C49.0502 35.3431 49.6481 35.5706 50.246 35.8562C50.8277 36.1286 51.4256 36.4619 52.0235 36.8242C53.0342 37.459 54.0289 37.9721 55.0423 38.382C57.0373 39.1698 59.147 39.6385 61.2917 39.7706C62.3802 39.8473 63.4982 39.8923 64.6618 39.8923V50.4716C64.6618 52.4817 64.4017 54.386 63.8816 56.2003C63.382 57.9888 62.6721 59.7135 61.7663 61.3392C60.8643 62.9627 59.7971 64.4914 58.5812 65.9016C57.3467 67.3438 56.01 68.6979 54.5812 69.9535C53.1335 71.2128 51.6087 72.3831 50.0154 73.4579C48.4229 74.5476 46.8143 75.5605 45.2056 76.4809L44.5622 76.8592L43.9188 76.4809C42.2651 75.5365 40.6499 74.528 39.0769 73.4579C37.4747 72.3952 35.9491 71.2243 34.5111 69.9535C33.0831 68.6978 31.7473 67.3438 30.5137 65.9016C29.3011 64.4854 28.2291 62.9576 27.3126 61.3392C26.4223 59.7062 25.7131 57.9833 25.1972 56.2003C24.6738 54.335 24.4158 52.407 24.4305 50.4716V39.8923C25.5967 39.8923 26.7147 39.8473 27.8032 39.7706C28.8747 39.6972 29.9392 39.546 30.9882 39.3183C32.0151 39.0909 33.0419 38.7894 34.0526 38.382C35.1014 37.9645 36.107 37.4481 37.0554 36.8401C38.235 36.0837 39.4307 35.5256 40.6104 35.158C41.8808 34.7738 43.204 34.5864 44.5327 34.6026ZM61.9647 42.4921C59.9352 42.395 57.9247 42.0603 55.9753 41.495C54.0362 40.9244 52.1893 40.0846 50.4899 39.0009C49.6085 38.4302 48.6512 37.9825 47.6454 37.6706C46.6406 37.371 45.5957 37.223 44.5461 37.2315C43.4887 37.2248 42.4361 37.3728 41.4227 37.6706C40.4154 37.9723 39.4594 38.4207 38.5862 39.0009C36.8839 40.0906 35.0322 40.934 33.0875 41.5056C31.1866 42.0504 29.1973 42.3837 27.1115 42.5054V50.4848C27.1115 52.2384 27.3421 53.9152 27.8032 55.5312C28.273 57.1331 28.9203 58.6791 29.7335 60.1411C30.5565 61.6184 31.5264 63.0111 32.629 64.2988C33.747 65.5974 34.94 66.8061 36.2269 67.954C37.5138 69.1045 38.8624 70.1624 40.2726 71.1437C41.6962 72.1275 43.1225 73.0189 44.5461 73.8335C46.0038 72.9963 47.4251 72.0989 48.8063 71.1437C50.2258 70.1655 51.5815 69.1002 52.8653 67.954C54.1522 66.8061 55.3479 65.5974 56.4659 64.2988C57.5686 63.0112 58.5386 61.6184 59.3614 60.1411C60.171 58.6809 60.8087 57.1343 61.2622 55.5312C61.7374 53.8904 61.9739 52.1913 61.9647 50.4848V42.4921Z" fill="#564063"/>
<path fill-rule="evenodd" clip-rule="evenodd" d="M54.5323 47.0571L53.3527 46.0574L52.2642 46.1499L40.575 59.7655L36.5937 54.1585L35.5213 53.9786L34.28 54.8541L34.095 55.912L39.213 63.1218L39.7948 63.4392L41.02 63.5133L41.6474 63.2435L54.6101 48.1283L54.5323 47.0571Z" fill="#564063"/>
<defs>
<linearGradient id="paint0_linear_6241_15629" x1="39.0762" y1="-24.7608" x2="39.0762" y2="124.81" gradientUnits="userSpaceOnUse">
<stop stop-color="#36283E"/>
<stop offset="1" stop-color="#B29CBF"/>
</linearGradient>
</defs>
</svg>
