<svg width="520" height="540" viewBox="0 0 520 540" fill="none" xmlns="http://www.w3.org/2000/svg">
<path d="M21.3792 415.635H174.067L178.978 319.26H16.4688L21.3792 415.635Z" fill="#EBEBEB"/>
<path d="M162.878 363.34H28.4255L26.5781 329.883H165.035L162.878 363.34ZM29.5458 362.154H161.758L163.772 331.069H27.8177L29.5458 362.154Z" fill="#DBDBDB"/>
<path d="M161.05 401.87H32.3303L30.8047 371.639H162.945L161.05 401.87ZM33.4029 400.685H159.93L161.682 372.824H31.9965L33.4029 400.685Z" fill="#DBDBDB"/>
<path d="M111.108 350.298H82.6113L81.5625 342.225H112.157L111.108 350.298ZM83.6959 349.113H110.072L110.811 343.41H82.9212L83.6959 349.113Z" fill="#DBDBDB"/>
<path d="M111.108 390.797H82.6113L81.5625 382.735H112.157L111.108 390.797ZM83.6959 389.611H110.072L110.811 383.921H82.9212L83.6959 389.611Z" fill="#DBDBDB"/>
<path d="M42.5632 415.635L41.0853 426.127L38.0938 447.23H32.2656V415.635H42.5632Z" fill="#EBEBEB"/>
<path d="M42.5632 415.635L41.0853 426.127H32.2656V415.635H42.5632Z" fill="#DBDBDB"/>
<path d="M152.906 415.635L154.384 426.127L157.364 447.23H163.192V415.635H152.906Z" fill="#EBEBEB"/>
<path d="M152.906 415.635L154.384 426.127H163.192V415.635H152.906Z" fill="#DBDBDB"/>
<path d="M314.873 38.6973H258.594V115.664H314.873V38.6973Z" fill="#EBEBEB"/>
<path d="M377.498 38.6973H321.219V115.664H377.498V38.6973Z" fill="#EBEBEB"/>
<path d="M314.873 121.971H258.594V198.938H314.873V121.971Z" fill="#EBEBEB"/>
<path d="M377.498 121.971H321.219V198.938H377.498V121.971Z" fill="#EBEBEB"/>
<path d="M444.084 38.6973H387.805V115.664H444.084V38.6973Z" fill="#EBEBEB"/>
<path d="M506.701 38.6973H450.422V115.664H506.701V38.6973Z" fill="#EBEBEB"/>
<path d="M444.076 121.971H387.797V198.938H444.076V121.971Z" fill="#EBEBEB"/>
<path d="M506.701 121.971H450.422V198.938H506.701V121.971Z" fill="#EBEBEB"/>
<path d="M455.84 531.784C486.343 531.784 511.07 525.998 511.07 518.861C511.07 511.724 486.343 505.939 455.84 505.939C425.337 505.939 400.609 511.724 400.609 518.861C400.609 525.998 425.337 531.784 455.84 531.784Z" fill="#EBEBEB"/>
<path d="M275.109 509.175C380.915 509.175 466.687 498.448 466.687 485.215C466.687 471.982 380.915 461.255 275.109 461.255C169.304 461.255 83.5312 471.982 83.5312 485.215C83.5312 498.448 169.304 509.175 275.109 509.175Z" fill="#EBEBEB"/>
<path d="M250.344 540C356.149 540 441.922 529.272 441.922 516.04C441.922 502.807 356.149 492.079 250.344 492.079C144.538 492.079 58.7656 502.807 58.7656 516.04C58.7656 529.272 144.538 540 250.344 540Z" fill="#EBEBEB"/>
<path d="M9.88281 447.23L70.2381 446.933L130.593 446.838L251.304 446.637L372.015 446.838L432.37 446.933L492.725 447.23L432.37 447.514L372.015 447.621L251.304 447.823L130.593 447.621L70.2381 447.514L9.88281 447.23Z" fill="#263238"/>
<path d="M250.548 149.825C259.88 85.6445 215.14 26.0908 150.62 16.808C86.0989 7.52519 26.2293 52.0284 16.8972 116.209C7.56514 180.389 52.3044 239.943 116.825 249.226C181.346 258.508 241.216 214.005 250.548 149.825Z" fill="#03DAC3"/>
<path opacity="0.1" d="M251.636 140.642C254.414 78.8285 206.291 26.4781 144.149 23.7144C82.0074 20.9507 29.3794 68.8202 26.601 130.634C23.8226 192.448 71.9461 244.798 134.088 247.562C196.229 250.326 248.858 202.456 251.636 140.642Z" fill="black"/>
<path d="M244.49 141.366C247.662 83.4855 203.063 34.0064 144.875 30.8514C86.6874 27.6964 36.9458 72.0604 33.7741 129.941C30.6024 187.822 75.2017 237.301 133.389 240.456C191.577 243.611 241.319 199.247 244.49 141.366Z" fill="white"/>
<path d="M242.258 113.364C194.203 142.327 115.231 189.832 71.0965 215.879C58.6191 205.413 48.7505 192.212 42.2656 177.313L188.243 42.728C201.882 49.8692 213.785 59.8926 223.116 72.095C232.447 84.2974 238.98 98.3831 242.258 113.364Z" fill="#EBEBEB"/>
<path d="M244.566 139.268C244.184 150.946 241.827 162.477 237.594 173.377L105.989 235.299C100.254 233.413 94.6946 231.033 89.375 228.185C129.123 205.363 201.766 163.785 244.566 139.268Z" fill="#EBEBEB"/>
<path d="M140.147 38.3059H138.109V54.2161H140.147V38.3059Z" fill="#C7C7C7"/>
<path d="M91.0775 50.8274L89.3125 51.8411L97.3098 65.6197L99.0748 64.6061L91.0775 50.8274Z" fill="#C7C7C7"/>
<path d="M54.8784 86.079L53.8594 87.8347L67.7111 95.7898L68.7302 94.0341L54.8784 86.079Z" fill="#C7C7C7"/>
<path d="M57.2681 134.633H41.2734V136.66H57.2681V134.633Z" fill="#C7C7C7"/>
<path d="M67.7111 175.487L53.8594 183.442L54.8784 185.198L68.7302 177.243L67.7111 175.487Z" fill="#C7C7C7"/>
<path d="M97.3104 205.661L89.3203 219.443L91.0859 220.456L99.0759 206.673L97.3104 205.661Z" fill="#C7C7C7"/>
<path d="M140.147 217.077H138.109V232.987H140.147V217.077Z" fill="#C7C7C7"/>
<path d="M180.937 205.661L179.172 206.674L187.169 220.453L188.934 219.439L180.937 205.661Z" fill="#C7C7C7"/>
<path d="M210.527 175.465L209.508 177.221L223.36 185.176L224.379 183.42L210.527 175.465Z" fill="#C7C7C7"/>
<path d="M236.979 134.633H220.984V136.66H236.979V134.633Z" fill="#C7C7C7"/>
<path d="M223.367 86.1137L209.516 94.0688L210.535 95.8245L224.386 87.8694L223.367 86.1137Z" fill="#C7C7C7"/>
<path d="M187.178 50.8439L179.188 64.6267L180.953 65.6394L188.943 51.8566L187.178 50.8439Z" fill="#C7C7C7"/>
<path d="M140.66 45.5027L144.129 142.731L134.117 142.6L137.943 45.479L140.66 45.5027Z" fill="#03DAC3"/>
<path d="M201.534 101.733L135.779 143.489L131 134.739L200.235 99.3623L201.534 101.733Z" fill="#263238"/>
<path d="M139.124 139.043C141.013 139.043 142.544 137.52 142.544 135.641C142.544 133.761 141.013 132.238 139.124 132.238C137.235 132.238 135.703 133.761 135.703 135.641C135.703 137.52 137.235 139.043 139.124 139.043Z" fill="#03DAC3"/>
<path d="M370.141 349.966C376.279 353.013 382.345 356.179 388.4 359.356C394.454 362.533 400.473 365.794 406.516 369.018C412.559 372.243 418.53 375.575 424.501 378.918L433.44 383.956C436.396 385.676 439.399 387.359 442.319 389.114C439.244 387.596 436.217 386.019 433.154 384.466L424.06 379.724C417.993 376.547 411.987 373.275 405.944 370.062C399.901 366.849 393.942 363.494 387.971 360.15C382 356.807 376.04 353.44 370.141 349.966Z" fill="#A6A6A6"/>
<path d="M437.225 349.966C431.755 353.096 426.213 356.12 420.671 359.131C415.128 362.142 409.539 365.059 403.985 368.011C398.431 370.963 392.793 373.808 387.156 376.653L378.694 380.886C375.857 382.249 373.032 383.66 370.172 385C372.901 383.423 375.678 381.917 378.419 380.364L386.762 375.835C392.316 372.836 397.906 369.908 403.448 366.956C408.99 364.003 414.652 361.158 420.277 358.325C425.903 355.491 431.516 352.67 437.225 349.966Z" fill="#A6A6A6"/>
<path d="M302.008 349.966C308.146 353.013 314.212 356.179 320.267 359.356C326.322 362.533 332.34 365.794 338.383 369.018C344.426 372.243 350.397 375.575 356.356 378.918L365.307 383.956C368.263 385.676 371.266 387.359 374.186 389.114C371.111 387.596 368.084 386.019 365.021 384.466L355.927 379.724C349.861 376.547 343.854 373.275 337.811 370.062C331.768 366.849 325.797 363.494 319.838 360.15C313.879 356.807 307.907 353.44 302.008 349.966Z" fill="#A6A6A6"/>
<path d="M369.085 349.966C363.614 353.096 358.072 356.12 352.53 359.131C346.988 362.142 341.386 365.059 335.844 368.011C330.302 370.963 324.653 373.808 319.015 376.653L310.553 380.886C307.716 382.249 304.892 383.66 302.031 385C304.761 383.423 307.538 381.917 310.279 380.364L318.622 375.835C324.176 372.836 329.766 369.908 335.308 366.956C340.85 364.003 346.511 361.158 352.137 358.325C357.762 355.491 363.388 352.67 369.085 349.966Z" fill="#A6A6A6"/>
<path d="M314.462 340.589L310.851 362.118L286.406 493.467H282.461L300.243 362.118L302.865 340.589H314.462Z" fill="#A6A6A6"/>
<path d="M302.864 340.589H314.461L310.85 362.118H300.242L302.864 340.589Z" fill="#263238"/>
<path d="M391.251 493.467H387.306L362.861 362.118L359.25 340.589H370.847L373.469 362.118L391.251 493.467Z" fill="#A6A6A6"/>
<path d="M370.847 340.589L373.469 362.118H362.861L359.25 340.589H370.847Z" fill="#263238"/>
<path d="M464.599 493.467H460.654L436.197 362.118L432.586 340.589H444.183L446.817 362.118L464.599 493.467Z" fill="#A6A6A6"/>
<path d="M446.817 362.118H436.197L432.586 340.589H444.183L446.817 362.118Z" fill="#263238"/>
<path d="M458.343 350.702H279.172V331.922H346.237L368.787 187.58H451.513L458.343 350.702Z" fill="#A6A6A6"/>
<path d="M458.344 350.701H448.583L442.219 187.58H451.515L458.344 350.701Z" fill="#DBDBDB"/>
<path d="M333.882 229.039C342.559 236.971 355.824 238.524 367.076 237.587C378.553 236.615 391.175 233.627 400.65 226.834C404.926 223.912 408.302 219.865 410.399 215.144C412.509 210.046 412.104 205.091 408.397 201.167C405.417 198.001 399.696 196.282 399.196 193.045C398.695 189.809 400.936 186.857 401.198 183.644C401.627 178.143 398.159 174.598 393.928 171.705C383.904 164.841 384.643 153.685 377.695 144.319C373.75 138.996 363.452 129.618 348.685 136.826C343.06 139.565 339.842 145.564 338.292 151.503C336.469 158.486 339.794 166.809 337.303 173.638C335.17 179.459 330.974 180.965 328.96 187.035C328.114 189.667 327.959 192.607 331.439 197.989C332.703 199.934 334.192 202.969 333.704 205.577C333.024 209.205 329.199 211.398 328.412 215.192C327.375 220.408 330.057 225.542 333.882 229.039Z" fill="#263238"/>
<path d="M407.136 217.029C412.333 215.346 413.489 207.628 409.52 204.379C407.017 202.316 403.644 201.7 401.177 199.637C397.053 196.258 399.664 192.251 400.975 188.125C403.823 179.174 397.328 174.408 390.582 170.176C385.457 166.951 383.86 162.624 382.68 156.909C382.68 156.826 382.799 156.791 382.823 156.909C383.895 161.083 385.123 165.149 388.579 168.018C391.392 170.389 394.86 171.705 397.614 174.147C402.226 178.238 403.477 183.253 401.559 189.014C401.01 190.674 399.783 192.642 399.723 194.373C399.592 198.44 402.87 200.028 405.98 201.487C408.364 202.672 411.022 203.952 412.238 206.466C414.085 210.272 411.356 216.247 407.303 217.302C407.053 217.397 406.934 217.1 407.136 217.029Z" fill="#263238"/>
<path d="M404.877 221.511C407.832 219.021 411.098 216.685 412.481 212.915C414.519 207.343 410.371 204.024 406.521 200.894C404.853 199.554 403.423 198.179 403.149 195.962C402.755 192.654 404.71 189.512 404.603 186.181C404.328 178.238 395.926 174.705 391.17 169.583C386.415 164.461 384.019 157.727 381.469 151.171C381.469 151.029 381.636 150.946 381.683 151.088C384.925 159.387 388.727 167.141 395.842 172.855C400.812 176.839 406.116 181.154 405.198 188.184C404.972 189.903 404.233 191.563 404.007 193.271C403.637 196.685 404.853 198.665 407.368 200.68C409.882 202.696 412.552 204.545 413.434 207.675C415.162 213.757 409.644 218.831 405.198 221.961C405.139 221.985 405.073 221.987 405.012 221.969C404.951 221.951 404.897 221.913 404.86 221.861C404.823 221.809 404.804 221.747 404.807 221.683C404.81 221.619 404.835 221.559 404.877 221.511Z" fill="#263238"/>
<path d="M326.723 213.461C328.738 209.276 332.683 206.727 330.645 201.534C329.274 197.977 326.783 195.322 326.878 191.279C327.114 188.018 328.464 184.934 330.704 182.541C333.362 179.317 336.425 176.613 338.106 172.666C339.929 168.398 340.299 163.691 340.716 159.138C340.716 159.043 340.871 159.055 340.871 159.138C340.656 165.268 340.203 171.599 336.461 176.779C334.506 179.471 331.956 181.7 330.037 184.414C326.58 189.311 327.391 193.899 330.037 198.878C331.229 201.166 332.421 203.466 331.717 206.11C331.014 208.754 328.952 210.663 327.665 212.986C322.206 222.874 334.721 232.193 343.779 232.335C344.184 232.335 344.244 232.963 343.779 232.963C337.033 233.058 329.059 228.221 326.509 221.985C325.943 220.628 325.669 219.169 325.706 217.7C325.743 216.232 326.09 214.787 326.723 213.461Z" fill="#263238"/>
<path d="M327.81 218.096C327.214 214.16 329.276 211.588 330.635 208.209C332.768 202.885 328.895 198.641 327.655 193.603C327.291 191.944 327.263 190.231 327.572 188.562C327.881 186.893 328.521 185.301 329.455 183.881C331.838 179.897 335.152 176.768 336.88 172.369C338.682 167.647 339.055 162.504 337.953 157.573C337.953 157.478 338.072 157.478 338.096 157.573C338.984 160.881 339.166 164.336 338.63 167.717C338.094 171.099 336.853 174.331 334.985 177.206C332.601 180.87 329.026 184.13 328.108 188.659C327.131 193.401 330.11 197.195 331.493 201.581C331.928 202.868 332.1 204.229 331.997 205.583C331.895 206.938 331.521 208.258 330.897 209.465C329.812 211.263 329.008 213.213 328.513 215.251C328.245 218.198 329.048 221.143 330.778 223.55C335.724 231.173 345.247 234.872 353.697 234.813C353.995 234.813 354.055 235.287 353.697 235.287C349.869 235.367 346.062 234.693 342.497 233.303C338.931 231.914 335.677 229.836 332.923 227.189C330.282 224.783 328.489 221.595 327.81 218.096Z" fill="#263238"/>
<path d="M274.299 493.917C277.481 495.008 368.705 495.648 372.197 493.49C373.52 492.684 376.071 456.382 375.32 452.838C372.793 440.804 360.72 404.336 360.72 404.336L299.697 403.732L315.978 452.257L316.18 462.927C316.18 462.927 281.092 478.173 277.517 480.959C273.941 483.745 271.116 492.838 274.299 493.917Z" fill="#DD6A57"/>
<path d="M274.011 494.048C277.217 495.138 368.942 495.79 372.458 493.621C374.091 492.613 375.044 473.217 375.605 452.731L315.941 452.138L316.131 462.808C316.131 462.808 280.9 478.22 277.301 480.983C273.701 483.745 270.817 492.957 274.011 494.048Z" fill="#03DAC3"/>
<path d="M275.366 490.408C290.741 490.147 352.837 490.514 368.033 491.415C368.152 491.415 368.152 491.498 368.033 491.51C352.789 492.103 290.741 491.238 275.366 490.657C275.045 490.645 275.045 490.408 275.366 490.408Z" fill="#263238"/>
<path d="M313.987 459.429C320.053 458.35 327.443 459.322 332.031 463.65C332.21 463.816 331.972 464.065 331.781 464.005C326.013 462.101 320.055 460.821 314.011 460.188C313.91 460.191 313.811 460.154 313.738 460.085C313.664 460.016 313.621 459.921 313.617 459.82C313.614 459.72 313.651 459.622 313.721 459.549C313.79 459.475 313.886 459.432 313.987 459.429Z" fill="#263238"/>
<path d="M309.604 462.014C315.659 460.935 323.06 461.907 327.649 466.234C327.827 466.4 327.589 466.649 327.386 466.59C321.621 464.69 315.667 463.41 309.628 462.772C309.527 462.775 309.428 462.739 309.355 462.67C309.281 462.601 309.238 462.505 309.235 462.405C309.231 462.304 309.269 462.206 309.338 462.133C309.407 462.06 309.503 462.017 309.604 462.014Z" fill="#263238"/>
<path d="M305.221 464.598C311.275 463.519 318.677 464.503 323.265 468.819C323.444 468.985 323.206 469.234 323.003 469.174C317.237 467.279 311.284 466.003 305.244 465.369C305.153 465.356 305.068 465.311 305.007 465.242C304.945 465.174 304.909 465.086 304.906 464.993C304.904 464.901 304.934 464.811 304.991 464.739C305.048 464.667 305.13 464.617 305.221 464.598Z" fill="#263238"/>
<path d="M300.831 467.195C306.885 466.104 314.287 467.088 318.875 471.403C319.054 471.581 318.816 471.83 318.613 471.759C312.847 469.863 306.894 468.587 300.854 467.953C300.753 467.956 300.655 467.919 300.581 467.851C300.508 467.782 300.464 467.686 300.461 467.586C300.458 467.485 300.495 467.387 300.564 467.314C300.634 467.241 300.729 467.198 300.831 467.195Z" fill="#263238"/>
<path d="M305.556 454.023C309.811 457.366 315.377 458.765 320.359 460.627C320.871 460.828 321.288 460.342 321.312 459.88C321.338 459.88 321.363 459.874 321.385 459.862C321.408 459.85 321.427 459.832 321.441 459.811C321.455 459.79 321.464 459.766 321.466 459.741C321.469 459.715 321.465 459.69 321.455 459.666C319.662 454.325 316.484 449.548 312.242 445.819C309.727 443.685 305.306 442.191 302.91 445.428C300.514 448.664 303.077 452.067 305.556 454.023ZM304.054 449.162C303.029 442.559 310.133 446.068 311.92 447.716C313.064 448.796 314.127 449.957 315.103 451.19C317.095 453.748 318.953 456.407 320.669 459.157C318.285 458.09 315.818 457.236 313.386 456.252C310.49 455.078 304.614 452.814 304.054 449.162Z" fill="#263238"/>
<path d="M341.731 450.644C340.288 446.874 335.628 447.088 332.637 448.51C327.546 450.968 323.193 454.713 320.015 459.37C320.001 459.39 319.991 459.414 319.987 459.438C319.983 459.463 319.984 459.488 319.991 459.512C319.998 459.535 320.01 459.558 320.026 459.576C320.043 459.595 320.064 459.609 320.087 459.619C320.053 459.732 320.047 459.851 320.068 459.966C320.089 460.082 320.136 460.191 320.207 460.285C320.277 460.38 320.369 460.456 320.474 460.509C320.579 460.562 320.696 460.59 320.814 460.591C326.117 460.117 331.85 460.259 336.856 458.22C339.776 456.999 343.065 454.201 341.731 450.644ZM328.763 458.256C326.165 458.552 323.555 458.718 320.969 459.109C323.365 456.921 325.871 454.856 328.477 452.921C329.755 452.004 331.093 451.172 332.482 450.431C334.651 449.328 342.446 447.835 339.633 453.988C338.084 457.295 331.814 457.9 328.763 458.256Z" fill="#263238"/>
<path d="M416.837 314.02C405.645 325.081 390.056 332.064 376.79 338.917C365.396 344.75 355.73 350.44 352.071 358.455C348.865 365.568 375.467 443.59 375.467 443.59L310.893 449.399C310.893 449.399 282.801 373.049 289.833 340.185C291.025 334.791 296.4 327.808 304.135 320.185C331.774 293.036 389.078 257.753 389.078 257.753H424.274C424.274 257.753 438.874 292.206 416.837 314.02Z" fill="#455A64"/>
<path d="M420.302 265.376C420.159 263.788 419.992 262.199 419.837 260.634C419.837 260.48 419.575 260.48 419.598 260.634C421.052 273.391 422.256 287.38 416.214 299.224C410.397 310.606 398.741 317.458 388.36 324.216L369.529 336.664L360.089 342.853C357.502 344.474 354.999 346.227 352.593 348.105C350.396 349.796 348.54 351.883 347.122 354.258C345.668 356.947 345.046 360.003 345.334 363.043C346.872 383.553 367.288 437.876 367.765 439.63C367.8 439.709 367.863 439.772 367.942 439.808C368.021 439.844 368.11 439.85 368.193 439.826C368.276 439.801 368.348 439.747 368.394 439.674C368.44 439.601 368.458 439.514 368.444 439.429C364.011 425.747 352.056 395.302 346.705 367.844C346.025 364.288 345.513 360.601 346.621 357.103C347.6 354.32 349.293 351.839 351.532 349.907C353.715 347.979 356.055 346.234 358.528 344.69L368.063 338.383L386.763 326.089C396.977 319.367 408.49 312.846 415.129 302.224C422.101 291.174 421.434 277.825 420.302 265.376Z" fill="#263238"/>
<path d="M416.827 314.02C405.636 325.081 390.046 332.064 376.781 338.917C353.337 332.799 323.732 325.153 304.078 320.232C331.717 293.083 389.021 257.801 389.021 257.801H424.217C424.217 257.801 438.865 292.206 416.827 314.02Z" fill="#263238"/>
<path d="M154.759 447.953C157.477 449.921 244.375 477.533 248.355 476.501C249.869 476.122 254.648 463.768 260 448.676C261.192 445.416 262.383 442.049 263.504 438.611C271.144 416.346 278.724 392.54 278.724 392.54L220.645 373.903L207.01 420.483L204.019 430.715C204.019 430.715 165.987 434.947 161.744 436.548C157.501 438.148 152.042 445.973 154.759 447.953Z" fill="#DD6A57"/>
<path d="M154.446 447.988C157.175 449.98 244.562 477.734 248.602 476.703C250.449 476.229 257.159 457.983 263.834 438.599L207.03 420.377L204.015 430.656C204.015 430.656 165.78 434.912 161.513 436.512C157.247 438.113 151.716 446.009 154.446 447.988Z" fill="#03DAC3"/>
<path d="M156.816 444.906C171.571 449.21 230.71 467.918 245.013 473.288C245.132 473.288 245.108 473.407 245.013 473.371C230.281 469.435 171.297 450.241 156.816 445.155C156.422 445.036 156.494 444.823 156.816 444.906Z" fill="#263238"/>
<path d="M202.953 426.767C209.067 427.526 215.837 430.644 218.924 436.133C219.043 436.346 218.745 436.512 218.566 436.394C213.627 432.875 208.325 429.89 202.75 427.49C202.667 427.453 202.599 427.387 202.56 427.305C202.521 427.223 202.513 427.129 202.537 427.041C202.562 426.954 202.618 426.878 202.694 426.827C202.77 426.777 202.862 426.755 202.953 426.767Z" fill="#263238"/>
<path d="M197.995 427.941C204.097 428.699 210.867 431.818 213.966 437.307C214.085 437.508 213.775 437.674 213.608 437.567C208.667 434.046 203.36 431.061 197.78 428.664C197.694 428.628 197.624 428.561 197.584 428.477C197.543 428.392 197.536 428.296 197.562 428.207C197.589 428.117 197.648 428.041 197.728 427.992C197.807 427.943 197.902 427.924 197.995 427.941Z" fill="#263238"/>
<path d="M193.039 429.103C199.142 429.873 205.911 432.991 208.998 438.469C209.129 438.682 208.819 438.848 208.653 438.729C203.708 435.216 198.402 432.236 192.825 429.838C192.745 429.795 192.683 429.727 192.648 429.644C192.613 429.562 192.608 429.47 192.633 429.384C192.658 429.298 192.712 429.223 192.786 429.172C192.86 429.12 192.949 429.096 193.039 429.103Z" fill="#263238"/>
<path d="M188.128 430.276C194.242 431.035 201.011 434.165 204.098 439.642C204.218 439.856 203.92 440.021 203.741 439.903C198.803 436.386 193.501 433.405 187.925 431.011C187.847 430.969 187.785 430.902 187.75 430.821C187.715 430.74 187.709 430.649 187.733 430.564C187.756 430.478 187.808 430.404 187.88 430.351C187.951 430.299 188.039 430.273 188.128 430.276Z" fill="#263238"/>
<path d="M196.53 419.061C199.593 423.507 204.491 426.482 208.687 429.731C208.785 429.797 208.898 429.839 209.016 429.853C209.134 429.867 209.253 429.853 209.364 429.811C209.476 429.769 209.575 429.701 209.654 429.613C209.733 429.525 209.79 429.419 209.819 429.304C209.844 429.31 209.869 429.309 209.894 429.303C209.918 429.297 209.941 429.286 209.961 429.27C209.98 429.254 209.996 429.234 210.006 429.211C210.017 429.188 210.022 429.163 210.021 429.138C209.899 423.509 208.292 418.01 205.361 413.192C203.597 410.418 199.831 407.679 196.565 410.062C193.3 412.445 194.742 416.512 196.53 419.061ZM196.53 413.975C197.531 407.359 203.264 412.789 204.479 414.923C205.247 416.293 205.916 417.715 206.482 419.179C207.615 422.215 208.593 425.305 209.414 428.439C207.447 426.708 205.349 425.155 203.323 423.507C200.928 421.574 195.993 417.674 196.542 414.022L196.53 413.975Z" fill="#263238"/>
<path d="M232.074 426.577C231.823 422.558 227.306 421.432 224.029 421.835C218.424 422.699 213.147 425.013 208.725 428.545C208.705 428.561 208.689 428.581 208.678 428.603C208.667 428.626 208.662 428.651 208.662 428.676C208.662 428.701 208.667 428.726 208.678 428.748C208.689 428.771 208.705 428.791 208.725 428.806C208.648 428.903 208.596 429.018 208.574 429.14C208.552 429.262 208.561 429.387 208.6 429.505C208.639 429.622 208.707 429.728 208.798 429.813C208.888 429.898 208.998 429.96 209.118 429.992C214.327 431.106 219.762 432.944 225.161 432.446C228.307 432.102 232.3 430.383 232.074 426.577ZM217.366 430.004C214.792 429.506 212.253 428.901 209.667 428.51C212.607 427.125 215.619 425.894 218.689 424.823C220.181 424.322 221.706 423.926 223.254 423.637C225.638 423.222 233.54 424.111 229.07 429.114C226.603 431.853 220.429 430.585 217.366 430.004Z" fill="#263238"/>
<path d="M204.484 414.971L268.844 433.809L288.796 360.743C290.536 336.593 294.91 324.88 309.188 320.434C333.502 312.941 392.904 340.589 419.804 322.046C441.651 306.966 424.226 257.694 424.226 257.694H361.058C361.058 257.694 353.43 266.93 352.024 272.359C352.024 272.359 273.802 266.361 256.294 288.436C232.898 318.075 204.484 414.971 204.484 414.971Z" fill="#455A64"/>
<path d="M320.159 319.379C316.394 319.055 312.601 319.347 308.931 320.244C305.445 321.179 302.196 322.835 299.397 325.105C296.685 327.301 294.488 330.061 292.961 333.191C291.173 336.854 290.577 341.003 289.945 345.046C289.6 347.417 289.373 349.788 289.242 352.16C289.111 354.531 289.016 357.827 289.016 359.854C289.016 360.032 289.254 360.044 289.254 359.854C289.289 357.722 289.468 355.595 289.79 353.487C290.053 351.484 290.41 349.492 290.756 347.5C291.328 343.533 292.257 339.624 293.533 335.823C294.763 332.566 296.657 329.598 299.096 327.105C301.535 324.612 304.465 322.647 307.704 321.335C309.664 320.547 311.713 319.997 313.806 319.699C315.923 319.472 318.055 319.404 320.183 319.497C320.183 319.497 320.206 319.379 320.159 319.379Z" fill="#263238"/>
<path d="M410.703 281.536C408.509 281.042 406.384 280.286 404.374 279.283C402.366 278.369 400.544 277.095 398.999 275.525C397.831 274.006 397.05 272.228 396.722 270.344C396.472 269.324 396.329 268.281 396.162 267.25C395.995 266.218 395.697 264.985 395.614 263.847C395.614 263.705 395.363 263.717 395.375 263.847C395.912 268.139 394.696 272.929 397.914 276.58C399.556 278.243 401.552 279.519 403.754 280.315C405.935 281.265 408.267 281.826 410.643 281.974C410.696 281.972 410.746 281.951 410.785 281.915C410.823 281.88 410.848 281.832 410.855 281.78C410.863 281.728 410.851 281.675 410.823 281.63C410.795 281.586 410.753 281.552 410.703 281.536Z" fill="#263238"/>
<path d="M422.526 271.636C421.954 269.32 421.286 267.036 420.523 264.784C420.523 264.641 420.237 264.701 420.297 264.855C423.385 274.253 424.742 284.13 424.302 294.008C424.246 298.68 423.609 303.327 422.407 307.843C421.253 312.158 418.44 315.85 414.576 318.122C410.589 320.192 406.262 321.537 401.8 322.094C396.797 322.872 391.737 323.225 386.675 323.149C376.365 323.054 366.127 321.667 355.913 320.47C346.009 319.284 336.105 317.944 326.177 317.055C318.048 316.332 309.383 316.249 301.863 319.829C294.712 323.256 290.04 329.788 286.989 336.89C283.556 344.916 281.613 353.57 279.289 361.952C276.524 371.947 262.246 426.447 262.031 428.782C262.031 429.008 262.353 428.996 262.377 428.782C262.877 423.661 275.237 378.586 278.014 368.52L282.197 353.44C283.306 349.421 284.402 345.39 285.773 341.454C288.419 333.949 292.304 326.421 299.181 321.94C306.511 317.197 315.641 316.806 324.115 317.423C328.882 317.755 333.65 318.395 338.417 318.952L354.066 320.801C364.054 321.987 374.053 323.374 384.112 323.682C389.142 323.872 394.179 323.67 399.177 323.078C403.699 322.639 408.138 321.586 412.371 319.948C416.118 318.505 419.267 315.849 421.31 312.408C423.408 308.673 424.123 304.346 424.588 300.161C425.576 290.606 424.878 280.952 422.526 271.636Z" fill="#263238"/>
<path d="M376.177 199.281C367.834 226.549 360.85 247.712 352.769 252.632C346.249 256.627 305.727 264.072 297.848 264.487C294.738 264.653 292.151 264.748 290.316 264.819C285.787 264.973 279.22 235.014 282.533 231.481C283.296 230.675 286.299 230.118 290.507 229.715C304.654 228.351 332.412 228.731 334.116 227.213C335.821 225.696 345.153 214.101 357.739 198.961C366.416 188.505 373.364 185.553 376.081 188.611C377.631 190.378 377.786 194.017 376.177 199.281Z" fill="#DD6A57"/>
<path d="M297.838 264.535C293.052 266.491 288.144 268.135 283.142 269.455C279.162 270.32 267.648 272.525 266.218 268.269C265.265 265.365 271.891 263.266 276.552 261.689C278.995 260.859 282.106 258.559 281.498 256.947C280.449 254.197 274.132 256.485 269.925 258.559C261.82 262.567 250.855 270.012 246.35 265.756C244.646 264.143 246.922 261.571 250.164 259.105C244.979 261.879 239.509 264.084 237.542 262.365C236.422 261.393 236.446 260.16 237.197 258.808C236.548 259.047 235.843 259.094 235.168 258.942C234.494 258.791 233.877 258.448 233.395 257.955C231.893 256.165 232.846 253.734 234.777 251.304C234.476 251.251 234.191 251.127 233.947 250.944C233.702 250.761 233.505 250.522 233.371 250.249C230.296 244.831 248.412 231.043 254.443 230.035C272.154 227.047 290.603 229.762 290.603 229.762C297.087 235.666 297.862 264.523 297.838 264.535Z" fill="#DD6A57"/>
<path d="M273.26 246.692C269.062 247.027 264.991 248.286 261.342 250.379C257.087 252.893 253.607 256.485 249.638 259.378C249.531 259.461 249.638 259.627 249.757 259.544C251.64 258.038 253.678 256.71 255.609 255.276C257.54 253.841 259.363 252.395 261.354 251.138C264.938 248.793 269.016 247.296 273.272 246.763C273.272 246.763 273.308 246.68 273.26 246.692Z" fill="#263238"/>
<path d="M270.496 239.116C265.766 239.905 261.13 241.172 256.659 242.898C251.891 244.949 247.946 248.565 244.12 252.027C241.832 254.114 239.583 256.248 237.375 258.429C237.279 258.524 237.375 258.678 237.506 258.595C241.391 255.007 245.364 251.537 249.424 248.186C253.22 245.038 257.608 242.672 262.332 241.227C265.026 240.408 267.767 239.792 270.508 239.175L270.496 239.116Z" fill="#263238"/>
<path d="M266.031 232.359C261.526 232.975 257.581 233.544 253.481 235.619C248.058 238.417 242.671 243.384 240.776 245.103C238.69 247.048 236.664 249.063 234.674 251.102C234.59 251.185 234.674 251.327 234.817 251.245C239.37 246.812 244.202 242.674 249.286 238.855C251.686 236.991 254.359 235.504 257.212 234.445C260.093 233.533 263.048 232.867 266.043 232.453C266.043 232.453 266.055 232.359 266.031 232.359Z" fill="#263238"/>
<path d="M378.703 194.729C377.654 202.471 371.731 217.338 371.731 217.338L342.578 214.03C342.578 214.03 358.239 194.089 370.05 186.762C374.794 183.834 379.776 186.904 378.703 194.729Z" fill="#03DAC3"/>
<path d="M371.978 213.389C367.675 212.619 363.385 211.908 359.046 211.386C356.877 211.125 354.72 210.9 352.551 210.698C350.382 210.497 348.189 210.532 346.031 210.307C345.912 210.307 345.9 210.485 346.031 210.497C348.189 210.603 350.37 211.018 352.527 211.244C354.684 211.469 356.853 211.718 359.023 211.967C363.337 212.477 367.664 212.975 371.978 213.579C372.085 213.591 372.085 213.413 371.978 213.389Z" fill="#263238"/>
<path d="M367.953 196.306C369.18 195.211 370.657 194.43 372.255 194.029C371.649 194.582 370.972 195.053 370.241 195.428C369.519 195.817 368.75 196.112 367.953 196.306ZM364.186 210.023C363.413 209.781 362.612 209.638 361.803 209.596C362.5 210.028 363.254 210.363 364.043 210.592C364.815 210.839 365.617 210.982 366.427 211.018C365.73 210.586 364.976 210.251 364.186 210.023ZM358.156 197.693C357.906 198.46 357.762 199.258 357.727 200.064C358.158 199.37 358.491 198.62 358.716 197.835C358.965 197.067 359.109 196.27 359.145 195.464C358.721 196.162 358.389 196.911 358.156 197.693Z" fill="white"/>
<path d="M378.702 194.729C378.702 195.156 378.583 195.618 378.488 196.069C378.392 196.519 378.345 196.792 378.249 197.183C376.613 204.061 374.433 210.801 371.73 217.337L370.538 217.207L369.406 217.077L360.241 216.033L358.882 215.891L349.74 214.86L348.549 214.717L345.188 214.338L370.002 186.762C375.246 184.723 379.751 186.904 378.702 194.729Z" fill="#263238"/>
<path d="M350.575 272.976C350.575 272.976 378.274 277.232 429.416 268.708C429.416 268.708 404.149 206.371 386.51 190.461C378.5 183.205 371.385 184.972 365.676 190.461C364.258 191.836 347.262 217.207 346.32 225.66C345.498 233.129 352.16 240.812 352.16 240.812L350.575 272.976Z" fill="#03DAC3"/>
<path d="M401.367 243.432C400.81 242.829 400.337 242.155 399.96 241.428C399.559 240.715 399.262 239.948 399.078 239.152C399.634 239.755 400.107 240.429 400.485 241.156C400.876 241.873 401.172 242.638 401.367 243.432ZM376.123 215.512C375.746 214.782 375.268 214.108 374.705 213.508C374.899 214.302 375.196 215.067 375.587 215.784C375.964 216.511 376.437 217.185 376.993 217.788C376.811 216.993 376.518 216.227 376.123 215.512ZM419.983 264.558C419.602 263.837 419.13 263.168 418.577 262.567C418.771 263.36 419.068 264.125 419.459 264.843C419.836 265.57 420.309 266.244 420.865 266.847C420.674 266.049 420.377 265.279 419.983 264.558ZM369.282 250.178C368.905 249.451 368.432 248.777 367.876 248.174C368.07 248.967 368.366 249.732 368.757 250.45C369.135 251.177 369.608 251.851 370.164 252.454C369.972 251.66 369.676 250.894 369.282 250.178ZM380.557 188.967C380.188 188.235 379.714 187.56 379.15 186.964C379.554 188.553 380.339 190.022 381.439 191.243C381.254 190.445 380.953 189.678 380.545 188.967H380.557ZM383.584 240.492C384.313 240.114 384.99 239.643 385.598 239.093C384.796 239.283 384.023 239.578 383.298 239.97C382.569 240.348 381.892 240.818 381.284 241.369C382.086 241.178 382.859 240.883 383.584 240.492ZM356.672 229.679C357.397 229.3 358.07 228.83 358.674 228.28C357.873 228.462 357.103 228.758 356.386 229.158C355.655 229.533 354.978 230.003 354.372 230.557C355.186 230.369 355.972 230.074 356.708 229.679H356.672ZM370.2 195.428C370.93 195.053 371.608 194.583 372.214 194.029C370.615 194.43 369.139 195.212 367.911 196.306C368.721 196.115 369.502 195.82 370.235 195.428H370.2ZM374.741 267.499C375.483 267.133 376.172 266.671 376.791 266.123C375.192 266.524 373.716 267.306 372.488 268.4C373.287 268.199 374.056 267.896 374.776 267.499H374.741ZM398.435 209.537C399.16 209.158 399.833 208.688 400.437 208.138C398.839 208.539 397.362 209.32 396.134 210.414C396.949 210.226 397.734 209.931 398.47 209.537H398.435ZM406.909 258.026C407.639 257.651 408.317 257.18 408.923 256.627C408.121 256.807 407.35 257.103 406.634 257.504C405.904 257.88 405.226 258.35 404.62 258.903C405.43 258.713 406.211 258.418 406.944 258.026H406.909ZM389.15 252.881C388.378 252.634 387.576 252.49 386.766 252.454C387.464 252.886 388.218 253.222 389.007 253.45C389.78 253.691 390.581 253.835 391.391 253.877C390.704 253.447 389.963 253.112 389.186 252.881H389.15ZM355.635 244.463C354.863 244.216 354.062 244.073 353.251 244.036C353.949 244.469 354.703 244.804 355.492 245.032C356.266 245.274 357.066 245.417 357.876 245.459C357.19 245.029 356.448 244.694 355.671 244.463H355.635ZM390.127 222.945C389.356 222.697 388.554 222.554 387.744 222.518C388.446 222.949 389.204 223.284 389.996 223.514C390.769 223.757 391.57 223.9 392.38 223.941C391.688 223.513 390.943 223.179 390.163 222.945H390.127ZM364.145 210.023C363.372 209.781 362.571 209.638 361.761 209.596C362.459 210.028 363.213 210.364 364.002 210.592C364.774 210.839 365.576 210.982 366.386 211.019C365.699 210.589 364.958 210.254 364.181 210.023H364.145ZM415.979 245.246C415.207 244.998 414.405 244.854 413.595 244.819C414.295 245.247 415.048 245.582 415.836 245.815C416.609 246.055 417.41 246.199 418.219 246.242C417.533 245.812 416.791 245.477 416.014 245.246H415.979ZM406.515 226.099C406.267 226.867 406.123 227.664 406.086 228.47C406.521 227.776 406.858 227.026 407.087 226.241C407.331 225.472 407.475 224.675 407.516 223.87C407.096 224.567 406.771 225.316 406.551 226.099H406.515ZM370.247 232.359C369.999 233.127 369.855 233.924 369.818 234.73C370.253 234.036 370.59 233.286 370.819 232.501C371.064 231.733 371.204 230.935 371.237 230.13C370.823 230.828 370.502 231.578 370.283 232.359H370.247ZM359.056 264.938C358.806 265.706 358.662 266.503 358.627 267.309C359.06 266.61 359.396 265.856 359.628 265.068C359.872 264.299 360.016 263.502 360.057 262.697C359.621 263.395 359.284 264.149 359.056 264.938ZM394.704 267.309C394.456 268.077 394.311 268.874 394.275 269.68C394.706 268.986 395.039 268.236 395.264 267.451C395.514 266.684 395.658 265.886 395.693 265.08C395.271 265.779 394.939 266.528 394.704 267.309ZM385.765 201.617C385.516 202.385 385.371 203.182 385.336 203.988C385.767 203.292 386.103 202.543 386.337 201.759C386.579 200.99 386.723 200.193 386.766 199.388C386.332 200.078 385.996 200.824 385.765 201.605V201.617ZM351.726 216.804C351.477 217.572 351.332 218.369 351.297 219.175C351.73 218.476 352.066 217.723 352.298 216.934C352.547 216.167 352.692 215.369 352.727 214.563C352.294 215.262 351.958 216.016 351.726 216.804Z" fill="white"/>
<path d="M377.444 187.971C377.444 189.394 373.427 199.827 367.206 201.131C365.18 201.57 362.284 190.686 362.284 190.686L361.89 189.927L356.312 179.352L367.313 167.319L368.934 165.683C368.934 165.683 370.269 168.67 371.89 172.417L372.116 172.95C372.212 173.164 372.307 173.353 372.391 173.555C372.641 174.112 372.891 174.74 373.13 175.25C373.368 175.76 373.499 176.116 373.678 176.578C373.857 177.04 374.035 177.491 374.226 177.941C375.527 181.208 376.602 184.559 377.444 187.971Z" fill="#DD6A57"/>
<path d="M371.89 172.464C371.601 175.93 370.557 179.292 368.831 182.316C367.104 185.34 364.735 187.954 361.89 189.975L356.312 179.4L367.313 167.366L368.934 165.73C368.934 165.73 370.269 168.67 371.89 172.464Z" fill="#263238"/>
<path d="M335.701 165.28C338.084 186.098 350.873 187.046 355.39 186.537C359.49 186.062 373.375 183.964 373.184 163.015C372.994 142.066 362.517 136.565 353.09 137.134C343.662 137.703 333.341 144.449 335.701 165.28Z" fill="#DD6A57"/>
<path d="M338.3 161.355C338.777 161.225 339.206 161.035 339.671 160.869C340.177 160.759 340.633 160.489 340.97 160.098C341.055 159.957 341.089 159.791 341.067 159.627C341.046 159.464 340.969 159.313 340.851 159.197C340.584 159.004 340.269 158.885 339.94 158.854C339.611 158.823 339.279 158.88 338.98 159.02C338.324 159.205 337.763 159.628 337.406 160.205C337.338 160.341 337.309 160.493 337.324 160.644C337.339 160.796 337.396 160.94 337.49 161.06C337.583 161.18 337.709 161.272 337.852 161.324C337.996 161.376 338.151 161.387 338.3 161.355Z" fill="#263238"/>
<path d="M352.608 159.423C352.122 159.417 351.636 159.382 351.154 159.316C350.636 159.348 350.121 159.211 349.688 158.925C349.572 158.809 349.497 158.657 349.475 158.494C349.454 158.332 349.487 158.166 349.569 158.024C349.778 157.768 350.051 157.571 350.361 157.455C350.671 157.338 351.006 157.305 351.333 157.36C352.011 157.362 352.663 157.62 353.157 158.083C353.262 158.194 353.333 158.333 353.361 158.483C353.39 158.632 353.374 158.787 353.316 158.929C353.258 159.07 353.161 159.192 353.035 159.279C352.91 159.367 352.762 159.417 352.608 159.423Z" fill="#263238"/>
<path d="M349.94 164.924C349.94 164.924 350.059 164.924 350.071 165.031C350.178 166.453 350.547 168.066 351.894 168.398V168.481C350.285 168.433 349.82 166.287 349.94 164.924Z" fill="#263238"/>
<path d="M351.052 163.299C353.328 162.873 354.019 167.425 351.91 167.816C349.8 168.208 349.145 163.655 351.052 163.299Z" fill="#263238"/>
<path d="M351.98 163.406C352.421 163.596 352.885 163.999 353.374 163.975C353.863 163.952 354.292 163.406 354.566 162.885C354.566 162.885 354.637 162.885 354.649 162.885C354.783 163.291 354.757 163.732 354.575 164.12C354.394 164.507 354.071 164.812 353.672 164.971C352.826 165.22 352.099 164.532 351.741 163.691C351.705 163.584 351.813 163.323 351.98 163.406Z" fill="#263238"/>
<path d="M342.016 165.813C342.016 165.813 341.909 165.896 341.921 165.955C342.195 167.354 342.266 169.002 341.062 169.678C341.062 169.678 341.062 169.761 341.062 169.749C342.612 169.287 342.493 167.093 342.016 165.813Z" fill="#263238"/>
<path d="M340.518 164.533C338.206 164.722 338.766 169.275 340.9 169.121C343.033 168.967 342.449 164.378 340.518 164.533Z" fill="#263238"/>
<path d="M339.596 164.948C339.262 165.244 338.952 165.718 338.523 165.801C338.094 165.884 337.594 165.446 337.212 165.007H337.141C337.224 165.884 337.629 166.762 338.487 166.833C339.346 166.904 339.751 166.074 339.858 165.173C339.882 165.066 339.727 164.841 339.596 164.948Z" fill="#263238"/>
<path d="M345.209 172.191C345.209 172.191 345.209 174.337 345.352 175.333C345.352 175.428 345.615 175.44 345.96 175.416C346.838 175.46 347.711 175.262 348.483 174.844C349.255 174.426 349.896 173.803 350.334 173.045C350.394 172.938 350.251 172.855 350.168 172.938C349.009 173.977 347.548 174.621 345.996 174.776C345.889 174.503 346.115 171.089 345.996 171.101C345.225 171.272 344.483 171.551 343.791 171.93C343.648 167.449 344.244 162.98 344.041 158.522C344.041 158.356 343.791 158.344 343.767 158.522C342.988 163.29 342.692 168.123 342.885 172.95C342.885 173.448 344.84 172.464 345.209 172.191Z" fill="#263238"/>
<path d="M346.031 174.918C346.701 175.666 347.549 176.233 348.498 176.566C349.018 176.732 349.576 176.732 350.095 176.566C351.287 176.198 351.192 175.143 350.918 174.254C350.767 173.782 350.563 173.329 350.31 172.903C349.136 174.011 347.637 174.717 346.031 174.918Z" fill="#263238"/>
<path d="M348.5 176.566C349.019 176.732 349.578 176.732 350.097 176.566C351.289 176.198 351.194 175.143 350.919 174.254C350.313 174.313 349.745 174.572 349.306 174.992C348.867 175.412 348.583 175.966 348.5 176.566Z" fill="#FF9CBD"/>
<path d="M371.82 164.793C369.531 164.793 363.107 159.032 362.082 148.077C362.082 148.077 363.68 157.858 364.538 159.245C365.396 160.632 360.962 155.973 359.985 147.152C357.34 149.362 354.39 151.183 351.225 152.558C347.113 154.04 344.538 154.206 344.217 153.922C343.895 153.637 349.926 151.231 351.451 149.18C351.451 149.18 340.724 155.19 335.552 155.973C334.968 156.068 333.311 143.939 340.879 138.189C348.448 132.439 361.487 137.004 365.134 140.039C365.134 140.039 369.15 140.3 373.929 145.836C378.709 151.373 374.299 164.758 371.82 164.793Z" fill="#263238"/>
<path d="M353.263 171.492C351.509 171.482 349.831 170.782 348.596 169.544C347.361 168.307 346.669 166.632 346.672 164.888C346.676 163.656 347.027 162.45 347.686 161.407C348.344 160.364 349.284 159.526 350.398 158.989C351.512 158.451 352.756 158.235 353.987 158.365C355.218 158.496 356.388 158.967 357.363 159.726C358.339 160.485 359.08 161.502 359.503 162.659C359.926 163.817 360.014 165.069 359.757 166.274C359.5 167.479 358.908 168.588 358.049 169.475C357.189 170.362 356.097 170.991 354.896 171.29C354.362 171.424 353.813 171.491 353.263 171.492ZM347.554 164.888C347.549 166.017 347.881 167.121 348.508 168.062C349.134 169.002 350.027 169.737 351.074 170.172C352.12 170.608 353.273 170.725 354.386 170.509C355.499 170.292 356.523 169.752 357.328 168.957C358.132 168.161 358.682 167.146 358.906 166.04C359.131 164.934 359.02 163.787 358.589 162.743C358.157 161.7 357.424 160.807 356.483 160.178C355.541 159.549 354.433 159.212 353.299 159.209C352.824 159.207 352.351 159.267 351.892 159.387C350.657 159.693 349.559 160.4 348.774 161.397C347.988 162.393 347.559 163.622 347.554 164.888Z" fill="#03DAC3"/>
<path d="M339.402 173.234C336.72 173.578 334.146 170.934 333.681 167.307C333.436 165.683 333.711 164.024 334.468 162.564C334.754 161.919 335.203 161.358 335.771 160.936C336.339 160.513 337.007 160.244 337.71 160.153C338.414 160.063 339.129 160.154 339.786 160.419C340.444 160.683 341.021 161.112 341.464 161.663C342.566 162.885 343.257 164.419 343.442 166.05C343.883 169.453 342.25 172.499 339.867 173.163L339.402 173.234ZM335.242 162.979C334.576 164.272 334.335 165.74 334.551 167.176C334.956 170.294 337.09 172.594 339.318 172.31C341.547 172.025 342.989 169.263 342.584 166.145C342.421 164.701 341.813 163.343 340.844 162.256C340.478 161.827 340.015 161.491 339.493 161.274C338.971 161.058 338.404 160.968 337.84 161.011L337.519 161.071C337.026 161.212 336.569 161.455 336.176 161.784C335.784 162.113 335.466 162.52 335.242 162.979Z" fill="#03DAC3"/>
<path d="M346.977 165.611L347.454 164.876C346.357 164.165 343.878 163.347 342.531 165.256L343.246 165.777C344.486 164.058 346.882 165.552 346.977 165.611Z" fill="#03DAC3"/>
<path d="M376.435 163.525L377.162 163.015C376.924 162.683 374.779 159.731 372.812 159.66C370.846 159.589 359.332 162.221 358.844 162.327L359.034 163.193C362.372 162.434 371.334 160.49 372.788 160.537C374.242 160.585 375.84 162.707 376.435 163.525Z" fill="#03DAC3"/>
<path d="M374.058 170.686C373.769 170.858 373.466 171.005 373.152 171.124C372.838 171.242 372.509 171.314 372.174 171.338C371.748 171.384 371.316 171.335 370.911 171.196C370.592 171.088 370.287 170.941 370.005 170.757C369.611 170.487 369.269 170.15 368.992 169.761V164.047C368.992 164.047 372.198 156.72 375.44 157.739C378.682 158.759 377.287 168.73 374.058 170.686Z" fill="#DD6A57"/>
<path d="M375.019 160.609C375.079 160.609 375.103 160.668 375.019 160.692C372.803 162.15 371.98 164.628 371.563 167.106C371.654 166.838 371.803 166.593 371.999 166.388C372.194 166.183 372.432 166.023 372.696 165.918C372.96 165.813 373.244 165.766 373.528 165.781C373.811 165.796 374.089 165.871 374.34 166.003C374.412 166.003 374.34 166.145 374.34 166.145C373.893 166.093 373.44 166.178 373.044 166.39C372.647 166.602 372.326 166.931 372.123 167.331C371.799 168.009 371.552 168.721 371.384 169.453C371.313 169.69 370.896 169.654 370.931 169.394C370.276 166.299 371.79 161.557 375.019 160.609Z" fill="#263238"/>
<path d="M373.642 169.88C373.642 170.072 373.585 170.26 373.477 170.42C373.37 170.58 373.217 170.704 373.039 170.778C372.86 170.851 372.664 170.871 372.474 170.833C372.285 170.796 372.11 170.703 371.974 170.567C371.837 170.431 371.744 170.258 371.706 170.069C371.669 169.881 371.688 169.685 371.762 169.508C371.836 169.33 371.961 169.178 372.122 169.071C372.283 168.964 372.472 168.907 372.665 168.907C372.924 168.907 373.173 169.01 373.356 169.192C373.539 169.375 373.642 169.622 373.642 169.88Z" fill="white"/>
<path d="M375.32 168.042C375.32 168.178 375.28 168.311 375.204 168.424C375.128 168.537 375.02 168.625 374.893 168.677C374.767 168.729 374.628 168.743 374.494 168.716C374.36 168.69 374.237 168.624 374.14 168.528C374.043 168.432 373.977 168.309 373.951 168.176C373.924 168.043 373.938 167.904 373.99 167.779C374.042 167.653 374.131 167.546 374.245 167.47C374.358 167.395 374.492 167.354 374.629 167.354C374.812 167.354 374.988 167.427 375.118 167.556C375.247 167.685 375.32 167.86 375.32 168.042Z" fill="white"/>
<path d="M390.292 193.911C405.953 215.12 427.049 250.924 417.216 258.631C401.055 271.281 354.442 277.825 343.763 278.892C339.15 279.342 330.545 249.253 333.691 245.447C336.838 241.641 386.014 239.899 386.419 236.911C386.645 235.216 382.951 220.55 378.529 202.305C373.416 181.261 385.799 187.876 390.292 193.911Z" fill="#DD6A57"/>
<path d="M341.797 243.147C341.797 243.147 327.697 242.756 318.472 242.934C313.324 243.029 304.516 243.989 300.762 245.779C295.16 248.458 273.432 263.23 276.925 268.554C280.083 273.367 297.186 258.31 297.186 258.31C297.186 258.31 278.569 272.051 283.48 277.09C288.39 282.128 305.338 262.638 305.338 262.638C305.338 262.638 286.59 277.113 292.454 281.607C296.888 284.986 313.276 268.139 313.276 268.139C313.276 268.139 297.258 280.694 301.655 284.357C306.53 288.412 322.632 273.806 322.632 273.806C335.409 281.251 344.562 279.603 350.927 277.659C352.44 277.161 341.797 243.147 341.797 243.147Z" fill="#DD6A57"/>
<path d="M303.236 253.177C300.995 254.706 298.719 256.236 296.621 257.919C294.524 259.603 292.497 261.476 290.567 263.337C288.011 265.788 285.741 268.516 283.797 271.47C287.623 266.467 295.024 260.196 297.122 258.429C299.219 256.663 301.21 254.872 303.296 253.165C303.355 253.213 303.284 253.141 303.236 253.177Z" fill="#263238"/>
<path d="M309.611 260.587C306.846 262.65 304.01 264.618 301.328 266.811C298.646 269.004 296.322 271.304 293.819 273.664C293.617 273.853 293.819 273.889 293.986 273.664C296.584 271.411 299.171 269.514 301.793 267.285C304.415 265.056 306.965 262.721 309.671 260.599L309.611 260.587Z" fill="#263238"/>
<path d="M316.241 265.957C311.915 269.037 307.921 272.553 304.323 276.45C304.144 276.639 304.323 276.663 304.561 276.45C308.458 272.893 311.486 270.071 316.36 266.076C316.42 266.052 316.336 265.898 316.241 265.957Z" fill="#263238"/>
<path d="M352.344 241.831C350.366 241.831 346.182 242.495 341.546 242.602C331.117 242.815 316.386 242.471 311.13 242.602C296.923 243.028 288.08 253.272 284.027 256.828C281.604 258.981 279.396 261.363 277.437 263.942C276.423 265.353 275.434 267.356 276.721 268.969C278.283 270.925 284.349 268.969 290.726 263.503C290.952 263.302 290.809 263.171 290.571 263.349C281.656 270.249 278.175 269.372 277.282 268.091C276.709 267.297 277.282 265.945 277.854 264.926C278.747 263.449 279.82 262.087 281.048 260.871C285.155 256.654 289.683 252.864 294.563 249.561C299.806 245.83 306.005 243.655 312.441 243.289C317.018 243.005 331.058 243.42 341.57 243.111C346.171 242.969 350.342 242.151 352.297 241.997C352.511 242.056 352.487 241.831 352.344 241.831Z" fill="#263238"/>
<path d="M410.299 220.835L380.372 220.076C380.372 220.076 377.154 205.458 376.51 197.124C375.664 186.086 379.585 183.181 389.323 192.69C395.83 199.056 410.299 220.835 410.299 220.835Z" fill="#03DAC3"/>
<path d="M381.429 191.243C380.329 190.022 379.544 188.553 379.141 186.964C380.241 188.185 381.026 189.653 381.429 191.243ZM398.472 209.537C399.198 209.158 399.871 208.688 400.475 208.138C398.876 208.539 397.4 209.32 396.172 210.414C396.974 210.223 397.748 209.928 398.472 209.537ZM385.767 201.605C385.518 202.373 385.374 203.17 385.338 203.976C385.769 203.28 386.105 202.531 386.339 201.747C386.581 200.978 386.725 200.181 386.768 199.376C386.334 200.07 385.997 200.82 385.767 201.605Z" fill="white"/>
<path d="M384.034 220.183C383.712 220.112 380.637 219.934 380.459 219.981C380.125 218.25 379.815 216.519 379.457 214.8C379.279 213.935 379.088 213.069 378.885 212.216C378.683 211.362 378.444 210.189 378.254 209.359C378.254 209.228 378.051 209.252 378.063 209.359C378.218 210.473 378.361 211.291 378.504 212.251C378.647 213.212 378.766 213.971 378.933 214.824C379.267 216.626 379.553 218.559 379.982 220.349C381.349 220.407 382.718 220.38 384.082 220.266L384.034 220.183Z" fill="#263238"/>
<path d="M407.334 217.93C402.984 217.527 398.645 217.171 394.283 217.017C392.102 216.946 389.933 216.899 387.752 216.887C385.571 216.875 383.39 217.089 381.22 217.041C381.195 217.041 381.171 217.051 381.153 217.069C381.135 217.087 381.125 217.111 381.125 217.136C381.125 217.161 381.135 217.185 381.153 217.203C381.171 217.221 381.195 217.231 381.22 217.231C383.39 217.16 385.594 217.385 387.764 217.432L394.295 217.598C398.645 217.741 402.995 217.871 407.346 218.12C407.429 218.12 407.429 217.942 407.334 217.93Z" fill="#263238"/>
<path d="M264.016 276.947H330.032V271.85L264.016 269.727V276.947Z" fill="#455A64"/>
<path d="M212.129 276.864H255.691C259.397 276.864 254.022 266.337 240.459 262.294C226.896 258.251 207.85 272.917 212.129 276.864Z" fill="#37474F"/>
<path d="M229.222 276.865C228.513 274.646 227.562 272.511 226.385 270.498C225.801 269.518 225.123 268.597 224.359 267.748C223.568 266.893 222.711 266.1 221.797 265.377C222.977 265.726 224.07 266.32 225.003 267.119C225.952 267.91 226.758 268.856 227.387 269.917C228.023 270.971 228.508 272.109 228.829 273.296C229.157 274.456 229.29 275.662 229.222 276.865Z" fill="#263238"/>
<path d="M224.055 266.847C221.767 268.317 219.479 269.656 217.333 271.186C216.254 271.919 215.241 272.744 214.306 273.652C213.334 274.536 212.587 275.637 212.125 276.865C212.147 275.452 212.675 274.094 213.615 273.035C214.48 271.953 215.5 271.002 216.642 270.214C217.771 269.431 218.968 268.748 220.218 268.174C221.446 267.598 222.733 267.153 224.055 266.847Z" fill="#263238"/>
<path d="M180.88 256.485H286.752L269.923 178.072H164.039L180.88 256.485Z" fill="#455A64"/>
<path d="M176.966 256.485H282.838L265.997 178.072H160.125L176.966 256.485Z" fill="#37474F"/>
<path d="M234.067 228.375H236.546L232.78 210.781H230.289L234.067 228.375Z" fill="#263238"/>
<path d="M229.169 228.375H231.648L227.882 210.781H225.391L229.169 228.375Z" fill="#263238"/>
<path d="M224.27 228.375H226.749L222.983 210.781H220.492L224.27 228.375Z" fill="#263238"/>
<path d="M219.372 228.375H221.851L218.085 210.781H215.594L219.372 228.375Z" fill="#263238"/>
<path d="M214.454 228.375H216.945L213.167 210.781H210.688L214.454 228.375Z" fill="#263238"/>
<path d="M209.563 228.375H212.054L208.276 210.781H205.797L209.563 228.375Z" fill="#263238"/>
<path d="M204.665 228.375H207.156L203.377 210.781H200.898L204.665 228.375Z" fill="#263238"/>
<path d="M206.906 276.959H258.978V272.94L206.906 271.257V276.959Z" fill="#455A64"/>
<path d="M192.75 276.948H220.711L237.552 233.022H209.591L192.75 276.948Z" fill="#455A64"/>
<path d="M188.141 276.948H216.101L232.93 233.022H204.981L188.141 276.948Z" fill="#263238"/>
<path d="M438.986 276.948H63.625V283.741H438.986V276.948Z" fill="#37474F"/>
<path d="M430.046 283.741H72.5625V300.789H430.046V283.741Z" fill="#37474F"/>
<path d="M430.046 283.741H72.5625V292.265H430.046V283.741Z" fill="#263238"/>
<path d="M121.021 434.047H88.9844V439.654H121.021V434.047Z" fill="#37474F"/>
<path d="M138.405 516.04H134.949L106.726 385L105.117 377.531L100.052 354.009L98.1684 345.236L91.065 312.325L88.5859 300.789H100.91L102.924 312.325L104.235 319.889L105.117 324.927L110.182 354.009L111.815 363.375L138.405 516.04Z" fill="#37474F"/>
<path d="M100.91 300.789L102.924 312.325H91.065L88.5859 300.789H100.91Z" fill="#263238"/>
<path d="M111.819 363.375L106.729 385L105.12 377.531L100.055 354.009L98.1719 345.236L104.238 319.889L105.12 324.927L110.186 354.009L111.819 363.375Z" fill="#263238"/>
<path d="M121.647 300.789L119.168 312.325L110.182 354.009L105.116 377.531L75.2845 516.04H71.8281L100.051 354.009L105.116 324.927L107.309 312.325L109.312 300.789H121.647Z" fill="#37474F"/>
<path d="M121.65 300.789L119.171 312.325H107.312L109.315 300.789H121.65Z" fill="#263238"/>
<path d="M413.412 434.047H381.375V439.654H413.412V434.047Z" fill="#37474F"/>
<path d="M430.784 516.04H427.316L399.105 385L397.496 377.531L392.419 354.009L390.536 345.236L383.444 312.325L380.953 300.789H393.289L395.291 312.325L396.614 319.889L397.496 324.927L402.549 354.009L404.182 363.375L430.784 516.04Z" fill="#37474F"/>
<path d="M393.289 300.789L395.291 312.325H383.444L380.953 300.789H393.289Z" fill="#263238"/>
<path d="M404.186 363.375L399.108 385L397.499 377.531L392.422 354.009L390.539 345.236L396.618 319.889L397.499 324.927L402.553 354.009L404.186 363.375Z" fill="#263238"/>
<path d="M414.018 300.789L411.539 312.325L402.553 354.009L397.499 377.531L367.655 516.04H364.211L392.422 354.009L397.499 324.927L399.68 312.325L401.695 300.789H414.018Z" fill="#37474F"/>
<path d="M414.018 300.789L411.539 312.325H399.68L401.694 300.789H414.018Z" fill="#263238"/>
<path d="M95.3755 270.213L93.0156 269.905L103.277 192.192L133.527 172.986L143.288 179.34L141.989 181.32L133.503 175.807L105.494 193.591L95.3755 270.213Z" fill="#263238"/>
<path d="M102.391 192.891C102.388 193.289 102.505 193.678 102.725 194.009C102.946 194.34 103.26 194.599 103.629 194.752C103.997 194.905 104.403 194.946 104.795 194.869C105.187 194.792 105.547 194.601 105.829 194.32C106.112 194.039 106.304 193.681 106.381 193.291C106.458 192.901 106.417 192.498 106.263 192.131C106.11 191.764 105.85 191.452 105.516 191.232C105.183 191.013 104.792 190.897 104.393 190.9C103.862 190.9 103.353 191.11 102.977 191.483C102.602 191.857 102.391 192.363 102.391 192.891Z" fill="#03DAC3"/>
<path d="M133.424 176.388C134.53 176.388 135.426 175.497 135.426 174.397C135.426 173.297 134.53 172.405 133.424 172.405C132.318 172.405 131.422 173.297 131.422 174.397C131.422 175.497 132.318 176.388 133.424 176.388Z" fill="#03DAC3"/>
<path d="M160.049 182.067L146.713 196.875L140.563 189.311L136.82 184.699L146.808 173.614L151.826 176.827L160.049 182.067Z" fill="#03DAC3"/>
<path opacity="0.1" d="M160.049 182.067L146.712 196.875L140.562 189.311L151.825 176.827L160.049 182.067Z" fill="black"/>
<path d="M179.371 189.37L156.13 215.168L140.695 195.582L158.108 176.258L179.371 189.37Z" fill="#03DAC3"/>
<path d="M112.447 276.959H78.0625L80.1721 266.218H110.338L112.447 276.959Z" fill="#03DAC3"/>
<path d="M460.039 376.689C459.036 383.635 459.396 390.709 461.1 397.519C461.906 400.674 462.979 403.755 464.306 406.731C465.974 410.537 467.714 414.259 467.297 418.432C466.892 418.705 468.286 418.658 468.322 418.255C479.526 411.912 493.899 410.75 502.516 400.376C506.604 395.456 508.666 389.232 509.667 383.008C510.728 376.227 511.014 368.781 509.262 362.035C507.772 356.38 504.495 350.927 499.12 348.152C493.744 345.378 486.391 345.544 480.586 347.334C468.036 351.211 461.815 364.644 460.039 376.689Z" fill="#03DAC3"/>
<path d="M454.296 459.18C455.821 454.118 457.347 449.044 458.92 443.993C461.995 434.082 465.189 424.218 468.729 414.461C470.851 408.628 473.083 402.846 475.427 397.116C475.177 393.503 474.731 389.905 474.092 386.339C473.163 382.024 471.792 377.851 470.517 373.618C470.496 373.559 470.5 373.493 470.528 373.436C470.556 373.38 470.606 373.336 470.666 373.316C470.726 373.296 470.792 373.3 470.849 373.327C470.906 373.355 470.949 373.404 470.97 373.464C473.485 379.297 476.774 386.742 476.846 393.619C479.587 387.134 482.507 380.744 485.653 374.448C486.014 369.122 485.851 363.773 485.165 358.479C485.155 358.428 485.166 358.376 485.195 358.334C485.224 358.292 485.269 358.263 485.32 358.253C485.37 358.244 485.422 358.255 485.465 358.284C485.507 358.313 485.537 358.357 485.546 358.408C486.497 363.043 486.865 367.778 486.643 372.504C489.026 367.762 491.577 363.102 494.282 358.502C494.521 358.087 495.105 358.502 494.89 358.917C490.683 366.979 486.774 375.219 483.103 383.553C488.265 379.11 494.226 375.678 500.671 373.44C500.957 373.346 501.159 373.749 500.873 373.855C493.842 376.871 487.409 381.111 481.875 386.375C479.245 392.485 476.738 398.642 474.355 404.846C481.363 398.005 490.957 393.512 500.23 391.105C500.551 391.022 500.635 391.497 500.325 391.591C489.598 394.804 481.255 400.862 473.079 408.189C472.126 410.695 471.196 413.208 470.29 415.729C466.818 425.269 463.521 434.876 460.398 444.55C458.896 449.174 457.407 453.822 455.952 458.457C454.391 463.46 453.164 468.736 451.185 473.561C450.994 474.023 450.16 473.917 450.267 473.36C451.369 468.569 452.713 463.836 454.296 459.18Z" fill="#263238"/>
<path d="M472.879 366.896C474.868 369.938 476.241 373.337 476.92 376.902C476.92 376.997 476.788 377.045 476.753 376.902C475.501 373.543 474.04 370.265 472.379 367.086C472.212 366.896 472.688 366.647 472.879 366.896Z" fill="#263238"/>
<path d="M492.862 390.157C495.977 388.434 499.382 387.293 502.909 386.79C503.005 386.79 503.064 386.908 502.909 386.944C501.288 387.62 499.596 388.129 497.963 388.71C496.33 389.291 494.709 390.097 493.053 390.667C492.992 390.67 492.931 390.654 492.88 390.621C492.828 390.588 492.789 390.539 492.768 390.482C492.747 390.425 492.744 390.362 492.761 390.304C492.778 390.245 492.813 390.194 492.862 390.157Z" fill="#263238"/>
<path d="M498.483 362.225C499.499 361.461 500.584 360.794 501.725 360.233C501.763 360.21 501.809 360.202 501.852 360.212C501.896 360.222 501.934 360.249 501.958 360.286C501.981 360.324 501.989 360.37 501.979 360.413C501.969 360.456 501.942 360.494 501.904 360.518C500.91 361.303 499.845 361.994 498.722 362.581C498.519 362.699 498.281 362.355 498.483 362.225Z" fill="#263238"/>
<path d="M422.269 414.544C430.338 416.915 438.454 419.12 446.523 421.479C447.226 421.693 460.825 395.693 455.927 382.297C451.374 369.896 440.945 360.625 428.514 356.404C422.757 354.46 415.678 352.847 409.587 354.163C404.176 355.349 400.351 359.759 398.599 364.833C396.215 371.71 397.001 379.925 398.301 386.944C399.344 393.539 402.082 399.755 406.25 404.988C410.517 410.051 415.988 412.683 422.269 414.544Z" fill="#03DAC3"/>
<path d="M410.576 389.825C415.675 392.304 420.964 394.378 426.392 396.025C430.013 396.997 433.546 398.27 436.952 399.831C433.555 392.267 429.801 384.869 425.844 377.543C420.624 376.037 415.117 373.701 411.22 370.026C411.176 369.988 411.148 369.935 411.144 369.877C411.139 369.819 411.158 369.762 411.196 369.718C411.234 369.674 411.288 369.647 411.346 369.642C411.404 369.638 411.462 369.656 411.506 369.694C415.808 372.717 420.552 374.531 425.307 376.57C424.235 374.602 423.146 372.626 422.042 370.643C421.744 370.097 422.495 369.552 422.864 370.085C427.102 376.212 430.933 382.608 434.33 389.232C435.198 383.426 435.478 377.548 435.164 371.686C435.158 371.668 435.157 371.649 435.16 371.631C435.162 371.612 435.17 371.594 435.181 371.579C435.192 371.564 435.206 371.552 435.223 371.543C435.24 371.535 435.258 371.53 435.277 371.53C435.296 371.53 435.315 371.535 435.332 371.543C435.348 371.552 435.363 371.564 435.374 371.579C435.385 371.594 435.392 371.612 435.395 371.631C435.398 371.649 435.396 371.668 435.391 371.686C436.4 378.078 436.336 384.592 435.2 390.963C438.025 396.583 440.599 402.344 442.923 408.166C443.841 404.668 445.033 401.218 445.831 397.685C447.062 392.645 447.465 387.441 447.023 382.273C447.023 382.119 447.226 382.107 447.249 382.273C448.684 391.857 447.515 401.648 443.865 410.632C445.211 414.188 446.499 417.662 447.679 421.183C453.765 439.19 457.374 457.934 458.405 476.904C458.405 476.996 458.369 477.083 458.304 477.148C458.239 477.212 458.151 477.248 458.06 477.248C457.968 477.248 457.88 477.212 457.815 477.148C457.75 477.083 457.714 476.996 457.714 476.904C455.605 458.201 451.579 439.76 445.7 421.871C443.316 414.876 440.659 408.083 437.703 401.408C432.935 400.009 428.168 398.112 423.508 396.5C418.848 394.887 414.259 393.097 410.397 390.109C410.243 389.991 410.409 389.742 410.576 389.825Z" fill="#263238"/>
<path d="M403.057 382.308C407.991 384.063 412.663 386.505 417.597 388.236C417.824 388.319 417.693 388.687 417.454 388.639C412.246 387.56 407.073 385.96 402.866 382.557C402.675 382.427 402.878 382.213 403.057 382.308Z" fill="#263238"/>
<path d="M443.344 371.638C443.344 371.377 443.677 371.235 443.749 371.496C445.108 376.025 446.037 380.826 444.726 385.45C444.726 385.628 444.381 385.64 444.369 385.45C444.142 380.815 444.393 376.286 443.344 371.638Z" fill="#263238"/>
<path d="M422.936 361.241C424.507 363.489 425.26 366.204 425.069 368.935C425.069 369.101 424.783 369.208 424.736 368.935C424.14 366.351 423.139 363.992 422.352 361.478C422.348 361.409 422.366 361.341 422.403 361.283C422.44 361.224 422.495 361.179 422.559 361.153C422.623 361.127 422.694 361.121 422.762 361.137C422.829 361.153 422.89 361.189 422.936 361.241Z" fill="#263238"/>
<path d="M518.28 426.008C515.897 433.477 510.295 443.792 501.392 443.886C495.623 443.886 489.807 443.258 484.027 443.175C477.829 443.08 471.631 443.092 465.446 443.46C464.945 443.46 466.185 425.012 481.071 416.014C485.242 413.489 490.343 412.694 495.075 411.675C500.493 410.4 506.052 409.822 511.618 409.956C515.039 410.098 517.887 410.821 519.103 414.295C520.319 417.768 519.377 422.463 518.28 426.008Z" fill="#03DAC3"/>
<path d="M511.855 416.69C508.279 417.615 504.585 418.67 500.949 419.82C501.897 418.798 502.9 417.828 503.953 416.915C505.514 415.623 507.23 414.544 508.899 413.465C509.042 413.37 508.959 413.098 508.78 413.169C505.258 414.624 502.215 417.03 499.996 420.116C495.479 421.574 490.997 423.175 486.683 424.941C483.702 426.152 480.844 427.645 478.149 429.399C479.014 427.532 480.047 425.746 481.236 424.064C483.215 421.515 485.884 420.092 488.471 418.29C488.523 418.259 488.56 418.208 488.575 418.149C488.589 418.09 488.58 418.028 488.548 417.976C488.517 417.924 488.466 417.887 488.406 417.873C488.347 417.858 488.285 417.868 488.232 417.899C485.52 419.057 483.082 420.767 481.074 422.92C479.067 425.072 477.535 427.618 476.576 430.395C473.513 432.617 470.714 435.178 468.233 438.03C458.377 449.162 450.618 463.97 450.594 479.074C450.594 479.442 451.178 479.536 451.249 479.169C453.774 464.353 460.262 450.487 470.033 439.026C470.736 438.208 471.463 437.437 472.19 436.655C474.889 436.293 477.607 436.091 480.33 436.05C483.501 436.05 486.647 436.512 489.806 436.773C495.002 437.188 500.747 437.259 505.431 434.651C505.478 434.626 505.514 434.584 505.532 434.534C505.549 434.484 505.548 434.429 505.527 434.38C505.506 434.331 505.467 434.291 505.419 434.269C505.37 434.247 505.315 434.244 505.264 434.26C494.823 438.042 483.811 433.252 473.382 435.505C477.868 431.254 483.126 427.89 488.876 425.593L489.841 425.214C496.551 426.008 503.631 427.751 510.162 425.582C510.203 425.571 510.238 425.544 510.26 425.507C510.281 425.47 510.287 425.427 510.276 425.386C510.265 425.345 510.238 425.31 510.201 425.289C510.164 425.268 510.12 425.262 510.079 425.273C503.762 426.838 497.708 424.87 491.486 424.562C498.268 421.93 505.18 419.82 511.986 417.235C512.463 417.022 512.475 416.5 511.855 416.69Z" fill="#263238"/>
<path d="M514.808 423.234C511.57 423.65 508.312 423.896 505.047 423.969C504.976 423.969 504.952 424.088 505.047 424.1C508.333 424.709 511.72 424.497 514.904 423.483C515.035 423.436 514.963 423.21 514.808 423.234Z" fill="#263238"/>
<path d="M492.757 416.832C490.955 417.636 489.319 418.766 487.931 420.163C487.752 420.318 487.99 420.626 488.169 420.484C488.991 419.891 489.837 419.298 490.684 418.788C491.505 418.338 492.301 417.844 493.067 417.306C493.258 417.128 493.02 416.69 492.757 416.832Z" fill="#263238"/>
<path d="M440.2 440.875C440.307 441.112 439.95 441.349 439.807 441.089C439.782 441.128 439.749 441.161 439.71 441.185C439.671 441.21 439.626 441.225 439.58 441.231C433.589 442.656 427.515 443.714 421.393 444.396C416.47 444.823 410.797 445.096 406.483 442.262C400.643 438.409 396.805 428.107 399.963 421.562C403.694 413.797 414.945 418.006 420.594 420.78C429.285 424.999 436.221 432.107 440.2 440.875Z" fill="#03DAC3"/>
<path d="M444.552 444.467C441.272 441.308 437.627 438.546 433.694 436.239C430.862 431.781 427.108 427.974 422.682 425.072C422.467 424.929 422.288 425.261 422.479 425.415C426 428.22 429.123 431.487 431.764 435.125C427.376 432.743 422.818 430.682 418.129 428.96C416.461 425.869 413.916 423.333 410.811 421.669C410.751 421.669 410.68 421.669 410.739 421.764C413.297 423.701 415.53 426.03 417.354 428.664C414.577 427.632 411.788 426.684 409.011 425.759C408.761 425.676 408.666 426.056 408.904 426.15C413.886 428.083 418.963 430.122 423.897 432.469C417.885 433.424 411.758 433.424 405.745 432.469C405.714 432.464 405.681 432.471 405.654 432.488C405.627 432.505 405.608 432.532 405.599 432.562C405.59 432.593 405.593 432.626 405.607 432.655C405.62 432.683 405.644 432.706 405.674 432.718C411.946 434.568 418.608 434.67 424.934 433.015C428.075 434.53 431.124 436.228 434.064 438.101C431.588 437.896 429.095 438.1 426.686 438.705C422.431 439.687 418.075 440.176 413.707 440.164C413.54 440.164 413.504 440.425 413.707 440.448C421.228 441.74 428.343 438.338 435.804 439.263C438.574 441.136 441.174 443.246 443.575 445.57C448.229 450.199 452.061 455.578 454.909 461.48C458.044 467.835 459.748 474.521 462.287 481.137C462.303 481.198 462.342 481.251 462.397 481.283C462.452 481.315 462.517 481.324 462.579 481.309C462.64 481.293 462.693 481.253 462.726 481.199C462.758 481.144 462.767 481.079 462.752 481.018C460.523 467.977 454.039 453.691 444.552 444.467Z" fill="#263238"/>
<path d="M421.848 426.696C421.351 425.797 420.698 424.994 419.917 424.325C419.289 423.641 418.537 423.082 417.7 422.677C417.629 422.677 417.581 422.748 417.629 422.795C418.248 423.495 419.106 423.981 419.774 424.669C420.441 425.356 420.966 426.127 421.669 426.791C421.687 426.801 421.706 426.806 421.727 426.807C421.747 426.807 421.767 426.802 421.785 426.793C421.803 426.783 421.818 426.769 421.829 426.752C421.84 426.735 421.846 426.716 421.848 426.696Z" fill="#263238"/>
<path d="M409.439 430.715C408.319 430.442 407.139 430.466 406.007 430.229C404.878 429.96 403.764 429.632 402.67 429.245C402.64 429.24 402.609 429.245 402.583 429.259C402.557 429.274 402.536 429.297 402.525 429.325C402.514 429.353 402.513 429.383 402.522 429.412C402.531 429.441 402.549 429.465 402.574 429.482C404.628 430.74 407.038 431.297 409.439 431.071C409.476 431.057 409.507 431.033 409.53 431.001C409.552 430.969 409.564 430.931 409.564 430.893C409.564 430.854 409.552 430.816 409.53 430.784C409.507 430.753 409.476 430.728 409.439 430.715Z" fill="#263238"/>
<path d="M480.349 458.172L479.121 472.044L474.961 518.861H438.097L432.889 472.044L431.352 458.172H480.349Z" fill="#455A64"/>
<path d="M480.349 458.172L479.121 472.044H432.889L431.352 458.172H480.349Z" fill="#263238"/>
<path d="M483.994 454.39H427.703V465.641H483.994V454.39Z" fill="#455A64"/>
</svg>
