<svg width="240" height="144" viewBox="0 0 240 144" fill="none" xmlns="http://www.w3.org/2000/svg">
<path d="M0.6875 122.527H2.34179L8.2886 141.849H8.19128L14.1849 122.527H15.8032L9.0779 143.764H7.36234L0.6875 122.527ZM14.2282 122.527H15.8789L21.8401 141.849H21.7428L27.7509 122.527H29.3691L22.6186 143.764H20.903L14.2282 122.527Z" fill="#EEEEEE"/>
<path d="M35.572 125.534C35.3615 125.191 35.1978 124.82 35.0855 124.432C34.952 123.976 34.8864 123.503 34.8908 123.028C35.1165 122.808 35.3839 122.638 35.6765 122.528C36.0056 122.395 36.3568 122.327 36.7109 122.33C36.9279 122.661 37.0977 123.023 37.2155 123.403C37.3591 123.856 37.4297 124.33 37.4245 124.807C37.205 125.044 36.9332 125.226 36.6316 125.336C36.2938 125.469 35.9343 125.536 35.572 125.534ZM35.3161 128.342H36.9344V143.776H35.3161V128.342Z" fill="#EEEEEE"/>
<path d="M45.3594 128.341H46.9776V143.776H45.3594V128.341ZM54.849 132.733C54.8701 132.27 54.7811 131.809 54.5897 131.39C54.3983 130.97 54.1101 130.603 53.7498 130.322C52.9202 129.719 51.9167 129.416 50.8989 129.462C49.8915 129.418 48.8989 129.721 48.0805 130.322C47.719 130.603 47.4299 130.969 47.2378 131.389C47.0457 131.809 46.9564 132.27 46.9776 132.733V134.548H46.2964V132.733C46.2714 132.12 46.3822 131.509 46.6205 130.946C46.8589 130.383 47.2187 129.882 47.6732 129.48C48.681 128.645 49.9546 128.216 51.2521 128.275C52.8307 128.275 54.0838 128.666 55.0112 129.447C55.4755 129.849 55.8429 130.354 56.0847 130.924C56.3266 131.494 56.4366 132.113 56.406 132.733V143.757H54.849V132.733Z" fill="#EEEEEE"/>
<path d="M68.2564 143.996C67.0309 144.042 65.8227 143.69 64.8072 142.989C63.8894 142.315 63.4305 141.274 63.4305 139.865C63.4138 138.989 63.6658 138.129 64.1513 137.406C64.6717 136.677 65.3949 136.124 66.2273 135.819C67.2746 135.433 68.383 135.249 69.4962 135.275H73.522V139.277C73.5584 140.218 73.3215 141.148 72.8408 141.952C72.3868 142.654 71.7309 143.196 70.9631 143.503C70.1002 143.843 69.1812 144.01 68.2564 143.996ZM73.2445 133.526C73.2445 132.301 72.9093 131.37 72.2389 130.733C71.5686 130.086 70.6207 129.759 69.3881 129.759C68.4754 129.719 67.5722 129.961 66.7967 130.454C66.4841 130.656 66.2182 130.925 66.0173 131.242C65.8163 131.559 65.6851 131.917 65.6326 132.291L64.0107 132.093C64.0881 131.366 64.3825 130.681 64.8541 130.13C65.3709 129.538 66.0217 129.084 66.7499 128.807C67.6023 128.477 68.5086 128.314 69.4205 128.329C70.4132 128.306 71.3984 128.509 72.3038 128.925C73.0841 129.294 73.7345 129.898 74.1671 130.656C74.6124 131.479 74.835 132.409 74.8123 133.349V143.753H73.2265L73.2445 133.526ZM68.6456 142.805C69.7838 142.831 70.9044 142.516 71.8677 141.897C72.3085 141.62 72.6685 141.227 72.9106 140.76C73.1526 140.293 73.2679 139.768 73.2445 139.24V136.234H69.68C68.2384 136.234 67.1211 136.547 66.2813 137.175C65.881 137.455 65.5556 137.833 65.3346 138.274C65.1137 138.715 65.0043 139.205 65.0163 139.7C64.9992 140.128 65.0779 140.554 65.2465 140.946C65.4151 141.338 65.6692 141.686 65.9894 141.963C66.7461 142.562 67.6896 142.861 68.6456 142.805Z" fill="#EEEEEE"/>
<path d="M80.6328 128.671H88.2772V129.924H80.6328V128.671ZM87.0121 143.797C85.5885 143.797 84.5397 143.51 83.8729 142.937C83.2062 142.364 82.8674 141.397 82.8674 140.03V124.673H84.3883V139.505C84.3883 140.485 84.6154 141.211 85.0695 141.684C85.5236 142.157 86.2685 142.387 87.304 142.375H88.2447V143.764C88.0285 143.764 87.823 143.764 87.6284 143.764C87.4338 143.764 87.2212 143.797 87.0121 143.797Z" fill="#EEEEEE"/>
<path d="M98.5767 143.995C97.3512 144.042 96.143 143.69 95.1276 142.989C94.2097 142.315 93.7508 141.274 93.7508 139.865C93.7341 138.989 93.9861 138.129 94.4716 137.406C94.992 136.677 95.7152 136.124 96.5476 135.819C97.5949 135.433 98.7033 135.249 99.8165 135.275H103.868V139.277C103.904 140.218 103.667 141.148 103.186 141.952C102.732 142.654 102.076 143.196 101.309 143.503C100.438 143.846 99.51 144.013 98.5767 143.995ZM103.565 133.526C103.565 132.301 103.23 131.37 102.559 130.733C101.892 130.086 100.941 129.759 99.7084 129.759C98.7957 129.719 97.8925 129.961 97.117 130.454C96.8044 130.656 96.5386 130.925 96.3376 131.242C96.1367 131.559 96.0054 131.917 95.9529 132.291L94.3346 132.093C94.4091 131.366 94.7025 130.68 95.1744 130.13C95.6912 129.538 96.342 129.084 97.0702 128.807C97.9226 128.476 98.8289 128.314 99.7408 128.329C100.74 128.303 101.731 128.506 102.642 128.925C103.422 129.294 104.073 129.898 104.505 130.656C104.951 131.479 105.173 132.409 105.151 133.349V143.753H103.565V133.526ZM98.9659 142.805C100.104 142.831 101.225 142.516 102.188 141.897C102.629 141.619 102.989 141.227 103.231 140.76C103.473 140.293 103.588 139.768 103.565 139.24V136.234H100C98.5767 136.234 97.4414 136.546 96.6016 137.175C96.2013 137.455 95.8759 137.833 95.655 138.274C95.434 138.714 95.3246 139.205 95.3366 139.7C95.3195 140.127 95.3982 140.554 95.5668 140.946C95.7354 141.338 95.9895 141.686 96.3097 141.963C97.0664 142.562 98.0099 142.861 98.9659 142.805Z" fill="#EEEEEE"/>
<path d="M111.758 122.527H113.344V143.764H111.758V122.527ZM111.985 142.342H116.05V143.764H111.985V142.342Z" fill="#EEEEEE"/>
<path d="M127.241 143.93C126.29 143.935 125.35 143.727 124.487 143.319C123.639 142.925 122.911 142.302 122.383 141.519C121.832 140.692 121.549 139.71 121.572 138.711V133.566C121.557 132.581 121.833 131.614 122.365 130.792C122.884 129.986 123.606 129.336 124.455 128.91C125.313 128.47 126.262 128.245 127.223 128.252C128.247 128.24 129.26 128.467 130.185 128.914C131.047 129.325 131.781 129.97 132.308 130.777C132.832 131.609 133.102 132.581 133.083 133.57V136.642L122.574 136.705V135.481L132.132 135.415L131.58 135.911V133.599C131.597 133.052 131.491 132.509 131.269 132.01C131.047 131.512 130.716 131.073 130.301 130.726C129.435 129.989 128.336 129.597 127.208 129.623C126.515 129.623 125.831 129.793 125.215 130.119C124.584 130.444 124.043 130.927 123.644 131.523C123.233 132.129 123.017 132.851 123.028 133.588V138.641C123.008 139.388 123.214 140.124 123.619 140.747C124.008 141.328 124.545 141.791 125.172 142.085C125.822 142.392 126.531 142.549 127.248 142.544C128.196 142.558 129.127 142.295 129.933 141.787C130.303 141.572 130.626 141.282 130.883 140.935C131.139 140.588 131.324 140.191 131.425 139.77L132.816 140.034C132.685 140.789 132.342 141.49 131.829 142.052C131.276 142.66 130.596 143.134 129.839 143.437C129.013 143.772 128.13 143.939 127.241 143.93Z" fill="#EEEEEE"/>
<path d="M140.227 128.341H141.848V143.776H140.227V128.341ZM149.72 132.733C149.741 132.27 149.652 131.809 149.46 131.389C149.268 130.969 148.978 130.603 148.617 130.322C147.788 129.718 146.784 129.416 145.766 129.462C144.759 129.419 143.766 129.722 142.948 130.322C142.587 130.603 142.299 130.97 142.108 131.39C141.916 131.809 141.827 132.27 141.848 132.733V134.548H141.167V132.733C141.141 132.12 141.252 131.509 141.49 130.946C141.729 130.382 142.089 129.881 142.544 129.48C143.552 128.645 144.825 128.216 146.123 128.275C147.699 128.275 148.952 128.666 149.882 129.447C150.346 129.849 150.712 130.355 150.954 130.924C151.195 131.494 151.304 132.113 151.273 132.733V143.757H149.72V132.733Z" fill="#EEEEEE"/>
<path d="M157.406 128.671H165.051V129.924H157.406V128.671ZM163.786 143.797C162.361 143.797 161.313 143.51 160.643 142.937C159.976 142.364 159.641 141.397 159.641 140.03V124.673H161.162V139.505C161.162 140.485 161.389 141.211 161.843 141.684C162.297 142.143 163.04 142.375 164.077 142.375H165.018V143.764C164.802 143.764 164.596 143.764 164.402 143.764C164.207 143.764 163.995 143.797 163.786 143.797Z" fill="#EEEEEE"/>
<path d="M172.327 143.996C172.087 143.669 171.897 143.307 171.761 142.923C171.593 142.464 171.51 141.976 171.516 141.486C171.837 141.242 172.192 141.048 172.568 140.909C173.008 140.74 173.475 140.655 173.945 140.659C174.202 140.98 174.404 141.343 174.543 141.732C174.711 142.192 174.795 142.679 174.788 143.169C174.458 143.394 174.106 143.583 173.736 143.732C173.288 143.913 172.809 144.003 172.327 143.996Z" fill="#EEEEEE"/>
<path d="M188.365 143.929C187.097 143.966 185.851 143.579 184.819 142.827C183.836 142.088 183.124 141.035 182.797 139.836C182.732 139.575 182.671 139.303 182.616 139.027C182.561 138.738 182.524 138.446 182.505 138.152C182.459 137.824 182.432 137.492 182.422 137.16C182.422 136.793 182.422 136.447 182.422 136.058C182.422 135.668 182.422 135.253 182.422 134.9C182.432 134.557 182.471 134.215 182.537 133.879C182.556 133.606 182.594 133.334 182.649 133.066C182.703 132.816 182.753 132.567 182.797 132.331C183.106 131.129 183.822 130.076 184.819 129.358C185.857 128.618 187.098 128.232 188.365 128.256C189.657 128.235 190.923 128.618 191.994 129.355C192.964 129.978 193.669 130.95 193.969 132.078C194.075 132.421 194.141 132.777 194.164 133.136L192.611 133.368C192.616 133.302 192.616 133.235 192.611 133.169C192.606 133.114 192.606 133.059 192.611 133.004C192.589 132.938 192.571 132.883 192.56 132.839C192.549 132.794 192.535 132.739 192.513 132.673C192.34 131.796 191.834 131.024 191.104 130.527C190.31 129.967 189.363 129.678 188.397 129.7C187.437 129.669 186.495 129.972 185.727 130.56C184.996 131.143 184.496 131.976 184.318 132.905C184.269 133.09 184.232 133.277 184.206 133.467C184.173 133.687 184.145 133.93 184.123 134.202C184.101 134.474 184.087 134.79 184.076 135.11C184.065 135.429 184.058 135.764 184.058 136.117C184.058 136.469 184.058 136.767 184.076 137.072C184.094 137.377 184.101 137.678 184.123 137.965C184.145 138.252 184.173 138.443 184.206 138.674C184.233 138.881 184.27 139.085 184.318 139.288C184.491 140.228 184.991 141.072 185.727 141.666C186.496 142.253 187.438 142.555 188.397 142.522C189.368 142.547 190.323 142.272 191.137 141.732C191.498 141.496 191.807 141.186 192.044 140.822C192.282 140.457 192.441 140.046 192.513 139.615L192.546 139.42C192.565 139.367 192.576 139.311 192.578 139.255V139.123L194.132 139.354V139.486C194.131 139.553 194.12 139.619 194.099 139.681C194.104 139.753 194.104 139.826 194.099 139.898C194.088 139.975 194.059 140.047 194.016 140.111C193.745 141.266 193.043 142.268 192.059 142.904C190.957 143.617 189.67 143.974 188.365 143.929Z" fill="#EEEEEE"/>
<path d="M206.244 143.996C205.212 144.016 204.187 143.801 203.246 143.368C202.42 142.989 201.714 142.383 201.206 141.619C200.721 140.864 200.47 139.978 200.485 139.076V133.13C200.479 132.244 200.745 131.378 201.245 130.653C201.773 129.887 202.496 129.282 203.336 128.904C204.251 128.478 205.246 128.264 206.252 128.275C207.257 128.259 208.254 128.474 209.167 128.904C209.993 129.289 210.702 129.893 211.222 130.653C211.722 131.378 211.988 132.244 211.982 133.13V139.076C211.993 139.987 211.743 140.881 211.261 141.648C210.765 142.414 210.061 143.016 209.236 143.383C208.293 143.803 207.273 144.012 206.244 143.996ZM206.244 142.673C207.559 142.673 208.589 142.338 209.337 141.667C209.704 141.336 209.995 140.926 210.189 140.466C210.382 140.007 210.472 139.509 210.454 139.01V133.229C210.462 132.734 210.359 132.243 210.154 131.794C209.95 131.344 209.648 130.948 209.272 130.635C208.422 129.921 207.345 129.55 206.244 129.595C205.139 129.551 204.056 129.921 203.199 130.635C202.819 130.946 202.513 131.341 202.305 131.79C202.097 132.24 201.992 132.732 201.999 133.229V139.01C201.981 139.511 202.074 140.01 202.27 140.47C202.467 140.93 202.762 141.339 203.134 141.667C203.888 142.34 204.925 142.676 206.244 142.673Z" fill="#EEEEEE"/>
<path d="M219.523 128.341H221.145V143.776H219.523V128.341ZM229.017 132.733C229.038 132.27 228.949 131.809 228.757 131.389C228.564 130.969 228.275 130.603 227.914 130.322C227.084 129.718 226.081 129.416 225.063 129.462C224.056 129.419 223.063 129.722 222.245 130.322C221.888 130.605 221.603 130.973 221.415 131.392C221.226 131.812 221.14 132.272 221.163 132.733V134.548H220.464V132.733C220.438 132.12 220.549 131.509 220.787 130.946C221.026 130.382 221.386 129.881 221.841 129.48C222.849 128.645 224.122 128.216 225.42 128.275C226.996 128.275 228.249 128.666 229.179 129.447C229.643 129.849 230.009 130.355 230.25 130.924C230.492 131.494 230.601 132.113 230.57 132.733V143.757H229.017V132.733ZM238.441 132.733C238.463 132.27 238.373 131.809 238.181 131.389C237.989 130.969 237.7 130.603 237.339 130.322C236.511 129.718 235.508 129.416 234.491 129.462C233.484 129.418 232.491 129.721 231.673 130.322C231.311 130.603 231.022 130.969 230.83 131.389C230.638 131.809 230.549 132.27 230.57 132.733V134.548H229.889V132.733C229.863 132.118 229.976 131.506 230.217 130.942C230.459 130.378 230.824 129.878 231.284 129.48C232.287 128.649 233.553 128.221 234.845 128.275C236.423 128.275 237.676 128.666 238.604 129.447C239.069 129.848 239.436 130.353 239.678 130.923C239.919 131.493 240.028 132.113 239.995 132.733V143.757H238.441V132.733Z" fill="#EEEEEE"/>
<path d="M116.342 13.3864C116.249 18.2704 109.368 25.3519 104.56 25.5136C103.749 25.5694 102.938 25.4178 102.199 25.0725C101.46 24.7273 100.817 24.1993 100.329 23.5365C97.8711 20.321 95.6113 16.9584 93.9931 13.2284C92.0973 8.85162 93.1209 5.59566 97.3125 2.13024C100.726 -0.684731 102.957 -0.692081 107.004 2.07879C109.844 4.02281 112.309 6.40414 114.659 8.91409C115.223 9.50368 115.663 10.2044 115.953 10.9734C116.242 11.7424 116.375 12.5634 116.342 13.3864Z" fill="#CCCCCC"/>
<path d="M19.6035 12.1886C19.7945 27.1233 23.6941 41.2754 28.5164 55.2142C32.0377 65.401 36.6653 75.0292 43.196 83.6211C45.29 86.3773 47.6795 88.8211 50.6529 90.6365C52.4081 91.7096 53.4929 91.6324 54.257 89.3981C57.2628 80.6592 58.4305 71.5528 59.6631 62.4574C59.7586 61.506 59.6704 60.5447 59.4037 59.6278C58.1458 54.8908 59.7136 50.9403 62.5717 47.3242C65.1126 44.116 68.0427 41.3599 71.7766 39.6584C75.8708 37.7916 77.4819 38.6809 78.4514 43.0981C80.7736 53.4441 84.3778 63.4467 89.1772 72.8647C100.595 95.491 111.458 98.3391 112.323 98.3501C114.669 98.3722 115.927 91.5479 116.363 89.7986C117.28 86.1579 117.847 82.4348 118.057 78.6821C118.183 76.6352 117.077 74.8492 116.45 72.975C114.86 68.1976 113.148 63.5011 114.525 58.2754C115.203 55.5349 116.419 52.9631 118.099 50.7157C119.78 48.4682 121.89 46.5919 124.303 45.2001C128.685 42.5873 131.616 43.7853 132.953 48.7832C134.693 55.3975 136.984 61.8483 139.801 68.0653C142.194 73.2579 146.508 80.1557 150.076 84.6501C159.266 95.5425 164.676 94.9398 165.682 93.4699C167.274 91.1117 168.619 88.5891 169.693 85.9437C171.636 81.328 173.575 76.7123 175.056 71.9093C176.155 68.3446 178.48 65.7575 181.655 63.9788C183.756 62.8029 185.62 62.9829 187.353 64.9637C190.471 68.51 193.549 72.093 196.81 75.518C207.432 86.664 215.645 93.1575 229.366 99.5444C231.233 100.412 233.187 101.033 235.309 100.471C236.311 100.202 237.421 100 238.099 101.051C239.789 103.66 235.385 107.379 233.709 108.813C231.129 111.017 227.106 113.645 223.686 113.976C219.437 114.384 215.901 113.421 211.793 112.429C204.321 110.624 199.567 109.121 192.994 105.079C186.867 101.319 181.1 97.2697 177.197 90.8313C175.896 88.6851 175.593 88.6778 174.461 90.9011C171.066 97.5857 166.485 103.161 160.063 107.038C158.085 108.232 155.981 109.196 153.792 109.911C146.389 112.333 139.927 111.297 134.571 105.038C131.536 101.488 127.247 95.8144 124.869 91.8088C124.465 91.1216 124.191 89.9934 123.128 90.2212C122.27 90.405 122.31 91.4487 122.119 92.1616C120.108 99.5114 116.313 105.601 109.984 109.886C106.163 112.48 101.997 114.027 97.3117 114.024C92.374 114.024 88.2149 112.344 84.6973 108.776C78.3396 102.356 73.4813 94.8737 69.2717 86.8991C68.8897 86.1642 68.7203 84.9956 67.7472 85.0433C66.7741 85.0911 66.7488 86.3075 66.4677 87.0682C63.1231 96.1415 57.6376 103.432 49.2977 108.298C41.4047 112.906 35.6201 112.164 29.2913 105.575C21.2361 97.1888 16.0102 86.9579 11.6132 76.2897C6.03922 62.9562 2.26845 48.9121 0.404386 34.543C-0.817407 24.8265 0.613425 15.7165 6.2899 7.56189C8.29018 4.70282 10.5391 2.1157 13.7468 0.642068C16.6805 -0.706617 18.2087 0.0430606 19.1854 3.141C20.1261 6.11398 19.5891 9.16047 19.6035 12.1886Z" fill="#02DAC5"/>
</svg>
