<svg width="372" height="284" viewBox="0 0 372 284" fill="none" xmlns="http://www.w3.org/2000/svg">
<path d="M55.941 148.746C191.216 98.0553 110.416 235.222 26.8047 232.893L46.5771 93.3046C47.3753 85.2532 54.441 77.1491 62.2566 75.3208C180.235 58.275 81.5621 144.049 37.6471 156.348" stroke="#4D5B71" stroke-width="22" stroke-linecap="round" stroke-linejoin="round"/>
<path d="M240.18 173.411C241.27 172.709 242.567 172.518 243.784 172.882C245.001 173.245 246.038 174.133 246.668 175.349C249.585 180.986 253.784 185.667 258.84 188.92C263.897 192.174 269.633 193.885 275.471 193.881C281.31 193.885 287.046 192.174 292.103 188.92C297.159 185.667 301.358 180.986 304.275 175.349C304.585 174.742 304.999 174.209 305.494 173.781C305.989 173.353 306.555 173.039 307.16 172.856C307.764 172.673 308.395 172.625 309.016 172.715C309.638 172.805 310.237 173.031 310.779 173.38C311.322 173.729 311.797 174.195 312.177 174.749C312.558 175.304 312.836 175.937 312.996 176.612C313.156 177.287 313.195 177.991 313.11 178.683C313.025 179.375 312.819 180.041 312.502 180.644C308.751 187.891 303.353 193.908 296.852 198.091C290.352 202.274 282.977 204.474 275.471 204.47C267.966 204.474 260.591 202.274 254.091 198.091C247.59 193.908 242.192 187.891 238.441 180.644C237.811 179.427 237.641 177.982 237.967 176.626C238.293 175.269 239.089 174.113 240.18 173.411Z" stroke="#03DAC3" stroke-width="6"/>
<path d="M333.666 197.38C343.075 182.129 347.801 158.754 344.053 137.317C340.305 115.88 328.083 96.3814 314.27 86.4435C300.938 75.68 280.503 70.274 261.763 74.5614C243.023 78.8487 225.978 92.8296 217.29 108.631C207.881 123.882 203.155 147.257 206.903 168.694C210.651 190.131 222.873 209.63 236.686 219.568C250.018 230.331 270.453 235.737 289.193 231.45C307.933 227.162 324.978 213.181 333.666 197.38Z" stroke="#4D5B71" stroke-width="22" stroke-linejoin="round"/>
<path d="M261.932 134.521C261.932 135.444 261.747 136.329 261.377 137.177C261.006 138.013 260.439 138.74 259.676 139.36C259.011 139.924 258.259 140.348 257.42 140.63C256.581 140.913 255.627 141.054 254.559 141.054C253.567 141.054 252.629 140.907 251.746 140.614C250.864 140.321 250.101 139.908 249.457 139.376C248.727 138.757 248.166 138.035 247.773 137.209C247.392 136.384 247.201 135.482 247.201 134.505C247.201 133.56 247.37 132.702 247.708 131.931C248.057 131.16 248.569 130.465 249.245 129.846C249.888 129.259 250.673 128.803 251.599 128.477C252.526 128.151 253.512 127.988 254.559 127.988C255.638 127.988 256.619 128.146 257.502 128.461C258.395 128.776 259.164 129.21 259.807 129.764C260.483 130.34 261.006 131.035 261.377 131.849C261.747 132.664 261.932 133.554 261.932 134.521ZM271.922 129.601C270.593 131.426 269.208 133.359 267.769 135.401C266.331 137.443 265.143 139.148 264.205 140.516C262.439 143.101 260.864 145.474 259.48 147.635C258.107 149.786 257.251 151.122 256.913 151.643L253.839 149.525C254.21 149.036 255.098 147.787 256.504 145.778C257.921 143.758 259.464 141.521 261.131 139.066C262.189 137.502 263.36 135.754 264.647 133.821C265.933 131.876 267.323 129.775 268.816 127.516L271.922 129.601ZM279.002 143.742C279.002 144.665 278.817 145.55 278.446 146.397C278.075 147.234 277.509 147.961 276.746 148.58C276.081 149.134 275.323 149.552 274.473 149.835C273.634 150.117 272.685 150.258 271.628 150.258C270.625 150.258 269.682 150.112 268.799 149.818C267.917 149.536 267.154 149.123 266.51 148.58C265.78 147.961 265.219 147.244 264.826 146.43C264.445 145.604 264.254 144.703 264.254 143.726C264.254 142.781 264.423 141.923 264.761 141.152C265.11 140.37 265.628 139.669 266.314 139.05C266.957 138.474 267.737 138.024 268.652 137.698C269.579 137.372 270.571 137.209 271.628 137.209C272.707 137.209 273.688 137.367 274.571 137.682C275.454 137.986 276.217 138.415 276.86 138.969C277.547 139.555 278.075 140.256 278.446 141.07C278.817 141.874 279.002 142.764 279.002 143.742ZM257.616 134.619C257.616 134.065 257.529 133.549 257.354 133.071C257.191 132.593 256.924 132.186 256.553 131.849C256.314 131.61 256.025 131.426 255.687 131.295C255.349 131.165 254.973 131.1 254.559 131.1C254.144 131.1 253.768 131.165 253.431 131.295C253.104 131.426 252.798 131.616 252.515 131.866C252.21 132.148 251.964 132.544 251.779 133.055C251.605 133.554 251.518 134.043 251.518 134.521C251.518 135.053 251.599 135.553 251.763 136.02C251.937 136.487 252.215 136.894 252.597 137.242C252.847 137.481 253.142 137.665 253.48 137.796C253.817 137.926 254.177 137.991 254.559 137.991C254.918 137.991 255.278 137.92 255.638 137.779C256.008 137.638 256.308 137.464 256.537 137.258C256.897 136.921 257.164 136.53 257.338 136.085C257.523 135.64 257.616 135.151 257.616 134.619ZM274.669 143.823C274.669 143.28 274.587 142.77 274.424 142.292C274.26 141.803 273.993 141.396 273.623 141.07C273.372 140.831 273.078 140.647 272.74 140.516C272.413 140.375 272.042 140.304 271.628 140.304C271.203 140.304 270.821 140.37 270.484 140.5C270.157 140.63 269.857 140.826 269.584 141.086C269.268 141.369 269.017 141.76 268.832 142.259C268.658 142.759 268.571 143.253 268.571 143.742C268.571 144.274 268.652 144.774 268.816 145.241C268.99 145.708 269.268 146.115 269.65 146.462C269.9 146.701 270.195 146.886 270.533 147.016C270.87 147.136 271.236 147.196 271.628 147.196C271.988 147.196 272.347 147.13 272.707 147C273.078 146.859 273.377 146.68 273.606 146.462C273.955 146.137 274.217 145.751 274.391 145.306C274.576 144.861 274.669 144.366 274.669 143.823Z" fill="#4D5B71"/>
<path d="M302.925 130.513C302.666 130.513 301.345 130.506 298.96 130.492C296.589 130.465 294.13 130.452 291.582 130.452V135.726C292.713 135.821 293.817 135.991 294.893 136.235C295.97 136.466 296.93 136.771 297.775 137.151C299.41 137.857 300.602 138.774 301.351 139.9C302.114 141.027 302.496 142.324 302.496 143.79C302.496 145.229 302.033 146.587 301.106 147.863C300.193 149.152 298.899 150.171 297.223 150.917C296.024 151.46 294.641 151.874 293.074 152.159C291.521 152.445 289.852 152.587 288.067 152.587C287.631 152.587 287.134 152.58 286.575 152.567C286.03 152.567 285.628 152.567 285.369 152.567L284.634 147.741C284.811 147.741 285.008 147.741 285.226 147.741C285.444 147.741 285.69 147.741 285.962 147.741C287.297 147.741 288.653 147.679 290.029 147.557C291.405 147.449 292.536 147.231 293.422 146.906C294.335 146.566 295.009 146.152 295.445 145.663C295.881 145.161 296.099 144.509 296.099 143.708C296.099 143.003 295.826 142.378 295.282 141.835C294.75 141.292 293.96 140.851 292.911 140.511C292.325 140.335 291.535 140.185 290.54 140.063C289.545 139.941 288.496 139.86 287.393 139.819C287.079 139.805 286.786 139.799 286.514 139.799C286.241 139.785 286.03 139.778 285.88 139.778C285.88 139.547 285.88 138.631 285.88 137.029C285.894 135.414 285.901 134.036 285.901 132.895C285.901 131.945 285.894 130.587 285.88 128.822C285.88 127.058 285.88 126.053 285.88 125.809C286.139 125.809 287.181 125.815 289.007 125.829C290.833 125.829 292.604 125.829 294.321 125.829C295.752 125.829 297.475 125.829 299.492 125.829C301.522 125.815 302.666 125.809 302.925 125.809V130.513Z" fill="#4D5B71"/>
<path d="M43.0569 46.0565C112.647 -53.0632 76.0208 124.465 241.381 12C148.541 70.0967 211.856 258.028 11 267.233" stroke="#03DAC3" stroke-width="22" stroke-linecap="round" stroke-linejoin="round"/>
<path d="M199.995 270.982C199.995 272.212 199.589 273.3 198.776 274.248C197.974 275.196 196.828 275.899 195.339 276.357C194.182 276.712 192.807 276.946 191.214 277.061C189.63 277.175 187.922 277.232 186.089 277.232C185.224 277.232 184.313 277.222 183.354 277.201C182.406 277.18 181.604 277.16 180.948 277.139C180.969 275.576 180.985 273.904 180.995 272.123C181.005 270.342 181.011 268.331 181.011 266.092C181.011 264.248 181 262.18 180.979 259.889C180.958 257.597 180.948 256.389 180.948 256.264C181.156 256.253 181.74 256.232 182.698 256.201C183.656 256.16 184.745 256.139 185.964 256.139C187.953 256.139 189.557 256.175 190.776 256.248C192.005 256.321 193.151 256.498 194.214 256.779C195.474 257.144 196.474 257.712 197.214 258.482C197.953 259.243 198.323 260.18 198.323 261.295C198.323 262.232 198.057 263.102 197.526 263.904C197.005 264.706 196.245 265.321 195.245 265.748V265.857C195.797 265.941 196.297 266.076 196.745 266.264C197.203 266.441 197.62 266.68 197.995 266.982C198.682 267.462 199.188 268.04 199.511 268.717C199.833 269.383 199.995 270.139 199.995 270.982ZM193.448 270.107C193.448 269.66 193.354 269.274 193.167 268.951C192.979 268.618 192.735 268.331 192.432 268.092C192.193 267.894 191.875 267.738 191.479 267.623C191.083 267.498 190.656 267.436 190.198 267.436C189.865 267.436 189.583 267.441 189.354 267.451C189.125 267.462 188.99 267.467 188.948 267.467L188.417 265.42C188.865 265.41 189.302 265.337 189.729 265.201C190.156 265.066 190.5 264.904 190.761 264.717C191.073 264.488 191.323 264.206 191.511 263.873C191.698 263.529 191.792 263.102 191.792 262.592C191.792 262.196 191.688 261.816 191.479 261.451C191.271 261.087 190.974 260.805 190.589 260.607C190.276 260.441 189.912 260.321 189.495 260.248C189.089 260.175 188.662 260.139 188.214 260.139C188.037 260.139 187.823 260.144 187.573 260.154C187.333 260.154 187.162 260.154 187.057 260.154C187.047 260.998 187.037 261.962 187.026 263.045C187.016 264.118 187.011 265.201 187.011 266.295C187.011 266.951 187.016 268.175 187.026 269.967C187.037 271.758 187.042 272.727 187.042 272.873C187.156 272.873 187.349 272.883 187.62 272.904C187.891 272.915 188.229 272.92 188.636 272.92C189.25 272.92 189.87 272.883 190.495 272.811C191.13 272.738 191.651 272.592 192.057 272.373C192.495 272.154 192.833 271.847 193.073 271.451C193.323 271.055 193.448 270.607 193.448 270.107ZM270.228 257.748C269.905 258.29 268.879 259.857 267.15 262.451C265.431 265.035 263.999 267.217 262.853 268.998C262.842 270.644 262.842 272.165 262.853 273.561C262.874 274.956 262.884 276.16 262.884 277.17H256.493C256.493 276.316 256.499 275.196 256.509 273.811C256.53 272.425 256.535 270.868 256.525 269.139C255.4 267.337 254.025 265.212 252.4 262.764C250.775 260.305 249.712 258.66 249.212 257.826L255.322 255.795C255.738 256.597 256.379 257.691 257.243 259.076C258.108 260.451 258.983 261.826 259.868 263.201H259.9C260.91 261.514 261.858 259.982 262.743 258.607C263.639 257.222 264.207 256.285 264.447 255.795L270.228 257.748ZM336.053 266.717C336.053 268.373 335.751 269.904 335.147 271.311C334.543 272.717 333.658 273.946 332.491 274.998C331.46 275.936 330.272 276.639 328.928 277.107C327.585 277.566 326.147 277.795 324.616 277.795C323.105 277.795 321.689 277.576 320.366 277.139C319.043 276.691 317.871 276.019 316.85 275.123C315.673 274.081 314.762 272.847 314.116 271.42C313.47 269.993 313.147 268.42 313.147 266.701C313.147 265.097 313.423 263.628 313.975 262.295C314.527 260.951 315.355 259.748 316.46 258.686C317.48 257.706 318.678 256.956 320.053 256.436C321.428 255.915 322.939 255.654 324.585 255.654C326.168 255.654 327.637 255.894 328.991 256.373C330.345 256.852 331.548 257.566 332.6 258.514C333.767 259.587 334.632 260.821 335.194 262.217C335.767 263.602 336.053 265.102 336.053 266.717ZM329.491 266.842C329.491 265.925 329.34 265.014 329.038 264.107C328.736 263.201 328.262 262.456 327.616 261.873C327.23 261.519 326.788 261.238 326.288 261.029C325.788 260.821 325.22 260.717 324.585 260.717C323.97 260.717 323.408 260.826 322.897 261.045C322.397 261.253 321.928 261.571 321.491 261.998C320.928 262.55 320.491 263.253 320.178 264.107C319.876 264.962 319.725 265.826 319.725 266.701C319.725 267.67 319.876 268.571 320.178 269.404C320.48 270.238 320.934 270.941 321.538 271.514C321.934 271.889 322.392 272.186 322.913 272.404C323.434 272.623 324.001 272.732 324.616 272.732C325.21 272.732 325.762 272.628 326.272 272.42C326.793 272.201 327.262 271.894 327.678 271.498C328.251 270.967 328.694 270.279 329.007 269.436C329.329 268.592 329.491 267.727 329.491 266.842Z" fill="#03DAC3"/>
<path d="M210.996 268.428C210.246 268.678 209.492 268.943 208.734 269.225C207.984 269.498 206.949 269.936 205.629 270.537C205.629 270.779 205.625 271.115 205.617 271.545C205.617 271.967 205.617 272.432 205.617 272.939C205.617 273.721 205.621 274.568 205.629 275.482C205.645 276.389 205.652 276.951 205.652 277.17H201.223C201.223 276.896 201.227 276.24 201.234 275.201C201.25 274.162 201.258 272.916 201.258 271.463C201.258 270.705 201.254 269.795 201.246 268.732C201.238 267.662 201.231 266.471 201.223 265.158H205.559L205.535 266.846L205.57 266.869C206.25 266.424 207.012 265.994 207.856 265.58C208.699 265.158 209.352 264.869 209.813 264.713L210.996 268.428ZM215.368 263.482H210.868V260.365H215.368V263.482ZM215.333 277.17H210.903C210.911 276.678 210.919 275.869 210.927 274.744C210.935 273.619 210.939 272.49 210.939 271.357C210.939 270.412 210.935 269.443 210.927 268.451C210.919 267.459 210.911 266.361 210.903 265.158H215.333C215.325 266.268 215.317 267.24 215.31 268.076C215.302 268.904 215.298 269.959 215.298 271.24C215.298 273.006 215.302 274.311 215.31 275.154C215.325 275.998 215.333 276.67 215.333 277.17ZM229.889 277.17H225.459C225.467 276.912 225.475 276.377 225.482 275.564C225.49 274.744 225.494 273.994 225.494 273.314C225.494 272.932 225.49 272.404 225.482 271.732C225.482 271.053 225.479 270.529 225.471 270.162C225.463 269.529 225.361 269.064 225.166 268.768C224.979 268.471 224.643 268.322 224.158 268.322C223.807 268.322 223.408 268.404 222.963 268.568C222.525 268.725 222.131 268.9 221.779 269.096C221.779 269.127 221.775 269.553 221.768 270.373C221.768 271.193 221.768 271.854 221.768 272.354C221.768 273.174 221.772 274.15 221.779 275.283C221.795 276.416 221.803 277.045 221.803 277.17H217.373C217.373 276.928 217.377 276.35 217.385 275.436C217.4 274.514 217.408 273.186 217.408 271.451C217.408 270.35 217.404 269.291 217.397 268.275C217.389 267.26 217.381 266.221 217.373 265.158H221.709L221.697 266.154L221.721 266.178C222.299 265.865 223.022 265.568 223.889 265.287C224.764 264.998 225.553 264.854 226.256 264.854C227.373 264.854 228.256 265.197 228.904 265.885C229.553 266.572 229.877 267.486 229.877 268.627C229.877 269.564 229.873 270.326 229.865 270.912C229.857 271.498 229.854 272.002 229.854 272.424C229.854 273.158 229.857 274.053 229.865 275.107C229.881 276.162 229.889 276.85 229.889 277.17ZM243.366 265.123C243.366 265.529 243.362 266.256 243.354 267.303C243.347 268.342 243.343 269.4 243.343 270.479C243.343 271.158 243.347 271.955 243.354 272.869C243.362 273.783 243.366 274.814 243.366 275.963C243.366 277.221 243.112 278.279 242.604 279.139C242.104 279.998 241.37 280.662 240.401 281.131C239.175 281.709 237.839 282.088 236.394 282.268C234.948 282.447 233.675 282.525 232.573 282.502L232.128 279.373C233.097 279.342 233.987 279.291 234.8 279.221C235.612 279.15 236.284 279.045 236.815 278.904C237.55 278.693 238.069 278.428 238.374 278.107C238.687 277.795 238.847 277.42 238.854 276.982C238.792 276.982 238.729 276.982 238.667 276.982C238.604 276.982 238.538 276.982 238.468 276.982C237.694 276.982 236.847 276.877 235.925 276.666C235.003 276.447 234.241 276.146 233.64 275.764C232.772 275.232 232.101 274.592 231.624 273.842C231.147 273.092 230.909 272.123 230.909 270.936C230.909 269.857 231.218 268.896 231.835 268.053C232.46 267.201 233.358 266.525 234.53 266.025C235.288 265.705 236.171 265.475 237.179 265.334C238.187 265.186 239.46 265.111 240.999 265.111C241.327 265.111 241.714 265.115 242.159 265.123C242.612 265.123 243.015 265.123 243.366 265.123ZM239.183 271.158C239.183 270.807 239.183 270.389 239.183 269.904C239.183 269.412 239.179 268.908 239.171 268.393C239.124 268.393 239.077 268.393 239.03 268.393C238.983 268.393 238.937 268.393 238.89 268.393C238.499 268.393 238.147 268.42 237.835 268.475C237.53 268.529 237.194 268.646 236.827 268.826C236.351 269.045 235.979 269.373 235.714 269.811C235.456 270.248 235.327 270.74 235.327 271.287C235.327 271.834 235.437 272.314 235.655 272.729C235.874 273.135 236.218 273.471 236.687 273.736C236.999 273.916 237.351 274.053 237.741 274.146C238.132 274.24 238.534 274.287 238.948 274.287C238.995 274.287 239.034 274.287 239.065 274.287C239.104 274.287 239.144 274.287 239.183 274.287C239.183 274.193 239.183 273.799 239.183 273.104C239.183 272.408 239.183 271.76 239.183 271.158ZM282.651 271.182C282.651 272.096 282.475 272.963 282.124 273.783C281.772 274.604 281.237 275.33 280.518 275.963C279.924 276.486 279.237 276.877 278.456 277.135C277.682 277.385 276.854 277.51 275.971 277.51C275.104 277.51 274.276 277.385 273.487 277.135C272.698 276.877 272.006 276.494 271.413 275.986C270.733 275.385 270.206 274.666 269.831 273.83C269.463 272.994 269.28 272.107 269.28 271.17C269.28 270.232 269.44 269.389 269.76 268.639C270.081 267.881 270.569 267.193 271.225 266.576C271.834 266.006 272.538 265.576 273.334 265.287C274.139 264.998 275.01 264.854 275.948 264.854C276.885 264.854 277.741 264.986 278.514 265.252C279.295 265.51 279.999 265.924 280.624 266.494C281.295 267.104 281.799 267.799 282.135 268.58C282.479 269.361 282.651 270.229 282.651 271.182ZM278.268 271.229C278.268 270.752 278.198 270.275 278.057 269.799C277.924 269.322 277.702 268.928 277.389 268.615C277.209 268.436 276.995 268.299 276.745 268.205C276.502 268.111 276.241 268.064 275.959 268.064C275.639 268.064 275.362 268.115 275.127 268.217C274.901 268.311 274.678 268.475 274.459 268.709C274.194 268.99 273.995 269.361 273.862 269.822C273.729 270.275 273.663 270.725 273.663 271.17C273.663 271.686 273.729 272.162 273.862 272.6C273.995 273.037 274.221 273.42 274.542 273.748C274.729 273.936 274.944 274.076 275.186 274.17C275.436 274.256 275.698 274.299 275.971 274.299C276.252 274.299 276.522 274.248 276.78 274.146C277.045 274.037 277.268 273.889 277.448 273.701C277.713 273.412 277.917 273.045 278.057 272.6C278.198 272.146 278.268 271.689 278.268 271.229ZM296.199 277.17H291.874L291.886 276.139L291.863 276.115C291.3 276.412 290.593 276.721 289.742 277.041C288.89 277.354 288.097 277.51 287.363 277.51C286.199 277.51 285.296 277.17 284.656 276.49C284.015 275.803 283.695 274.869 283.695 273.689C283.695 272.885 283.699 272.053 283.707 271.193C283.722 270.326 283.73 269.689 283.73 269.283C283.73 268.549 283.722 267.736 283.707 266.846C283.699 265.947 283.695 265.385 283.695 265.158H288.113C288.113 265.393 288.105 265.928 288.089 266.764C288.082 267.592 288.078 268.307 288.078 268.908C288.078 269.361 288.082 269.932 288.089 270.619C288.097 271.307 288.101 271.818 288.101 272.154C288.109 272.74 288.195 273.205 288.359 273.549C288.523 273.885 288.851 274.053 289.343 274.053C289.749 274.053 290.199 273.955 290.691 273.76C291.191 273.557 291.558 273.377 291.792 273.221C291.792 273.189 291.792 272.814 291.792 272.096C291.8 271.377 291.804 270.615 291.804 269.811C291.804 269.014 291.796 268.111 291.781 267.104C291.773 266.088 291.769 265.439 291.769 265.158H296.199C296.199 265.4 296.191 266.053 296.175 267.115C296.167 268.178 296.164 269.393 296.164 270.76C296.164 271.814 296.167 272.764 296.175 273.607C296.183 274.443 296.191 275.631 296.199 277.17ZM307.965 268.428C307.215 268.678 306.461 268.943 305.704 269.225C304.954 269.498 303.918 269.936 302.598 270.537C302.598 270.779 302.594 271.115 302.586 271.545C302.586 271.967 302.586 272.432 302.586 272.939C302.586 273.721 302.59 274.568 302.598 275.482C302.614 276.389 302.622 276.951 302.622 277.17H298.192C298.192 276.896 298.196 276.24 298.204 275.201C298.219 274.162 298.227 272.916 298.227 271.463C298.227 270.705 298.223 269.795 298.215 268.732C298.207 267.662 298.2 266.471 298.192 265.158H302.528L302.504 266.846L302.539 266.869C303.219 266.424 303.981 265.994 304.825 265.58C305.668 265.158 306.321 264.869 306.782 264.713L307.965 268.428ZM356.449 265.943C355.379 268.631 354.473 271.025 353.73 273.127C352.996 275.229 352.539 276.576 352.359 277.17H348.387C348.293 276.834 348.07 276.123 347.719 275.037C347.367 273.943 346.891 272.502 346.289 270.713H346.207C345.676 272.268 345.203 273.639 344.789 274.826C344.383 276.006 344.121 276.787 344.004 277.17H340.031C339.844 276.568 339.402 275.268 338.707 273.268C338.012 271.26 337.113 268.826 336.012 265.967L340.477 264.877L342.562 271.932H342.645L344.766 265.311H347.777L349.828 271.932H349.91L351.996 264.889L356.449 265.943ZM369.493 277.17H365.063C365.071 276.912 365.079 276.377 365.087 275.564C365.095 274.744 365.099 273.994 365.099 273.314C365.099 272.932 365.095 272.404 365.087 271.732C365.087 271.053 365.083 270.529 365.075 270.162C365.067 269.529 364.966 269.064 364.77 268.768C364.583 268.471 364.247 268.322 363.763 268.322C363.411 268.322 363.013 268.404 362.567 268.568C362.13 268.725 361.735 268.9 361.384 269.096C361.384 269.127 361.38 269.553 361.372 270.373C361.372 271.193 361.372 271.854 361.372 272.354C361.372 273.174 361.376 274.15 361.384 275.283C361.399 276.416 361.407 277.045 361.407 277.17H356.977C356.977 276.928 356.981 276.35 356.989 275.436C357.005 274.514 357.013 273.186 357.013 271.451C357.013 270.35 357.009 269.291 357.001 268.275C356.993 267.26 356.985 266.221 356.977 265.158H361.313L361.302 266.154L361.325 266.178C361.903 265.865 362.626 265.568 363.493 265.287C364.368 264.998 365.157 264.854 365.86 264.854C366.977 264.854 367.86 265.197 368.509 265.885C369.157 266.572 369.481 267.486 369.481 268.627C369.481 269.564 369.477 270.326 369.47 270.912C369.462 271.498 369.458 272.002 369.458 272.424C369.458 273.158 369.462 274.053 369.47 275.107C369.485 276.162 369.493 276.85 369.493 277.17Z" fill="#4D5B71"/>
</svg>
