<svg width="60" height="28" viewBox="0 0 60 28" fill="none" xmlns="http://www.w3.org/2000/svg">
<path d="M29.2659 3.28577C29.2432 4.48432 27.5114 6.22217 26.3027 6.26185C25.8666 6.27628 25.5057 6.12116 25.2382 5.77756C24.6199 4.98664 24.0523 4.16236 23.6442 3.24428C23.1673 2.17019 23.4248 1.37115 24.4793 0.520715C25.3371 -0.171 25.8992 -0.171901 26.9175 0.508089C27.632 0.985164 28.2522 1.56866 28.8433 2.18552C29.1371 2.49305 29.2758 2.8619 29.2659 3.28577Z" fill="#EEEEEE"/>
<path d="M4.93179 2.99168C4.97985 6.65677 5.96091 10.1307 7.17409 13.5505C8.06086 16.0504 9.22417 18.4132 10.8671 20.5217C11.3939 21.1981 11.9951 21.7978 12.7431 22.2433C13.1847 22.5058 13.4576 22.4877 13.6507 21.9394C14.4069 19.7948 14.7007 17.561 15.009 15.328C15.0398 15.1025 15.0045 14.8554 14.9437 14.6336C14.6273 13.472 15.0208 12.5016 15.7407 11.6151C16.3799 10.8278 17.1171 10.1514 18.0565 9.73387C19.0856 9.27573 19.4909 9.49398 19.7357 10.578C20.3078 13.1167 21.2345 15.5643 22.4341 17.8838C25.3065 23.4365 28.0394 24.1354 28.2561 24.1381C28.8463 24.1435 29.1591 22.4697 29.2725 22.0395C29.5082 21.1476 29.6406 20.2313 29.6986 19.3114C29.7304 18.8091 29.4511 18.3708 29.2942 17.9109C28.8944 16.7403 28.4637 15.5859 28.8101 14.3071C29.1927 12.8948 30.0142 11.827 31.27 11.0966C32.3734 10.4544 33.1097 10.7493 33.4497 11.9759C33.8994 13.6001 34.4534 15.1828 35.1743 16.7078C35.7763 17.9821 36.8617 19.6749 37.7593 20.7778C40.0723 23.4518 41.4324 23.3021 41.6863 22.945C42.0961 22.3678 42.4171 21.7437 42.6955 21.098C43.1842 19.9653 43.6711 18.8317 44.0446 17.6539C44.3212 16.7791 44.9069 16.1442 45.7057 15.7077C46.2344 15.4191 46.7004 15.4633 47.1383 15.9485C47.9236 16.8188 48.697 17.6981 49.5185 18.5386C52.1896 21.2739 54.2569 22.871 57.7079 24.4348C58.1776 24.6477 58.669 24.8001 59.2031 24.6621C59.4551 24.5963 59.7344 24.5467 59.9049 24.8046C60.3292 25.4449 59.2212 26.3576 58.7996 26.7093C58.1513 27.2513 57.1385 27.8952 56.278 27.9764C55.2099 28.0765 54.3195 27.8411 53.2868 27.5976C51.4071 27.1548 50.2112 26.7823 48.5574 25.7912C47.0169 24.8677 45.5634 23.8748 44.5832 22.2947C44.2568 21.7681 44.1797 21.7663 43.895 22.3119C43.0409 23.9514 41.8885 25.3195 40.2727 26.2719C39.774 26.5659 39.2481 26.8004 38.695 26.9771C36.8327 27.5714 35.2078 27.3171 33.8605 25.7813C33.097 24.911 32.0171 23.5176 31.4196 22.531C31.3171 22.3624 31.2491 22.0855 30.9816 22.1414C30.7658 22.1865 30.7767 22.4436 30.7278 22.6176C30.2218 24.4231 29.268 25.9166 27.6749 26.9672C26.7083 27.6057 25.662 27.9854 24.4814 27.9845C23.2392 27.9836 22.1929 27.5723 21.3043 26.6966C19.7049 25.1211 18.4826 23.285 17.4236 21.328C17.3275 21.1503 17.2848 20.8608 17.04 20.8725C16.7852 20.8843 16.7889 21.1837 16.7181 21.3704C15.8767 23.597 14.4967 25.3854 12.3995 26.5803C10.4138 27.7112 8.9585 27.5291 7.36541 25.912C5.33891 23.854 4.02508 21.3433 2.91889 18.7262C1.52799 15.4344 0.559624 12.0236 0.101734 8.4776C-0.205641 6.09312 0.154324 3.85745 1.5824 1.85626C2.0829 1.15463 2.65141 0.519727 3.45838 0.158088C4.19645 -0.172889 4.58089 0.0119893 4.82661 0.772244C5.06326 1.50093 4.92816 2.24856 4.93179 2.99168Z" fill="#02DAC5"/>
</svg>
