<svg width="240" height="210" viewBox="0 0 240 210" fill="none" xmlns="http://www.w3.org/2000/svg">
<path d="M234.812 195.636H215.922V195.778H234.812V195.636Z" fill="#EBEBEB"/>
<path d="M167.12 197.185H162.164V197.328H167.12V197.185Z" fill="#EBEBEB"/>
<path d="M215.351 190.35H204.406V190.493H215.351V190.35Z" fill="#EBEBEB"/>
<path d="M32.7587 191.307H8.125V191.45H32.7587V191.307Z" fill="#EBEBEB"/>
<path d="M41.4541 191.307H37.8438V191.45H41.4541V191.307Z" fill="#EBEBEB"/>
<path d="M106.618 193.711H53.1875V193.853H106.618V193.711Z" fill="#EBEBEB"/>
<path d="M113.381 161.07H3.25673C2.39299 161.07 1.56463 160.727 0.953875 160.117C0.343119 159.507 0 158.68 0 157.817V3.22367C0.00752032 2.36609 0.353956 1.54619 0.963898 0.942442C1.57384 0.338692 2.39791 -3.2878e-05 3.25673 2.39357e-09H113.381C114.245 2.39358e-09 115.073 0.342636 115.684 0.952532C116.295 1.56243 116.638 2.38962 116.638 3.25215V157.817C116.638 158.68 116.295 159.507 115.684 160.117C115.073 160.727 114.245 161.07 113.381 161.07ZM3.25673 0.113911C2.43127 0.115417 1.64006 0.443534 1.05637 1.0264C0.472679 1.60927 0.144097 2.39937 0.142589 3.22367V157.817C0.144097 158.642 0.472679 159.432 1.05637 160.015C1.64006 160.598 2.43127 160.926 3.25673 160.927H113.381C114.206 160.926 114.998 160.598 115.581 160.015C116.165 159.432 116.494 158.642 116.495 157.817V3.22367C116.494 2.39937 116.165 1.60927 115.581 1.0264C114.998 0.443534 114.206 0.115417 113.381 0.113911H3.25673Z" fill="#EBEBEB"/>
<path d="M236.752 161.07H126.616C125.753 161.068 124.925 160.725 124.315 160.115C123.704 159.506 123.361 158.68 123.359 157.817V3.22367C123.368 2.36656 123.715 1.54752 124.325 0.944087C124.935 0.340655 125.758 0.00145139 126.616 0H236.752C237.609 0.00296424 238.43 0.343013 239.037 0.946442C239.645 1.54987 239.99 2.36806 239.997 3.22367V157.817C239.997 158.678 239.656 159.503 239.047 160.113C238.439 160.723 237.614 161.067 236.752 161.07ZM126.616 0.113911C125.791 0.115417 124.999 0.443534 124.416 1.0264C123.832 1.60927 123.503 2.39937 123.502 3.22367V157.817C123.503 158.642 123.832 159.432 124.416 160.015C124.999 160.598 125.791 160.926 126.616 160.927H236.752C237.577 160.926 238.368 160.598 238.952 160.015C239.536 159.432 239.864 158.642 239.866 157.817V3.22367C239.864 2.39937 239.536 1.60927 238.952 1.0264C238.368 0.443534 237.577 0.115417 236.752 0.113911H126.616Z" fill="#EBEBEB"/>
<path d="M213.628 33.222H24.6406V186.58H213.628V33.222Z" fill="#F5F5F5"/>
<path d="M46.9595 16.107H18.0938V36.5254H46.9595V16.107Z" fill="#F0F0F0"/>
<path d="M75.6626 16.107H46.7969V36.5254H75.6626V16.107Z" fill="#F5F5F5"/>
<path d="M104.358 16.107H75.4922V36.5254H104.358V16.107Z" fill="#F0F0F0"/>
<path d="M133.053 16.107H104.188V36.5254H133.053V16.107Z" fill="#F5F5F5"/>
<path d="M161.756 16.107H132.891V36.5254H161.756V16.107Z" fill="#F0F0F0"/>
<path d="M190.459 16.107H161.594V36.5254H190.459V16.107Z" fill="#F5F5F5"/>
<path d="M219.147 16.107H190.281V36.5254H219.147V16.107Z" fill="#F0F0F0"/>
<path d="M47.8321 50.6504C47.8321 55.634 41.176 59.6778 32.9629 59.6778C24.7498 59.6778 18.0938 55.634 18.0938 50.6504V36.3261H46.9709L47.8321 50.6504Z" fill="#E6E6E6"/>
<path d="M76.5587 50.6504C76.5587 55.634 69.9026 59.6778 61.6895 59.6778C53.4764 59.6778 46.8203 55.634 46.8203 50.6504V36.3261H75.6974L76.5587 50.6504Z" fill="#F0F0F0"/>
<path d="M105.285 50.6504C105.285 55.634 98.6292 59.6778 90.416 59.6778C82.2029 59.6778 75.5469 55.634 75.5469 50.6504V36.3261H104.424L105.285 50.6504Z" fill="#E6E6E6"/>
<path d="M134 50.6504C134 55.634 127.344 59.6778 119.131 59.6778C110.917 59.6778 104.25 55.634 104.25 50.6504V36.3261H133.121L134 50.6504Z" fill="#F0F0F0"/>
<path d="M162.728 50.6504C162.728 55.634 156.067 59.6778 147.859 59.6778C139.652 59.6778 132.984 55.634 132.984 50.6504V36.3261H161.861L162.728 50.6504Z" fill="#E6E6E6"/>
<path d="M191.447 50.6504C191.447 55.634 184.785 59.6778 176.572 59.6778C168.359 59.6778 161.703 55.634 161.703 50.6504V36.3261H190.58L191.447 50.6504Z" fill="#F0F0F0"/>
<path d="M220.168 50.6504C220.168 55.634 213.512 59.6778 205.299 59.6778C197.086 59.6778 190.43 55.634 190.43 50.6504V36.3261H219.307L220.168 50.6504Z" fill="#E6E6E6"/>
<path d="M204.165 66.2618H117.984V115.084H204.165V66.2618Z" fill="#FAFAFA"/>
<path d="M173.177 115.05H157.578L169.293 66.7402H184.892L173.177 115.05Z" fill="#F5F5F5"/>
<path d="M180.745 115.05H177.289L189.004 66.7402H192.461L180.745 115.05Z" fill="#F5F5F5"/>
<path d="M132.688 115.05H130.938L142.653 66.7402H144.404L132.688 115.05Z" fill="#F5F5F5"/>
<path d="M205.884 116.793H116.281V64.5532H205.884V116.793ZM119.703 113.375H202.462V67.9705H119.703V113.375Z" fill="#EBEBEB"/>
<path d="M85.9908 63.3457H34.1797V186.147H85.9908V63.3457Z" fill="#EBEBEB"/>
<path d="M83.7986 65.5726H36.3906V186.153H83.7986V65.5726Z" fill="#F5F5F5"/>
<path d="M58.973 81.4803H39.9688V125.638H58.973V81.4803Z" fill="#FAFAFA"/>
<path d="M80.4574 81.4803H61.4531V125.638H80.4574V81.4803Z" fill="#FAFAFA"/>
<path d="M80.4526 138.994H39.9688V183.151H80.4526V138.994Z" fill="#EBEBEB"/>
<path d="M49.826 68.7736H70.5983C73.2083 68.7751 75.7111 69.8103 77.5577 71.6522C79.4043 73.494 80.4439 75.9921 80.4484 78.5984V79.1679H39.9531V78.5984C39.9554 77.3059 40.2125 76.0266 40.7099 74.8334C41.2073 73.6401 41.9351 72.5564 42.8519 71.6441C43.7687 70.7318 44.8564 70.0087 46.053 69.5162C47.2497 69.0237 48.5317 68.7713 49.826 68.7736Z" fill="#FAFAFA"/>
<path d="M43.4251 127.626H39.9688V136.619H43.4251V127.626Z" fill="#E6E6E6"/>
<path d="M43.4307 136.619H44.1094V127.625H43.4307V136.619Z" fill="#E0E0E0"/>
<path d="M40.8351 132.62C41.6415 132.62 42.2952 131.968 42.2952 131.162C42.2952 130.357 41.6415 129.704 40.8351 129.704C40.0287 129.704 39.375 130.357 39.375 131.162C39.375 131.968 40.0287 132.62 40.8351 132.62Z" fill="#E0E0E0"/>
<path d="M42.0185 133.674H41.2656V135.497H42.0185V133.674Z" fill="#E0E0E0"/>
<path d="M41.5801 131.162C41.579 131.564 41.4586 131.957 41.2342 132.29C41.0098 132.624 40.6914 132.884 40.3192 133.037C39.9471 133.19 39.5379 133.229 39.1433 133.15C38.7487 133.071 38.3864 132.877 38.1022 132.592C37.818 132.308 37.6246 131.946 37.5465 131.551C37.4684 131.157 37.5091 130.748 37.6634 130.377C37.8176 130.006 38.0786 129.689 38.4133 129.466C38.7481 129.243 39.1415 129.123 39.544 129.123C39.8119 129.123 40.0771 129.176 40.3245 129.279C40.5719 129.381 40.7966 129.532 40.9858 129.721C41.1749 129.91 41.3248 130.135 41.4268 130.383C41.5288 130.63 41.5809 130.895 41.5801 131.162Z" fill="#EBEBEB"/>
<path d="M178.803 153.136H175.523V176.772H178.803V153.136Z" fill="#E6E6E6"/>
<path d="M209.677 149.041L159.485 159.293L144.656 149.041V138.971H209.677V149.041Z" fill="#EBEBEB"/>
<path d="M175.329 171.663C175.33 173.238 175.02 174.798 174.417 176.253C173.814 177.708 172.929 179.031 171.814 180.145C170.699 181.258 169.376 182.142 167.919 182.745C166.462 183.348 164.9 183.658 163.323 183.658C163.123 183.646 162.923 183.674 162.734 183.742C162.546 183.81 162.374 183.915 162.228 184.052C162.082 184.189 161.966 184.354 161.886 184.538C161.807 184.721 161.766 184.919 161.766 185.119C161.766 185.319 161.807 185.517 161.886 185.7C161.966 185.884 162.082 186.049 162.228 186.186C162.374 186.323 162.546 186.428 162.734 186.496C162.923 186.564 163.123 186.592 163.323 186.58H190.996C191.369 186.557 191.718 186.393 191.973 186.121C192.229 185.85 192.371 185.491 192.371 185.119C192.371 184.747 192.229 184.388 191.973 184.117C191.718 183.845 191.369 183.681 190.996 183.658C189.418 183.66 187.854 183.352 186.395 182.75C184.935 182.148 183.609 181.265 182.492 180.151C181.375 179.037 180.488 177.714 179.884 176.257C179.279 174.801 178.968 173.24 178.968 171.663H175.329Z" fill="#E6E6E6"/>
<path d="M130.841 130.906C132.272 139.306 133.236 147.779 133.727 156.285L135.067 156.172C134.572 147.609 133.601 139.082 132.158 130.627C131.348 125.171 125.884 120.91 120.66 121.264C119.468 121.352 118.311 121.701 117.27 122.287C116.229 122.873 115.33 123.68 114.637 124.652C113.941 125.647 113.459 126.775 113.223 127.966C112.986 129.156 113 130.382 113.262 131.567C114.683 139.192 115.676 146.892 116.234 154.628L117.574 154.543C117.016 146.753 116.023 139.001 114.602 131.322C114.374 130.319 114.357 129.279 114.554 128.269C114.75 127.259 115.155 126.301 115.743 125.456C115.904 125.235 116.077 125.024 116.262 124.823C118.453 134.776 119.906 144.877 120.608 155.044L121.949 154.947C121.229 144.478 119.703 134.079 117.386 123.844C118.245 123.274 119.218 122.899 120.238 122.744C122.687 133.515 124.27 144.465 124.972 155.488L126.312 155.386C125.602 144.373 124.021 133.434 121.584 122.67C122.703 122.687 123.808 122.925 124.835 123.371C127.175 134.072 128.685 144.937 129.352 155.87L130.692 155.761C130.048 145.147 128.616 134.594 126.409 124.191C127.556 124.961 128.539 125.952 129.3 127.104C130.061 128.257 130.584 129.549 130.841 130.906Z" fill="#E0E0E0"/>
<path d="M147.03 155.317H116.18C116.181 154.449 116.527 153.617 117.142 153.003C117.757 152.389 118.59 152.044 119.459 152.042H143.762C144.629 152.047 145.46 152.394 146.072 153.007C146.684 153.621 147.029 154.451 147.03 155.317Z" fill="#F0F0F0"/>
<path d="M117.236 186.58H115.594L116.934 155.317H119.022L117.236 186.58Z" fill="#E0E0E0"/>
<path d="M128.184 186.58H126.547L127.442 155.317H129.53L128.184 186.58Z" fill="#E0E0E0"/>
<path d="M136.68 186.58H135.043L133.703 155.317H135.791L136.68 186.58Z" fill="#E0E0E0"/>
<path d="M147.639 186.58H146.002L144.211 155.317H146.298L147.639 186.58Z" fill="#E0E0E0"/>
<path d="M148.384 154.127H130.047V156.508H148.384V154.127Z" fill="#E6E6E6"/>
<path d="M130.047 154.127H114.836V156.508H130.047V154.127Z" fill="#EBEBEB"/>
<path d="M213.88 130.906C212.459 139.307 211.507 147.779 211.028 156.285L209.688 156.172C210.183 147.609 211.154 139.082 212.596 130.627C213.401 125.171 218.87 120.91 224.095 121.264C225.285 121.352 226.442 121.702 227.482 122.287C228.522 122.873 229.42 123.681 230.112 124.652C230.801 125.65 231.275 126.78 231.504 127.97C231.733 129.16 231.711 130.385 231.441 131.567C230.031 139.188 229.046 146.881 228.492 154.611L227.157 154.526C227.714 146.736 228.704 138.984 230.123 131.305C230.352 130.302 230.368 129.262 230.172 128.252C229.976 127.242 229.571 126.283 228.983 125.438C228.822 125.216 228.647 125.005 228.458 124.806C226.266 134.759 224.815 144.86 224.118 155.027L222.777 154.93C223.494 144.46 225.02 134.062 227.34 123.827C226.481 123.257 225.508 122.882 224.488 122.727C222.038 133.504 220.453 144.459 219.749 155.488L218.408 155.386C219.12 144.373 220.703 133.434 223.142 122.67C222.021 122.689 220.915 122.927 219.885 123.371C217.543 134.081 216.035 144.956 215.374 155.898L214.034 155.79C214.673 145.165 216.106 134.603 218.323 124.191C217.174 124.961 216.19 125.951 215.428 127.104C214.665 128.257 214.139 129.549 213.88 130.906Z" fill="#E0E0E0"/>
<path d="M197.688 155.317H228.544C228.544 154.449 228.198 153.616 227.583 153.001C226.968 152.387 226.134 152.042 225.264 152.042H200.967C200.097 152.042 199.263 152.387 198.648 153.001C198.033 153.616 197.688 154.449 197.688 155.317Z" fill="#F0F0F0"/>
<path d="M227.494 186.58H229.131L227.791 155.317H225.703L227.494 186.58Z" fill="#E0E0E0"/>
<path d="M216.543 186.58H218.18L217.291 155.317H215.203L216.543 186.58Z" fill="#E0E0E0"/>
<path d="M208.047 186.58H209.69L211.03 155.317H208.942L208.047 186.58Z" fill="#E0E0E0"/>
<path d="M197.086 186.58H198.729L200.514 155.317H198.426L197.086 186.58Z" fill="#E0E0E0"/>
<path d="M196.335 156.507H214.672V154.127H196.335V156.507Z" fill="#E6E6E6"/>
<path d="M214.679 156.507H229.891V154.127H214.679V156.507Z" fill="#EBEBEB"/>
<path d="M118.047 210C179.122 210 228.633 207.113 228.633 203.553C228.633 199.992 179.122 197.105 118.047 197.105C56.9721 197.105 7.46094 199.992 7.46094 203.553C7.46094 207.113 56.9721 210 118.047 210Z" fill="#F5F5F5"/>
<path d="M34.4555 10.9582H38.8415C37.8059 10.9458 36.779 11.1473 35.8251 11.5499C34.8712 11.9525 34.0108 12.5476 33.2981 13.2979C32.5853 14.0482 32.0354 14.9374 31.683 15.9099C31.3306 16.8823 31.1832 17.917 31.2501 18.949L38.2312 151.985C38.3744 154.128 39.32 156.137 40.88 157.615C42.4399 159.093 44.4998 159.929 46.6497 159.959H42.2636C40.1114 159.937 38.047 159.103 36.4854 157.624C34.9237 156.145 33.9805 154.13 33.8452 151.985L26.8754 18.949C26.8078 17.9178 26.9543 16.8837 27.3057 15.9117C27.6571 14.9396 28.2059 14.0506 28.9176 13.3003C29.6293 12.55 30.4886 11.9547 31.4416 11.5517C32.3945 11.1486 33.4206 10.9466 34.4555 10.9582Z" fill="#263238"/>
<path opacity="0.3" d="M34.4555 10.9582H38.8415C37.8059 10.9458 36.779 11.1473 35.8251 11.5499C34.8712 11.9525 34.0108 12.5476 33.2981 13.2979C32.5853 14.0482 32.0354 14.9374 31.683 15.9099C31.3306 16.8823 31.1832 17.917 31.2501 18.949L38.2312 151.985C38.3744 154.128 39.32 156.137 40.88 157.615C42.4399 159.093 44.4998 159.929 46.6497 159.959H42.2636C40.1114 159.937 38.047 159.103 36.4854 157.624C34.9237 156.145 33.9805 154.13 33.8452 151.985L26.8754 18.949C26.8078 17.9178 26.9543 16.8837 27.3057 15.9117C27.6571 14.9396 28.2059 14.0506 28.9176 13.3003C29.6293 12.55 30.4886 11.9547 31.4416 11.5517C32.3945 11.1486 33.4206 10.9466 34.4555 10.9582Z" fill="white"/>
<path d="M44.7267 159.97H98.4656C99.4987 159.981 100.523 159.779 101.474 159.377C102.426 158.974 103.284 158.381 103.995 157.632C104.706 156.884 105.255 155.997 105.608 155.028C105.961 154.058 106.11 153.026 106.046 151.997L99.0645 18.949C98.9213 16.8067 97.9757 14.7968 96.4157 13.3192C94.8558 11.8417 92.7959 11.0048 90.646 10.9753H36.9071C35.874 10.9646 34.8499 11.1668 33.8985 11.5691C32.9472 11.9714 32.0891 12.5651 31.3778 13.3134C30.6665 14.0616 30.1173 14.9482 29.7645 15.9178C29.4117 16.8875 29.2628 17.9193 29.3271 18.949L36.3082 151.985C36.4486 154.13 37.3931 156.142 38.9533 157.622C40.5136 159.102 42.575 159.941 44.7267 159.97Z" fill="#263238"/>
<path d="M103.289 152.116L96.3081 19.08C96.2133 17.5867 95.5571 16.1842 94.471 15.1534C93.3848 14.1227 91.9488 13.5397 90.4505 13.5211H79.4997L79.6423 16.2778C79.6661 16.6074 79.6209 16.9383 79.5097 17.2495C79.3984 17.5607 79.2234 17.8454 78.9959 18.0854C78.7685 18.3255 78.4934 18.5155 78.1884 18.6436C77.8833 18.7717 77.5549 18.8349 77.224 18.8293H51.2785C50.55 18.8306 49.8486 18.5533 49.3183 18.0545C48.788 17.5556 48.469 16.873 48.4267 16.1468L48.2899 13.5211H36.7173C36.0329 13.511 35.3538 13.6425 34.7228 13.9075C34.0918 14.1724 33.5226 14.565 33.0511 15.0605C32.5796 15.556 32.2159 16.1436 31.9831 16.7864C31.7502 17.4291 31.6532 18.1131 31.6982 18.7952L38.668 151.848C38.7628 153.342 39.4189 154.744 40.5051 155.775C41.5912 156.806 43.0272 157.389 44.5255 157.407H98.2701C98.9566 157.419 99.638 157.289 100.271 157.023C100.904 156.758 101.475 156.364 101.947 155.866C102.419 155.368 102.782 154.778 103.013 154.132C103.245 153.487 103.338 152.8 103.289 152.116Z" fill="#FFC857"/>
<path opacity="0.1" d="M103.289 152.116L96.3081 19.08C96.2133 17.5867 95.5571 16.1842 94.471 15.1534C93.3848 14.1227 91.9488 13.5397 90.4505 13.5211H79.4997L79.6423 16.2778C79.6661 16.6074 79.6209 16.9383 79.5097 17.2495C79.3984 17.5607 79.2234 17.8454 78.9959 18.0854C78.7685 18.3255 78.4934 18.5155 78.1884 18.6436C77.8833 18.7717 77.5549 18.8349 77.224 18.8293H51.2785C50.55 18.8306 49.8486 18.5533 49.3183 18.0545C48.788 17.5556 48.469 16.873 48.4267 16.1468L48.2899 13.5211H36.7173C36.0329 13.511 35.3538 13.6425 34.7228 13.9075C34.0918 14.1724 33.5226 14.565 33.0511 15.0605C32.5796 15.556 32.2159 16.1436 31.9831 16.7864C31.7502 17.4291 31.6532 18.1131 31.6982 18.7952L38.668 151.848C38.7628 153.342 39.4189 154.744 40.5051 155.775C41.5912 156.806 43.0272 157.389 44.5255 157.407H98.2701C98.9566 157.419 99.638 157.289 100.271 157.023C100.904 156.758 101.475 156.364 101.947 155.866C102.419 155.368 102.782 154.778 103.013 154.132C103.245 153.487 103.338 152.8 103.289 152.116Z" fill="black"/>
<g opacity="0.8">
<path d="M88.1549 112.623H50.0323C48.1559 112.623 47.7509 109.713 49.6274 109.713H87.75C89.6264 109.713 90.0314 112.623 88.1549 112.623Z" fill="white"/>
<path d="M82.8228 119.931H50.4152C48.5387 119.931 48.1337 117.02 50.0102 117.02H82.4178C84.2943 117.02 84.6992 119.931 82.8228 119.931Z" fill="white"/>
<path d="M87.3587 127.238H50.7989C48.9225 127.238 48.5175 124.328 50.3883 124.328H86.9481C88.8303 124.328 89.2295 127.238 87.3587 127.238Z" fill="white"/>
<path d="M76.7307 134.546H51.213C49.3365 134.546 48.9316 131.635 50.8023 131.635H76.3086C78.1851 131.635 78.5901 134.546 76.7193 134.546H76.7307Z" fill="white"/>
</g>
<path opacity="0.8" d="M65.3846 44.2884L69.6281 47.9449L74.9153 46.8001L76.8602 51.9944L82.1531 53.6689L81.2862 59.0057L85.1646 63.0552L81.7082 67.099L83.1398 72.4357L78.0237 74.1102L76.6206 79.3045L71.2137 78.1597L67.3524 81.8219L63.1089 78.1597L57.8274 79.3045L55.8768 74.1102L50.5839 72.4357L51.4565 67.099L47.5781 63.0552L51.0288 59.0057L49.6029 53.6689L54.7133 51.9944L56.1221 46.8001L61.5233 47.9449L65.3846 44.2884Z" fill="white"/>
<path d="M67.5106 63.8754H65.2976L65.1094 60.2758H67.3224L67.5106 63.8754Z" fill="#263238"/>
<path opacity="0.2" d="M67.5106 63.8754H65.2976L65.1094 60.2758H67.3224L67.5106 63.8754Z" fill="white"/>
<path d="M56.5757 63.3741L56.2335 56.8869H54.9844L55.338 63.7216C55.3578 64.0689 55.4571 64.4071 55.6281 64.7102C55.7992 65.0133 56.0375 65.2732 56.3247 65.4701L58.6061 67.0364L58.532 65.5954L58.0187 65.3847C57.6122 65.2204 57.2608 64.9442 57.0053 64.5883C56.7499 64.2323 56.6009 63.8113 56.5757 63.3741Z" fill="#263238"/>
<path opacity="0.2" d="M56.5757 63.3741L56.2335 56.8869H54.9844L55.338 63.7216C55.3578 64.0689 55.4571 64.4071 55.6281 64.7102C55.7992 65.0133 56.0375 65.2732 56.3247 65.4701L58.6061 67.0364L58.532 65.5954L58.0187 65.3847C57.6122 65.2204 57.2608 64.9442 57.0053 64.5883C56.7499 64.2323 56.6009 63.8113 56.5757 63.3741Z" fill="white"/>
<path d="M76.184 63.3741L75.8475 56.8869H77.0966L77.4559 63.7216C77.4764 64.0566 77.4137 64.3915 77.2734 64.6965C77.1331 65.0015 76.9195 65.2672 76.6517 65.4701L74.5585 67.0364L74.4844 65.5954L74.9749 65.3847C75.3602 65.2159 75.6835 64.9318 75.9001 64.5717C76.1167 64.2115 76.2159 63.793 76.184 63.3741Z" fill="#263238"/>
<path opacity="0.2" d="M76.184 63.3741L75.8475 56.8869H77.0966L77.4559 63.7216C77.4764 64.0566 77.4137 64.3915 77.2734 64.6965C77.1331 65.0015 76.9195 65.2672 76.6517 65.4701L74.5585 67.0364L74.4844 65.5954L74.9749 65.3847C75.3602 65.2159 75.6835 64.9318 75.9001 64.5717C76.1167 64.2115 76.2159 63.793 76.184 63.3741Z" fill="white"/>
<path d="M79.6155 79.7373L68.157 76.1776L67.7521 68.7108H65.5391L65.9269 76.1549L54.862 79.7373C54.7729 79.7662 54.696 79.8239 54.6434 79.9012C54.5907 79.9785 54.5653 80.0712 54.5711 80.1645C54.5746 80.2327 54.5929 80.2994 54.6246 80.3599C54.6564 80.4204 54.7009 80.4734 54.7551 80.515C54.8093 80.5567 54.8719 80.5862 54.9386 80.6014C55.0053 80.6166 55.0745 80.6172 55.1415 80.6031L66.4003 77.8066L66.6855 80.1987C66.7022 80.3463 66.7722 80.4827 66.8825 80.5823C66.9928 80.6819 67.1357 80.7379 67.2844 80.7398C67.4308 80.7399 67.5717 80.6839 67.6779 80.5831C67.7841 80.4824 67.8474 80.3448 67.8547 80.1987V77.8066L79.4101 80.6031C79.4753 80.6206 79.5436 80.6222 79.6095 80.6079C79.6754 80.5935 79.7369 80.5636 79.7888 80.5207C79.8408 80.4777 79.8817 80.423 79.9081 80.361C79.9345 80.2991 79.9456 80.2317 79.9406 80.1645C79.9353 80.069 79.9016 79.9773 79.8436 79.9011C79.7857 79.825 79.7062 79.7679 79.6155 79.7373Z" fill="#263238"/>
<path opacity="0.2" d="M79.6155 79.7373L68.157 76.1776L67.7521 68.7108H65.5391L65.9269 76.1549L54.862 79.7373C54.7729 79.7662 54.696 79.8239 54.6434 79.9012C54.5907 79.9785 54.5653 80.0712 54.5711 80.1645C54.5746 80.2327 54.5929 80.2994 54.6246 80.3599C54.6564 80.4204 54.7009 80.4734 54.7551 80.515C54.8093 80.5567 54.8719 80.5862 54.9386 80.6014C55.0053 80.6166 55.0745 80.6172 55.1415 80.6031L66.4003 77.8066L66.6855 80.1987C66.7022 80.3463 66.7722 80.4827 66.8825 80.5823C66.9928 80.6819 67.1357 80.7379 67.2844 80.7398C67.4308 80.7399 67.5717 80.6839 67.6779 80.5831C67.7841 80.4824 67.8474 80.3448 67.8547 80.1987V77.8066L79.4101 80.6031C79.4753 80.6206 79.5436 80.6222 79.6095 80.6079C79.6754 80.5935 79.7369 80.5636 79.7888 80.5207C79.8408 80.4777 79.8817 80.423 79.9081 80.361C79.9345 80.2991 79.9456 80.2317 79.9406 80.1645C79.9353 80.069 79.9016 79.9773 79.8436 79.9011C79.7857 79.825 79.7062 79.7679 79.6155 79.7373Z" fill="white"/>
<path d="M55.5943 81.6169C55.6021 81.7395 55.5846 81.8624 55.5428 81.9779C55.5009 82.0935 55.4357 82.1991 55.3511 82.2884C55.2666 82.3776 55.1645 82.4485 55.0513 82.4966C54.9381 82.5447 54.8162 82.569 54.6931 82.568C54.4368 82.5643 54.1912 82.4644 54.0052 82.2882C53.8193 82.112 53.7065 81.8723 53.6893 81.6169C53.6815 81.4943 53.699 81.3713 53.7409 81.2558C53.7827 81.1403 53.8479 81.0346 53.9325 80.9453C54.017 80.8561 54.1191 80.7852 54.2323 80.7371C54.3455 80.689 54.4674 80.6647 54.5905 80.6657C54.8472 80.6681 55.0935 80.7676 55.2798 80.944C55.4661 81.1205 55.5785 81.3609 55.5943 81.6169Z" fill="#263238"/>
<path d="M68.2893 81.617C68.2971 81.7396 68.2796 81.8625 68.2377 81.978C68.1959 82.0936 68.1307 82.1993 68.0461 82.2885C67.9615 82.3778 67.8595 82.4487 67.7463 82.4968C67.6331 82.5449 67.5111 82.5692 67.3881 82.5681C67.1317 82.5644 66.8862 82.4645 66.7002 82.2883C66.5142 82.1121 66.4014 81.8724 66.3843 81.617C66.3773 81.4941 66.3955 81.3711 66.438 81.2555C66.4805 81.1399 66.5463 81.0343 66.6313 80.9452C66.7163 80.856 66.8187 80.7852 66.9322 80.7372C67.0457 80.6891 67.1679 80.6649 67.2911 80.6658C67.5473 80.6683 67.793 80.768 67.9783 80.9446C68.1636 81.1212 68.2748 81.3616 68.2893 81.617Z" fill="#263238"/>
<path d="M80.9849 81.6169C80.9928 81.74 80.9751 81.8634 80.9329 81.9793C80.8907 82.0952 80.825 82.2012 80.7398 82.2905C80.6547 82.3798 80.5519 82.4506 80.438 82.4984C80.3241 82.5461 80.2016 82.5698 80.0781 82.568C79.8219 82.5655 79.5762 82.4659 79.3909 82.2893C79.2056 82.1127 79.0944 81.8723 79.0799 81.6169C79.0721 81.4943 79.0896 81.3713 79.1315 81.2558C79.1733 81.1403 79.2386 81.0346 79.3231 80.9453C79.4077 80.8561 79.5097 80.7852 79.6229 80.7371C79.7362 80.689 79.8581 80.6647 79.9811 80.6657C80.2375 80.6694 80.483 80.7693 80.669 80.9455C80.855 81.1218 80.9678 81.3614 80.9849 81.6169Z" fill="#263238"/>
<path d="M57.2541 56.4199C57.2884 57.0521 56.2788 57.3824 55.0069 57.3824C53.735 57.3824 52.6913 57.0521 52.6571 56.4199C52.6229 55.7877 53.6552 55.8218 54.9385 55.8218C56.2218 55.8218 57.2256 55.8161 57.2541 56.4199Z" fill="#263238"/>
<path d="M74.7821 56.4199C74.8163 57.0521 75.8601 57.3824 77.1319 57.3824C78.4038 57.3824 79.4134 57.0521 79.3791 56.4199C79.3449 55.7877 78.3183 55.8218 77.0464 55.8218C75.7745 55.8218 74.7479 55.8161 74.7821 56.4199Z" fill="#263238"/>
<path d="M76.3099 65.043C76.4524 67.7484 72.1234 69.1608 66.6937 69.1608C61.2639 69.1608 56.7866 67.7484 56.644 65.043C56.5014 62.3376 60.9102 62.4914 66.34 62.4914C71.7698 62.4914 76.1616 62.3376 76.3099 65.043Z" fill="#263238"/>
<path d="M68.1599 61.0504C69.7056 60.5948 73.0707 60.0138 73.5327 58.476C74.4395 55.4916 72.198 47.2046 69.8881 44.9036C69.1836 44.3622 68.3735 43.9742 67.5097 43.7645C66.0857 43.4513 64.6104 43.4513 63.1864 43.7645C62.3491 43.966 61.5688 44.3556 60.905 44.9036C58.8403 47.1818 57.4828 55.4916 58.6863 58.476C59.308 60.0138 62.7358 60.5948 64.3271 61.0504C65.5797 61.4078 66.9074 61.4078 68.1599 61.0504Z" fill="#263238"/>
<path opacity="0.8" d="M88.879 101.978H47.9274C46.867 101.968 45.85 101.556 45.0808 100.827C44.3115 100.098 43.8472 99.1055 43.7809 98.0485L43.5699 94.0616C43.5377 93.5541 43.6107 93.0453 43.7844 92.5672C43.9582 92.0891 44.2288 91.6519 44.5795 91.283C44.9301 90.9142 45.3532 90.6215 45.8223 90.4234C46.2914 90.2253 46.7964 90.126 47.3057 90.1317H88.2801C89.3405 90.1426 90.3576 90.5539 91.1268 91.2829C91.896 92.012 92.3604 93.0047 92.4266 94.0616L92.6376 98.0485C92.67 98.5581 92.5963 99.0688 92.4212 99.5484C92.2461 100.028 91.9734 100.466 91.6203 100.836C91.2672 101.205 90.8413 101.497 90.3695 101.694C89.8977 101.89 89.3902 101.987 88.879 101.978Z" fill="white"/>
<path d="M50.6982 97.3935H48.5878L48.2342 98.3675H47.1562L48.9472 93.8111H49.9852L52.2666 98.3675H51.1601L50.6982 97.3935ZM50.3274 96.5962L49.5061 94.8249L48.8787 96.5677L50.3274 96.5962Z" fill="#FFC857"/>
<path d="M55.5208 93.9762C55.8118 94.094 56.0619 94.2943 56.2403 94.5524C56.4187 94.8105 56.5175 95.1151 56.5246 95.4286C56.5487 95.7319 56.4812 96.0354 56.3307 96.3C56.1779 96.5544 55.9483 96.7538 55.6748 96.8695C55.3468 97.0087 54.993 97.0766 54.6367 97.0689H53.7184L53.7812 98.3219H52.7317L52.4922 93.7655H54.4599C54.8243 93.762 55.1855 93.8338 55.5208 93.9762ZM55.2413 96.0095C55.3205 95.9389 55.3816 95.8503 55.4193 95.7512C55.4571 95.6521 55.4703 95.5453 55.458 95.44C55.4558 95.3304 55.4297 95.2227 55.3814 95.1243C55.3331 95.0259 55.2639 94.9393 55.1786 94.8704C54.965 94.7229 54.7075 94.6526 54.4485 94.6711H53.593L53.6728 96.2487H54.5341C54.789 96.2631 55.0405 96.1841 55.2413 96.0266V96.0095Z" fill="#FFC857"/>
<path d="M60.2161 93.9762C60.5071 94.094 60.7573 94.2943 60.9356 94.5524C61.114 94.8105 61.2128 95.1151 61.2199 95.4286C61.244 95.7319 61.1765 96.0354 61.026 96.3C60.8732 96.5544 60.6436 96.7538 60.3701 96.8695C60.0421 97.0087 59.6883 97.0766 59.332 97.0689H58.4138L58.4822 98.3219H57.427L57.1875 93.7655H59.1552C59.5196 93.762 59.8808 93.8338 60.2161 93.9762ZM59.9366 96.0095C60.0159 95.9389 60.0769 95.8503 60.1147 95.7512C60.1524 95.6521 60.1656 95.5453 60.1533 95.44C60.1511 95.331 60.1255 95.2238 60.0783 95.1256C60.031 95.0273 59.9633 94.9403 59.8796 94.8704C59.6645 94.7217 59.4047 94.6513 59.1438 94.6711H58.2883L58.3681 96.2487H59.2294C59.4843 96.2631 59.7358 96.1841 59.9366 96.0266V96.0095Z" fill="#FFC857"/>
<path d="M61.875 93.794H62.9302L63.1241 97.4847H65.4055L65.4511 98.339H62.1145L61.875 93.794Z" fill="#FFC857"/>
<path d="M67.6747 96.7272L67.7602 98.339H66.7051L66.6195 96.7158L64.7031 93.794H65.8438L67.1671 95.8159L68.2792 93.794H69.3116L67.6747 96.7272Z" fill="#FFC857"/>
<path d="M75.7375 93.794L75.9771 98.3504H75.1101L72.6975 95.5938L72.8401 98.3504H71.8021L71.5625 93.794H72.4352L74.842 96.5563L74.6938 93.794H75.7375Z" fill="#FFC857"/>
<path d="M77.9792 98.1111C77.5999 97.9154 77.2776 97.6251 77.0439 97.2682C76.8099 96.9096 76.6778 96.4942 76.6617 96.0664C76.6324 95.6497 76.7214 95.2332 76.9184 94.8647C77.1131 94.5068 77.4086 94.2138 77.7682 94.0218C78.1545 93.8117 78.5889 93.7057 79.0287 93.7142C79.4773 93.7083 79.9202 93.814 80.3177 94.0218C80.6971 94.2175 81.0193 94.5078 81.2531 94.8647C81.4888 95.2229 81.6229 95.6382 81.6409 96.0664C81.671 96.4839 81.5799 96.9012 81.3786 97.2682C81.1828 97.6233 80.89 97.9156 80.5344 98.1111C80.1479 98.3205 79.7136 98.4265 79.2739 98.4187C78.8236 98.4239 78.379 98.3182 77.9792 98.1111ZM79.947 97.3366C80.1552 97.214 80.3235 97.034 80.4318 96.8183C80.545 96.5846 80.5941 96.3252 80.5744 96.0664C80.5615 95.8017 80.4852 95.5439 80.3519 95.3146C80.2129 95.093 80.0156 94.9138 79.7816 94.7963C79.5555 94.6749 79.3025 94.6122 79.0458 94.6141C78.7944 94.6108 78.5465 94.6736 78.3272 94.7963C78.1189 94.9189 77.9506 95.0989 77.8424 95.3146C77.7297 95.5484 77.6805 95.8077 77.6998 96.0664C77.7063 96.3322 77.783 96.5916 77.9222 96.8183C78.0529 97.0345 78.2377 97.2131 78.4583 97.3366C78.6857 97.4599 78.9411 97.5227 79.1998 97.5188C79.4612 97.5303 79.7204 97.4671 79.947 97.3366Z" fill="#FFC857"/>
<path d="M89.044 93.794L87.7949 98.3504H86.6542L85.5135 95.2748L84.6408 98.3504H83.5001L81.7891 93.794H82.8841L84.0762 96.9892L84.9831 93.794H85.9584L87.1675 97.012L88.0573 93.794H89.044Z" fill="#FFC857"/>
<path opacity="0.2" d="M42.5312 157.043C43.1695 157.283 43.8456 157.406 44.5275 157.407H71.049L97.5763 43.4455L96.2987 19.08C96.2039 17.5867 95.5477 16.1843 94.4616 15.1535C93.3754 14.1227 91.9394 13.5397 90.4411 13.5212H79.4903L79.6329 16.2778C79.6567 16.6074 79.6115 16.9384 79.5002 17.2496C79.389 17.5608 79.214 17.8455 78.9865 18.0855C78.759 18.3255 78.484 18.5156 78.179 18.6437C77.8739 18.7718 77.5455 18.835 77.2146 18.8294H74.705L42.5312 157.043Z" fill="white"/>
<path opacity="0.2" d="M77.8487 157.407L98.8321 67.2585L98.1191 53.6063L73.9531 157.407H77.8487Z" fill="white"/>
<path d="M206.214 201.314L188.344 196.957V125.472H183.605V196.957L165.73 201.314C165.464 201.372 165.231 201.534 165.084 201.763C164.937 201.992 164.887 202.27 164.946 202.536C165.004 202.802 165.165 203.034 165.395 203.18C165.624 203.327 165.903 203.377 166.169 203.319L185.972 199.566L205.775 203.33C206.041 203.388 206.319 203.337 206.548 203.19C206.777 203.042 206.938 202.81 206.995 202.544C207.053 202.279 207.002 202.001 206.854 201.772C206.707 201.544 206.474 201.383 206.208 201.326L206.214 201.314Z" fill="#263238"/>
<g opacity="0.2">
<path d="M206.214 201.314L188.344 196.957V125.472H183.605V196.957L165.73 201.314C165.464 201.372 165.231 201.534 165.084 201.763C164.937 201.992 164.887 202.27 164.946 202.536C165.004 202.802 165.165 203.034 165.395 203.18C165.624 203.327 165.903 203.377 166.169 203.319L185.972 199.566L205.775 203.33C206.041 203.388 206.319 203.337 206.548 203.19C206.777 203.042 206.938 202.81 206.995 202.544C207.053 202.279 207.002 202.001 206.854 201.772C206.707 201.544 206.474 201.383 206.208 201.326L206.214 201.314Z" fill="white"/>
</g>
<path d="M195.178 128.998C195.178 128.998 188.289 129.972 185.973 129.972C183.657 129.972 176.773 128.998 176.773 128.998C176.339 128.952 175.937 128.747 175.645 128.424C175.352 128.1 175.189 127.68 175.188 127.244H196.758C196.757 127.679 196.595 128.098 196.303 128.422C196.012 128.745 195.612 128.95 195.178 128.998Z" fill="#263238"/>
<path opacity="0.3" d="M195.178 128.998C195.178 128.998 188.289 129.972 185.973 129.972C183.657 129.972 176.773 128.998 176.773 128.998C176.339 128.952 175.937 128.747 175.645 128.424C175.352 128.1 175.189 127.68 175.188 127.244H196.758C196.757 127.679 196.595 128.098 196.303 128.422C196.012 128.745 195.612 128.95 195.178 128.998Z" fill="white"/>
<path d="M209.618 127.352H162.335C161.836 127.352 161.357 127.154 161.004 126.802C160.651 126.449 160.453 125.971 160.453 125.472C160.453 124.974 160.651 124.496 161.004 124.143C161.357 123.791 161.836 123.593 162.335 123.593H209.618C209.865 123.593 210.11 123.642 210.338 123.736C210.566 123.83 210.774 123.969 210.949 124.143C211.123 124.318 211.262 124.525 211.357 124.753C211.451 124.981 211.5 125.226 211.5 125.472C211.5 125.719 211.451 125.964 211.357 126.192C211.262 126.42 211.123 126.627 210.949 126.802C210.774 126.976 210.566 127.114 210.338 127.209C210.11 127.303 209.865 127.352 209.618 127.352Z" fill="#FFC857"/>
<path opacity="0.4" d="M209.618 127.352H162.335C161.836 127.352 161.357 127.154 161.004 126.802C160.651 126.449 160.453 125.971 160.453 125.472C160.453 124.974 160.651 124.496 161.004 124.143C161.357 123.791 161.836 123.593 162.335 123.593H209.618C209.865 123.593 210.11 123.642 210.338 123.736C210.566 123.83 210.774 123.969 210.949 124.143C211.123 124.318 211.262 124.525 211.357 124.753C211.451 124.981 211.5 125.226 211.5 125.472C211.5 125.719 211.451 125.964 211.357 126.192C211.262 126.42 211.123 126.627 210.949 126.802C210.774 126.976 210.566 127.114 210.338 127.209C210.11 127.303 209.865 127.352 209.618 127.352Z" fill="white"/>
<path d="M189.632 123.382H182.594L182.023 105.908H190.202L189.632 123.382Z" fill="#FFC857"/>
<path opacity="0.7" d="M189.632 123.382H182.594L182.023 105.908H190.202L189.632 123.382Z" fill="white"/>
<path d="M190.962 106.529H181.266L181.836 104.872H190.391L190.962 106.529Z" fill="#FFC857"/>
<path d="M189.865 117.282L190.013 112.293H182.211L182.359 117.282H189.865Z" fill="#FFC857"/>
<path opacity="0.8" d="M187.728 114.788C187.728 115.106 187.634 115.418 187.456 115.683C187.279 115.948 187.027 116.155 186.732 116.277C186.437 116.399 186.112 116.431 185.799 116.369C185.486 116.306 185.198 116.153 184.973 115.927C184.747 115.702 184.593 115.415 184.531 115.102C184.469 114.789 184.501 114.465 184.623 114.171C184.745 113.876 184.952 113.625 185.217 113.447C185.483 113.27 185.795 113.176 186.114 113.176C186.542 113.176 186.953 113.346 187.255 113.648C187.558 113.95 187.728 114.36 187.728 114.788Z" fill="white"/>
<path d="M151.681 101.517L152.531 104.04C152.651 104.393 151.995 106.945 152.246 107.56L153.768 110.75C153.974 111.108 154.308 111.375 154.704 111.496C155.337 111.586 155.983 111.47 156.546 111.165L157.362 110.738C157.564 110.637 157.732 110.478 157.844 110.281C157.956 110.084 158.006 109.859 157.989 109.633C157.915 108.528 157.989 106.427 157.738 105.646C157.682 105.449 157.574 105.269 157.424 105.128L156.227 103.989C156.056 103.798 155.932 103.57 155.867 103.323L155.103 100.475C155.04 100.244 154.928 100.03 154.773 99.8473C154.618 99.6649 154.425 99.5188 154.207 99.4193C153.989 99.3198 153.752 99.2694 153.513 99.2717C153.273 99.274 153.037 99.3289 152.822 99.4325L152.525 99.5806C152.176 99.7498 151.899 100.038 151.744 100.393C151.59 100.748 151.567 101.147 151.681 101.517Z" fill="#FF8B7B"/>
<path d="M101.142 91.3222L97.1491 92.1424C97.0842 92.1981 97.0066 92.237 96.9231 92.2559C96.8395 92.2748 96.7527 92.2729 96.67 92.2506L91.5368 90.821C91.4262 90.7814 91.3053 90.7814 91.1946 90.821L86.917 92.6607C86.7989 92.7112 86.7045 92.8045 86.6526 92.9218C86.6008 93.0391 86.5953 93.1717 86.6375 93.2929C86.6805 93.4156 86.7687 93.5175 86.8841 93.5778C86.9996 93.6381 87.1336 93.6523 87.2592 93.6175L89.4208 93.0081C89.5247 92.9759 89.6362 92.9779 89.7389 93.0138C89.8416 93.0497 89.93 93.1175 89.9912 93.2074L91.8962 95.9584C91.9385 96.0178 91.9929 96.0678 92.0558 96.1051C92.1186 96.1424 92.1886 96.1661 92.2612 96.1748L94.4342 96.4083C94.5016 96.4254 94.5722 96.4254 94.6396 96.4083L98.575 95.161C98.6324 95.1437 98.6864 95.1168 98.7347 95.0813L102.488 94.6484C102.542 94.6058 102.587 94.5527 102.62 94.4923C102.654 94.4319 102.674 94.3654 102.681 94.2968C102.688 94.2282 102.681 94.1589 102.661 94.0931C102.64 94.0272 102.606 93.9662 102.562 93.9137L101.86 91.345C101.815 91.2963 101.76 91.257 101.699 91.2295C101.638 91.202 101.572 91.1868 101.506 91.1846C101.439 91.1825 101.372 91.1936 101.31 91.2172C101.247 91.2408 101.19 91.2765 101.142 91.3222Z" fill="#FF8B7B"/>
<path d="M118.059 90.8266C117.757 94.2952 99.2831 95.7475 99.2831 95.7475L98.4219 91.2709L112.162 87.1017C109.122 67.8964 115.829 67.1047 115.829 67.1047C115.829 67.1047 119.04 79.3957 118.059 90.8266Z" fill="#FFC857"/>
<g opacity="0.6">
<path d="M118.059 90.8266C117.757 94.2952 99.2831 95.7475 99.2831 95.7475L98.4219 91.2709L112.162 87.1017C109.122 67.8964 115.829 67.1047 115.829 67.1047C115.829 67.1047 119.04 79.3957 118.059 90.8266Z" fill="white"/>
</g>
<path d="M121.359 189.547L121.799 200.067L126.15 199.885L126.749 189.319L121.359 189.547Z" fill="#FF8B7B"/>
<path opacity="0.2" d="M121.588 194.93L126.453 194.725L126.755 189.319L121.359 189.547L121.588 194.93Z" fill="#263238"/>
<path d="M116.938 102.941L120.793 193.99L127.067 193.722C127.067 193.722 130.421 173.144 129.668 159.27C129.588 157.835 129.097 154.235 129.206 153.005C129.414 151.193 129.757 149.4 130.232 147.64C131.755 141.255 133.176 130.217 132.314 121.947C132.314 121.947 140.51 113.199 138.326 102.013L116.938 102.941Z" fill="#FFC857"/>
<path opacity="0.2" d="M133.013 121.11L130.931 116.553L129.346 117.288C129.346 117.288 129.175 124.288 131.941 137.462C132.595 132.32 132.714 127.125 132.295 121.958C132.295 121.958 132.574 121.662 133.013 121.11Z" fill="black"/>
<path d="M119.236 198.501C118.586 198.501 117.901 198.41 117.679 198.136C117.623 198.057 117.594 197.962 117.594 197.866C117.594 197.769 117.623 197.674 117.679 197.595C117.72 197.522 117.774 197.458 117.84 197.406C117.905 197.354 117.981 197.316 118.061 197.293C118.934 197.031 120.799 198.034 120.879 198.079C120.902 198.09 120.92 198.108 120.932 198.131C120.943 198.154 120.946 198.18 120.941 198.205C120.938 198.23 120.928 198.255 120.91 198.274C120.893 198.293 120.87 198.307 120.844 198.313C120.315 198.421 119.777 198.484 119.236 198.501ZM118.375 197.498C118.296 197.498 118.217 197.51 118.141 197.532C118.089 197.541 118.039 197.562 117.996 197.594C117.954 197.626 117.919 197.667 117.896 197.715C117.81 197.869 117.844 197.943 117.896 197.982C118.147 198.318 119.476 198.296 120.451 198.153C119.807 197.804 119.102 197.581 118.375 197.498Z" fill="#FFC857"/>
<path d="M120.82 198.307H120.792C120.159 198.039 118.864 196.934 118.967 196.336C118.967 196.194 119.075 196.017 119.417 195.978C119.541 195.962 119.667 195.971 119.788 196.004C119.908 196.037 120.021 196.094 120.119 196.171C120.803 196.707 120.974 198.125 120.986 198.187C120.989 198.21 120.985 198.233 120.975 198.253C120.965 198.273 120.949 198.29 120.929 198.301C120.913 198.312 120.894 198.318 120.875 198.319C120.856 198.32 120.837 198.316 120.82 198.307ZM119.486 196.211H119.412C119.189 196.24 119.178 196.325 119.166 196.359C119.166 196.718 119.993 197.589 120.655 197.96C120.581 197.365 120.324 196.807 119.919 196.365C119.799 196.263 119.644 196.21 119.486 196.217V196.211Z" fill="#FFC857"/>
<path d="M121.36 197.561L127.104 197.424C127.21 197.422 127.313 197.456 127.397 197.52C127.48 197.584 127.54 197.675 127.566 197.777L128.707 202.419C128.755 202.619 128.722 202.829 128.615 203.004C128.508 203.179 128.336 203.305 128.136 203.353H127.977C125.906 203.353 124.058 203.296 121.48 203.353C118.44 203.427 119.199 203.775 115.645 203.923C113.489 204.003 113.039 201.565 113.934 201.422C118.104 200.796 118.497 199.526 120.089 198.005C120.441 197.702 120.896 197.544 121.36 197.561Z" fill="#263238"/>
<path d="M152.891 189.052L155.925 199.139L160.1 197.886L158.064 187.497L152.891 189.052Z" fill="#FF8B7B"/>
<path opacity="0.2" d="M154.174 193.306L158.999 192.287L158.064 187.497L152.891 189.052L154.174 193.306Z" fill="#263238"/>
<path d="M125.521 106.711C131.162 127.996 153.263 192.623 153.263 192.623L159.343 191.227C159.343 191.227 156.269 168.764 151.854 156.058C151.147 154.036 150.143 152.378 149.647 150.863C149.037 148.938 149.271 147.491 148.643 142.889C147.919 137.581 146.858 130.621 145.638 125.171C145.313 123.707 145.096 122.454 144.942 121.235C144.759 119.805 144.708 118.746 144.577 115.426C144.389 110.869 142.643 104.638 140.818 100.668L124.438 101.358C124.438 101.358 125.168 105.367 125.521 106.711Z" fill="#FFC857"/>
<path d="M152.57 197.344C152.055 197.537 151.488 197.537 150.973 197.344C150.899 197.28 150.848 197.195 150.825 197.1C150.803 197.005 150.81 196.905 150.848 196.815C150.898 196.654 151.008 196.52 151.156 196.439C151.948 195.989 154.007 196.553 154.076 196.581C154.101 196.587 154.123 196.601 154.139 196.62C154.156 196.64 154.165 196.664 154.167 196.689C154.167 196.715 154.16 196.74 154.147 196.762C154.134 196.784 154.115 196.802 154.093 196.815C153.601 197.034 153.092 197.211 152.57 197.344ZM151.509 196.553C151.43 196.575 151.354 196.605 151.281 196.644C151.234 196.665 151.192 196.697 151.159 196.736C151.125 196.776 151.101 196.822 151.087 196.872C151.036 197.043 151.087 197.111 151.133 197.139C151.452 197.413 152.741 197.1 153.659 196.741C152.961 196.542 152.231 196.478 151.509 196.553Z" fill="#FFC857"/>
<path d="M154.073 196.809C154.056 196.815 154.038 196.815 154.021 196.809C153.343 196.695 151.837 195.898 151.797 195.294C151.797 195.152 151.837 194.958 152.162 194.844C152.279 194.801 152.403 194.782 152.528 194.788C152.652 194.794 152.774 194.825 152.886 194.878C153.673 195.249 154.158 196.587 154.181 196.65C154.188 196.671 154.189 196.694 154.184 196.716C154.179 196.738 154.168 196.759 154.152 196.775C154.13 196.795 154.102 196.807 154.073 196.809ZM152.304 195.055H152.23C152.019 195.129 152.025 195.22 152.025 195.254C152.082 195.607 153.103 196.268 153.833 196.484C153.625 195.923 153.251 195.438 152.761 195.095C152.62 195.022 152.458 195.004 152.304 195.044V195.055Z" fill="#FFC857"/>
<path d="M154.438 195.96L160.011 194.554C160.112 194.528 160.22 194.538 160.315 194.581C160.41 194.625 160.488 194.7 160.535 194.793L162.685 199.065C162.732 199.154 162.76 199.252 162.769 199.353C162.777 199.454 162.766 199.555 162.735 199.651C162.705 199.748 162.655 199.837 162.59 199.914C162.524 199.991 162.445 200.055 162.355 200.101C162.305 200.125 162.254 200.144 162.201 200.158C160.182 200.631 158.368 200.973 155.87 201.605C152.921 202.351 153.759 202.51 150.303 203.439C148.216 204.008 147.235 201.73 148.09 201.377C152.02 199.845 152.134 198.529 153.332 196.667C153.6 196.302 153.994 196.051 154.438 195.96Z" fill="#263238"/>
<g opacity="0.2">
<path d="M135.701 107.019L135.182 104.912C133.18 105.316 131.315 105.612 129.609 105.817L129.838 107.981C131.623 107.765 133.59 107.452 135.701 107.019Z" fill="black"/>
<path d="M122.078 106.216C120.552 106.194 119.028 106.076 117.516 105.863L117.71 108.09C119.223 108.282 120.747 108.387 122.272 108.403L122.078 106.216Z" fill="black"/>
<path d="M140.651 103.602C139.213 103.981 137.835 104.323 136.516 104.627L137.137 106.711C138.443 106.415 139.801 106.079 141.215 105.686L140.651 103.602Z" fill="black"/>
<path d="M127.918 105.994C126.173 106.153 124.605 106.222 123.219 106.227L123.453 108.409C124.023 108.409 124.593 108.409 125.164 108.369C126.099 108.329 127.097 108.261 128.158 108.158L127.918 105.994Z" fill="black"/>
</g>
<path d="M142.382 65.9542L133.958 66.3073C132.099 68.3577 123.909 68.2609 124.291 66.7174L115.787 67.0762C115.393 67.0817 115.011 67.2091 114.694 67.4407C114.376 67.6723 114.138 67.9967 114.013 68.3691C111.389 77.2769 116.591 101.551 116.591 101.551C113.477 106.318 124.131 105.202 135.413 103.733C146.694 102.263 141.464 99.0566 141.464 99.0566C140.728 87.489 142.861 71.8605 143.472 67.1616C143.495 67.008 143.483 66.8513 143.438 66.7026C143.393 66.5539 143.316 66.417 143.212 66.3016C143.108 66.1862 142.979 66.0952 142.836 66.0352C142.693 65.9751 142.538 65.9475 142.382 65.9542Z" fill="#FFC857"/>
<g opacity="0.7">
<path d="M142.382 65.9542L133.958 66.3073C132.099 68.3577 123.909 68.2609 124.291 66.7174L115.787 67.0762C115.393 67.0817 115.011 67.2091 114.694 67.4407C114.376 67.6723 114.138 67.9967 114.013 68.3691C111.389 77.2769 116.591 101.551 116.591 101.551C113.477 106.318 124.131 105.202 135.413 103.733C146.694 102.263 141.464 99.0566 141.464 99.0566C140.728 87.489 142.861 71.8605 143.472 67.1616C143.495 67.008 143.483 66.8513 143.438 66.7026C143.393 66.5539 143.316 66.417 143.212 66.3016C143.108 66.1862 142.979 66.0952 142.836 66.0352C142.693 65.9751 142.538 65.9475 142.382 65.9542Z" fill="white"/>
</g>
<path d="M125.961 45.0573C125.961 45.0573 120.879 45.4959 121.307 47.8197C121.735 50.1435 125.995 48.0418 125.995 48.0418L125.961 45.0573Z" fill="#263238"/>
<path d="M132.936 56.6307C132.074 59.4784 131.287 64.0349 132.468 66.8371C132.753 67.5091 132.234 68.7223 131.641 69.1495C129.565 70.7784 127.164 72.2934 124.523 72.1225C121.135 71.9004 120.878 69.3659 121.671 68.0217C121.888 67.6629 122.447 66.8826 122.857 66.7744C126.148 66.0739 126.445 63.8526 126.086 61.358L132.936 56.6307Z" fill="#FF8B7B"/>
<path opacity="0.2" d="M130.149 58.5729L126.094 61.3466C126.17 61.9586 126.194 62.5759 126.168 63.192C127.594 63.135 129.527 62.1383 130.235 60.6518C130.685 59.7462 130.485 58.721 130.149 58.5729Z" fill="black"/>
<path d="M134.663 52.0002C133.631 56.3801 133.243 58.9886 130.62 60.8739C126.667 63.7216 121.551 60.7315 121.26 56.1523C120.998 51.9945 122.731 45.5586 127.368 44.5448C128.956 44.1897 130.62 44.4785 131.994 45.3479C133.368 46.2172 134.341 47.5959 134.698 49.1809C134.903 50.1109 134.891 51.0755 134.663 52.0002Z" fill="#FF8B7B"/>
<path d="M127.903 51.6585C127.72 51.9946 127.39 52.1825 127.167 52.0572C126.945 51.9319 126.911 51.5617 127.099 51.22C127.287 50.8782 127.612 50.696 127.835 50.8213C128.057 50.9466 128.091 51.3225 127.903 51.6585Z" fill="#263238"/>
<path d="M123.807 50.4737C123.619 50.8155 123.288 50.9977 123.066 50.8781C122.843 50.7585 122.809 50.3769 122.997 50.0352C123.185 49.6935 123.51 49.5112 123.733 49.6365C123.955 49.7618 123.99 50.1206 123.807 50.4737Z" fill="#263238"/>
<path d="M129.881 50.9693C129.841 50.9561 129.806 50.9321 129.778 50.8999C129.751 50.8677 129.734 50.8287 129.727 50.787C129.693 50.5032 129.591 50.2316 129.43 49.9949C129.269 49.7582 129.055 49.5631 128.803 49.4258C128.775 49.414 128.75 49.3968 128.729 49.3752C128.708 49.3536 128.691 49.328 128.68 49.2999C128.669 49.2718 128.664 49.2418 128.664 49.2116C128.665 49.1814 128.671 49.1516 128.684 49.1239C128.695 49.0968 128.712 49.0723 128.734 49.0518C128.755 49.0314 128.78 49.0154 128.808 49.0048C128.835 48.9942 128.865 48.9892 128.895 48.9901C128.924 48.991 128.953 48.9978 128.98 49.01C129.299 49.1804 129.574 49.4242 129.78 49.7213C129.986 50.0184 130.119 50.3603 130.166 50.7187C130.171 50.7482 130.17 50.7785 130.164 50.8076C130.157 50.8368 130.144 50.8643 130.127 50.8887C130.109 50.913 130.087 50.9337 130.062 50.9494C130.036 50.9652 130.008 50.9758 129.978 50.9807L129.881 50.9693Z" fill="#263238"/>
<path d="M122.952 48.1614C122.924 48.1518 122.897 48.1366 122.875 48.1168C122.852 48.0969 122.833 48.0728 122.82 48.0458C122.807 48.0188 122.799 47.9895 122.797 47.9594C122.795 47.9294 122.8 47.8993 122.809 47.8709C122.826 47.8253 122.856 47.7857 122.895 47.757C123.182 47.5366 123.517 47.3876 123.873 47.3222C124.229 47.2569 124.596 47.2771 124.943 47.3811C124.999 47.4017 125.045 47.4438 125.071 47.4982C125.097 47.5526 125.1 47.6149 125.079 47.6716C125.055 47.7266 125.012 47.7706 124.957 47.7948C124.902 47.8191 124.84 47.8218 124.783 47.8026C124.509 47.7208 124.219 47.705 123.937 47.7565C123.656 47.808 123.391 47.9253 123.163 48.0987C123.135 48.1253 123.102 48.1448 123.065 48.1557C123.028 48.1666 122.99 48.1686 122.952 48.1614Z" fill="#263238"/>
<path d="M124.578 51.2086C123.79 51.9658 122.901 52.6116 121.938 53.1279C122.077 53.37 122.268 53.5788 122.496 53.7401C122.725 53.9014 122.986 54.0112 123.261 54.062L124.578 51.2086Z" fill="#DE5753"/>
<path d="M123.245 55.4517C123.245 55.4517 124.876 55.2296 129.353 55.5315C128.715 56.7104 127.642 57.6274 125.361 57.4623C123.079 57.2971 123.245 55.4517 123.245 55.4517Z" fill="#263238"/>
<path d="M126.491 56.5794C125.615 56.4699 124.726 56.6142 123.93 56.9952C124.342 57.2792 124.827 57.4393 125.327 57.4565C126.202 57.5654 127.089 57.419 127.882 57.035C127.473 56.7505 126.989 56.5921 126.491 56.5794Z" fill="#DE5753"/>
<path d="M123.453 55.4347C123.487 55.592 123.566 55.7365 123.679 55.8513C123.792 55.9662 123.935 56.0469 124.092 56.084C125.422 56.1703 126.756 56.157 128.084 56.0441C128.292 56.0466 128.496 55.9998 128.682 55.9077C128.867 55.8156 129.028 55.6808 129.151 55.5144C127.256 55.3568 125.352 55.3302 123.453 55.4347Z" fill="white"/>
<path d="M133.342 55.0074C132.715 53.4593 132.484 51.7801 132.669 50.1207C132.669 50.1207 130.992 48.0532 131.197 46.2819C131.197 46.2819 122.225 46.8514 122.157 42.9101C122.088 38.9688 127.684 42.8703 127.684 42.8703C127.684 42.8703 127.724 37.357 131.676 42.0387C131.676 42.0387 136.387 42.7564 137.072 46.6692C137.072 46.6692 139.017 46.3787 138.64 49.8473C137.819 51.9542 136.605 53.8867 135.064 55.5428L133.342 55.0074Z" fill="#263238"/>
<path d="M136.114 56.4996C135.356 57.3354 134.299 57.8406 133.171 57.9064C131.671 57.9691 131.255 56.5509 131.956 55.315C132.584 54.1759 134.118 52.826 135.487 53.3443C136.856 53.8626 137.038 55.4574 136.114 56.4996Z" fill="#FF8B7B"/>
<path d="M137.859 50.5706C137.859 50.5706 139.377 48.1955 139.93 48.9986C140.483 49.8017 137.859 50.5706 137.859 50.5706Z" fill="#263238"/>
<path d="M123.507 66.7402C123.234 67.8793 122.834 70.5107 124.477 71.9118C124.477 71.9118 130.312 68.859 132.371 66.0796C132.421 66.0078 132.486 65.9469 132.56 65.9005C132.635 65.854 132.718 65.823 132.804 65.8091C132.891 65.7953 132.98 65.799 133.065 65.8201C133.15 65.8411 133.23 65.879 133.3 65.9315L133.802 66.3188C133.802 66.3188 134.259 69.2463 130.038 74.133C129.995 74.1867 129.937 74.2276 129.873 74.2513C129.808 74.2751 129.738 74.2809 129.67 74.268C129.602 74.2551 129.539 74.2242 129.487 74.1783C129.435 74.1325 129.397 74.0735 129.376 74.0077C129.051 72.9825 127.968 71.3536 124.437 72.6237C124.437 72.6237 122.053 71.8377 120.855 73.1534C120.803 73.2125 120.733 73.2539 120.656 73.2717C120.579 73.2896 120.498 73.2831 120.425 73.253C120.351 73.223 120.289 73.171 120.247 73.1042C120.204 73.0373 120.184 72.959 120.188 72.88C120.274 70.6844 120.967 68.5553 122.19 66.7289L123.103 66.3871C123.154 66.3666 123.21 66.3608 123.265 66.3702C123.32 66.3796 123.371 66.4038 123.413 66.4403C123.455 66.4768 123.486 66.5241 123.502 66.577C123.519 66.6299 123.521 66.6864 123.507 66.7402Z" fill="#FFC857"/>
<path opacity="0.1" d="M118.547 101.591C118.547 101.591 126.965 102.673 133.724 100.629L118.547 101.591Z" fill="black"/>
<path opacity="0.1" d="M140.178 73.2103C140.178 73.2103 139.396 77.7667 141.655 84.2084C141.889 80.8651 142.197 77.6642 142.505 74.8848L140.178 73.2103Z" fill="black"/>
<path d="M143.358 66.3984C143.358 66.3984 137.94 70.0436 140.455 76.565C142.97 83.0863 151.765 103.089 151.765 103.089L156.237 101.95L150.807 83.7641L143.358 66.37" fill="#FFC857"/>
<path opacity="0.7" d="M143.358 66.3984C143.358 66.3984 137.94 70.0436 140.455 76.565C142.97 83.0863 151.765 103.089 151.765 103.089L156.237 101.95L150.807 83.7641L143.358 66.37" fill="white"/>
</svg>
