<svg width="242" height="237" viewBox="0 0 242 237" fill="none" xmlns="http://www.w3.org/2000/svg">
<path d="M64.8045 59.6518L39.1467 51.902C38.151 51.6013 37.0999 52.1646 36.7991 53.1602L32.2355 68.2653C31.9347 69.261 32.4981 70.3119 33.4939 70.6127L59.1516 78.3625C60.1474 78.6632 61.1984 78.0999 61.4992 77.1043L66.0628 61.9992C66.3636 61.0035 65.8002 59.9526 64.8045 59.6518Z" stroke="#263238" stroke-width="1.00285" stroke-miterlimit="10"/>
<path d="M35.8906 55.493L65.0574 64.3313" stroke="#263238" stroke-miterlimit="10"/>
<path d="M35 58.4195L64.1721 67.2578" stroke="#263238" stroke-miterlimit="10"/>
<path d="M55.3025 72.7311C55.2283 72.9774 55.2047 73.2362 55.2332 73.4919C55.2617 73.7475 55.3417 73.9947 55.4684 74.2186C55.0311 74.4346 54.5282 74.4767 54.0611 74.3364C53.7637 74.2465 53.4929 74.0851 53.2723 73.8662C53.0518 73.6473 52.8883 73.3777 52.7963 73.0809C52.7042 72.7842 52.6863 72.4694 52.7442 72.1641C52.8021 71.8588 52.934 71.5724 53.1283 71.33C53.3226 71.0876 53.5735 70.8965 53.8588 70.7735C54.1442 70.6506 54.4553 70.5995 54.765 70.6248C55.0747 70.6501 55.3734 70.7509 55.635 70.9185C55.8967 71.0861 56.1132 71.3153 56.2656 71.5861C56.0368 71.7031 55.8337 71.8646 55.6683 72.0613C55.5029 72.2579 55.3785 72.4857 55.3025 72.7311Z" stroke="#263238" stroke-miterlimit="10"/>
<path d="M58.9353 73.8333C58.8258 74.1927 58.6122 74.5116 58.3215 74.7496C58.0308 74.9876 57.676 75.134 57.302 75.1704C56.9281 75.2067 56.5517 75.1314 56.2206 74.9538C55.8895 74.7762 55.6185 74.5045 55.4418 74.1729C55.2652 73.8413 55.1908 73.4647 55.2282 73.0909C55.2655 72.717 55.4129 72.3626 55.6517 72.0726C55.8905 71.7825 56.21 71.5697 56.5697 71.4612C56.9294 71.3527 57.3132 71.3533 57.6725 71.463C58.1543 71.6099 58.5579 71.9422 58.7947 72.3867C59.0315 72.8312 59.0821 73.3515 58.9353 73.8333Z" stroke="#263238" stroke-miterlimit="10"/>
<path d="M239.2 96.1139L217.985 89.6852C216.992 89.3844 215.944 89.9451 215.643 90.9377L211.924 103.205C211.624 104.198 212.184 105.246 213.177 105.547L234.392 111.976C235.385 112.277 236.434 111.716 236.734 110.723L240.453 98.4556C240.754 97.4631 240.193 96.4147 239.2 96.1139Z" stroke="#263238" stroke-miterlimit="10"/>
<path d="M215.062 92.8257L239.874 100.343" stroke="#263238" stroke-miterlimit="10"/>
<path d="M214.312 95.3188L239.118 102.837" stroke="#263238" stroke-miterlimit="10"/>
<path d="M231.575 107.474C231.511 107.683 231.49 107.903 231.514 108.12C231.538 108.337 231.606 108.547 231.714 108.737C231.479 108.851 231.221 108.906 230.961 108.898C230.7 108.89 230.446 108.818 230.219 108.69C229.993 108.561 229.801 108.379 229.66 108.16C229.52 107.941 229.434 107.691 229.412 107.431C229.39 107.172 229.431 106.911 229.532 106.67C229.633 106.43 229.791 106.219 229.992 106.053C230.194 105.888 230.432 105.774 230.687 105.721C230.942 105.669 231.207 105.679 231.457 105.751C231.854 105.871 232.19 106.139 232.393 106.5C232.198 106.598 232.024 106.735 231.883 106.903C231.742 107.07 231.637 107.265 231.575 107.474Z" stroke="#263238" stroke-miterlimit="10"/>
<path d="M234.66 108.427C234.566 108.729 234.384 108.996 234.138 109.195C233.891 109.394 233.592 109.516 233.276 109.545C232.961 109.574 232.644 109.509 232.365 109.359C232.087 109.208 231.859 108.979 231.711 108.699C231.562 108.419 231.5 108.102 231.531 107.787C231.563 107.472 231.687 107.173 231.888 106.928C232.089 106.683 232.358 106.504 232.661 106.411C232.964 106.319 233.287 106.318 233.59 106.409C233.794 106.47 233.983 106.571 234.147 106.706C234.311 106.841 234.447 107.007 234.547 107.194C234.646 107.382 234.708 107.588 234.727 107.799C234.747 108.011 234.724 108.224 234.66 108.427Z" stroke="#263238" stroke-miterlimit="10"/>
<path d="M205.237 37.503L174.266 51.6808L181.643 67.7919L212.614 53.6141L205.237 37.503Z" stroke="#263238" stroke-miterlimit="10"/>
<path d="M209.962 51.2985L205.275 41.0639C204.837 41.2638 204.338 41.282 203.886 41.1145C203.435 40.9471 203.069 40.6076 202.867 40.1704L177.831 51.6302C178.031 52.0681 178.049 52.5673 177.882 53.0186C177.714 53.4698 177.375 53.8363 176.938 54.0377L181.625 64.2724C181.842 64.1728 182.076 64.1171 182.315 64.1085C182.554 64.0998 182.792 64.1383 183.015 64.2218C183.239 64.3053 183.444 64.4322 183.619 64.5951C183.793 64.758 183.934 64.9538 184.033 65.1712L209.063 53.706C208.964 53.489 208.908 53.2545 208.899 53.0159C208.891 52.7773 208.929 52.5393 209.013 52.3156C209.096 52.0919 209.223 51.8869 209.386 51.7124C209.549 51.5379 209.745 51.3972 209.962 51.2985Z" stroke="#263238" stroke-miterlimit="10"/>
<path d="M196.286 56.3435C198.325 54.7775 198.708 51.8552 197.142 49.8165C195.575 47.7777 192.653 47.3945 190.614 48.9605C188.575 50.5266 188.192 53.4489 189.758 55.4876C191.324 57.5264 194.247 57.9096 196.286 56.3435Z" stroke="#263238" stroke-miterlimit="10"/>
<path d="M194.708 54.9052L195.056 55.665L194.724 55.8148L194.382 55.0657C193.796 55.3208 193.139 55.3624 192.525 55.1834V54.7179C193.067 54.882 193.649 54.8537 194.173 54.6377L193.387 52.904C192.573 53.0592 191.733 53.1769 191.332 52.2994C191.043 51.668 191.246 50.9082 192.22 50.3678L191.872 49.6026L192.204 49.4528L192.568 50.2287C193.049 50.0199 193.579 49.9495 194.098 50.0253V50.4909C193.641 50.4249 193.175 50.4783 192.744 50.646L193.547 52.4011C194.376 52.2352 195.259 52.0854 195.687 52.9736C195.955 53.5889 195.725 54.3648 194.708 54.9052ZM193.178 52.4385L192.418 50.7637C191.76 51.1329 191.615 51.6252 191.808 52.0426C192.033 52.5669 192.568 52.5455 193.173 52.4385H193.178ZM195.195 53.193C194.96 52.6579 194.392 52.7114 193.761 52.8345L194.516 54.4878C195.243 54.1026 195.382 53.6157 195.19 53.193H195.195Z" fill="#263238"/>
<path d="M34.3317 110.894L10.5156 113.037L11.6304 125.422L35.4465 123.279L34.3317 110.894Z" stroke="#263238" stroke-width="1.00404" stroke-miterlimit="10"/>
<path d="M33.5227 120.774L32.8485 112.936C32.5131 112.965 32.1801 112.859 31.9224 112.642C31.6647 112.426 31.5033 112.116 31.4734 111.781L12.2964 113.439C12.3232 113.774 12.2169 114.107 12.0006 114.364C11.7843 114.621 11.4754 114.783 11.1406 114.814L11.8148 122.652C11.9811 122.637 12.1485 122.656 12.3077 122.706C12.4669 122.756 12.6145 122.837 12.7423 122.945C12.8701 123.052 12.9754 123.183 13.0522 123.332C13.129 123.48 13.1758 123.642 13.19 123.808L32.3669 122.149C32.3401 121.814 32.4464 121.482 32.6627 121.225C32.879 120.967 33.188 120.806 33.5227 120.774Z" stroke="#263238" stroke-miterlimit="10"/>
<path d="M25.5831 117.516C25.6389 118.159 25.503 118.803 25.1926 119.368C24.8822 119.933 24.4112 120.393 23.8393 120.69C23.2673 120.987 22.62 121.108 21.9793 121.038C21.3386 120.967 20.7332 120.708 20.2398 120.293C19.7464 119.878 19.3871 119.326 19.2074 118.707C19.0276 118.088 19.0355 117.43 19.23 116.815C19.4245 116.201 19.797 115.658 20.3001 115.255C20.8033 114.852 21.4147 114.607 22.0569 114.552C22.4832 114.515 22.9127 114.562 23.3207 114.691C23.7288 114.819 24.1075 115.027 24.435 115.303C24.7626 115.578 25.0326 115.915 25.2296 116.295C25.4266 116.675 25.5467 117.09 25.5831 117.516Z" stroke="#263238" stroke-miterlimit="10"/>
<path d="M22.6247 119.582L22.6729 120.165H22.4214L22.3679 119.587C21.9232 119.617 21.4822 119.49 21.1212 119.229L21.2389 118.929C21.5582 119.161 21.9467 119.278 22.3411 119.261L22.2288 117.928C21.6562 117.843 21.073 117.72 21.0195 117.051C20.9767 116.564 21.287 116.109 22.0575 115.981L22.0094 115.397H22.2609L22.309 115.97C22.6801 115.946 23.0506 116.026 23.3792 116.2L23.2775 116.505C22.992 116.357 22.6735 116.283 22.3518 116.291L22.4642 117.634C23.0474 117.72 23.6681 117.832 23.727 118.512C23.7591 119.009 23.422 119.464 22.6247 119.582ZM22.1966 117.597L22.0843 116.328C21.5492 116.419 21.3566 116.708 21.3833 117.029C21.4101 117.35 21.7686 117.527 22.1966 117.597ZM23.3471 118.57C23.3096 118.169 22.9297 118.035 22.4856 117.993L22.5926 119.261C23.1491 119.17 23.3738 118.891 23.3471 118.57Z" fill="#263238"/>
<path d="M226.991 44.7234C229.562 44.7234 231.646 42.6395 231.646 40.0689C231.646 37.4982 229.562 35.4143 226.991 35.4143C224.42 35.4143 222.336 37.4982 222.336 40.0689C222.336 42.6395 224.42 44.7234 226.991 44.7234Z" stroke="#263238" stroke-miterlimit="10"/>
<path d="M227.202 42.6536V43.4883H226.817V42.6589C226.179 42.6463 225.565 42.4139 225.078 42.0008L225.287 41.5834C225.712 41.9571 226.252 42.1758 226.817 42.2041V40.2939C226.015 40.0959 225.212 39.8498 225.212 38.8867C225.212 38.1911 225.715 37.5865 226.817 37.5008V36.6501H227.181V37.4794C227.706 37.4906 228.217 37.6481 228.658 37.9343L228.476 38.3623C228.088 38.1121 227.642 37.9664 227.181 37.9396V39.8659C228 40.0638 228.866 40.2939 228.866 41.2731C228.888 41.9741 228.358 42.5894 227.202 42.6536ZM226.839 39.7696V37.9557C226.089 38.0199 225.768 38.4051 225.768 38.8653C225.747 39.4164 226.239 39.6197 226.817 39.7696H226.839ZM228.358 41.2999C228.358 40.7273 227.823 40.5294 227.202 40.3742V42.2041C228 42.1346 228.358 41.7654 228.358 41.2999Z" fill="#263238"/>
<path d="M196.323 102.339C198.825 101.749 200.376 99.2428 199.786 96.7407C199.196 94.2386 196.69 92.6882 194.187 93.2778C191.685 93.8675 190.134 96.3738 190.724 98.8759C191.314 101.378 193.82 102.928 196.323 102.339Z" stroke="#263238" stroke-miterlimit="10"/>
<path d="M194.093 100.113L193.66 100.825L193.349 100.632L193.783 99.9257C193.244 99.5833 192.842 99.0625 192.648 98.4542L193.044 98.2081C193.212 98.7467 193.557 99.2126 194.024 99.5297L195.029 97.8978C194.446 97.3145 193.884 96.6778 194.387 95.8591C194.751 95.2652 195.495 95.0137 196.49 95.522L196.929 94.8051L197.239 94.9977L196.806 95.704C197.245 95.9899 197.598 96.3893 197.828 96.8597L197.448 97.1326C197.246 96.7175 196.942 96.3604 196.565 96.0946L195.554 97.7372C196.153 98.3365 196.768 98.984 196.255 99.8187C195.886 100.418 195.115 100.659 194.093 100.113ZM195.297 97.4376L196.244 95.8912C195.575 95.5542 195.088 95.704 194.848 96.0946C194.559 96.5922 194.864 97.0256 195.297 97.4644V97.4376ZM195.789 99.5351C196.089 99.0482 195.741 98.6041 195.286 98.1439L194.334 99.6956C195.046 100.092 195.543 99.9845 195.784 99.5618L195.789 99.5351Z" fill="#263238"/>
<path d="M128.468 7.96318C128.85 8.80056 128.976 9.73249 128.828 10.6411C128.681 11.5498 128.268 12.3943 127.64 13.068C127.013 13.7417 126.2 14.2143 125.304 14.426C124.408 14.6377 123.469 14.579 122.607 14.2573C121.744 13.9357 120.996 13.3655 120.458 12.6189C119.919 11.8723 119.614 10.9828 119.581 10.0629C119.548 9.14295 119.789 8.23391 120.272 7.45068C120.756 6.66746 121.461 6.04522 122.299 5.66266C122.855 5.40785 123.455 5.26523 124.067 5.24298C124.678 5.22072 125.288 5.31927 125.861 5.53297C126.434 5.74668 126.959 6.07133 127.406 6.48835C127.854 6.90537 128.215 7.40655 128.468 7.96318Z" stroke="#263238" stroke-miterlimit="10"/>
<path d="M125.487 12.153L125.835 12.9128L125.503 13.068L125.15 12.3135C124.564 12.5686 123.907 12.6102 123.293 12.4313V11.9657C123.834 12.129 124.413 12.1025 124.936 11.8908L124.144 10.1465C123.331 10.3017 122.491 10.414 122.09 9.54186C121.801 8.90513 122.004 8.15068 122.983 7.61025L122.635 6.8451L122.962 6.69528L123.31 7.44973C123.791 7.24093 124.321 7.17051 124.84 7.24641V7.71192C124.383 7.64715 123.917 7.70057 123.486 7.86709L124.289 9.62212C125.118 9.45625 126.001 9.31178 126.429 10.1947C126.755 10.8367 126.509 11.6126 125.487 12.153ZM123.957 9.68633L123.203 8.03296C122.544 8.40216 122.4 8.89443 122.593 9.30643C122.823 9.8094 123.352 9.79335 123.957 9.68633ZM125.974 10.4408C125.733 9.90571 125.172 9.96457 124.54 10.0823L125.295 11.7357C125.996 11.3504 126.167 10.8688 125.974 10.4408Z" fill="#263238"/>
<path d="M112.793 196.461C113.367 197.719 113.555 199.12 113.334 200.485C113.113 201.85 112.492 203.119 111.549 204.131C110.607 205.143 109.385 205.853 108.039 206.171C106.693 206.489 105.283 206.401 103.987 205.917C102.691 205.434 101.568 204.577 100.759 203.456C99.9496 202.334 99.4914 200.998 99.442 199.616C99.3925 198.233 99.7541 196.868 100.481 195.691C101.208 194.515 102.267 193.58 103.525 193.005C104.361 192.624 105.263 192.41 106.181 192.378C107.099 192.345 108.014 192.493 108.875 192.814C109.735 193.135 110.524 193.622 111.197 194.248C111.869 194.874 112.411 195.626 112.793 196.461Z" stroke="#263238" stroke-miterlimit="10"/>
<path d="M108.316 202.764L108.851 203.909L108.353 204.133L107.818 202.999C106.939 203.384 105.952 203.449 105.03 203.181L105.062 202.486C105.875 202.728 106.745 202.684 107.529 202.363L106.336 199.752C105.121 199.982 103.853 200.153 103.254 198.842C102.815 197.89 103.125 196.75 104.592 195.937L104.057 194.798L104.549 194.568L105.084 195.702C105.808 195.39 106.604 195.285 107.385 195.397V196.092C106.7 195.996 106.001 196.077 105.357 196.328L106.555 198.96C107.802 198.714 109.129 198.495 109.739 199.821C110.199 200.79 109.857 201.956 108.316 202.764ZM106.026 199.056L104.886 196.574C103.907 197.109 103.687 197.863 103.976 198.495C104.319 199.249 105.111 199.222 106.026 199.056ZM109.054 200.196C108.696 199.409 107.845 199.474 106.914 199.661L108.048 202.143C109.102 201.56 109.343 200.832 109.054 200.196Z" fill="#263238"/>
<path d="M12.6086 87.8019C11.5695 88.7145 10.2832 89.2985 8.91214 89.4802C7.54111 89.6619 6.147 89.433 4.90605 88.8225C3.6651 88.212 2.63304 87.2474 1.94036 86.0505C1.24769 84.8536 0.925487 83.4782 1.0145 82.0982C1.10352 80.7183 1.59976 79.3956 2.44047 78.2976C3.28119 77.1996 4.42864 76.3755 5.73774 75.9295C7.04684 75.4835 8.45881 75.4356 9.79513 75.7918C11.1315 76.1481 12.3321 76.8925 13.2454 77.931C13.852 78.6209 14.3167 79.4235 14.613 80.2929C14.9093 81.1624 15.0314 82.0817 14.9723 82.9984C14.9131 83.915 14.674 84.8111 14.2684 85.6353C13.8628 86.4595 13.2988 87.1957 12.6086 87.8019Z" stroke="#263238" stroke-miterlimit="10"/>
<path d="M5.30151 85.3417L4.35978 86.1711L3.99593 85.7591L4.93231 84.9404C4.31194 84.2063 3.96583 83.2796 3.95312 82.3185L4.63267 82.1473C4.633 82.9903 4.91767 83.8084 5.44063 84.4695L7.58091 82.5754C7.00838 81.4785 6.47866 80.312 7.58091 79.365C8.37282 78.6747 9.54998 78.6426 10.7485 79.8091L11.7224 78.9851L12.0809 79.3917L11.1445 80.2157C11.6426 80.8216 11.9647 81.5527 12.0755 82.3293L11.412 82.5486C11.3055 81.8645 11.0275 81.2184 10.6041 80.6705L8.42633 82.5807C9.02026 83.699 9.61418 84.9083 8.51729 85.8768C7.72003 86.5724 6.50542 86.6098 5.30151 85.3417ZM8.1909 82.0778L10.2402 80.2746C9.42691 79.4934 8.635 79.4987 8.14274 79.9535C7.50065 80.4993 7.75749 81.2591 8.17484 82.0778H8.1909ZM7.97152 85.2882C8.6243 84.721 8.31931 83.9238 7.86985 83.0677L5.82053 84.8708C6.66059 85.7323 7.44179 85.7644 7.97687 85.3042L7.97152 85.2882Z" fill="#263238"/>
<path d="M44.6221 147.443C44.6967 145.579 43.2455 144.007 41.3808 143.932C39.5162 143.858 37.944 145.309 37.8694 147.173C37.7948 149.038 39.246 150.61 41.1107 150.685C42.9754 150.759 44.5475 149.308 44.6221 147.443Z" stroke="#263238" stroke-width="1.0008" stroke-miterlimit="10"/>
<path d="M42.2214 147.964L42.6066 148.429L42.4086 148.595L42.0234 148.135C41.6614 148.426 41.209 148.581 40.7446 148.574L40.6697 148.242C41.0781 148.253 41.478 148.124 41.804 147.878L40.9158 146.808C40.3807 147.07 39.8136 147.311 39.3641 146.776C39.043 146.391 39.043 145.818 39.6209 145.251L39.2303 144.785L39.4337 144.619L39.8189 145.08C40.1168 144.843 40.4741 144.693 40.8516 144.646L40.9479 144.967C40.6172 145.013 40.3029 145.14 40.0329 145.336L40.9265 146.407C41.4616 146.134 42.0662 145.872 42.5317 146.407C42.8581 146.803 42.8474 147.391 42.2214 147.964ZM40.6911 146.53L39.8457 145.518C39.4604 145.904 39.4551 146.273 39.6637 146.53C39.8724 146.786 40.2898 146.717 40.6911 146.53ZM42.2481 146.674C41.9806 146.358 41.5953 146.492 41.178 146.701L42.0234 147.712C42.4354 147.306 42.4622 146.931 42.2481 146.669V146.674Z" fill="#263238"/>
<path d="M148.487 214.031C148.914 214.544 149.179 215.172 149.25 215.836C149.32 216.5 149.191 217.17 148.881 217.761C148.57 218.352 148.092 218.838 147.505 219.157C146.918 219.476 146.25 219.614 145.586 219.553C144.921 219.493 144.289 219.237 143.769 218.817C143.25 218.397 142.867 217.833 142.668 217.195C142.47 216.558 142.465 215.876 142.654 215.236C142.843 214.595 143.217 214.025 143.73 213.598C144.419 213.025 145.306 212.75 146.198 212.831C147.09 212.912 147.913 213.344 148.487 214.031Z" stroke="#263238" stroke-miterlimit="10"/>
<path d="M147.197 217.536L147.588 218.001L147.384 218.167L146.999 217.707C146.639 217.998 146.188 218.153 145.725 218.146L145.651 217.814C146.059 217.827 146.46 217.699 146.785 217.45L145.897 216.38C145.362 216.642 144.789 216.883 144.345 216.348C144.019 215.963 144.019 215.39 144.596 214.823L144.211 214.357L144.415 214.191L144.8 214.652C145.097 214.413 145.454 214.263 145.833 214.218L145.929 214.539C145.596 214.585 145.28 214.712 145.009 214.908L145.907 215.979C146.442 215.706 147.047 215.444 147.513 215.979C147.823 216.375 147.812 216.963 147.197 217.536ZM145.661 216.08L144.816 215.069C144.425 215.454 144.42 215.823 144.634 216.08C144.848 216.337 145.255 216.289 145.661 216.08ZM147.213 216.23C146.945 215.909 146.56 216.043 146.143 216.23L146.988 217.241C147.406 216.878 147.432 216.503 147.213 216.246V216.23Z" fill="#263238"/>
<path d="M56.0718 21.7036C56.2422 19.8467 54.8749 18.2033 53.018 18.0331C51.1611 17.8628 49.5178 19.2301 49.3475 21.0869C49.1771 22.9438 50.5444 24.5872 52.4013 24.7574C54.2582 24.9277 55.9015 23.5604 56.0718 21.7036Z" stroke="#263238" stroke-miterlimit="10"/>
<path d="M54.0277 22.7404L54.413 23.2059L54.2097 23.3718L53.8244 22.9116C53.4649 23.2034 53.0139 23.3588 52.5509 23.3504L52.476 23.0186C52.8845 23.0293 53.2844 22.9011 53.6104 22.6548L52.7222 21.5846C52.1871 21.8468 51.6146 22.0876 51.1705 21.5525C50.8494 21.1673 50.8441 20.5947 51.4273 20.0276L51.0367 19.5621L51.24 19.3962L51.6253 19.8563C51.9226 19.6188 52.2802 19.4687 52.658 19.4229L52.7543 19.744C52.4235 19.7898 52.1092 19.9167 51.8393 20.1132L52.7329 21.1833C53.2679 20.9104 53.8726 20.6482 54.3381 21.1833C54.6538 21.5793 54.6377 22.1679 54.0277 22.7404ZM52.4867 21.301L51.6413 20.2683C51.2561 20.6536 51.2454 21.0228 51.4594 21.2796C51.6734 21.5365 52.0801 21.4937 52.4867 21.301ZM54.0438 21.4455C53.7763 21.1298 53.3857 21.2636 52.9737 21.4455L53.8191 22.4568C54.2311 22.0822 54.2578 21.7077 54.0438 21.4455Z" fill="#263238"/>
<path opacity="0.2" d="M128.808 159.803C128.808 159.803 124.683 180.738 99.379 185.483C99.379 185.483 92.7709 190.753 90.5717 193.872C88.3726 196.991 76.6598 202.293 64.7277 218.836C52.7956 235.378 35.0312 182.846 35.0312 182.846L74.2948 131.86L128.808 159.803Z" fill="black" fill-opacity="0.7"/>
<path d="M151.295 61.5067C151.295 61.5067 164.94 54.8352 167.941 55.9855C170.943 57.1357 173.827 64.0373 162.35 70.6446C150.873 77.2519 154.297 89.5624 154.297 89.5624H162.484C162.484 89.5624 167.396 91.5633 169.306 94.1367C171.216 96.7101 172.58 105.484 173.672 108.459C174.763 111.433 174.207 114.413 171.216 115.382C171.216 115.382 169.306 123.706 169.852 127.398C170.397 131.089 170.124 133.465 166.577 133.914C165.684 134.007 164.782 133.905 163.933 133.615C163.084 133.325 162.308 132.853 161.659 132.234C161.01 131.614 160.503 130.86 160.175 130.025C159.846 129.19 159.703 128.294 159.755 127.398L157.026 137.285L158.936 141.083C161.634 142.128 164.128 143.638 166.304 145.545C170.124 148.82 173.945 149.713 172.853 153.362C171.762 157.01 169.579 160.943 158.117 156.384C146.656 151.826 137.105 133.914 137.105 133.914L130.219 71.4578L151.295 61.5067Z" fill="white"/>
<path opacity="0.4" d="M165.657 97.3841C159.471 105.816 166.315 115.526 166.315 115.526C166.315 115.526 162.034 117.912 161.911 124.001C161.863 126.531 162.5 130.068 163.259 133.342C162.147 132.816 161.219 131.968 160.595 130.908C159.971 129.848 159.68 128.625 159.76 127.398L157.026 137.285L158.936 141.078C160.946 141.847 162.84 142.889 164.565 144.176C162.869 148.07 162.35 152.885 162.5 157.85C161.009 157.455 159.546 156.965 158.117 156.384C146.656 151.821 137.105 133.914 137.105 133.914L130.219 71.4524L151.295 61.5066C151.295 61.5066 158.749 57.8633 163.853 56.4241C163.457 61.1963 164.388 66.1344 165.063 68.8844C164.192 69.5214 163.286 70.1091 162.35 70.6445C150.889 77.2518 154.297 89.5623 154.297 89.5623H162.489C162.489 89.5623 167.155 91.4669 169.156 93.944C167.787 94.8651 166.601 96.0314 165.657 97.3841Z" fill="#F39551"/>
<path d="M129.973 149.74C129.973 149.74 115.13 178.839 88.3764 185.441C88.3764 185.441 87.3544 191.197 82.8277 193.669C80.4092 194.985 70.6495 209.607 62.083 222.955L14.6328 193.851C17.5543 190.962 20.8825 187.634 24.2641 184.162C34.1629 174.072 44.7253 162.762 47.9571 157.166C50.8465 152.19 54.501 143.555 57.6847 135.439C61.762 125.06 65.0794 115.526 65.0794 115.526L80.8961 97.9458L105.761 70.3021L106.831 73.8385L129.973 149.74Z" fill="white"/>
<path opacity="0.4" d="M105.785 70.3021L129.975 149.74C129.975 149.74 115.132 178.839 88.3788 185.441C88.3788 185.441 87.3568 191.197 82.8301 193.669C80.6577 194.851 72.5728 206.755 64.75 218.814C67.6501 208.863 76.0454 193 76.0454 193C70.6572 186.618 72.2303 179.893 74.3866 181.808C76.543 183.723 81.9633 189.105 82.3057 189.442C79.9246 186.639 79.3735 182.247 79.3735 182.247C79.3735 182.247 86.0512 186.687 86.5916 179.572C87.1321 172.456 82.5893 155.068 82.5893 155.068L70.6625 109.347L105.785 70.3021Z" fill="#F39551"/>
<path d="M130.219 71.4578L151.295 61.5067C151.295 61.5067 164.94 54.8352 167.941 55.9855C170.943 57.1357 173.827 64.0373 162.35 70.6446C150.873 77.2519 154.297 89.5624 154.297 89.5624H162.484C162.484 89.5624 167.396 91.5633 169.306 94.1367C171.216 96.7101 172.58 105.484 173.672 108.459C174.763 111.433 174.207 114.413 171.216 115.382C171.216 115.382 169.306 123.706 169.852 127.398C170.397 131.089 170.124 133.465 166.577 133.914C165.684 134.007 164.782 133.905 163.933 133.615C163.084 133.325 162.308 132.853 161.659 132.234C161.01 131.614 160.503 130.86 160.175 130.025C159.846 129.19 159.703 128.294 159.755 127.398L157.026 137.285L158.936 141.083C161.634 142.128 164.128 143.638 166.304 145.545C170.124 148.82 173.945 149.713 172.853 153.362C171.762 157.01 169.579 160.943 158.117 156.384C146.656 151.826 137.105 133.914 137.105 133.914" stroke="#263238" stroke-linecap="round" stroke-linejoin="round"/>
<path d="M171.217 115.382C167.124 116.489 162.351 115.671 160.574 108.427C158.798 101.183 162.351 93.4465 164.668 92.7349" stroke="#263238" stroke-linecap="round" stroke-linejoin="round"/>
<path d="M159.747 127.398C159.747 127.398 159.474 118.083 162.888 115.783" stroke="#263238" stroke-linecap="round" stroke-linejoin="round"/>
<path opacity="0.4" d="M60.206 173.66C60.206 173.66 50.2055 172.413 47.9742 167.941C46.1282 164.238 36.1224 178.106 24.2812 184.162C34.1801 174.072 44.7424 162.762 47.9742 157.166C50.8636 152.19 54.5182 143.555 57.7018 135.439C57.5413 142.169 53.9563 152.474 54.9783 157.84C53.8832 158.129 52.9463 158.839 52.3705 159.814C51.7946 160.789 51.6262 161.952 51.9017 163.051C52.6668 167.315 60.206 173.66 60.206 173.66Z" fill="#F39551"/>
<path d="M129.966 149.74C129.966 149.74 115.123 178.839 88.3637 185.441C88.3637 185.441 87.3471 191.197 82.8204 193.669C80.4019 194.985 70.6475 209.607 62.0703 222.955" stroke="#263238" stroke-linecap="round" stroke-linejoin="round"/>
<path d="M14.6328 193.851C26.0619 182.557 43.6284 164.65 47.9785 157.166C54.5599 145.839 65.1008 115.521 65.1008 115.521L105.766 70.3021" stroke="#263238" stroke-linecap="round" stroke-linejoin="round"/>
<path d="M82.5625 104.837C82.5625 104.837 88.8121 110.433 90.5886 115.537" stroke="#263238" stroke-linecap="round" stroke-linejoin="round"/>
<path d="M156.328 23.3288H89.0854C87.0966 23.3288 85.4844 24.9408 85.4844 26.9293V170.059C85.4844 172.048 87.0966 173.66 89.0854 173.66H156.328C158.317 173.66 159.929 172.048 159.929 170.059V26.9293C159.929 24.9408 158.317 23.3288 156.328 23.3288Z" fill="#263238"/>
<path d="M137.468 27.4215L136.045 30.027C135.894 30.3097 135.67 30.5465 135.396 30.7123C135.122 30.878 134.808 30.9666 134.488 30.9686H110.945C110.625 30.9669 110.311 30.8797 110.037 30.716C109.762 30.5523 109.536 30.3181 109.382 30.0377L107.964 27.4322C107.812 27.1507 107.586 26.9155 107.311 26.7517C107.036 26.5878 106.722 26.5013 106.402 26.5013H89.9483C89.7139 26.502 89.4819 26.549 89.2657 26.6395C89.0494 26.73 88.8531 26.8623 88.6881 27.0288C88.5231 27.1953 88.3925 27.3927 88.304 27.6098C88.2154 27.8268 88.1705 28.0592 88.1719 28.2936V169C88.1719 169.471 88.3589 169.924 88.6919 170.258C89.0249 170.592 89.4767 170.78 89.9483 170.781H155.473C155.708 170.783 155.941 170.738 156.158 170.649C156.376 170.56 156.574 170.429 156.74 170.263C156.907 170.098 157.039 169.901 157.129 169.684C157.219 169.467 157.266 169.235 157.266 169V28.2936C157.266 27.8211 157.078 27.3679 156.744 27.0338C156.41 26.6997 155.957 26.512 155.484 26.512H139.036C138.717 26.5089 138.403 26.5918 138.127 26.7518C137.851 26.9118 137.624 27.1432 137.468 27.4215Z" fill="#F39551" stroke="#263238" stroke-linecap="round" stroke-linejoin="round"/>
<path d="M117.598 28.6844C118.127 28.6844 118.556 28.2555 118.556 27.7266C118.556 27.1976 118.127 26.7688 117.598 26.7688C117.069 26.7688 116.641 27.1976 116.641 27.7266C116.641 28.2555 117.069 28.6844 117.598 28.6844Z" stroke="white" stroke-miterlimit="10"/>
<path d="M128.766 27.7266C128.765 27.8438 128.729 27.9581 128.663 28.0551C128.597 28.152 128.504 28.2273 128.396 28.2715C128.287 28.3156 128.168 28.3266 128.053 28.3031C127.938 28.2796 127.833 28.2226 127.75 28.1393C127.668 28.056 127.612 27.9502 127.589 27.8351C127.567 27.7201 127.579 27.6009 127.624 27.4927C127.669 27.3845 127.745 27.2921 127.843 27.227C127.94 27.162 128.055 27.1273 128.172 27.1273C128.25 27.1273 128.328 27.1428 128.401 27.173C128.473 27.2032 128.539 27.2474 128.594 27.3031C128.649 27.3589 128.693 27.425 128.722 27.4976C128.752 27.5703 128.767 27.6481 128.766 27.7266Z" stroke="white" stroke-miterlimit="10"/>
<path d="M126.113 27.3519H120.291C120.242 27.3519 120.194 27.3616 120.149 27.3805C120.103 27.3994 120.062 27.4271 120.028 27.462C119.994 27.4968 119.967 27.5381 119.948 27.5835C119.93 27.629 119.921 27.6775 119.922 27.7265C119.922 27.8244 119.961 27.9183 120.03 27.9875C120.099 28.0568 120.193 28.0957 120.291 28.0957H126.113C126.211 28.0957 126.305 28.0568 126.374 27.9875C126.443 27.9183 126.482 27.8244 126.482 27.7265C126.483 27.6775 126.474 27.629 126.455 27.5835C126.437 27.5381 126.41 27.4968 126.376 27.462C126.341 27.4271 126.3 27.3994 126.255 27.3805C126.21 27.3616 126.162 27.3519 126.113 27.3519Z" fill="white"/>
<path d="M100.355 30.0699H94.0781V32.7345H100.355V30.0699Z" stroke="#263238" stroke-linecap="round" stroke-linejoin="round"/>
<path d="M101.318 30.5192H100.344V32.2903H101.318V30.5192Z" stroke="#263238" stroke-linecap="round" stroke-linejoin="round"/>
<path d="M144.832 31.7711H143.719V32.7396H144.832V31.7711Z" stroke="#263238" stroke-linecap="round" stroke-linejoin="round"/>
<path d="M147.004 30.7974H145.891V32.7397H147.004V30.7974Z" stroke="#263238" stroke-linecap="round" stroke-linejoin="round"/>
<path d="M149.168 29.8237H148.055V32.7345H149.168V29.8237Z" stroke="#263238" stroke-linecap="round" stroke-linejoin="round"/>
<path d="M151.347 28.85H150.234V32.7347H151.347V28.85Z" stroke="#263238" stroke-linecap="round" stroke-linejoin="round"/>
<path opacity="0.5" d="M156.799 57.5905H88.6094V122.62H156.799V57.5905Z" fill="white"/>
<path d="M107.446 47.206V48.3349C107.446 49.7312 106.778 50.4749 105.408 50.4749H104.76V53.7438H103.391V45.0499H105.408C106.778 45.0499 107.446 45.8096 107.446 47.206ZM104.771 46.2965V49.2444H105.419C105.852 49.2444 106.087 49.0464 106.087 48.4258V47.115C106.087 46.4944 105.852 46.2965 105.419 46.2965H104.771Z" fill="#263238"/>
<path d="M112.357 53.7598H110.976L110.735 52.1815H109.061L108.82 53.7598H107.562L108.959 45.0499H110.96L112.357 53.7598ZM109.232 50.9992H110.554L109.906 46.5961H109.879L109.232 50.9992Z" fill="#263238"/>
<path d="M113.666 50.8761L111.938 45.0499H113.393L114.426 49.0197H114.452L115.485 45.0499H116.791L115.062 50.8761V53.7598H113.693L113.666 50.8761Z" fill="#263238"/>
<path d="M120.189 51.2346H120.216L121.136 45.0499H123.041V53.7598H121.746V47.5163L120.826 53.7598H119.531L118.536 47.6019V53.7598H117.289V45.0499H119.194L120.189 51.2346Z" fill="#263238"/>
<path d="M125.409 48.7201H127.298V49.9666H125.42V52.5186H127.785V53.7598H124.039V45.0499H127.785V46.2965H125.42L125.409 48.7201Z" fill="#263238"/>
<path d="M129.867 47.4521H129.84V53.7598H128.609V45.0499H130.327L131.707 50.2662V45.0499H132.927V53.7598H131.526L129.867 47.4521Z" fill="#263238"/>
<path d="M133.547 45.0499H137.779V46.2965H136.345V53.7598H134.976V46.2965H133.547V45.0499Z" fill="#263238"/>
<path d="M140.211 44.9536C141.538 44.9536 142.223 45.7508 142.223 47.1418V47.4146H140.928V47.0562C140.928 46.4302 140.682 46.1948 140.243 46.1948C139.804 46.1948 139.563 46.4302 139.563 47.0562C139.563 47.6821 139.836 48.1636 140.73 48.9447C141.875 49.9559 142.239 50.6728 142.239 51.6679C142.239 53.0643 141.538 53.8614 140.195 53.8614C138.852 53.8614 138.156 53.0643 138.156 51.6679V51.1329H139.451V51.7589C139.451 52.3795 139.724 52.6042 140.157 52.6042C140.591 52.6042 140.869 52.3795 140.869 51.7589C140.869 51.1383 140.596 50.6514 139.697 49.865C138.552 48.8591 138.194 48.1369 138.194 47.1418C138.194 45.7508 138.879 44.9536 140.211 44.9536Z" fill="#263238"/>
<path d="M151.342 65.4711H94.0781V74.0258H151.342V65.4711Z" fill="white" stroke="#263238" stroke-linecap="round" stroke-linejoin="round"/>
<path d="M151.342 81.5158H94.0781V90.0706H151.342V81.5158Z" fill="white" stroke="#263238" stroke-linecap="round" stroke-linejoin="round"/>
<path d="M151.342 96.1054H94.0781V104.66H151.342V96.1054Z" fill="white" stroke="#263238" stroke-linecap="round" stroke-linejoin="round"/>
<path d="M121.19 107.779H94.0781V117.794H121.19V107.779Z" fill="white" stroke="#263238" stroke-linecap="round" stroke-linejoin="round"/>
<path d="M151.346 107.779H124.234V117.794H151.346V107.779Z" fill="white" stroke="#263238" stroke-linecap="round" stroke-linejoin="round"/>
<path d="M97.6519 63.9786V64.2087H95.8594V61.6778H97.5984V61.9079H96.1323V62.8122H97.4378V63.0369H96.1323V63.9786H97.6519Z" fill="#263238"/>
<path d="M101.354 63.1065V64.2088H101.076V63.1386C101.076 62.7373 100.873 62.5287 100.541 62.5287C100.452 62.5249 100.363 62.5406 100.28 62.5747C100.197 62.6088 100.123 62.6605 100.063 62.7262C100.002 62.7919 99.9565 62.87 99.9291 62.9551C99.9018 63.0402 99.8933 63.1302 99.9042 63.2189V64.2141H99.6474V63.144C99.6474 62.7427 99.4441 62.534 99.1123 62.534C99.023 62.5302 98.934 62.5459 98.8514 62.5801C98.7688 62.6142 98.6946 62.6659 98.634 62.7316C98.5734 62.7973 98.5278 62.8754 98.5005 62.9604C98.4731 63.0455 98.4646 63.1355 98.4756 63.2242V64.2195H98.2188V62.32H98.4649V62.6678C98.538 62.5495 98.6418 62.4533 98.7652 62.3892C98.8886 62.3252 99.027 62.2957 99.1658 62.3039C99.306 62.2921 99.4464 62.3244 99.5673 62.3964C99.6882 62.4684 99.7836 62.5764 99.84 62.7052C99.9179 62.5766 100.029 62.4714 100.162 62.4007C100.295 62.3301 100.444 62.2966 100.594 62.3039C100.7 62.2968 100.805 62.3131 100.904 62.3516C101.002 62.39 101.091 62.4497 101.163 62.5264C101.236 62.6031 101.291 62.6948 101.324 62.7951C101.357 62.8954 101.367 63.0017 101.354 63.1065Z" fill="#263238"/>
<path d="M103.493 63.0316V64.2087H103.247V63.9144C103.175 64.0204 103.076 64.1053 102.96 64.1608C102.845 64.2162 102.716 64.2401 102.589 64.2301C102.161 64.2301 101.898 64.0054 101.898 63.6951C101.898 63.3847 102.086 63.16 102.631 63.16H103.22V63.0423C103.22 62.7159 103.033 62.5393 102.685 62.5393C102.454 62.5357 102.23 62.6155 102.054 62.764L101.936 62.5714C102.158 62.3999 102.431 62.3093 102.712 62.3146C102.813 62.2981 102.916 62.3047 103.014 62.3339C103.111 62.3631 103.201 62.4141 103.277 62.4832C103.352 62.5522 103.41 62.6375 103.448 62.7325C103.485 62.8275 103.501 62.9297 103.493 63.0316ZM103.236 63.6415V63.3258H102.637C102.268 63.3258 102.15 63.4703 102.15 63.6683C102.15 63.8663 102.326 64.0268 102.631 64.0268C102.757 64.0304 102.881 63.9955 102.986 63.9266C103.091 63.8577 103.173 63.7582 103.22 63.6415H103.236Z" fill="#263238"/>
<path d="M104.133 61.71C104.134 61.6613 104.155 61.615 104.19 61.5811C104.224 61.5471 104.271 61.5281 104.32 61.5281C104.368 61.5281 104.415 61.5473 104.449 61.5814C104.483 61.6155 104.502 61.6618 104.502 61.71C104.502 61.7583 104.483 61.8046 104.449 61.8387C104.415 61.8728 104.368 61.892 104.32 61.892C104.271 61.892 104.224 61.873 104.19 61.839C104.155 61.805 104.134 61.7588 104.133 61.71ZM104.192 62.3093H104.449V64.2088H104.192V62.3093Z" fill="#263238"/>
<path d="M105.156 61.5281H105.413V64.2035H105.156V61.5281Z" fill="#263238"/>
<path d="M99.4253 70.5593V70.7893H97.6328V68.2585H99.3718V68.4885H97.8789V69.3875H99.1899V69.6175H97.8789V70.5593H99.4253Z" fill="#263238"/>
<path d="M103.135 69.6764V70.7787H102.878V69.7085C102.878 69.3072 102.675 69.0985 102.343 69.0985C102.254 69.0939 102.165 69.1089 102.083 69.1424C102 69.1759 101.926 69.2271 101.865 69.2924C101.804 69.3577 101.759 69.4355 101.731 69.5203C101.704 69.6051 101.695 69.695 101.706 69.7834V70.784H101.45V69.7139C101.45 69.3126 101.246 69.1039 100.915 69.1039C100.826 69.0993 100.737 69.1142 100.654 69.1477C100.571 69.1812 100.497 69.2324 100.436 69.2977C100.376 69.363 100.33 69.4408 100.303 69.5257C100.275 69.6105 100.267 69.7003 100.278 69.7888V70.7894H100.016V68.8845H100.262V69.2323C100.336 69.1154 100.44 69.0206 100.563 68.9575C100.687 68.8945 100.825 68.8656 100.963 68.8738C101.103 68.8636 101.242 68.8966 101.363 68.9683C101.484 69.0401 101.579 69.1472 101.637 69.2751C101.714 69.146 101.826 69.0405 101.958 68.9698C102.091 68.8991 102.241 68.8659 102.391 68.8738C102.495 68.8692 102.599 68.8872 102.696 68.9268C102.792 68.9663 102.878 69.0264 102.949 69.1027C103.02 69.1791 103.073 69.27 103.105 69.3691C103.137 69.4681 103.148 69.573 103.135 69.6764Z" fill="#263238"/>
<path d="M105.251 69.6014V70.7786H105.005V70.4843C104.933 70.5896 104.835 70.6739 104.721 70.7285C104.606 70.7831 104.478 70.8059 104.352 70.7946C103.924 70.7946 103.656 70.5699 103.656 70.2596C103.656 69.9492 103.849 69.7245 104.395 69.7245H104.999V69.6121C104.999 69.2857 104.812 69.1092 104.464 69.1092C104.232 69.1062 104.006 69.1859 103.827 69.3339L103.715 69.1413C103.935 68.9666 104.21 68.8756 104.491 68.8844C104.59 68.8715 104.691 68.8807 104.786 68.9116C104.881 68.9424 104.968 68.994 105.041 69.0626C105.114 69.1312 105.17 69.2152 105.207 69.3084C105.243 69.4016 105.258 69.5017 105.251 69.6014ZM104.999 70.2061V69.8957H104.4C104.031 69.8957 103.913 70.0402 103.913 70.2382C103.913 70.4361 104.09 70.5967 104.395 70.5967C104.524 70.6041 104.652 70.5703 104.761 70.5001C104.869 70.4298 104.953 70.3269 104.999 70.2061Z" fill="#263238"/>
<path d="M105.891 68.2746C105.892 68.2258 105.912 68.1796 105.947 68.1456C105.982 68.1116 106.029 68.0926 106.078 68.0926C106.102 68.0919 106.126 68.0961 106.149 68.1049C106.172 68.1137 106.193 68.127 106.21 68.144C106.227 68.161 106.241 68.1813 106.251 68.2037C106.26 68.2261 106.265 68.2502 106.265 68.2746C106.265 68.3242 106.245 68.3719 106.21 68.407C106.175 68.4421 106.128 68.4618 106.078 68.4618C106.028 68.4618 105.981 68.4421 105.945 68.407C105.91 68.3719 105.891 68.3242 105.891 68.2746ZM105.949 68.8738H106.206V70.7787H105.949V68.8738Z" fill="#263238"/>
<path d="M106.938 68.0926H107.189V70.7679H106.938V68.0926Z" fill="#263238"/>
<path d="M109.64 69.6763V70.7785H109.383V69.7084C109.395 69.6293 109.388 69.5487 109.365 69.4725C109.341 69.3962 109.3 69.3263 109.246 69.2678C109.191 69.2093 109.125 69.1637 109.05 69.1344C108.976 69.1051 108.896 69.0928 108.816 69.0984C108.725 69.0908 108.633 69.1034 108.548 69.1354C108.462 69.1673 108.384 69.2178 108.321 69.2833C108.257 69.3487 108.208 69.4275 108.178 69.5139C108.148 69.6004 108.138 69.6924 108.147 69.7833V70.7839H107.891V68.879H108.137V69.2322C108.214 69.113 108.322 69.0165 108.449 68.9526C108.576 68.8887 108.717 68.8596 108.859 68.8683C108.966 68.8597 109.074 68.875 109.174 68.9129C109.275 68.9509 109.366 69.0106 109.44 69.0879C109.515 69.1651 109.572 69.2579 109.606 69.3597C109.641 69.4614 109.653 69.5695 109.64 69.6763Z" fill="#263238"/>
<path d="M111.782 69.6014V70.7786H111.536V70.4843C111.465 70.5896 111.367 70.6739 111.252 70.7285C111.137 70.7831 111.01 70.8059 110.883 70.7946C110.45 70.7946 110.188 70.5699 110.188 70.2596C110.188 69.9492 110.375 69.7245 110.921 69.7245H111.525V69.6121C111.525 69.2857 111.343 69.1092 110.99 69.1092C110.759 69.1056 110.535 69.1854 110.359 69.3339L110.241 69.1413C110.462 68.9674 110.736 68.8765 111.017 68.8844C111.116 68.8706 111.218 68.8792 111.314 68.9096C111.409 68.9401 111.497 68.9915 111.571 69.0603C111.644 69.129 111.701 69.2133 111.738 69.3069C111.774 69.4005 111.789 69.5012 111.782 69.6014ZM111.525 70.2061V69.8957H110.931C110.562 69.8957 110.439 70.0402 110.439 70.2382C110.439 70.4361 110.616 70.5967 110.921 70.5967C111.051 70.6053 111.18 70.572 111.29 70.5017C111.4 70.4314 111.484 70.3278 111.531 70.2061H111.525Z" fill="#263238"/>
<path d="M115.615 69.6763V70.7786H115.358V69.7084C115.358 69.3071 115.154 69.0985 114.823 69.0985C114.734 69.0939 114.645 69.1088 114.562 69.1423C114.479 69.1758 114.405 69.227 114.344 69.2923C114.284 69.3576 114.238 69.4354 114.211 69.5202C114.183 69.6051 114.175 69.6949 114.186 69.7833V70.7839H113.913V69.7138C113.913 69.3125 113.71 69.1038 113.378 69.1038C113.289 69.0992 113.2 69.1142 113.117 69.1477C113.035 69.1811 112.96 69.2323 112.9 69.2976C112.839 69.3629 112.793 69.4407 112.766 69.5256C112.739 69.6104 112.73 69.7002 112.741 69.7887V70.7893H112.484V68.8844H112.731V69.2322C112.805 69.1154 112.909 69.0205 113.032 68.9574C113.155 68.8944 113.293 68.8655 113.431 68.8737C113.572 68.8619 113.712 68.8942 113.833 68.9662C113.954 69.0382 114.049 69.1462 114.106 69.275C114.184 69.1464 114.295 69.0411 114.428 68.9705C114.56 68.8999 114.71 68.8664 114.86 68.8737C114.965 68.8675 115.07 68.8843 115.168 68.9232C115.265 68.962 115.353 69.0218 115.425 69.0984C115.497 69.1749 115.552 69.2664 115.584 69.3663C115.617 69.4662 115.627 69.572 115.615 69.6763Z" fill="#263238"/>
<path d="M117.983 69.9064H116.378C116.391 70.0929 116.479 70.2664 116.62 70.3887C116.761 70.5111 116.946 70.5724 117.132 70.5591C117.242 70.5621 117.351 70.5412 117.452 70.4978C117.552 70.4543 117.642 70.3895 117.715 70.3077L117.86 70.4735C117.723 70.6169 117.548 70.7167 117.354 70.7606C117.161 70.8045 116.96 70.7904 116.775 70.7201C116.589 70.6499 116.429 70.5265 116.314 70.3656C116.199 70.2046 116.133 70.0133 116.126 69.8154C116.12 69.6899 116.139 69.5644 116.183 69.4466C116.227 69.3289 116.295 69.2215 116.382 69.1311C116.469 69.0408 116.575 68.9694 116.691 68.9214C116.807 68.8734 116.932 68.8499 117.057 68.8523C117.183 68.8498 117.307 68.8733 117.423 68.9214C117.538 68.9695 117.643 69.0411 117.729 69.1316C117.816 69.2222 117.882 69.3297 117.925 69.4474C117.968 69.5651 117.986 69.6904 117.978 69.8154C117.978 69.8154 117.983 69.8796 117.983 69.9064ZM116.378 69.7137H117.726C117.726 69.5349 117.655 69.3634 117.529 69.237C117.402 69.1106 117.231 69.0395 117.052 69.0395C116.873 69.0395 116.702 69.1106 116.575 69.237C116.449 69.3634 116.378 69.5349 116.378 69.7137Z" fill="#263238"/>
<path d="M121.703 69.8208C121.703 70.4362 121.473 70.7947 121.098 70.7947C121.045 70.7976 120.992 70.7897 120.943 70.7713C120.893 70.7529 120.848 70.7245 120.81 70.6879C120.772 70.6512 120.741 70.6071 120.721 70.5583C120.701 70.5095 120.691 70.457 120.691 70.4041C120.617 70.5278 120.511 70.6293 120.384 70.698C120.257 70.7667 120.113 70.8001 119.969 70.7947C119.722 70.7947 119.485 70.6966 119.311 70.522C119.136 70.3474 119.038 70.1106 119.038 69.8636C119.038 69.6167 119.136 69.3799 119.311 69.2053C119.485 69.0307 119.722 68.9326 119.969 68.9326C120.112 68.9265 120.253 68.9585 120.379 69.0253C120.505 69.0921 120.611 69.1912 120.686 69.3125V68.954H120.922V70.3238C120.922 70.5271 121.023 70.602 121.146 70.602C121.366 70.602 121.51 70.3238 121.51 69.8369C121.516 69.6436 121.481 69.4513 121.408 69.2723C121.334 69.0934 121.224 68.9318 121.085 68.7981C120.945 68.6644 120.779 68.5616 120.597 68.4963C120.414 68.431 120.221 68.4046 120.028 68.419C119.837 68.419 119.648 68.4566 119.471 68.5297C119.294 68.6029 119.134 68.7101 118.999 68.8452C118.864 68.9804 118.756 69.1408 118.683 69.3174C118.61 69.494 118.573 69.6832 118.573 69.8744C118.573 70.0655 118.61 70.2547 118.683 70.4313C118.756 70.6079 118.864 70.7683 118.999 70.9035C119.134 71.0386 119.294 71.1458 119.471 71.219C119.648 71.2921 119.837 71.3297 120.028 71.3297C120.269 71.3291 120.507 71.2743 120.724 71.1692L120.782 71.3458C120.546 71.4568 120.289 71.5135 120.028 71.5117C119.594 71.5117 119.177 71.3392 118.87 71.0321C118.563 70.7251 118.391 70.3086 118.391 69.8744C118.391 69.4401 118.563 69.0237 118.87 68.7166C119.177 68.4095 119.594 68.237 120.028 68.237C120.244 68.2214 120.461 68.251 120.666 68.3238C120.87 68.3967 121.057 68.5112 121.214 68.6602C121.372 68.8092 121.496 68.9893 121.58 69.1891C121.665 69.3889 121.706 69.6041 121.703 69.8208ZM120.686 69.8583C120.695 69.7629 120.683 69.6668 120.652 69.5761C120.622 69.4854 120.572 69.4021 120.508 69.3315C120.443 69.2608 120.364 69.2044 120.277 69.1659C120.189 69.1273 120.094 69.1073 119.999 69.1073C119.903 69.1073 119.808 69.1273 119.72 69.1659C119.633 69.2044 119.554 69.2608 119.489 69.3315C119.425 69.4021 119.375 69.4854 119.345 69.5761C119.314 69.6668 119.303 69.7629 119.311 69.8583C119.303 69.9537 119.314 70.0498 119.345 70.1405C119.375 70.2312 119.425 70.3145 119.489 70.3851C119.554 70.4558 119.633 70.5122 119.72 70.5507C119.808 70.5893 119.903 70.6093 119.999 70.6093C120.094 70.6093 120.189 70.5893 120.277 70.5507C120.364 70.5122 120.443 70.4558 120.508 70.3851C120.572 70.3145 120.622 70.2312 120.652 70.1405C120.683 70.0498 120.695 69.9537 120.686 69.8583Z" fill="#263238"/>
<path d="M123.895 69.9065H122.289C122.295 69.9993 122.319 70.0901 122.359 70.1738C122.4 70.2574 122.457 70.3322 122.526 70.3938C122.596 70.4554 122.677 70.5027 122.765 70.533C122.853 70.5632 122.946 70.5758 123.038 70.57C123.148 70.573 123.257 70.5521 123.358 70.5086C123.459 70.4652 123.549 70.4003 123.622 70.3185L123.766 70.4844C123.63 70.6277 123.454 70.7276 123.261 70.7715C123.068 70.8153 122.866 70.8012 122.681 70.731C122.496 70.6607 122.335 70.5374 122.22 70.3764C122.105 70.2155 122.04 70.0241 122.033 69.8263C122.026 69.7007 122.045 69.5752 122.089 69.4575C122.133 69.3398 122.201 69.2324 122.288 69.142C122.376 69.0516 122.481 68.9802 122.597 68.9323C122.713 68.8843 122.838 68.8607 122.964 68.8631C123.089 68.8606 123.213 68.8842 123.329 68.9323C123.444 68.9804 123.549 69.0519 123.635 69.1425C123.722 69.233 123.789 69.3406 123.831 69.4583C123.874 69.576 123.892 69.7013 123.884 69.8263C123.884 69.8263 123.895 69.8798 123.895 69.9065ZM122.289 69.7139H123.638C123.638 69.5351 123.567 69.3636 123.44 69.2372C123.314 69.1107 123.142 69.0397 122.964 69.0397C122.785 69.0397 122.613 69.1107 122.487 69.2372C122.36 69.3636 122.289 69.5351 122.289 69.7139Z" fill="#263238"/>
<path d="M127.575 69.6763V70.7786H127.303V69.7085C127.303 69.3071 127.099 69.0985 126.768 69.0985C126.678 69.0939 126.59 69.1088 126.507 69.1423C126.424 69.1758 126.35 69.227 126.289 69.2923C126.229 69.3576 126.183 69.4354 126.156 69.5202C126.128 69.6051 126.12 69.6949 126.131 69.7834V70.7839H125.874V69.7138C125.874 69.3125 125.671 69.1038 125.339 69.1038C125.25 69.0992 125.161 69.1142 125.078 69.1477C124.996 69.1812 124.921 69.2324 124.861 69.2977C124.8 69.363 124.754 69.4408 124.727 69.5256C124.7 69.6104 124.691 69.7002 124.702 69.7887V70.7893H124.445V68.8844H124.691V69.2322C124.765 69.1158 124.868 69.0212 124.99 68.9581C125.113 68.8951 125.25 68.8659 125.387 68.8737C125.528 68.8632 125.668 68.8959 125.79 68.9677C125.911 69.0394 126.008 69.1467 126.067 69.275C126.143 69.146 126.253 69.0403 126.385 68.9696C126.517 68.8988 126.666 68.8657 126.816 68.8737C126.921 68.8667 127.027 68.8829 127.125 68.9214C127.223 68.9598 127.312 69.0195 127.385 69.0962C127.457 69.1729 127.512 69.2646 127.545 69.3649C127.578 69.4652 127.588 69.5716 127.575 69.6763Z" fill="#263238"/>
<path d="M129.704 69.6015V70.7786H129.442V70.4843C129.371 70.5892 129.272 70.6733 129.158 70.7278C129.043 70.7823 128.916 70.8054 128.789 70.7947C128.356 70.7947 128.094 70.57 128.094 70.2596C128.094 69.9493 128.281 69.7245 128.827 69.7245H129.442V69.6122C129.442 69.2858 129.26 69.1092 128.907 69.1092C128.676 69.1056 128.452 69.1854 128.276 69.3339L128.158 69.1413C128.378 68.9675 128.653 68.8765 128.934 68.8845C129.034 68.8698 129.136 68.8777 129.232 68.9077C129.329 68.9378 129.417 68.9891 129.491 69.0579C129.565 69.1268 129.623 69.2114 129.66 69.3054C129.697 69.3995 129.712 69.5007 129.704 69.6015ZM129.447 70.2061V69.8958H128.854C128.484 69.8958 128.361 70.0402 128.361 70.2382C128.361 70.4362 128.538 70.5967 128.843 70.5967C128.971 70.603 129.098 70.5686 129.206 70.4985C129.313 70.4283 129.396 70.326 129.442 70.2061H129.447Z" fill="#263238"/>
<path d="M130.352 68.2745C130.352 68.2375 130.363 68.2013 130.383 68.1705C130.404 68.1397 130.433 68.1157 130.467 68.1015C130.501 68.0873 130.539 68.0836 130.575 68.0908C130.612 68.098 130.645 68.1159 130.671 68.1421C130.697 68.1683 130.715 68.2016 130.723 68.238C130.73 68.2743 130.726 68.3119 130.712 68.3462C130.698 68.3804 130.674 68.4096 130.643 68.4302C130.612 68.4508 130.576 68.4618 130.539 68.4618C130.489 68.4618 130.442 68.442 130.406 68.4069C130.371 68.3718 130.352 68.3242 130.352 68.2745ZM130.405 68.8738H130.662V70.7786H130.405V68.8738Z" fill="#263238"/>
<path d="M131.367 68.0926H131.624V70.7679H131.367V68.0926Z" fill="#263238"/>
<path d="M132.172 70.5965C132.171 70.571 132.176 70.5456 132.185 70.5219C132.195 70.4982 132.209 70.4767 132.227 70.4586C132.245 70.4406 132.266 70.4264 132.29 70.417C132.314 70.4076 132.339 70.4031 132.365 70.4039C132.416 70.4039 132.465 70.4241 132.501 70.4603C132.537 70.4964 132.557 70.5454 132.557 70.5965C132.557 70.6481 132.537 70.6976 132.501 70.7346C132.465 70.7716 132.416 70.7931 132.365 70.7945C132.339 70.7945 132.313 70.7893 132.29 70.7793C132.266 70.7693 132.244 70.7546 132.226 70.7362C132.208 70.7177 132.194 70.6958 132.185 70.6718C132.176 70.6479 132.171 70.6222 132.172 70.5965Z" fill="#263238"/>
<path d="M132.86 69.8262C132.856 69.6973 132.879 69.569 132.927 69.4494C132.975 69.3297 133.047 69.2213 133.139 69.1309C133.231 69.0405 133.341 68.97 133.461 68.9239C133.582 68.8779 133.71 68.8571 133.839 68.8631C133.986 68.8534 134.133 68.883 134.264 68.9489C134.396 69.0147 134.508 69.1143 134.588 69.2376L134.396 69.3661C134.335 69.2801 134.255 69.2099 134.162 69.1614C134.069 69.113 133.966 69.0877 133.861 69.0878C133.675 69.1036 133.502 69.1885 133.376 69.3258C133.25 69.463 133.18 69.6425 133.18 69.8289C133.18 70.0152 133.25 70.1948 133.376 70.332C133.502 70.4693 133.675 70.5542 133.861 70.57C133.966 70.5709 134.069 70.5461 134.163 70.4976C134.256 70.4491 134.336 70.3784 134.396 70.2917L134.588 70.4201C134.507 70.5426 134.395 70.6417 134.264 70.7074C134.132 70.7732 133.986 70.8032 133.839 70.7947C133.71 70.8007 133.581 70.7798 133.46 70.7334C133.339 70.687 133.229 70.6161 133.137 70.5251C133.045 70.4341 132.973 70.325 132.925 70.2047C132.878 70.0844 132.855 69.9555 132.86 69.8262Z" fill="#263238"/>
<path d="M134.876 69.8262C134.876 69.6346 134.932 69.4474 135.039 69.2881C135.145 69.1289 135.296 69.0047 135.473 68.9314C135.65 68.8581 135.845 68.8389 136.033 68.8763C136.221 68.9137 136.393 69.0059 136.529 69.1414C136.664 69.2768 136.757 69.4494 136.794 69.6372C136.831 69.8251 136.812 70.0198 136.739 70.1968C136.666 70.3738 136.541 70.525 136.382 70.6314C136.223 70.7379 136.036 70.7947 135.844 70.7947C135.716 70.7991 135.588 70.7772 135.468 70.7301C135.349 70.683 135.24 70.6118 135.149 70.521C135.058 70.4301 134.987 70.3216 134.94 70.202C134.893 70.0825 134.871 69.9546 134.876 69.8262ZM136.55 69.8262C136.546 69.6853 136.5 69.5489 136.418 69.4342C136.336 69.3196 136.222 69.2318 136.09 69.1821C135.958 69.1324 135.814 69.123 135.677 69.1551C135.54 69.1871 135.415 69.2592 135.319 69.3622C135.223 69.4652 135.159 69.5945 135.137 69.7336C135.114 69.8727 135.133 70.0154 135.192 70.1436C135.25 70.2718 135.345 70.3798 135.465 70.4538C135.585 70.5277 135.725 70.5645 135.865 70.5592C135.959 70.5579 136.052 70.5377 136.137 70.4998C136.223 70.4619 136.3 70.407 136.364 70.3386C136.428 70.2701 136.477 70.1894 136.509 70.1014C136.542 70.0133 136.555 69.9197 136.55 69.8262Z" fill="#263238"/>
<path d="M140.466 69.6763V70.7786H140.209V69.7085C140.209 69.3071 140.006 69.0985 139.674 69.0985C139.585 69.0939 139.496 69.1088 139.413 69.1423C139.331 69.1758 139.256 69.227 139.196 69.2923C139.135 69.3576 139.089 69.4354 139.062 69.5202C139.034 69.6051 139.026 69.6949 139.037 69.7834V70.7839H138.78V69.7138C138.78 69.3125 138.577 69.1038 138.245 69.1038C138.156 69.0992 138.067 69.1142 137.985 69.1477C137.902 69.1812 137.828 69.2324 137.767 69.2977C137.706 69.363 137.661 69.4408 137.633 69.5256C137.606 69.6104 137.597 69.7002 137.608 69.7887V70.7893H137.352V68.8844H137.598V69.2322C137.671 69.1158 137.774 69.0212 137.897 68.9581C138.019 68.8951 138.156 68.8659 138.293 68.8737C138.434 68.8632 138.575 68.8959 138.696 68.9677C138.818 69.0394 138.914 69.1467 138.973 69.275C139.049 69.1464 139.16 69.0411 139.292 68.9704C139.424 68.8997 139.572 68.8663 139.722 68.8737C139.826 68.8691 139.93 68.8872 140.026 68.9267C140.122 68.9662 140.209 69.0263 140.28 69.1027C140.351 69.1791 140.404 69.27 140.436 69.369C140.468 69.4681 140.478 69.573 140.466 69.6763Z" fill="#263238"/>
<path d="M98.0732 85.8388L98.5226 86.0956L98.4424 86.2455L97.9875 85.9833V86.5183H97.8217V85.9833L97.3669 86.2455L97.2812 86.0956L97.7361 85.8388L97.2812 85.5873L97.3669 85.4321L97.8217 85.6997V85.1646H97.9875V85.6997L98.4424 85.4321L98.5226 85.5873L98.0732 85.8388Z" fill="#263238"/>
<path d="M99.5473 85.8388L99.9967 86.0956L99.9111 86.2455L99.4616 85.9833V86.5183H99.2904V85.9833L98.841 86.2455L98.75 86.0956L99.2048 85.8388L98.75 85.5873L98.841 85.4321L99.2904 85.6997V85.1646H99.4724V85.6997L99.9218 85.4321L100.007 85.5873L99.5473 85.8388Z" fill="#263238"/>
<path d="M101.021 85.8388L101.47 86.0956L101.385 86.2455L100.935 85.9833V86.5183H100.769V85.9833L100.32 86.2455L100.234 86.0956L100.684 85.8388L100.234 85.5873L100.32 85.4321L100.769 85.6997V85.1646H100.935V85.6997L101.385 85.4321L101.47 85.5873L101.021 85.8388Z" fill="#263238"/>
<path d="M102.479 85.8388L102.929 86.0956L102.849 86.2455L102.394 85.9833V86.5183H102.228V85.9833L101.773 86.2455L101.688 86.0956L102.142 85.8388L101.688 85.5873L101.773 85.4321L102.228 85.6997V85.1646H102.394V85.6997L102.849 85.4321L102.929 85.5873L102.479 85.8388Z" fill="#263238"/>
<path d="M103.954 85.8388L104.403 86.0956L104.317 86.2455L103.868 85.9833V86.5183H103.697V85.9833L103.247 86.2455L103.156 86.0956L103.611 85.8388L103.156 85.5873L103.247 85.4321L103.697 85.6997V85.1646H103.868V85.6997L104.317 85.4321L104.403 85.5873L103.954 85.8388Z" fill="#263238"/>
<path d="M105.419 85.8388L105.869 86.0956L105.783 86.2455L105.334 85.9833V86.5183H105.168V85.9833L104.718 86.2455L104.633 86.0956L105.082 85.8388L104.633 85.5873L104.718 85.4321L105.168 85.6997V85.1646H105.361V85.6997L105.81 85.4321L105.896 85.5873L105.419 85.8388Z" fill="#263238"/>
<path d="M106.886 85.8388L107.335 86.0956L107.255 86.2455L106.8 85.9833V86.5183H106.634V85.9833L106.179 86.2455L106.094 86.0956L106.549 85.8388L106.094 85.5873L106.179 85.4321L106.634 85.6997V85.1646H106.8V85.6997L107.255 85.4321L107.335 85.5873L106.886 85.8388Z" fill="#263238"/>
<path d="M108.36 85.8388L108.809 86.0956L108.724 86.2455L108.269 85.9833V86.5183H108.103V85.9833L107.653 86.2455L107.562 86.0956L108.017 85.8388L107.562 85.5873L107.653 85.4321L108.103 85.6997V85.1646H108.269V85.6997L108.724 85.4321L108.809 85.5873L108.36 85.8388Z" fill="#263238"/>
<path d="M109.826 85.8388L110.275 86.0956L110.189 86.2455L109.74 85.9833V86.5183H109.574V85.9833L109.125 86.2455L109.039 86.0956L109.489 85.8388L109.039 85.5873L109.125 85.4321L109.574 85.6997V85.1646H109.74V85.6997L110.189 85.4321L110.275 85.5873L109.826 85.8388Z" fill="#263238"/>
<path d="M111.292 85.8388L111.741 86.0956L111.661 86.2455L111.206 85.9833V86.5183H111.04V85.9833L110.586 86.2455L110.5 86.0956L110.949 85.8388L110.5 85.5873L110.586 85.4321L111.04 85.6997V85.1646H111.206V85.6997L111.661 85.4321L111.741 85.5873L111.292 85.8388Z" fill="#263238"/>
<path d="M112.766 85.8388L113.21 86.0956L113.13 86.2455L112.675 85.9833V86.5183H112.509V85.9833L112.06 86.2455L111.969 86.0956L112.424 85.8388L111.969 85.5873L112.06 85.4321L112.509 85.6997V85.1646H112.675V85.6997L113.13 85.4321L113.21 85.5873L112.766 85.8388Z" fill="#263238"/>
<path d="M97.8445 78.5841C97.8445 79.1192 97.4539 79.4509 96.8118 79.4509H96.1323V80.2482H95.8594V77.728H96.8065C97.4539 77.728 97.8445 78.049 97.8445 78.5841ZM97.577 78.5841C97.577 78.1775 97.3094 77.9474 96.8011 77.9474H96.1323V79.2155H96.8065C97.3094 79.2262 97.577 78.9961 97.577 78.5841Z" fill="#263238"/>
<path d="M99.782 79.0817V80.2588H99.5359V79.9645C99.4635 80.0699 99.3644 80.1541 99.2487 80.2086C99.1331 80.2631 99.0051 80.286 98.8777 80.2749C98.4497 80.2749 98.1875 80.0555 98.1875 79.7398C98.1875 79.4241 98.3748 79.2047 98.9206 79.2047H99.5252V79.0924C99.5252 78.766 99.3379 78.5894 98.9901 78.5894C98.7595 78.5858 98.5353 78.6656 98.3587 78.8141L98.241 78.6215C98.4616 78.4476 98.7361 78.3567 99.0169 78.3647C99.1164 78.3508 99.2178 78.3594 99.3137 78.3899C99.4095 78.4203 99.4973 78.4717 99.5706 78.5405C99.644 78.6092 99.701 78.6935 99.7376 78.7871C99.7742 78.8808 99.7894 78.9814 99.782 79.0817ZM99.5252 79.6863V79.3759H98.942C98.5728 79.3759 98.455 79.5204 98.455 79.7184C98.455 79.9164 98.6316 80.0769 98.9366 80.0769C99.0631 80.0809 99.1877 80.0454 99.2932 79.9755C99.3986 79.9055 99.4797 79.8044 99.5252 79.6863Z" fill="#263238"/>
<path d="M100.211 80.0449L100.323 79.8415C100.522 79.9814 100.76 80.0561 101.003 80.0556C101.361 80.0556 101.511 79.9325 101.511 79.7399C101.511 79.2476 100.28 79.6382 100.28 78.8838C100.28 78.5734 100.548 78.3487 101.03 78.3487C101.266 78.3456 101.499 78.4066 101.704 78.5253L101.591 78.7286C101.424 78.6201 101.229 78.5642 101.03 78.5681C100.687 78.5681 100.537 78.7018 100.537 78.8838C100.537 79.4188 101.768 79.0122 101.768 79.7399C101.768 80.0716 101.479 80.2749 100.981 80.2749C100.706 80.2839 100.436 80.2031 100.211 80.0449Z" fill="#263238"/>
<path d="M101.984 80.0448L102.102 79.8415C102.299 79.9818 102.535 80.0567 102.776 80.0555C103.14 80.0555 103.311 79.9324 103.311 79.7398C103.311 79.2475 102.081 79.6381 102.081 78.8837C102.081 78.5733 102.348 78.3486 102.835 78.3486C103.07 78.3449 103.301 78.406 103.504 78.5252L103.392 78.7285C103.232 78.6247 103.047 78.569 102.857 78.568C102.509 78.568 102.359 78.7018 102.359 78.8837C102.359 79.4188 103.59 79.0121 103.59 79.7398C103.59 80.0715 103.301 80.2749 102.808 80.2749C102.515 80.2955 102.224 80.2142 101.984 80.0448Z" fill="#263238"/>
<path d="M106.76 78.3593L106.038 80.2588H105.797L105.198 78.7018L104.598 80.2588H104.352L103.641 78.3593H103.887L104.481 79.9645L105.091 78.3593H105.315L105.92 79.9645L106.525 78.3593H106.76Z" fill="#263238"/>
<path d="M106.907 79.3064C106.907 79.1148 106.964 78.9276 107.07 78.7683C107.176 78.609 107.328 78.4849 107.505 78.4116C107.682 78.3383 107.876 78.3191 108.064 78.3565C108.252 78.3939 108.425 78.4861 108.56 78.6215C108.696 78.757 108.788 78.9296 108.825 79.1174C108.863 79.3053 108.843 79.5 108.77 79.677C108.697 79.854 108.573 80.0052 108.413 80.1116C108.254 80.2181 108.067 80.2749 107.875 80.2749C107.747 80.2793 107.619 80.2573 107.499 80.2103C107.38 80.1632 107.271 80.092 107.181 80.0012C107.09 79.9103 107.018 79.8018 106.971 79.6822C106.924 79.5627 106.902 79.4348 106.907 79.3064ZM108.582 79.3064C108.582 79.1191 108.507 78.9394 108.375 78.8069C108.242 78.6745 108.063 78.6001 107.875 78.6001C107.688 78.6001 107.508 78.6745 107.376 78.8069C107.243 78.9394 107.169 79.1191 107.169 79.3064C107.169 79.4937 107.243 79.6733 107.376 79.8058C107.508 79.9383 107.688 80.0127 107.875 80.0127C108.063 80.0127 108.242 79.9383 108.375 79.8058C108.507 79.6733 108.582 79.4937 108.582 79.3064Z" fill="#263238"/>
<path d="M110.317 78.3433V78.5841H110.253C110.163 78.5801 110.073 78.596 109.989 78.6307C109.906 78.6654 109.831 78.7182 109.77 78.7851C109.709 78.852 109.664 78.9315 109.637 79.0179C109.611 79.1043 109.604 79.1955 109.616 79.285V80.2535H109.359V78.354H109.632V78.7232C109.697 78.5998 109.796 78.4981 109.918 78.4306C110.039 78.363 110.178 78.3327 110.317 78.3433Z" fill="#263238"/>
<path d="M112.501 77.5783V80.2537H112.255V79.8791C112.178 80.0037 112.07 80.1056 111.941 80.1743C111.812 80.243 111.667 80.2759 111.522 80.2697C111.278 80.2516 111.05 80.1419 110.884 79.9628C110.717 79.7837 110.625 79.5483 110.625 79.3039C110.625 79.0595 110.717 78.8242 110.884 78.645C111.05 78.4659 111.278 78.3563 111.522 78.3381C111.664 78.3327 111.806 78.3644 111.932 78.43C112.059 78.4957 112.166 78.5931 112.244 78.7127V77.573L112.501 77.5783ZM112.249 79.3066C112.242 79.1687 112.194 79.036 112.112 78.9249C112.031 78.8138 111.918 78.7291 111.788 78.6814C111.659 78.6336 111.518 78.6249 111.384 78.6562C111.249 78.6875 111.127 78.7576 111.032 78.8577C110.937 78.9578 110.873 79.0836 110.849 79.2195C110.824 79.3554 110.84 79.4954 110.895 79.6223C110.949 79.7492 111.04 79.8574 111.155 79.9334C111.27 80.0095 111.405 80.0502 111.543 80.0504C111.639 80.0521 111.735 80.0337 111.824 79.9964C111.913 79.9592 111.993 79.9038 112.06 79.8339C112.126 79.7639 112.177 79.6809 112.21 79.5902C112.243 79.4994 112.256 79.4028 112.249 79.3066Z" fill="#263238"/>
<path d="M116.314 99.4492V101.985H116.068V99.6847H115.469V99.4492H116.314Z" fill="#263238"/>
<path d="M118.64 101.739V101.975H116.864V101.787L117.934 100.755C118.217 100.477 118.276 100.305 118.276 100.134C118.276 99.8398 118.067 99.6579 117.682 99.6579C117.553 99.6496 117.424 99.6708 117.304 99.72C117.185 99.7691 117.078 99.8449 116.992 99.9415L116.805 99.781C116.919 99.6582 117.058 99.562 117.214 99.4992C117.369 99.4363 117.536 99.4083 117.704 99.4171C118.239 99.4171 118.544 99.6793 118.544 100.102C118.535 100.256 118.494 100.407 118.422 100.544C118.35 100.68 118.249 100.8 118.126 100.894L117.265 101.739H118.64Z" fill="#263238"/>
<path d="M120.642 101.247C120.642 101.67 120.332 101.996 119.722 101.996C119.388 102.007 119.063 101.89 118.812 101.67L118.936 101.461C119.15 101.658 119.432 101.763 119.722 101.755C120.145 101.755 120.375 101.563 120.375 101.247C120.375 100.931 120.161 100.744 119.69 100.744H119.508V100.551L120.209 99.6739H118.914V99.4492H120.519V99.6365L119.808 100.519C120.37 100.557 120.642 100.84 120.642 101.247Z" fill="#263238"/>
<path d="M123.155 101.306H122.646V101.975H122.39V101.306H120.961V101.119L122.304 99.4385H122.593L121.298 101.054H122.395V100.466H122.646V101.054H123.155V101.306Z" fill="#263238"/>
<path d="M126.064 101.226C126.064 101.659 125.765 101.996 125.144 101.996C124.81 102.006 124.486 101.89 124.234 101.67L124.363 101.461C124.466 101.559 124.588 101.636 124.721 101.687C124.854 101.737 124.996 101.76 125.139 101.755C125.572 101.755 125.797 101.547 125.797 101.22C125.797 100.894 125.593 100.685 124.951 100.685H124.416L124.55 99.4118H125.936V99.6472H124.775L124.689 100.45H125.016C125.775 100.477 126.064 100.782 126.064 101.226Z" fill="#263238"/>
<path d="M128.295 101.215C128.294 101.325 128.271 101.433 128.226 101.533C128.181 101.633 128.115 101.723 128.034 101.796C127.952 101.87 127.856 101.925 127.752 101.96C127.648 101.994 127.538 102.007 127.429 101.996C126.754 101.996 126.391 101.525 126.391 100.728C126.391 99.9308 126.861 99.4171 127.546 99.4171C127.757 99.4091 127.965 99.4571 128.151 99.5562L128.044 99.7649C127.895 99.6793 127.724 99.6385 127.552 99.6472C127.017 99.6472 126.653 99.995 126.653 100.685C126.653 100.744 126.653 100.814 126.653 100.889C126.727 100.749 126.839 100.634 126.977 100.557C127.114 100.481 127.271 100.445 127.429 100.455C127.537 100.442 127.646 100.451 127.751 100.483C127.855 100.515 127.951 100.568 128.033 100.64C128.115 100.712 128.181 100.8 128.226 100.899C128.271 100.998 128.295 101.106 128.295 101.215ZM128.039 101.215C128.039 100.878 127.793 100.68 127.402 100.68C127.324 100.67 127.244 100.677 127.168 100.699C127.093 100.721 127.022 100.758 126.961 100.808C126.9 100.858 126.85 100.92 126.813 100.99C126.777 101.06 126.755 101.136 126.749 101.215C126.749 101.493 126.979 101.75 127.418 101.75C127.494 101.762 127.572 101.758 127.647 101.737C127.721 101.717 127.79 101.68 127.849 101.631C127.908 101.581 127.955 101.519 127.988 101.449C128.021 101.379 128.038 101.303 128.039 101.226V101.215Z" fill="#263238"/>
<path d="M130.352 99.4492V99.6365L129.282 101.985H128.998L130.041 99.6847H128.741V100.156H128.484V99.4492H130.352Z" fill="#263238"/>
<path d="M132.568 101.268C132.568 101.718 132.188 101.996 131.583 101.996C130.979 101.996 130.609 101.718 130.609 101.268C130.608 101.124 130.655 100.984 130.743 100.87C130.832 100.757 130.956 100.676 131.096 100.642C130.98 100.611 130.877 100.541 130.805 100.444C130.733 100.347 130.696 100.228 130.7 100.107C130.7 99.6954 131.048 99.4385 131.583 99.4385C132.118 99.4385 132.477 99.6954 132.477 100.107C132.475 100.228 132.434 100.345 132.361 100.442C132.288 100.538 132.186 100.608 132.07 100.642C132.212 100.675 132.338 100.755 132.428 100.869C132.519 100.982 132.568 101.123 132.568 101.268ZM132.3 101.268C132.3 100.958 132.033 100.76 131.583 100.76C131.134 100.76 130.872 100.958 130.872 101.268C130.872 101.579 131.134 101.804 131.583 101.804C132.033 101.804 132.3 101.59 132.3 101.263V101.268ZM131.578 100.551C131.974 100.551 132.209 100.375 132.209 100.097C132.209 99.8184 131.958 99.6419 131.578 99.6419C131.198 99.6419 130.952 99.8131 130.952 100.097C130.952 100.38 131.187 100.551 131.578 100.551Z" fill="#263238"/>
<path d="M135.707 100.685C135.707 101.547 135.236 101.996 134.546 101.996C134.337 102.004 134.13 101.956 133.946 101.857L134.053 101.648C134.203 101.734 134.374 101.775 134.546 101.766C135.081 101.766 135.439 101.413 135.439 100.728C135.444 100.66 135.444 100.592 135.439 100.525C135.367 100.665 135.256 100.78 135.119 100.857C134.982 100.934 134.825 100.969 134.669 100.958C134.561 100.97 134.453 100.96 134.35 100.927C134.247 100.894 134.152 100.84 134.072 100.769C133.991 100.697 133.926 100.609 133.881 100.511C133.837 100.413 133.813 100.306 133.812 100.198C133.813 100.089 133.837 99.9804 133.882 99.8803C133.927 99.7803 133.993 99.6907 134.074 99.6173C134.156 99.5438 134.252 99.4881 134.356 99.4537C134.46 99.4192 134.57 99.4068 134.679 99.4172C135.327 99.4172 135.707 99.8881 135.707 100.685ZM135.348 100.182C135.348 99.9041 135.118 99.6473 134.679 99.6473C134.602 99.6348 134.523 99.6393 134.448 99.6605C134.373 99.6818 134.303 99.7192 134.244 99.7702C134.185 99.8212 134.138 99.8845 134.106 99.9557C134.074 100.027 134.058 100.104 134.059 100.182C134.059 100.519 134.305 100.717 134.695 100.717C134.85 100.729 135.003 100.68 135.121 100.58C135.239 100.479 135.313 100.337 135.327 100.182H135.348Z" fill="#263238"/>
<path d="M136.776 99.4492V101.985H136.513V99.6847H135.914V99.4492H136.776Z" fill="#263238"/>
<path d="M137.375 100.707C137.375 99.8987 137.803 99.4172 138.386 99.4172C138.97 99.4172 139.398 99.8987 139.398 100.707C139.398 101.515 138.975 101.996 138.386 101.996C137.798 101.996 137.375 101.515 137.375 100.707ZM139.13 100.707C139.13 100.033 138.83 99.6366 138.386 99.6366C137.942 99.6366 137.643 100.011 137.643 100.707C137.643 101.402 137.948 101.777 138.386 101.777C138.825 101.777 139.13 101.381 139.13 100.707Z" fill="#263238"/>
<path d="M140.471 99.4492V101.985H140.209V99.6847H139.609V99.4492H140.471Z" fill="#263238"/>
<path d="M142.721 99.4492V101.985H142.459V99.6847H141.859V99.4492H142.721Z" fill="#263238"/>
<path d="M144.012 99.4492V101.985H143.756V99.6847H143.156V99.4492H144.012Z" fill="#263238"/>
<path d="M146.351 101.739V101.975H144.574V101.788L145.645 100.755C145.928 100.477 145.987 100.305 145.987 100.134C145.987 99.8399 145.778 99.6579 145.393 99.6579C145.264 99.6496 145.135 99.6709 145.015 99.72C144.896 99.7691 144.789 99.8449 144.703 99.9415L144.516 99.781C144.63 99.6589 144.77 99.5631 144.925 99.5002C145.08 99.4374 145.247 99.4091 145.415 99.4172C145.95 99.4172 146.255 99.6793 146.255 100.102C146.246 100.256 146.205 100.407 146.133 100.544C146.061 100.68 145.96 100.8 145.837 100.894L144.954 101.739H146.351Z" fill="#263238"/>
<path d="M147.378 99.4492V101.985H147.094V99.6847H146.5V99.4492H147.378Z" fill="#263238"/>
<path d="M104.712 98.8609V98.4756C104.712 98.2968 104.641 98.1254 104.515 97.9989C104.389 97.8725 104.217 97.8015 104.038 97.8015H97.2054C97.0266 97.8015 96.8552 97.8725 96.7287 97.9989C96.6023 98.1254 96.5312 98.2968 96.5312 98.4756V98.8609H104.712Z" fill="#263238"/>
<path d="M96.5312 99.3903V102.226C96.5312 102.405 96.6023 102.576 96.7287 102.703C96.8552 102.829 97.0266 102.9 97.2054 102.9H104.038C104.217 102.9 104.389 102.829 104.515 102.703C104.641 102.576 104.712 102.405 104.712 102.226V99.3903H96.5312Z" fill="#263238"/>
<path d="M96.6328 114.323C96.6328 113.515 97.0555 113.038 97.6441 113.038C98.2327 113.038 98.6554 113.515 98.6554 114.323C98.6554 115.131 98.2273 115.612 97.6441 115.612C97.0609 115.612 96.6328 115.131 96.6328 114.323ZM98.3878 114.323C98.3878 113.648 98.0829 113.252 97.6441 113.252C97.2053 113.252 96.9003 113.627 96.9003 114.323C96.9003 115.018 97.2 115.393 97.6441 115.393C98.0882 115.393 98.4039 115.002 98.4039 114.323H98.3878Z" fill="#263238"/>
<path d="M100.974 114.884C100.974 115.334 100.594 115.612 99.9895 115.612C99.3849 115.612 99.0157 115.334 99.0157 114.884C99.0134 114.741 99.0604 114.601 99.1491 114.488C99.2378 114.375 99.3626 114.296 99.5026 114.264C99.3891 114.227 99.2899 114.156 99.2189 114.06C99.1479 113.964 99.1087 113.848 99.1067 113.729C99.1067 113.317 99.4545 113.06 99.9895 113.06C100.525 113.06 100.883 113.317 100.883 113.729C100.88 113.848 100.84 113.964 100.768 114.06C100.696 114.156 100.596 114.227 100.482 114.264C100.622 114.295 100.748 114.374 100.837 114.487C100.927 114.6 100.975 114.74 100.974 114.884ZM100.707 114.884C100.707 114.574 100.439 114.381 99.9895 114.381C99.5401 114.381 99.2779 114.574 99.2779 114.884C99.2779 115.195 99.5454 115.419 99.9895 115.419C100.434 115.419 100.707 115.195 100.707 114.879V114.884ZM100.011 114.167C100.407 114.167 100.642 113.991 100.642 113.718C100.642 113.445 100.391 113.258 100.011 113.258C99.631 113.258 99.3849 113.429 99.3849 113.713C99.3849 113.996 99.5989 114.167 100.011 114.167Z" fill="#263238"/>
<path d="M102.25 112.546H102.485L101.287 115.949H101.078L102.25 112.546Z" fill="#263238"/>
<path d="M104.288 115.355V115.591H102.512V115.403L103.582 114.376C103.866 114.092 103.919 113.921 103.919 113.75C103.919 113.456 103.716 113.274 103.331 113.274C103.201 113.265 103.071 113.287 102.95 113.336C102.83 113.385 102.722 113.461 102.635 113.557L102.453 113.397C102.567 113.275 102.707 113.179 102.862 113.117C103.018 113.055 103.185 113.028 103.352 113.038C103.887 113.038 104.187 113.295 104.187 113.718C104.181 113.872 104.141 114.023 104.07 114.16C103.999 114.297 103.898 114.417 103.775 114.51L102.913 115.355H104.288Z" fill="#263238"/>
<path d="M106.314 114.842C106.314 115.275 106.015 115.612 105.394 115.612C105.06 115.622 104.736 115.505 104.484 115.286L104.613 115.077C104.716 115.175 104.838 115.252 104.971 115.302C105.104 115.353 105.246 115.376 105.389 115.371C105.822 115.371 106.047 115.163 106.047 114.836C106.047 114.51 105.849 114.301 105.201 114.301H104.666L104.795 113.033H106.181V113.263H105.019L104.934 114.071H105.26C106.025 114.098 106.314 114.397 106.314 114.842Z" fill="#263238"/>
<path d="M97.8161 111.428V111.573H96.7031V110H97.7733V110.149H96.8636V110.685H97.677V110.829H96.8636V111.412L97.8161 111.428Z" fill="#263238"/>
<path d="M99.1682 111.573L98.6652 110.877L98.1301 111.573H97.9375L98.5368 110.765L98.0017 110H98.189L98.6652 110.642L99.1361 110H99.3126L98.7776 110.759L99.3768 111.573H99.1682Z" fill="#263238"/>
<path d="M100.84 110.54C100.84 110.872 100.594 111.075 100.198 111.075H99.7752V111.573H99.6094V110H100.198C100.594 110 100.84 110.203 100.84 110.54ZM100.674 110.54C100.674 110.289 100.508 110.144 100.193 110.144H99.7752V110.931H100.193C100.508 110.931 100.674 110.786 100.674 110.54Z" fill="#263238"/>
<path d="M101.82 110H102.457C102.666 110 102.866 110.083 103.013 110.23C103.161 110.378 103.244 110.578 103.244 110.786C103.244 110.995 103.161 111.195 103.013 111.342C102.866 111.49 102.666 111.573 102.457 111.573H101.82V110ZM102.446 111.428C102.617 111.428 102.78 111.361 102.9 111.24C103.021 111.12 103.088 110.956 103.088 110.786C103.088 110.616 103.021 110.453 102.9 110.332C102.78 110.212 102.617 110.144 102.446 110.144H101.986V111.428H102.446Z" fill="#263238"/>
<path d="M104.521 110.84V111.573H104.366V111.385C104.323 111.452 104.262 111.506 104.19 111.541C104.118 111.576 104.039 111.59 103.959 111.583C103.697 111.583 103.531 111.444 103.531 111.241C103.531 111.038 103.649 110.904 103.986 110.904H104.361V110.834C104.365 110.79 104.36 110.746 104.344 110.704C104.329 110.663 104.304 110.625 104.272 110.595C104.24 110.564 104.202 110.541 104.16 110.528C104.117 110.515 104.073 110.512 104.029 110.519C103.885 110.516 103.744 110.565 103.633 110.658L103.563 110.54C103.7 110.432 103.871 110.375 104.045 110.379C104.108 110.37 104.173 110.375 104.234 110.395C104.295 110.414 104.35 110.448 104.396 110.492C104.443 110.537 104.478 110.591 104.499 110.651C104.521 110.712 104.528 110.776 104.521 110.84ZM104.361 111.214V111.021H103.991C103.761 111.021 103.686 111.112 103.686 111.235C103.686 111.359 103.799 111.455 103.986 111.455C104.065 111.46 104.144 111.441 104.212 111.398C104.279 111.356 104.331 111.293 104.361 111.219V111.214Z" fill="#263238"/>
<path d="M105.584 111.498C105.516 111.557 105.428 111.587 105.338 111.583C105.291 111.588 105.244 111.583 105.2 111.567C105.156 111.552 105.116 111.527 105.083 111.494C105.05 111.462 105.024 111.422 105.008 111.378C104.992 111.334 104.986 111.287 104.99 111.241V110.524H104.781V110.39H104.99V110.149H105.15V110.406H105.509V110.54H105.15V111.219C105.146 111.248 105.149 111.276 105.157 111.304C105.166 111.331 105.18 111.355 105.2 111.376C105.219 111.397 105.244 111.413 105.27 111.423C105.297 111.433 105.325 111.436 105.354 111.434C105.418 111.435 105.48 111.414 105.53 111.375L105.584 111.498Z" fill="#263238"/>
<path d="M106.861 111.032H105.898C105.907 111.148 105.96 111.255 106.047 111.331C106.134 111.408 106.248 111.446 106.364 111.439C106.432 111.442 106.5 111.429 106.563 111.402C106.626 111.376 106.682 111.335 106.728 111.284L106.819 111.391C106.76 111.454 106.689 111.504 106.61 111.537C106.53 111.57 106.444 111.586 106.358 111.583C106.277 111.588 106.196 111.575 106.12 111.547C106.044 111.518 105.975 111.474 105.917 111.417C105.859 111.36 105.814 111.292 105.784 111.216C105.754 111.141 105.74 111.06 105.743 110.979C105.739 110.901 105.75 110.823 105.777 110.751C105.804 110.678 105.846 110.611 105.899 110.555C105.953 110.499 106.018 110.454 106.089 110.424C106.161 110.394 106.238 110.379 106.316 110.379C106.395 110.373 106.474 110.385 106.548 110.413C106.622 110.441 106.689 110.486 106.744 110.543C106.799 110.601 106.84 110.669 106.865 110.745C106.89 110.82 106.898 110.9 106.888 110.979L106.861 111.032ZM105.872 110.909H106.712C106.7 110.806 106.651 110.711 106.573 110.641C106.496 110.572 106.395 110.534 106.292 110.534C106.188 110.534 106.087 110.572 106.01 110.641C105.932 110.711 105.883 110.806 105.872 110.909Z" fill="#263238"/>
<path d="M126.52 113.06V115.591H126.263V113.29H125.664V113.06H126.52Z" fill="#263238"/>
<path d="M128.851 115.355V115.591H127.074V115.403L128.145 114.376C128.428 114.092 128.487 113.921 128.487 113.75C128.487 113.456 128.278 113.274 127.893 113.274C127.764 113.266 127.635 113.287 127.515 113.336C127.396 113.385 127.289 113.461 127.203 113.557L127.016 113.397C127.13 113.275 127.27 113.18 127.425 113.118C127.581 113.056 127.748 113.029 127.915 113.038C128.45 113.038 128.755 113.295 128.755 113.718C128.746 113.872 128.705 114.023 128.633 114.16C128.561 114.296 128.46 114.416 128.337 114.51L127.476 115.355H128.851Z" fill="#263238"/>
<path d="M130.846 114.863C130.846 115.286 130.535 115.612 129.925 115.612C129.592 115.623 129.266 115.506 129.016 115.286L129.144 115.077C129.248 115.176 129.371 115.253 129.505 115.303C129.639 115.354 129.782 115.377 129.925 115.371C130.348 115.371 130.578 115.179 130.578 114.863C130.578 114.547 130.364 114.36 129.893 114.36H129.711V114.167L130.412 113.29H129.117V113.06H130.723V113.242L130.006 114.141C130.573 114.173 130.846 114.456 130.846 114.863Z" fill="#263238"/>
<path d="M125.742 110.786C125.741 110.678 125.761 110.572 125.802 110.472C125.843 110.373 125.904 110.283 125.982 110.207C126.059 110.132 126.15 110.074 126.251 110.035C126.351 109.997 126.459 109.979 126.566 109.983C126.672 109.98 126.778 109.999 126.877 110.038C126.975 110.078 127.065 110.138 127.139 110.214L127.037 110.321C126.976 110.259 126.904 110.211 126.824 110.179C126.744 110.147 126.658 110.131 126.572 110.133C126.481 110.125 126.39 110.136 126.304 110.165C126.218 110.194 126.139 110.24 126.072 110.301C126.005 110.363 125.952 110.437 125.915 110.52C125.879 110.603 125.86 110.693 125.86 110.783C125.86 110.874 125.879 110.964 125.915 111.047C125.952 111.13 126.005 111.204 126.072 111.265C126.139 111.327 126.218 111.373 126.304 111.402C126.39 111.431 126.481 111.442 126.572 111.433C126.658 111.437 126.744 111.422 126.824 111.389C126.905 111.357 126.977 111.308 127.037 111.246L127.139 111.353C127.065 111.431 126.975 111.491 126.875 111.531C126.775 111.571 126.668 111.589 126.561 111.583C126.454 111.588 126.347 111.57 126.248 111.532C126.148 111.494 126.057 111.436 125.98 111.361C125.903 111.286 125.843 111.197 125.802 111.098C125.761 110.999 125.741 110.893 125.742 110.786Z" fill="#263238"/>
<path d="M129.648 110L129.113 111.573H128.937L128.476 110.23L128.016 111.573H127.84L127.305 110H127.476L127.931 111.353L128.402 110H128.557L129.017 111.359L129.477 110H129.648Z" fill="#263238"/>
<path d="M112.48 129.185H111.068L110.763 129.865H110.484L111.64 127.334H111.908L113.063 129.865H112.78L112.48 129.185ZM112.379 128.971L111.779 127.612L111.169 128.971H112.379Z" fill="#263238"/>
<path d="M113.219 128.912C113.215 128.783 113.237 128.654 113.285 128.534C113.333 128.413 113.405 128.304 113.497 128.213C113.589 128.122 113.699 128.051 113.819 128.005C113.94 127.958 114.069 127.938 114.199 127.944C114.345 127.935 114.491 127.966 114.622 128.032C114.753 128.099 114.863 128.2 114.942 128.323L114.755 128.452C114.695 128.365 114.615 128.294 114.522 128.245C114.429 128.196 114.325 128.169 114.22 128.168C114.023 128.168 113.833 128.247 113.694 128.386C113.555 128.526 113.476 128.715 113.476 128.912C113.476 129.109 113.555 129.298 113.694 129.438C113.833 129.577 114.023 129.656 114.22 129.656C114.325 129.655 114.428 129.629 114.521 129.581C114.614 129.533 114.694 129.463 114.755 129.378L114.942 129.506C114.862 129.628 114.751 129.727 114.62 129.793C114.49 129.858 114.344 129.889 114.199 129.881C114.069 129.887 113.94 129.866 113.819 129.819C113.699 129.773 113.589 129.702 113.497 129.611C113.405 129.52 113.333 129.411 113.285 129.291C113.237 129.17 113.215 129.041 113.219 128.912Z" fill="#263238"/>
<path d="M116.469 129.747C116.356 129.839 116.213 129.887 116.067 129.881C115.996 129.885 115.924 129.875 115.857 129.85C115.79 129.824 115.729 129.785 115.679 129.734C115.628 129.684 115.589 129.623 115.563 129.556C115.538 129.489 115.528 129.417 115.532 129.346V128.179H115.195V127.96H115.527V127.542H115.784V127.96H116.367V128.179H115.784V129.313C115.777 129.359 115.781 129.406 115.795 129.45C115.809 129.494 115.833 129.535 115.865 129.568C115.897 129.602 115.936 129.628 115.98 129.644C116.023 129.66 116.07 129.666 116.116 129.661C116.218 129.663 116.319 129.629 116.399 129.565L116.469 129.747Z" fill="#263238"/>
<path d="M116.875 127.36C116.875 127.311 116.895 127.263 116.93 127.228C116.965 127.193 117.013 127.173 117.062 127.173C117.112 127.173 117.16 127.193 117.195 127.228C117.23 127.263 117.25 127.311 117.25 127.36C117.25 127.41 117.23 127.458 117.195 127.493C117.16 127.528 117.112 127.548 117.062 127.548C117.013 127.548 116.965 127.528 116.93 127.493C116.895 127.458 116.875 127.41 116.875 127.36ZM116.934 127.96H117.191V129.865H116.934V127.96Z" fill="#263238"/>
<path d="M117.704 128.912C117.704 128.721 117.76 128.534 117.866 128.375C117.973 128.215 118.123 128.091 118.3 128.018C118.477 127.944 118.671 127.925 118.859 127.962C119.047 127.999 119.219 128.09 119.355 128.225C119.491 128.36 119.583 128.532 119.621 128.72C119.659 128.907 119.641 129.102 119.568 129.279C119.496 129.456 119.373 129.608 119.214 129.715C119.055 129.822 118.869 129.88 118.677 129.881C118.549 129.885 118.421 129.863 118.301 129.816C118.181 129.769 118.072 129.698 117.981 129.607C117.89 129.516 117.818 129.408 117.77 129.288C117.722 129.169 117.7 129.041 117.704 128.912ZM119.378 128.912C119.371 128.774 119.323 128.641 119.241 128.53C119.159 128.419 119.046 128.334 118.916 128.286C118.786 128.239 118.645 128.23 118.511 128.262C118.376 128.294 118.254 128.365 118.159 128.465C118.064 128.566 118.001 128.692 117.977 128.828C117.953 128.964 117.97 129.105 118.025 129.231C118.081 129.358 118.172 129.466 118.288 129.541C118.404 129.617 118.539 129.657 118.677 129.656C118.773 129.657 118.869 129.638 118.957 129.6C119.045 129.563 119.125 129.507 119.191 129.437C119.256 129.367 119.307 129.285 119.339 129.194C119.372 129.104 119.385 129.008 119.378 128.912Z" fill="#263238"/>
<path d="M121.945 128.762V129.864H121.688V128.794C121.699 128.715 121.692 128.635 121.667 128.559C121.643 128.483 121.601 128.413 121.546 128.355C121.491 128.297 121.424 128.252 121.35 128.224C121.275 128.195 121.195 128.183 121.116 128.19C121.025 128.183 120.934 128.196 120.849 128.228C120.764 128.261 120.687 128.311 120.624 128.377C120.56 128.442 120.512 128.521 120.482 128.607C120.453 128.693 120.442 128.784 120.452 128.875V129.875H120.195V127.97H120.441V128.339C120.519 128.22 120.626 128.123 120.753 128.058C120.88 127.993 121.022 127.963 121.164 127.97C121.269 127.963 121.375 127.979 121.474 128.016C121.573 128.053 121.662 128.112 121.736 128.187C121.811 128.262 121.868 128.352 121.904 128.452C121.94 128.551 121.954 128.657 121.945 128.762Z" fill="#263238"/>
<path d="M123.893 127.564V128.559H125.198V128.789H123.893V129.859H123.625V127.328H125.359V127.558L123.893 127.564Z" fill="#263238"/>
<path d="M125.766 127.36C125.766 127.311 125.785 127.263 125.82 127.228C125.856 127.193 125.903 127.173 125.953 127.173C126.003 127.173 126.05 127.193 126.085 127.228C126.12 127.263 126.14 127.311 126.14 127.36C126.14 127.41 126.12 127.458 126.085 127.493C126.05 127.528 126.003 127.548 125.953 127.548C125.903 127.548 125.856 127.528 125.82 127.493C125.785 127.458 125.766 127.41 125.766 127.36ZM125.819 127.96H126.076V129.865H125.819V127.96Z" fill="#263238"/>
<path d="M128.554 127.96V129.634C128.574 129.763 128.563 129.895 128.523 130.019C128.482 130.143 128.413 130.256 128.321 130.348C128.228 130.441 128.116 130.51 127.992 130.55C127.868 130.591 127.736 130.602 127.607 130.581C127.285 130.595 126.97 130.493 126.718 130.293L126.847 130.095C127.057 130.268 127.323 130.361 127.596 130.357C128.078 130.357 128.297 130.132 128.297 129.666V129.41C128.216 129.53 128.106 129.627 127.976 129.691C127.847 129.756 127.703 129.786 127.558 129.779C127.431 129.789 127.304 129.772 127.183 129.73C127.063 129.688 126.952 129.621 126.859 129.535C126.765 129.448 126.691 129.343 126.64 129.226C126.589 129.109 126.562 128.983 126.562 128.856C126.562 128.728 126.589 128.602 126.64 128.485C126.691 128.369 126.765 128.264 126.859 128.177C126.952 128.09 127.063 128.024 127.183 127.982C127.304 127.94 127.431 127.923 127.558 127.933C127.705 127.927 127.851 127.959 127.982 128.025C128.114 128.092 128.226 128.191 128.308 128.313V127.949L128.554 127.96ZM128.308 128.864C128.312 128.72 128.273 128.578 128.196 128.457C128.12 128.335 128.008 128.239 127.877 128.181C127.745 128.123 127.599 128.106 127.458 128.131C127.316 128.157 127.186 128.224 127.083 128.324C126.979 128.424 126.908 128.553 126.879 128.693C126.849 128.834 126.862 128.98 126.916 129.114C126.97 129.247 127.063 129.361 127.182 129.441C127.301 129.522 127.441 129.565 127.585 129.565C127.679 129.571 127.773 129.557 127.861 129.525C127.949 129.493 128.03 129.443 128.098 129.378C128.165 129.313 128.219 129.235 128.255 129.148C128.291 129.062 128.309 128.968 128.308 128.875V128.864Z" fill="#263238"/>
<path d="M130.988 127.96V129.864H130.742V129.517C130.671 129.633 130.57 129.729 130.45 129.793C130.329 129.857 130.194 129.887 130.057 129.881C129.948 129.891 129.838 129.877 129.735 129.839C129.631 129.801 129.538 129.741 129.461 129.662C129.384 129.584 129.326 129.489 129.29 129.385C129.254 129.282 129.242 129.171 129.255 129.062V127.96H129.512V129.03C129.5 129.109 129.507 129.19 129.531 129.267C129.555 129.344 129.596 129.414 129.651 129.473C129.706 129.531 129.773 129.577 129.848 129.606C129.923 129.635 130.004 129.646 130.084 129.64C130.174 129.644 130.264 129.629 130.347 129.595C130.431 129.562 130.506 129.51 130.568 129.444C130.629 129.379 130.676 129.301 130.704 129.215C130.732 129.13 130.742 129.039 130.732 128.95V127.949L130.988 127.96Z" fill="#263238"/>
<path d="M132.651 127.944V128.195H132.586C132.495 128.191 132.405 128.207 132.32 128.242C132.236 128.277 132.161 128.33 132.1 128.398C132.038 128.465 131.993 128.545 131.966 128.632C131.939 128.719 131.932 128.811 131.944 128.901V129.87H131.688V127.965H131.934V128.34C132 128.21 132.104 128.103 132.232 128.032C132.359 127.962 132.505 127.931 132.651 127.944Z" fill="#263238"/>
<path d="M134.793 128.992H133.188C133.193 129.085 133.217 129.176 133.258 129.259C133.298 129.343 133.355 129.418 133.425 129.48C133.494 129.541 133.575 129.588 133.663 129.619C133.751 129.649 133.844 129.661 133.937 129.656C134.047 129.659 134.156 129.638 134.256 129.594C134.357 129.551 134.447 129.486 134.52 129.404L134.665 129.57C134.528 129.713 134.352 129.813 134.159 129.857C133.966 129.901 133.764 129.887 133.579 129.817C133.394 129.746 133.234 129.623 133.119 129.462C133.003 129.301 132.938 129.11 132.931 128.912C132.924 128.786 132.944 128.66 132.988 128.542C133.032 128.424 133.099 128.317 133.187 128.226C133.274 128.135 133.379 128.063 133.495 128.015C133.611 127.966 133.736 127.942 133.862 127.943C133.988 127.941 134.113 127.965 134.229 128.013C134.345 128.061 134.449 128.134 134.536 128.225C134.622 128.316 134.689 128.424 134.732 128.542C134.774 128.661 134.791 128.787 134.782 128.912C134.782 128.912 134.793 128.96 134.793 128.992ZM133.188 128.8H134.536C134.536 128.621 134.465 128.449 134.339 128.323C134.212 128.196 134.041 128.125 133.862 128.125C133.683 128.125 133.512 128.196 133.385 128.323C133.259 128.449 133.188 128.621 133.188 128.8Z" fill="#263238"/>
<path d="M113.616 140.013V141.126H112.626V140.056C111.741 140.029 110.883 139.752 110.148 139.259L110.684 138.05C111.255 138.449 111.921 138.692 112.615 138.756V137.098C111.508 136.825 110.277 136.461 110.277 135.038C110.277 133.968 111.042 133.08 112.615 132.898V131.796H113.605V132.866C114.316 132.906 115.008 133.115 115.622 133.476L115.125 134.695C114.658 134.419 114.142 134.237 113.605 134.16V135.851C114.707 136.108 115.922 136.477 115.922 137.879C115.933 138.933 115.178 139.826 113.616 140.013ZM112.626 135.626V134.225C112.091 134.342 111.887 134.631 111.887 134.958C111.887 135.284 112.187 135.487 112.626 135.626ZM114.333 138.018C114.333 137.67 114.044 137.483 113.616 137.333V138.703C114.113 138.596 114.333 138.339 114.333 138.018Z" fill="#263238"/>
<path d="M121.794 138.623V139.939H116.54V138.896L119.215 136.36C119.836 135.771 119.943 135.418 119.943 135.075C119.943 134.54 119.563 134.214 118.83 134.214C118.551 134.203 118.274 134.261 118.023 134.382C117.772 134.504 117.555 134.685 117.391 134.91L116.219 134.155C116.536 133.727 116.954 133.385 117.436 133.159C117.918 132.933 118.448 132.83 118.98 132.86C120.531 132.86 121.564 133.658 121.564 134.92C121.564 135.594 121.372 136.21 120.398 137.114L118.792 138.623H121.794Z" fill="#263238"/>
<path d="M122.445 136.461C122.445 134.166 123.719 132.86 125.426 132.86C127.133 132.86 128.406 134.166 128.406 136.461C128.406 138.757 127.143 140.057 125.426 140.057C123.708 140.057 122.445 138.757 122.445 136.461ZM126.79 136.461C126.79 134.856 126.255 134.225 125.426 134.225C124.596 134.225 124.077 134.877 124.077 136.461C124.077 138.045 124.612 138.693 125.426 138.693C126.239 138.693 126.769 138.04 126.769 136.461H126.79Z" fill="#263238"/>
<path d="M129.188 136.461C129.188 134.166 130.461 132.86 132.168 132.86C133.875 132.86 135.148 134.166 135.148 136.461C135.148 138.757 133.885 140.057 132.168 140.057C130.45 140.057 129.188 138.757 129.188 136.461ZM133.527 136.461C133.527 134.856 132.992 134.225 132.168 134.225C131.344 134.225 130.814 134.877 130.814 136.461C130.814 138.045 131.349 138.693 132.168 138.693C132.987 138.693 133.527 138.04 133.527 136.461Z" fill="#263238"/>
<path d="M133.796 157.647H111.612C110.236 157.646 108.917 157.099 107.944 156.126C106.971 155.153 106.423 153.834 106.422 152.458C106.422 151.081 106.969 149.76 107.942 148.786C108.915 147.812 110.235 147.264 111.612 147.263H133.796C134.478 147.263 135.154 147.397 135.784 147.658C136.414 147.919 136.986 148.302 137.468 148.785C137.95 149.267 138.332 149.84 138.593 150.47C138.853 151.1 138.987 151.776 138.986 152.458C138.986 153.834 138.44 155.154 137.466 156.127C136.493 157.1 135.173 157.647 133.796 157.647Z" fill="#263238"/>
<path d="M115.587 151.88C115.587 152.533 115.116 152.923 114.34 152.923H113.516V153.886H113.195V150.836H114.34C115.116 150.858 115.587 151.248 115.587 151.88ZM115.261 151.88C115.261 151.393 114.94 151.115 114.33 151.115H113.516V152.64H114.33C114.94 152.661 115.261 152.383 115.261 151.88Z" fill="white"/>
<path d="M117.929 152.484V153.908H117.634V153.549C117.548 153.677 117.429 153.78 117.29 153.847C117.151 153.914 116.996 153.942 116.843 153.929C116.307 153.929 116.008 153.662 116.008 153.26C116.008 152.859 116.233 152.613 116.891 152.613H117.618V152.474C117.618 152.083 117.399 151.869 116.971 151.869C116.692 151.865 116.421 151.96 116.206 152.137L116.067 151.907C116.333 151.697 116.664 151.587 117.003 151.596C117.125 151.578 117.25 151.589 117.368 151.627C117.486 151.664 117.594 151.729 117.683 151.814C117.772 151.9 117.841 152.005 117.883 152.121C117.926 152.237 117.941 152.361 117.929 152.484ZM117.618 153.218V152.843H116.901C116.457 152.843 116.313 153.02 116.313 153.255C116.313 153.49 116.527 153.688 116.891 153.688C117.046 153.698 117.201 153.658 117.332 153.573C117.463 153.488 117.564 153.364 117.618 153.218Z" fill="white"/>
<path d="M120.654 151.612L119.509 154.181C119.316 154.63 119.075 154.775 118.749 154.775C118.546 154.774 118.35 154.696 118.203 154.555L118.348 154.325C118.401 154.381 118.466 154.426 118.538 154.456C118.61 154.487 118.687 154.502 118.765 154.502C118.974 154.502 119.113 154.405 119.241 154.116L119.343 153.892L118.315 151.602H118.642L119.503 153.555L120.343 151.612H120.654Z" fill="white"/>
<path d="M123.263 153.929V154.432H123.043V153.935C122.659 153.932 122.289 153.791 122 153.539L122.128 153.287C122.381 153.513 122.705 153.643 123.043 153.656V152.511C122.562 152.394 122.075 152.244 122.075 151.666C122.075 151.249 122.375 150.885 123.043 150.837V150.334H123.263V150.81C123.576 150.815 123.882 150.908 124.146 151.077L124.039 151.334C123.805 151.188 123.538 151.102 123.263 151.083V152.238C123.755 152.356 124.274 152.495 124.274 153.078C124.274 153.523 123.953 153.892 123.263 153.929ZM123.043 152.206V151.136C122.594 151.174 122.391 151.404 122.391 151.671C122.391 151.939 122.685 152.11 123.043 152.206ZM123.953 153.121C123.953 152.773 123.637 152.656 123.263 152.586V153.656C123.739 153.619 123.953 153.4 123.953 153.121Z" fill="white"/>
<path d="M126.799 153.63V153.908H124.659V153.688L125.927 152.442C126.269 152.105 126.334 151.907 126.334 151.687C126.334 151.334 126.087 151.12 125.622 151.12C125.467 151.112 125.312 151.138 125.167 151.197C125.023 151.255 124.894 151.344 124.787 151.457L124.562 151.265C124.699 151.12 124.866 151.006 125.05 150.931C125.235 150.856 125.434 150.822 125.633 150.831C126.248 150.831 126.644 151.147 126.644 151.655C126.636 151.841 126.587 152.023 126.5 152.188C126.413 152.353 126.29 152.496 126.141 152.608L125.103 153.63H126.799Z" fill="white"/>
<path d="M127.164 152.383C127.164 151.409 127.672 150.831 128.379 150.831C129.085 150.831 129.599 151.409 129.599 152.383C129.599 153.357 129.064 153.934 128.379 153.934C127.694 153.934 127.164 153.357 127.164 152.383ZM129.278 152.383C129.278 151.569 128.914 151.12 128.379 151.12C127.844 151.12 127.48 151.569 127.48 152.383C127.48 153.196 127.849 153.646 128.379 153.646C128.908 153.646 129.278 153.196 129.278 152.383Z" fill="white"/>
<path d="M130.062 152.383C130.062 151.409 130.598 150.831 131.282 150.831C131.967 150.831 132.502 151.409 132.502 152.383C132.502 153.357 131.967 153.934 131.282 153.934C130.598 153.934 130.062 153.357 130.062 152.383ZM132.203 152.383C132.203 151.569 131.839 151.12 131.309 151.12C130.78 151.12 130.41 151.569 130.41 152.383C130.41 153.196 130.774 153.646 131.309 153.646C131.844 153.646 132.176 153.196 132.176 152.383H132.203Z" fill="white"/>
<path d="M89.1396 141.308C89.9423 153.64 84.2277 167.373 84.2277 167.373L53.3594 158.685L47.9766 157.166C53.3273 149.734 55.8742 135.097 54.4777 123.252C54.3707 122.358 54.3065 121.518 54.2583 120.716C53.7232 110.946 57.7844 108.09 61.2142 103.772C64.9597 99.0961 73.2962 81.441 73.2962 77.2626C73.2962 73.0842 83.7568 62.8549 81.4293 51.2453C81.4293 51.2453 84.5915 49.2818 87.7699 50.8922C89.2146 51.6198 90.6539 53.0804 91.815 55.7875C94.5385 62.1487 90.7128 80.1302 87.4595 84.5387L81.1938 110.476C81.1938 110.476 83.3074 114.119 85.3834 120.732C87.4472 127.417 88.7081 134.325 89.1396 141.308Z" fill="white"/>
<path opacity="0.4" d="M54.2657 120.716C56.0154 125.504 57.8721 128.741 57.7116 135.45C57.551 142.159 53.9661 152.484 54.988 157.85C54.4042 158.023 53.8591 158.306 53.3828 158.685L48 157.166C53.3507 149.734 55.8977 135.097 54.5011 123.252C54.3781 122.358 54.3138 121.518 54.2657 120.716Z" fill="#F39551"/>
<path opacity="0.4" d="M87.4646 84.5386L81.199 110.476C81.199 110.476 83.3125 114.119 85.3886 120.732C81.1454 113.894 77.5391 111.851 77.5391 111.851C80.3642 108.464 82.542 83.6933 82.542 83.6933C82.542 83.6933 91.3974 73.2875 90.5681 62.4001C90.3019 58.4327 89.3572 54.5403 87.775 50.8922C89.2197 51.6198 90.659 53.0804 91.8201 55.7875C94.5436 62.1487 90.7179 80.1302 87.4646 84.5386Z" fill="#F39551"/>
<path d="M47.9766 157.166C53.3273 149.734 55.8742 135.097 54.483 123.252C53.0918 111.407 57.5008 108.443 61.2196 103.767C64.9383 99.0908 73.2962 81.441 73.2962 77.2573C73.2962 73.0735 83.7515 62.8603 81.4293 51.2453C81.4293 51.2453 88.1016 47.1097 91.815 55.7875C94.5385 62.1541 90.7128 80.1302 87.4595 84.544L81.1992 110.476C81.1992 110.476 87.8822 122.005 89.1396 141.308C89.9423 153.64 84.2277 167.379 84.2277 167.379" stroke="#263238" stroke-linecap="round" stroke-linejoin="round"/>
<path d="M68.6094 177.244C68.6094 177.244 75.6349 181.567 79.7335 188.405" stroke="#263238" stroke-linecap="round" stroke-linejoin="round"/>
<path d="M88.3417 185.425C88.3417 185.425 82.29 186.286 76.8216 179.743C73.3169 175.554 62.6743 173.66 60.2344 162.703" stroke="#263238" stroke-linecap="round" stroke-linejoin="round"/>
<path opacity="0.2" d="M176.295 217.824C160.805 210.414 170.185 204.476 148.873 195.279C127.561 186.082 127.347 178.223 129.915 160.151C132.484 142.078 130.45 122.856 136.647 121.224C142.843 119.592 131.799 94.6662 139.022 85.8546L174.572 154.999L176.295 217.824Z" fill="black" fill-opacity="0.7"/>
<path d="M234.011 217.102C233.283 215.021 232.545 212.747 231.972 210.682C231.234 208.007 230.656 205.867 229.297 203.379C229.083 202.983 228.853 202.566 228.596 202.117C227.146 199.533 225.161 195.996 224 191.652C223.218 188.726 224 181.519 224.727 174.532C225.262 169.514 225.749 164.779 225.605 162.093L225.562 161.141C225.198 154.116 224.438 139.5 222.887 135.46C221.362 131.566 219.938 130.982 217.343 129.945C217.076 129.827 216.808 129.72 216.498 129.591C215.524 129.185 213.865 128.329 211.955 127.339C207.648 125.108 202.286 122.331 199.563 121.989C197.015 121.703 194.438 121.822 191.927 122.342C188.572 119.769 182.863 116.457 181.162 116.388C179.771 116.318 176.731 117.19 175.276 117.645L174.543 117.88C173.621 117.165 172.644 116.525 171.621 115.965C171.552 115.927 171.482 115.901 171.423 115.874C169.535 115.098 166.683 115.071 165.126 115.114C164.655 115.114 164.286 115.162 164.12 115.178C161.182 110.658 158.293 106.158 157.035 104.184C154.413 100.032 146.296 82.9498 146.216 82.7839C146.207 82.7619 146.192 82.7426 146.173 82.7276C146.155 82.7127 146.133 82.7026 146.109 82.6983C146.084 82.6949 146.059 82.6949 146.034 82.6983C145.403 82.5164 140.753 81.334 138.886 85.8388C136.842 90.7448 139.758 101.514 142.604 105.425C143.974 107.309 147.714 114.991 151.508 122.941C150.534 123.846 142.744 131.041 138.961 132.384C135.863 133.481 136.59 149.36 137.173 162.109C137.393 166.817 137.575 170.867 137.521 173.301C137.414 178.009 145.981 184.494 154.285 190.764C161.776 196.446 169.545 202.315 170.455 206.579C170.706 207.777 171.423 208.751 172.279 209.848C173.708 211.667 175.549 213.812 176.33 217.873C176.56 219.092 178.518 220.687 180.075 223.292H236.279C235.809 222.024 234.92 219.713 234.011 217.102ZM156.067 132.518C158.79 138.221 160.476 141.613 160.882 141.993C161.289 142.373 161.262 144.181 161.252 145.941C161.193 147.482 161.247 149.025 161.412 150.558C160.749 151.141 156.559 154.956 155.714 158.048L152.155 153.859L151.257 140.714C151.792 140.147 155.451 136.279 156.067 132.518Z" fill="white"/>
<path opacity="0.4" d="M217.88 169.166C219.202 181.498 219.218 188.185 220.7 191.754C223.204 197.778 226.891 198.998 226.891 198.998C225.665 196.663 224.691 194.204 223.985 191.663C223.21 188.736 223.985 181.53 224.713 174.543C225.248 169.524 225.741 164.784 225.601 162.098L225.553 161.146C225.189 154.127 224.43 139.51 222.878 135.466C221.358 131.571 219.93 130.988 217.335 129.945C217.067 129.832 216.799 129.725 216.489 129.597C215.515 129.19 213.862 128.334 211.946 127.344C207.639 125.113 202.278 122.337 199.554 121.994C197.006 121.705 194.429 121.824 191.919 122.347C188.564 119.774 182.855 116.462 181.153 116.393C179.762 116.323 175.99 117.42 174.523 117.886C180.944 123.123 190.19 129.656 190.19 129.656C197.505 131.111 196.568 134.283 199.527 136.076C202.203 137.681 204.76 132.983 207.018 132.571C209.972 132.036 213.327 135.15 213.177 138.927C212.717 149.333 216.746 158.578 217.88 169.166Z" fill="#F39551"/>
<path opacity="0.4" d="M180.921 130.95C180.921 130.95 175.126 126.135 172.36 124.53C169.593 122.925 169.149 117.393 171.332 116.05C171.415 116.001 171.509 115.971 171.605 115.965L171.407 115.874C169.518 115.098 166.666 115.066 165.109 115.114C168.32 121.09 170.883 125.675 171.573 126.681C173.901 130.041 180.921 130.95 180.921 130.95Z" fill="#F39551"/>
<path opacity="0.4" d="M172.119 205.83C172.366 204.551 170.257 200.806 169.332 199.286C167.229 195.82 142.814 174.248 146.35 168.492C149.887 162.735 153.119 166.994 155.356 167.368C156.961 167.636 161.37 165.009 161.348 164.789C160.845 160.354 164.939 157.47 164.939 157.47C164.939 157.47 164.564 139.815 163.622 140.115C162.681 140.415 151.412 113.605 151.412 113.605C151.412 113.605 139.501 97.7693 140.176 90.3809C140.85 82.9925 146.019 82.8641 146.019 82.8641V82.6661C145.387 82.4842 140.737 81.3018 138.87 85.8066C136.826 90.7126 139.742 101.482 142.589 105.393C143.959 107.276 147.699 114.959 151.492 122.909C150.519 123.813 142.728 131.009 138.945 132.352C135.847 133.449 136.575 149.328 137.158 162.077C137.377 166.785 137.559 170.835 137.506 173.269C137.399 177.977 145.965 184.461 154.269 190.732C161.76 196.413 169.53 202.282 170.439 206.546C170.691 207.745 171.408 208.719 172.264 209.815C172.093 208.494 172.045 207.16 172.119 205.83ZM156.067 132.534C158.791 138.237 160.476 141.629 160.883 142.009C161.29 142.389 161.263 144.197 161.252 145.957C161.193 147.498 161.247 149.041 161.413 150.574C160.749 151.157 156.56 154.972 155.714 158.064L152.156 153.875L151.257 140.73C151.792 140.147 155.452 136.279 156.067 132.518V132.534Z" fill="#F39551"/>
<path d="M177.593 130.881C175.202 130.129 173.101 128.656 171.579 126.665C169.133 123.391 159.529 108.475 156.87 104.27C154.21 100.065 146.024 82.8641 146.024 82.8641C146.024 82.8641 140.994 81.1788 139.036 85.8762C137.077 90.5735 139.758 101.188 142.738 105.275C145.719 109.363 159.882 140.837 161.006 141.854C162.129 142.87 160.444 151.27 162.697 153.303" stroke="#263238" stroke-linecap="round" stroke-linejoin="round"/>
<path d="M161.609 150.633C161.609 150.633 156.419 155.154 155.809 158.455L151.957 153.923L151.047 140.645C151.047 140.645 155.697 135.99 155.953 131.849" stroke="#263238" stroke-linecap="round" stroke-linejoin="round"/>
<path d="M151.706 122.925C151.706 122.925 143.086 131.057 138.987 132.507C134.889 133.957 137.88 164.426 137.676 173.248C137.473 182.07 168.684 197.441 170.599 206.472C171.359 210.067 174.505 210.8 176.426 217.707" stroke="#263238" stroke-linecap="round" stroke-linejoin="round"/>
<path d="M163.984 115.355C163.984 115.355 168.677 114.932 171.32 116.034C173.963 117.137 184.697 126.355 187.287 128.115C189.877 129.875 193.772 130.544 194.51 132.443" stroke="#263238" stroke-linecap="round" stroke-linejoin="round"/>
<path d="M174.469 118.073C174.469 118.073 179.284 116.468 181.125 116.559C182.966 116.65 189.89 120.732 192.993 123.46C195.371 125.57 198.11 127.234 201.078 128.372" stroke="#263238" stroke-linecap="round" stroke-linejoin="round"/>
<path d="M191.859 122.535C194.372 121.994 196.957 121.869 199.511 122.166C203.428 122.701 213.262 128.479 216.398 129.784C219.533 131.089 221.031 131.33 222.68 135.546C224.328 139.762 225.082 155.791 225.414 162.125C225.745 168.459 222.444 186.601 223.809 191.705C225.173 196.809 227.634 200.747 229.127 203.476" stroke="#263238" stroke-linecap="round" stroke-linejoin="round"/>
<path d="M151.054 140.645C151.054 140.645 150.305 137.515 149.234 137.114" stroke="#263238" stroke-linecap="round" stroke-linejoin="round"/>
<path d="M151.953 153.923C152.314 155.748 152.802 157.544 153.414 159.3C154.184 161.2 152.986 163.949 152.986 163.949" stroke="#263238" stroke-linecap="round" stroke-linejoin="round"/>
<path d="M155.816 158.455C155.693 161.494 158.716 165.047 159.449 164.544" stroke="#263238" stroke-linecap="round" stroke-linejoin="round"/>
<path d="M171.203 140.645C171.203 140.645 174.451 135.391 177.565 135.134C180.679 134.877 184.275 139.296 186.196 138.879C188.117 138.462 190.535 135.637 193.767 135.134C196.999 134.631 198.513 136.172 201.076 136.3C203.639 136.429 203.901 133.005 206.962 132.555C210.023 132.106 211.066 133.625 213.121 134.021C215.175 134.417 215.689 132.796 217.353 131.881" stroke="#263238" stroke-linecap="round" stroke-linejoin="round"/>
</svg>
