<svg width="92" height="100" viewBox="0 0 92 100" fill="none" xmlns="http://www.w3.org/2000/svg">
<path d="M8.30517 89.8388C23.0161 100.204 87.4684 88.0864 91.6716 64.9605C95.8748 41.8345 58.6821 -2.79685 39.8297 0.137901C20.9773 3.07266 -6.40579 79.474 8.30517 89.8388Z" fill="url(#paint0_linear_6243_18351)"/>
<path d="M84.666 25.3659C72.6825 5.39335 12.0032 8.99793 2.70321 25.3659C-6.59677 41.7339 8.46257 100 42.2833 100C76.1039 100 96.6495 45.3385 84.666 25.3659Z" fill="#E7E7E7"/>
<path d="M30.1773 35.6466H58.9144C59.25 35.6464 59.5854 35.6679 59.9184 35.7109C59.8055 34.9119 59.5334 34.1444 59.1184 33.4544C58.7033 32.7644 58.1541 32.1663 57.5036 31.6961C56.8532 31.226 56.1151 30.8936 55.3338 30.7188C54.5525 30.5441 53.7443 30.5308 52.9577 30.6796L29.3242 34.7482H29.2972C27.8137 35.0343 26.4945 35.8807 25.609 37.1145C26.9431 36.1576 28.5401 35.6444 30.1773 35.6466ZM58.9144 37.8199H30.1773C28.6535 37.8216 27.1926 38.4327 26.1151 39.5192C25.0376 40.6058 24.4315 42.0789 24.4299 43.6155V61.0023C24.4315 62.5388 25.0376 64.012 26.1151 65.0985C27.1926 66.185 28.6535 66.7962 30.1773 66.7978H58.9144C60.4382 66.7962 61.8991 66.185 62.9766 65.0985C64.054 64.012 64.6601 62.5388 64.6618 61.0023V43.6155C64.6601 42.0789 64.054 40.6058 62.9766 39.5192C61.8991 38.4327 60.4382 37.8216 58.9144 37.8199ZM54.6487 55.2067C54.0803 55.2067 53.5247 55.0367 53.0522 54.7183C52.5796 54.3999 52.2112 53.9473 51.9937 53.4178C51.7762 52.8883 51.7193 52.3057 51.8302 51.7435C51.9411 51.1814 52.2148 50.6651 52.6167 50.2598C53.0186 49.8546 53.5306 49.5786 54.0881 49.4668C54.6455 49.3549 55.2233 49.4123 55.7484 49.6317C56.2735 49.851 56.7223 50.2224 57.0381 50.6989C57.3539 51.1755 57.5224 51.7357 57.5224 52.3089C57.5224 53.0774 57.2196 53.8145 56.6807 54.3579C56.1418 54.9014 55.4109 55.2067 54.6487 55.2067Z" fill="#564063"/>
<defs>
<linearGradient id="paint0_linear_6243_18351" x1="39.0762" y1="-24.7608" x2="39.0762" y2="124.81" gradientUnits="userSpaceOnUse">
<stop stop-color="#36283E"/>
<stop offset="1" stop-color="#B29CBF"/>
</linearGradient>
</defs>
</svg>
